<svg xmlns="http://www.w3.org/2000/svg" viewBox="0 0 1160.98 838.83"><defs><style>.cls-1{fill:#9f6524;}.cls-2{fill:#c68130;}.cls-3{fill:#d6953a;}.cls-4{fill:#d8dab8;}.cls-5{fill:#d74b2f;}.cls-6{fill:#27626e;}.cls-7{fill:#051e1e;}.cls-8{fill:#1e525a;}.cls-9{fill:#377e83;}.cls-10{fill:#fff;}</style></defs><title>Asset 26</title><g id="Layer_2" data-name="Layer 2"><g id="Layer_1-2" data-name="Layer 1"><path class="cls-1" d="M830.67,67.71C971,57.08,986,115.11,1102.44,159.81c88.29,33.88,68.59,108.84-5.13,99.19-44.15-5.77-85.35-3.55-108.68,24.66C988.63,283.66,880.54,150.85,830.67,67.71Z"/><path class="cls-1" d="M976.49,111.75c58.88,9.11,77.19,16.7,77.19,16.7S986.4,101.87,970.8,94.64s-64.17-22.89-64.17-22.89l-6.15,7.72Z"/><path class="cls-2" d="M846.23,89C790.79,38.66,523.18-55.79,339.42,43.8S0,489.87.29,624.87c0,0-17.46,187.87,219.7,187.87H694.18c22.83,0,45.4-6.31,64.22-19.22,24.26-16.64,55.23-28.76,54.38-84.95-.33-22-108.26-77.12-105.88-121.6.39-7.18,10.52-85.94,11-93.51,1.07-18.56,96.23,13.2,97.56-7.12C827.25,304.69,846.23,89,846.23,89Z"/><path class="cls-1" d="M762.17,793.52c24.25-16.64,55.23-28.76,54.38-84.95-.34-22-108.27-77.12-105.88-121.6.07-1.36.5-5.33,1.14-10.89A230.74,230.74,0,0,0,675,601.56C656,565.48,629.33,535.7,592.6,516,375.51,399.44,303.31,704.43,327.37,812.74H698C720.77,812.74,743.35,806.43,762.17,793.52Z"/><path class="cls-3" d="M410.32,302.7s-32.82,64.65-30.18,114.53c0,0-33.73-97.27,6-162.71S410.32,302.7,410.32,302.7Z"/><path class="cls-2" d="M886,95.39s76.66-3.84,167.68,63.92c0,0-52.35-13.35-80.76,14.37S936.31,114.62,886,95.39Z"/><path class="cls-2" d="M983,168.88s6.59-10.78,33-6.52a47.14,47.14,0,0,0-26.41-13.92C973.19,146,983,168.88,983,168.88Z"/><path class="cls-3" d="M408.5,275.88S365,333.87,359,383.46c0,0-16.4-101.64,34.05-159.22S408.5,275.88,408.5,275.88Z"/><path class="cls-4" d="M592.6,548.79s-50.94,20.71-76.94,51.48-82.14,105.36-67.08,212.47H698s43.26-11.87,79-42.09,9.38-108.8,9.38-108.8Z"/><path d="M897.22,512.45s15.4,95.48,52.36,134.49S1000.5,707,994.8,734.72,893.63,765,893.63,765l-52.36-21-77-100.1-83.67-88.8,106.77-98Z"/><path class="cls-5" d="M956.76,173c88.29,8.38,110.88,20.61,145.78,22.71s52.58,11.12,52.36,28-25.78,39-72.43,29.28-112.63,7.19-112.63,7.19Z"/><path d="M956.76,186.46c79.83,5.84,100.25,14.37,131.81,15.83s47.53,7.75,47.33,19.54-23.31,27.18-65.48,20.41-101.83,5-101.83,5Z"/><path class="cls-5" d="M771.29,523.65s66.13,17.76,66.13,80c0,50.44,57.68,55.95,79.25,36,13.66-12.62-11.09-64.39-11-77.74s-23.53-26.3-23.53-26.3l-102.5-48.55S755.2,505.92,771.29,523.65Z"/><path class="cls-6" d="M800.37,498.25s-7.87,50-1.37,60.57,12,25.5,9.24,28.15l21.67,46.11s27.61,24.64,29.32,28.06,7.53,26.5,19.51,26.94,22.33,12.74,31.35,13.61,38.17-1.53,38.17-1.53,27.78-3.95,29-12.08,3.05-5.74,3.05-5.74S994,685,997,708.37s-81,17.79-81,17.79-64-8.21-66-9.58S748,571.49,748,571.49L737.07,514l53-33.53Z"/><path d="M759.14,506.29S745.28,579.7,831,668.5c0,0,19,53.9,83.67,47.23s58.38.81,74.09-11.3c0,0,7.73-5.9,8.24-3.33s13.76,26.43-1.17,33.62-114.74,15.4-114.74,15.4l-38.8-9.75L766.84,647.2,680.6,580.72Z"/><path class="cls-7" d="M796.78,531.09c14.05,3.82,29,22.43,33.77,30.9s9.47,20.1,11.2,39.61,8.6,38.29,35.45,41.91c-15.91-2.39-32.49-15.94-31.45-43.54,1.06-28.29-5.53-58.11-48.29-76.32Z"/><path class="cls-7" d="M798.88,527.17s45.76,16.77,49.72,48.42,5.73,46,12.69,49.79c0,0-7-4.71-7.52-23.61-.32-12.84-.14-39.42-8.52-49.14s-19.41-18.31-23.41-20.6S798,514.51,798,514.51l-.95,13.34Z"/><path class="cls-6" d="M842.23,526.66s13.69,46.73,41.49,45.85,19.75-4.42,32.33-3,72.88,9.9,103.34-6.53l13.34-3.08s21.22-2.05,21.56-25.67l-41-26.69Z"/><path class="cls-8" d="M893,535.48s18.34,6.9,17.14,17.15c0,0,16.57-5.26,22.11,0,0,0,20.43-6,26,1.49,0,0,11.51-9.34,22.19-1.49,0,0,13.67-8.47,23.51-3.84,0,0,8.69-13.13,21.78-13.23a151.16,151.16,0,0,1,21.68,1.21v-6.22l-13.08-13.73H937l-41.44,3.86Z"/><path d="M983,564.17c6.53-5.13,19.28-6,23.52-3.37C1006.56,560.8,994.65,548.43,983,564.17Z"/><path d="M1014.69,546.93c6.53-5.14,19.28-6,23.51-3.37C1038.2,543.56,1026.29,531.19,1014.69,546.93Z"/><path d="M906.91,564.65c7.27-4,20-2.86,23.75.46C930.66,565.11,920.89,551,906.91,564.65Z"/><path d="M871.85,546.52c7.27-4,20-2.86,23.75.46C895.6,547,885.84,532.85,871.85,546.52Z"/><path d="M957.79,566c6.36-3.69,17.65-2.92,21,0C978.82,565.94,969.9,553.62,957.79,566Z"/><path d="M934.93,564.83c5.68-3.79,15.65-3.21,18.59-.4C953.52,564.43,945.84,552.29,934.93,564.83Z"/><path class="cls-3" d="M778.81,495.65c15.45,26.57,45.39,50.25,112.93,47.09,117-5.48,118.41-2.74,132.78-30.11s14.37-85.56,14.37-85.56-8.19,54.31-17.55,91.41c-4.79,19,45.79,27.41,64.44,5.17,15.56-18.56,28.06-63.73-11-83.57-37.54-19.1-10.61-13-10.61-13A140,140,0,0,0,1049.45,405a20.91,20.91,0,0,1-4.31-19.16c6.6-23.65,15.91-84.48-22.84-177.27C971.48,86.92,852.31,52,731.72,57.66s-233,1-271.5,74.43c0,0-152,211.48-47.23,318.25s313.12,151.94,371.64,230S860.6,788.1,913,788.1s81.15-33.87,81.15-53.38c0,0-37.64-5.46-106.42,4.81S836.3,702.89,743.53,614.6C689.73,563.41,778.81,495.65,778.81,495.65Z"/><path d="M685.73,275.3c20.11-.49,66.44-2.38,96.5,29.21a4.32,4.32,0,0,1-1.59,7C761.51,318.73,700,336.65,685.73,275.3Z"/><circle class="cls-9" cx="733.43" cy="295.47" r="11.81"/><circle class="cls-5" cx="733.43" cy="295.47" r="11.81"/><circle class="cls-10" cx="733.43" cy="289.23" r="3.94"/><path d="M1034.66,281.84c-14.93-.41-39.46-2-61,23.93a5.16,5.16,0,0,0,1.78,8C989.25,320.25,1024.5,331.44,1034.66,281.84Z"/><circle class="cls-5" cx="1005.21" cy="298.75" r="9.39"/><circle class="cls-10" cx="1005.21" cy="293.79" r="3.56"/><path class="cls-1" d="M584.83,67.71c-140.35-10.63-154,50.88-271.76,92.1-89,31.14-82.82,109.85,5.13,99.19,44.2-5.35,85.35-3.55,108.68,24.66C426.88,283.66,535,150.85,584.83,67.71Z"/><path class="cls-3" d="M590.09,82.5s-32-28.94-154.54,32.25C333.28,165.8,316.15,173,316.15,173s50.61-14.44,60-12.57-9.39,14.66-9.39,14.66-32.44,62.7,9.39,72.16c57.33,13,33.28,44.22,34.15,55.46,2.74,35.41,63.46-46.19,63.46-46.19H659.36l2.73-97.94Z"/><path class="cls-4" d="M890.59,551.06c-8.43-5.94-20.22.55-19.66,10.66.85,15.2,3,42.93,7.74,53.56,6.67,15,10.78-35.44,25.67-49.91C904.34,565.37,898.32,556.51,890.59,551.06Z"/><path class="cls-4" d="M892.71,697.49c-6,7.19-18,4.68-19.93-4-3-13.11-7.9-37.18-6.33-47.41,1.79-11.71,12.69,13.68,25.66,28.15a17.86,17.86,0,0,1,.76,23.1Z"/><path class="cls-4" d="M962.2,697.49c6,7.19,17.94,4.68,19.92-4,3-13.11,7.9-37.18,6.34-47.41-1.79-11.71-12.7,13.68-25.67,28.15a17.87,17.87,0,0,0-.76,23.1Z"/><path class="cls-4" d="M1022.49,549c6.73-5.15,16.15.47,15.7,9.22-.68,13.16-2.4,37.16-6.18,46.35-4.93,12-8.1-24.42-18-39.87a6.51,6.51,0,0,1,.43-7.48A46.53,46.53,0,0,1,1022.49,549Z"/><path class="cls-4" d="M930.41,569.19c-5.81-5.48-21.9-5.82-22.92,0s2,26.29,6.84,26.17C918.62,595.25,921.52,572.61,930.41,569.19Z"/><path class="cls-4" d="M962.34,574.46a6.5,6.5,0,0,1,6.92-8.43c5.85.66,11.23,3.17,11.08,6.64-.25,5.9-7.68,25.23-12.33,24.08C964.9,596,965.26,583.12,962.34,574.46Z"/><path class="cls-4" d="M915,699.45a4,4,0,0,1-1.89,6.51c-3.51,1-7.2.93-8-1.09-1.3-3.44-1.77-16.3,1.17-16.78C908.31,687.77,911.25,695.21,915,699.45Z"/><path class="cls-4" d="M941.26,699.48a4,4,0,0,0,1.9,6.52c3.52,1.06,7.22.94,8-1.09,1.3-3.44,1.77-16.34-1.18-16.82C948,687.77,945.05,695.23,941.26,699.48Z"/><path class="cls-4" d="M931.56,701.43a4,4,0,0,0,4.21,5.34c3.65-.34,7-1.84,7-4-.09-3.68-4.49-15.82-7.4-15.16C933.42,688.06,933.48,696.07,931.56,701.43Z"/><path class="cls-4" d="M927.25,701.43a4.06,4.06,0,0,1-4.21,5.34c-3.66-.34-7-1.84-7-4,.08-3.68,4.48-15.82,7.39-15.16C925.39,688.06,925.32,696.07,927.25,701.43Z"/><path class="cls-4" d="M937.37,574.46a6.51,6.51,0,0,1,6.92-8.43c5.86.66,11.24,3.17,11.09,6.64-.26,5.9-7.68,25.23-12.34,24.08C939.94,596,940.3,583.12,937.37,574.46Z"/><path class="cls-4" d="M984.46,567.47c5.82-5.47,21.91-5.81,22.93,0s-2,26.3-6.84,26.17C996.26,593.54,993.36,570.9,984.46,567.47Z"/><path class="cls-4" d="M777,550.59c-.1-3.7,2.42-7.33,6.11-7.64,4.41-.36,7.09,4.12,8.56,13.16,2,12.65,15.74,18.67,10.27,26.89C796.63,590.91,778.05,590.19,777,550.59Z"/><path class="cls-4" d="M803.79,595.84c9.7-3,14.29.31,15.4,9.4s15.76,15.33,8.9,20.22S799.27,626.62,803.79,595.84Z"/><path class="cls-4" d="M835.38,639.21c6.48-3,10-1.12,11.62,5.11s12.43,9.22,8.1,13.27S835.11,661.1,835.38,639.21Z"/><path class="cls-1" d="M678.7,280.25c12.32,28.23,31.06,62.62,109.47,33.87-2,.71-38.63,22.2-70.1,13.12C701.59,322.49,686.11,310.6,678.7,280.25Z"/><path class="cls-1" d="M1040.85,281.86c-8.34,26.44-21,58.64-74.09,31.72,1.3.65,25.52,19.17,46.53,12C1025,321.64,1035.64,311.38,1040.85,281.86Z"/><path class="cls-5" d="M391.6,248.61c46.86,4.18,104.89-3.59,158.28-14.54s69.81-34.67,69.81-34.67-16.43-35.14-84.87-24.35-128.67,7-165.63,7-89.32,13.69-108.48,41.69c0,0-6.93,35,54.92,28.46C358.81,247.62,373.94,247,391.6,248.61Z"/><path d="M415.44,243.61c42,3.44,93.92-3,141.73-12s62.52-28.55,62.52-28.55-14.71-28.93-76-20-115.23,5.76-148.33,5.76-80,11.27-97.14,34.32c0,0-3.59,20.45,51.81,15C388.69,234.4,399.62,242.31,415.44,243.61Z"/><path class="cls-3" d="M647.75,202.41s-93.43-11.8-148.86-4.1c0,0,61.59-1.54,88.29,8.21,0,0-35.42,10.78-57.49,9.75,0,0,38.43,2.57,55.14,2.57,0,0-45.9,14.37-72.08,12.32,0,0,19.5,4,58.26-2.62S647.75,202.41,647.75,202.41Z"/><path class="cls-2" d="M541.93,66.74s98.63,21.2,100.69,67.4c0,0,2-74.94-40-88.29S541.93,66.74,541.93,66.74Z"/><path class="cls-2" d="M534.18,59.59s100.46-9.15,116.19,34.34c0,0-13.94-57.63-58.1-57.83S534.18,59.59,534.18,59.59Z"/><path class="cls-2" d="M685.73,269.66c22.59,0,74.43-3.63,105.75,38.48,0,0,17-54.91-3.31-82.12S761.7,250.66,685.73,269.66Z"/><path class="cls-4" d="M535,535.56l.09,0-.08,0Z"/><path class="cls-4" d="M589.23,558.14,620.88,573c1.83.87,70.45,33.62,90.86,43.56S792.18,663.71,831,726.76c37.12,60.28,126.62,63.06,163.1,8-4.85-.61-41.42-8.17-105.4,1.38-68.79,10.27-51.38-36.63-144.16-124.92C731.05,598.34,639.4,533.57,589.23,558.14Z"/><path class="cls-1" d="M499.91,273.21C481.43,383.46,535.54,450.8,617.51,475,617.51,475,437.8,470.11,499.91,273.21Z"/><path class="cls-1" d="M564.51,275.67c-29.49,71-8,131.11,47.11,164.49C611.62,440.16,485,404.36,564.51,275.67Z"/><path class="cls-1" d="M470.33,270c-10.26,39.4-52.7,205.83,158.61,227.9C547,506.29,371.88,465.47,470.33,270Z"/><path class="cls-1" d="M430,274.6c-10.52,42-54,219.26,162.6,242.77C508.58,526.36,329.07,482.88,430,274.6Z"/><path class="cls-1" d="M376.86,661.85S362,568.42,386.64,512.63c0,0-77,102.57-58.86,194S376.86,661.85,376.86,661.85Z"/><path class="cls-4" d="M515,714.33S504.75,626.72,529.49,571c0,0-81.63,96.58-63.66,188S515,714.33,515,714.33Z"/><path class="cls-4" d="M940.31,741.36S905.54,771.43,873.78,772c0,0,63,14.37,99.7-16.26S940.31,741.36,940.31,741.36Z"/><path class="cls-4" d="M924.79,745.8s-38.37,20.85-67.89,16.47c0,0,55.38,22.21,95.64,1.18S924.79,745.8,924.79,745.8Z"/><path class="cls-4" d="M701.07,600.17s-16.14-30.91-37.28-41.63c0,0,45.64,11.16,62.93,43.05S701.07,600.17,701.07,600.17Z"/><path class="cls-4" d="M722.85,613.29s-7-28.42-20.69-45.36c0,0,41.41,30.41,62.79,63.8C778,652.13,722.85,613.29,722.85,613.29Z"/><path class="cls-4" d="M946.25,455.33s-28.68-4.26-43.85-17.87c0,0,22.45,37.09,53.11,39S946.25,455.33,946.25,455.33Z"/><path class="cls-4" d="M942.09,447.19s-28.56-5.05-43.34-19.07c0,0,21.41,37.69,52,40.45S942.09,447.19,942.09,447.19Z"/><path class="cls-4" d="M943.69,442.88s-28.45-5.61-43-19.92c0,0,20.67,38.11,51.21,41.46S943.69,442.88,943.69,442.88Z"/><path class="cls-4" d="M506.87,738.19S482,653.56,497,594.43c0,0-64.18,109-31.05,196.08,8.28,21.77,25,10.73,30.37,9.91C512.49,798,506.87,738.19,506.87,738.19Z"/><path class="cls-4" d="M515.21,770.19s-48.12-73.92-50.74-134.86c0,0-32.6,94.69,24.15,168.61,14.19,18.49,57.72-3.24,62.65-5.57C566.05,791.37,515.21,770.19,515.21,770.19Z"/><path class="cls-1" d="M307.59,812.74s-32.85-111,0-192.74c0,0,26,121,56.12,152.27l-5.59,40.47Z"/><path class="cls-4" d="M497.07,792.46c-18.7-27.16-48.47-77.32-51.28-124.83,0,0-26.67,76.73,2.91,145.06Z"/><path class="cls-2" d="M376.86,173c49.82,2.22,111.83-1.89,158.16-10.1s84,8.13,93.92,32.81c0,0-7.92-95.78-75-94.41S477.61,147.5,376.86,173Z"/><path class="cls-2" d="M392,158.31c47.9,1.9,107.52-1.63,152.06-8.7s80.78,7,90.3,28.24c0,0-7.61-82.42-72.08-81.24S488.9,136.38,392,158.31Z"/><path class="cls-3" d="M473.78,153.52c26.94,1.2,60.47-1,85.52-5.46s45.42,4.4,50.78,17.74c0,0-4.28-51.79-40.54-51.05S528.26,139.74,473.78,153.52Z"/><path class="cls-3" d="M476.36,149.26c26.94,1.09,60.47-.92,85.52-5s45.42,4,50.78,16.12c0,0-4.28-47.07-40.54-46.4S530.84,136.74,476.36,149.26Z"/><path class="cls-2" d="M781.67,497.85c-29.62-52.47-1.91-92.52,39.72-99.63,0,0,5.21-25.22,50-10,0,0-29.37-20.32-53.43-3.8,0,0,18.51-34.17,76.42-23.72,0,0-55-20.31-92.73,13.62C801.63,374.28,712.62,433.89,781.67,497.85Z"/><path class="cls-2" d="M983.56,361.76c46.69-8.43,61.62,19.12,61.62,19.12-19.4-13.32-43.09,3.07-43.09,3.07,36.1-12.24,40.3,8.09,40.3,8.09a269.72,269.72,0,0,0,6.12-26.43C1019.23,348.61,983.56,361.76,983.56,361.76Z"/><path class="cls-2" d="M786.34,489.87c3.08,8.72,20.93,39.52,61.54,44.14s122-2.56,122-2.56,20-.71,34-7.8c0,0-119.47,11.87-153.87,2.14S794.56,501.67,786.34,489.87Z"/><path class="cls-2" d="M1032.22,526.31c6.16,2.57,22.59,9.24,46.71,0C1078.93,526.31,1060.58,529,1032.22,526.31Z"/><path class="cls-2" d="M765,382.07c-15.05,16.94-34.57,32.85-23,70.33C741.93,452.4,712.25,407.74,765,382.07Z"/><path class="cls-2" d="M892.93,490c-.3.95-3.19,1.9-6.12,1s-4.78-3.32-4.48-4.28,2.62-.07,5.55.84S893.22,489,892.93,490Z"/><path class="cls-2" d="M922.2,492.23c-.06,1-2.65,2.6-5.71,2.41s-5.42-2.11-5.36-3.11,2.53-.68,5.59-.49S922.26,491.23,922.2,492.23Z"/><path class="cls-2" d="M865.76,480.61c-.44.9-3.44,1.39-6.2.05s-4.21-4-3.77-4.92,2.6.33,5.36,1.68S866.2,479.72,865.76,480.61Z"/><path class="cls-2" d="M911.12,478.26c-.2,1-3,2.21-6,1.6s-5.09-2.84-4.89-3.81,2.6-.34,5.61.27S911.31,477.28,911.12,478.26Z"/><path class="cls-2" d="M883.15,471.64c-.35.93-3.29,1.73-6.16.66s-4.59-3.58-4.25-4.51,2.62.07,5.5,1.13S883.49,470.7,883.15,471.64Z"/><path class="cls-2" d="M902.38,505.44c-.19,1-3,2.21-6,1.6s-5.09-2.84-4.89-3.81,2.6-.34,5.61.27S902.58,504.46,902.38,505.44Z"/><path class="cls-2" d="M874.42,498.82c-.35.93-3.29,1.73-6.17.66S863.66,495.9,864,495s2.62.06,5.5,1.13S874.76,497.88,874.42,498.82Z"/><path class="cls-2" d="M1097.69,496.13c.45.89-1,3.59-3.69,5s-5.74.95-6.19.06,1.82-1.88,4.55-3.28S1097.23,495.24,1097.69,496.13Z"/><path class="cls-2" d="M1076.08,507.3c.19,1-1.91,3.18-4.92,3.77s-5.78-.68-6-1.66,2.27-1.3,5.28-1.89S1075.89,506.32,1076.08,507.3Z"/><path class="cls-2" d="M1083.92,493.19c.37.93-1.29,3.49-4.14,4.62s-5.81.4-6.18-.52,2-1.71,4.85-2.84S1083.55,492.27,1083.92,493.19Z"/><path class="cls-2" d="M647.75,298.3c9.24,28.94,1.13,73,138.59,54.81C786.34,353.11,617.46,401.86,647.75,298.3Z"/><path class="cls-2" d="M1046.34,322c-33,34.82-82.67,6.55-82.67,6.55,22.82,21.79,43.06,26.73,59.83,23.77,15.22-2.69,24.83-15.88,22.92-29.54C1046.38,322.49,1046.35,322.23,1046.34,322Z"/><path class="cls-4" d="M699.11,59c76,34.22,109.73,53.62,141.32,106.77,20.86,35.1,77.42,135.45,69.66,188.83-1.91,13.15-4.06,24.8-6.26,35.69-10,49.26,29.18,94.67,79.39,92.42,14.3-.65,28.81-1.06,42.44-1,21.69,0,47.88-43.09,35.6-61-32-46.64-60.08-40.92-81.17-63.82-37.33-40.54-96.83-137-96.37-190.94S750.41,57.08,750.41,57.08Z"/><path class="cls-3" d="M739,66.44c61.72,18.15,126.54,55.92,145,125.45,16.82,63.3,51,137.57,72.75,161.22-12.1.36-62.83-73-80.92-157.41C854.8,97.54,739,66.44,739,66.44Z"/><polygon points="944.1 459.93 979.01 487.3 1013.29 507.49 1050.39 489.87 1071.4 483.19 1081.67 469.51 1078.93 448.45 1055.83 435.97 980.35 435.97 944.1 459.93"/><path class="cls-3" d="M941.3,434.32c23.41-17.4,70.39-36.25,110.88-22.3C1042,397,982.94,394.39,941.3,434.32Z"/><path class="cls-8" d="M944.1,459.92c21.9,19.85,36.28,16.43,45.17,5.48s35.1-18.45,34.42-4.76S1005,495.51,979,487.3c0,0,13,25.33,37.64,34.91s50-31.49,54.75-39c0,0-32.85,0-21.21-23.28s32.85,3.43,31.48,9.59c0,0,12.32-57.49-59.54-57.49S944.1,459.92,944.1,459.92Z"/><path d="M1038,426.8s-6.32,54.53-14.4,91.94c1-1.82,1.93-3.78,3-6C1040,484.94,1038,426.8,1038,426.8Z"/><path class="cls-2" d="M756.15,243.55S726,255.79,708,256.51c0,0,45.81-21,54-29.68Z"/><path class="cls-2" d="M770.11,233.12s-31.24,9.17-49.19,8.1c0,0,32.32-11.05,48.79-19.34a2.86,2.86,0,0,1,3.9,3.76Z"/><path class="cls-2" d="M1034.66,274.56c-14.46,0-47.68-2.46-67.74,26.08,0,0-10.08-46.08,2.92-64.52S986,261.68,1034.66,274.56Z"/><path class="cls-2" d="M987.32,254.35s23,12.24,36.78,13c0,0-35-21-41.29-29.68Z"/><path class="cls-2" d="M976.65,243.92s23.87,9.17,37.59,8.1c0,0-24.7-11.05-37.28-19.34-1.87-1.23-3.88,1.29-3,3.76Z"/><path class="cls-4" d="M722.69,66.5S766.15,89,795.24,111.21c2.14-.74-23.82-28.95-65.7-44.71C690.79,51.92,722.69,66.5,722.69,66.5Z"/><path class="cls-4" d="M783.85,91.11s35,34.17,56.37,63.91c2.26-.08-14.35-34.64-49.82-61.91C757.58,67.88,783.85,91.11,783.85,91.11Z"/><path class="cls-4" d="M758.08,64.92s46,16.8,77.62,35.18c2-1-27.29-25.71-70.83-36C724.59,54.5,758.08,64.92,758.08,64.92Z"/><path class="cls-4" d="M801.91,91.4S846,112.61,875.72,134c2.12-.8-24.65-28.25-67-42.79C769.59,77.75,801.91,91.4,801.91,91.4Z"/><path class="cls-1" d="M765,266.15c20.37,11.48,28.58,25.41,26.22,37-.72,3.55-.34,7.18-2.28,10.24-5.38,8.52-20.84,24.37-61,23.37,48.24,11.63,103.3-13,88.68-47.36C816.55,289.37,804.82,263.22,765,266.15Z"/><path class="cls-1" d="M766.49,273.42c24.64,8,37,19.16,34.91,38.33l-13.23,4.62C791.82,309.87,794.43,287.58,766.49,273.42Z"/><path class="cls-1" d="M808.93,275.1c5.82,15.09,12,24.33,3.59,46.4C812.52,321.5,835.62,299.71,808.93,275.1Z"/><path class="cls-1" d="M984.49,283.77A31.8,31.8,0,0,0,966,305.44a10.32,10.32,0,0,0,.6,6.67c2.61,5.8,10.72,17,35,19.17-29.9,4-61.19-15.57-49.82-36.39C951.72,294.89,966.83,270.41,984.49,283.77Z"/><path class="cls-1" d="M965.79,312.15c-.29-7.14,3-17.56,17.77-25-18.34,5.93-27.51,14.12-26,28.24l9.85,3.4a15.4,15.4,0,0,1-1.64-6.68"/><path class="cls-1" d="M953.66,287.19c-2.28,11.46-5.36,18.71,2.33,33.95C956,321.14,938.73,307.44,953.66,287.19Z"/><path class="cls-5" d="M747,540.19c-13.38,24.76-13.35,37.11,34.22,91.87s57.89,83.67,64.54,89.57,20.14,13.21,76,5.11c0,0-61.84,8-72.79-7.08s-38.08-71.54-79.74-112.76S747,540.19,747,540.19Z"/><path class="cls-5" d="M885.93,723.33c14.71.1,50.48-4.18,67.67-1.7s36.57,3.85,43.48-4.71c0,0-17.76,4.88-41.7,3.3S915.67,719.22,885.93,723.33Z"/><circle class="cls-5" cx="860.1" cy="717.02" r="3.2"/><circle class="cls-5" cx="872.29" cy="720.01" r="1.62"/><path class="cls-2" d="M634.4,247.24c-30.28,53.12-54.51,125.21,47.28,145.34,15.26,3,27,15.36,28.52,30.85,2.12,22,10.56,51.9,39.08,67.92,0,0-41,22.42-38.94,67.19,0,0-10.79-34.89,23.09-67.7,0,0-28.94-23.89-37.65-56.93a35.07,35.07,0,0,0-25.5-25.22C622.16,396.83,544.84,351.69,634.4,247.24Z"/><path class="cls-2" d="M758.62,494.59c-22.58,16.84-43.27,31.05-39.52,74.87C719.1,569.46,717.56,527,758.62,494.59Z"/><path class="cls-3" d="M590.45,558.21s-64.55-23.6-89.14-22c-.71-2.12,61.69-2.47,84.48,4.59Z"/><path class="cls-3" d="M564.71,547.3S502.6,517.88,478,517.24c-.51-2.17,61.66,3.2,83.7,12.32Z"/><path class="cls-3" d="M796.9,693.68S783.34,677.51,769,670c0,0,22.18,10.88,28.6,17.29Z"/><path class="cls-3" d="M780.46,672.69S764.37,659,749,654c0,0,23.7,7,31.1,12.22Z"/><path class="cls-3" d="M762,655.63s-17-12.51-32.67-16.44c0,0,24.13,5.33,31.87,10Z"/><path class="cls-3" d="M738.7,639.64s-17.48-11.82-33.29-15.12c0,0,24.32,4.36,32.24,8.76Z"/><path class="cls-4" d="M755.35,642.82S737.87,631,722.06,627.71c0,0,24.31,4.36,32.24,8.76Z"/><path class="cls-4" d="M779.65,658.86s-17.49-11.81-33.3-15.11c0,0,24.32,4.36,32.25,8.76Z"/><path class="cls-4" d="M799.08,679.28S783,665.66,767.59,660.69c0,0,23.72,6.94,31.13,12.16Z"/><path class="cls-4" d="M982.08,733.54c-12.83,4.28-31.44,15.5-31.44,15.5S922,776.1,894.8,781.69c0,0,66.78,3.44,93.82-34.11,4.49-6.25,5.91-10.45,5.43-12.92C990,735.24,985.12,734.31,982.08,733.54Z"/><path class="cls-1" d="M979.38,735.46c-7,1.76-17.06,6.32-17.06,6.32S946.79,752.7,932,755.05c0,0,36.37,1.08,51-14,2.43-2.51,3.19-4.19,2.92-5.18A24.92,24.92,0,0,1,979.38,735.46Z"/><path class="cls-1" d="M986,735.75c-15.4-1.54-68.52-1.29-100.09,5.13C885.93,740.88,917.24,770.39,986,735.75Z"/><path class="cls-3" d="M604.63,308.14c-5.65,11.05-13.94,45.24,11,86.05l-32.25-3.13S583.33,339.44,604.63,308.14Z"/><path class="cls-3" d="M605.39,343.69c-.76,9.24,6.9,35.31,23.29,58.07,5.54,7.68,5.7,12.13,15.42,19.27l-26.9,7.45S597.58,380.73,605.39,343.69Z"/><path class="cls-3" d="M397.76,470.11c-61.59,48.35-72.61,157-72.61,157s-6.95-104,12.56-159.42,29.43-60.89,29.43-60.89C369.22,436,386.27,455.4,397.76,470.11Z"/><path class="cls-3" d="M378,443.49c-41.2,20.79-61.87,83.63-61.87,83.63s9.91-62.39,28.3-92.7,24.71-32.29,24.71-32.29C366.45,419.67,373.49,433.33,378,443.49Z"/><path class="cls-5" d="M85.14,643c-18.42-79.23,81.12-301.22,81.12-301.22S81.33,463,61.86,513.6s-15,61.88-15,61.88C66.9,558.56,66.74,643.35,85.14,643Z"/><path class="cls-5" d="M202.52,803.94h0a182,182,0,0,1-182-182h0a247.25,247.25,0,0,1,10.59-71.73C63.58,443.14,185.27,134.14,350,57.08c0,0-192.68,105.89-261.12,515.81C88.91,572.89,50.58,766.06,202.52,803.94Z"/><path class="cls-3" d="M350,267.31s-4.64,27.48-7.19,58.41C351,318.56,177.55,412,185.27,699.19,185.27,699.19,104.66,443.61,350,267.31Z"/><path class="cls-3" d="M348.48,267.89s-7.12,42.52-12.81,61.59c6.56-3.36-99.26,23.63-163.07,160.39C172.6,489.87,185.27,325.72,348.48,267.89Z"/><path class="cls-4" d="M603.46,11.55a41.11,41.11,0,0,1-26.24,6.78C461.55,9.72,376.6,55.73,361.69,90.91,361.8,74.62,388,25.16,430.6,15.46,475.24,5.28,536.68.19,603.46,11.55Z"/><path class="cls-4" d="M554.38,15s-53,5.39-65.27,12.62c0,0,21.75-13.57,49.76-15S554.38,15,554.38,15Z"/><path class="cls-4" d="M527.26,14.64S475.32,25.52,464.17,34a110.85,110.85,0,0,1,47.3-20C539.14,9.57,527.26,14.64,527.26,14.64Z"/><path class="cls-4" d="M574.54,12.8s-53,5.49-65.24,12.75c0,0,21.71-13.61,49.73-15.1S574.54,12.8,574.54,12.8Z"/><path class="cls-4" d="M588.36,13.59s-53,4.56-65.23,10.41a135.39,135.39,0,0,1,49.7-12.25C600.85,10.48,588.36,13.59,588.36,13.59Z"/><path class="cls-4" d="M403.91,40.82S363.23,66.29,356.66,82c0,0,7-29.15,41.79-43.54Z"/><path class="cls-4" d="M419,32.79s-46.35,17-57,31.12c0,0,14.73-27.17,52.37-34.49Z"/><path class="cls-4" d="M430.47,31.56s-44.76,7.93-60.89,19.23c0,0,32.48-35.09,80.88-37.67Z"/><path class="cls-3" d="M496.83,60.5c33.46-23.28,107.65-31.79,169.25-32.17A240.81,240.81,0,0,1,734.39,38l18.46,5.34S631.32,24.85,496.83,60.5Z"/><path class="cls-2" d="M702.16,651.31C695.66,689,638,763.79,671.06,812.74H653.61s-14.42-36.1-2.12-66.23S697,678.06,702.16,651.31Z"/><path class="cls-2" d="M654.46,742.37s8.26,19.74,9.6,11.22c3.23-20.53,17.48-35.17,29.58-54.4C693.64,699.19,662.77,728.7,654.46,742.37Z"/><path class="cls-2" d="M649.54,762.44s8.08,29.46,8.8,20.88c3-36.38,15.62-42.13,27.39-61.69C685.73,721.63,657.65,748.54,649.54,762.44Z"/><path d="M774,565.11c4.11,16.38,13.35,28.7,26.18,24.34C800.2,589.45,779.41,602.63,774,565.11Z"/><path d="M800.2,600s-4.1,29.26,21.31,30.29C821.51,630.26,793.27,636.42,800.2,600Z"/><path d="M832.28,639.64s0,24.8,19.25,22.21C851.53,661.85,830.49,670.32,832.28,639.64Z"/><path class="cls-3" d="M1076,178.53c26,7.68,65.3,12.24,74.18,15.86,0,0-28.17-10.51-51.17-13.18Z"/><path class="cls-3" d="M295.1,185c27-3.09,64.89-14.21,74.48-14.34,0,0-30,1.31-52.26,7.83Z"/><path class="cls-5" d="M386.64,540.57s10.23-44.23,22.25-65c0,0,22.19,15.26,37.17,15.29C446.06,490.84,408.89,503.49,386.64,540.57Z"/><path class="cls-1" d="M362,147c-65.83,14.38-85.85,23.71-85.85,23.71s73.69-33,90.67-41.67,70.51-28.91,70.51-28.91l7.7,7.35Z"/><path class="cls-1" d="M417.46,122.88c-66.81,8.78-87.54,16.4-87.54,16.4s76.2-26.63,93.85-33.9S496.46,82.5,496.46,82.5l6.44,1.43Z"/><path class="cls-4" d="M776.8,303.41a8.07,8.07,0,0,1-1,6.75s4.59-1.22,4.34-2.42A8.24,8.24,0,0,0,776.8,303.41Z"/><path class="cls-4" d="M977.85,304.76a8.09,8.09,0,0,0,1,6.76s-4.58-1.23-4.34-2.43A8.27,8.27,0,0,1,977.85,304.76Z"/><path class="cls-9" d="M870.67,654s7.22,33.2,13.05,39.64C883.72,693.68,879,669.86,870.67,654Z"/><path class="cls-9" d="M981.36,654s-7.21,33.2-13.05,39.64C968.31,693.68,973,669.86,981.36,654Z"/><path class="cls-9" d="M886.27,552.63c-5.48,2.77-6.57,37.68-4.83,56.84C881.44,609.47,880.43,569.76,886.27,552.63Z"/><path class="cls-9" d="M1023.65,552.63c5.48,2.49,6.57,33.78,4.83,51C1028.48,603.6,1029.49,568,1023.65,552.63Z"/><path class="cls-9" d="M914.16,590.22c-1.54-7.19,1.28-17.19,3.59-20.76Z"/><path class="cls-9" d="M975,571c1.54,7.18-1.28,17.19-3.59,20.75Z"/><path class="cls-9" d="M949,571c1.54,7.18-1.28,17.19-3.59,20.75Z"/><path class="cls-9" d="M950.65,691.67c1.41,4.06-1.17,9.7-3.27,11.71Z"/><path class="cls-9" d="M847,650.94c-4.28-.22-8.55-4.73-9.62-7.43Z"/><path class="cls-9" d="M794.88,580.66c-4.28-.22-8.55-4.73-9.62-7.43Z"/><path class="cls-9" d="M823.74,620.67c-4.28-.23-8.54-4.73-9.61-7.44Z"/><path class="cls-9" d="M792.27,567.3c-4.23-6.37-5.95-17-5.47-21.26Z"/><path class="cls-9" d="M911.89,703.08c-3.66-2.23-5.28-8.22-4.94-11.11Z"/><path class="cls-9" d="M1001.5,567.59c2.55,6.89,1.19,17.2-.59,21Z"/><path class="cls-7" d="M904.34,620c4.45-1.68-.11-25.84-3.87-36.57s1.21-14.48,3.09-16.11h3.73a23.42,23.42,0,0,0-2.95,16.11C906.12,592.36,911.35,618.76,904.34,620Z"/><path class="cls-7" d="M913.72,606.9s7.8,27.28-12.05,32.29C901.67,639.19,923.11,638.61,913.72,606.9Z"/><path class="cls-7" d="M962,666.62s-13.08,10.27-11.25,18.14c0,0-7.73,3.11-9.19,8.92,0,0-8.58-14.74-10.33-9.27s-3.17,13-3.17,13-1.57-15.35-6.59-13.64S915.43,695,915.43,695s-9.15-14.76-11.42-13-3.53,11.68-3.53,11.68,1.87-19.82-1.94-28.43c-3.28-7.41,12.11,17.8,12.11,17.8L903.49,653l14.64,26.29s-.37-20.53-2.7-26.69,12.64,28.18,12.64,28.18c1.17,3.3-.52-15.15-6.72-37.95-1.42-5.23,15.54,31.31,20.22,37.95C941.57,680.77,955.29,669.06,962,666.62Z"/><path class="cls-6" d="M1025,502.72s13.9-59.14,7-85.49c0,0-67.9.39-74.27,36.3,0,0,29.74-20.48,54.83-14.76C1020.31,440.52,1029.75,441.83,1025,502.72Z"/><path class="cls-6" d="M1031.5,509c5.13-16.25,12-71.54,10.61-90.91,1.7.9,36,8.46,37.64,41.89,0,0-.68-20.46-25.46-13.49C1047.32,448.45,1044.16,461,1031.5,509Z"/><path d="M169.28,838.83s-90-44.87-97-86.9c0,0,80.94,50.44,158.39,64.25Z"/><path d="M228.21,838.83s-90-44.87-97-86.9c0,0,80.94,50.44,158.4,64.25Z"/><path d="M287.15,838.83s-90-44.87-97-86.9c0,0,80.94,50.44,158.39,64.25Z"/><path d="M346.08,838.83s-90-44.87-97-86.9c0,0,80.94,50.44,158.4,64.25Z"/><path d="M405,838.83s-90-44.87-97-86.9c0,0,81,50.44,158.4,64.25Z"/><path d="M464,838.83s-90-44.87-97-86.9c0,0,80.94,50.44,158.4,64.25Z"/><path d="M522.89,838.83s-90-44.87-97-86.9c0,0,80.95,50.44,158.4,64.25Z"/><path d="M581.82,838.83s-90-44.87-97-86.9c0,0,80.94,50.44,158.39,64.25Z"/><path d="M640.75,838.83s-90-44.87-97-86.9c0,0,81,50.44,158.4,64.25Z"/><path d="M727.61,838.83s90-44.87,97-86.9c0,0-80.94,50.44-158.4,64.25Z"/><path d="M668.67,838.83s90-44.87,97-86.9c0,0-80.94,50.44-158.39,64.25Z"/></g></g></svg>