<svg xmlns="http://www.w3.org/2000/svg" viewBox="0 0 1159.55 930.15"><defs><style>.cls-1{fill:#27626e;}.cls-2{fill:#e3a02a;}.cls-3{fill:none;stroke:#d74b2f;stroke-miterlimit:10;}.cls-4{fill:#d74b2f;}.cls-5{fill:#d8dab8;}.cls-6{fill:#377e83;}.cls-7{fill:#9f6524;}.cls-8{fill:#c68130;}.cls-9{fill:#d6953a;}.cls-10{fill:#051e1e;}.cls-11{fill:#1e525a;}.cls-12{fill:#fff;}</style></defs><title>Asset 8</title><g id="Layer_2" data-name="Layer 2"><g id="_1200" data-name="1200"><rect class="cls-1" x="1037.32" y="209.84" width="24.99" height="24.99" transform="translate(150.27 807.46) rotate(-45)"/><rect class="cls-2" x="1019.17" y="12.7" width="61.31" height="61.31" transform="translate(276.83 755.03) rotate(-45)"/><rect class="cls-3" x="1022.27" y="122.73" width="55.1" height="55.1" transform="translate(201.22 786.35) rotate(-45)"/><rect class="cls-4" x="246.9" y="301.09" width="7.44" height="433.59"/><rect class="cls-4" x="337.39" y="210.61" width="7.44" height="188.41" transform="translate(645.92 -36.29) rotate(90)"/><rect class="cls-1" x="262.36" y="316.63" width="7.44" height="433.59"/><rect class="cls-1" x="262.36" y="316.63" width="188.41" height="7.44"/><rect class="cls-5" x="230.5" y="285.27" width="7.44" height="433.59"/><rect class="cls-5" x="320.99" y="194.79" width="7.44" height="188.41" transform="translate(613.71 -35.72) rotate(90)"/><rect class="cls-1" x="213.53" y="269.28" width="7.44" height="433.59"/><rect class="cls-1" x="213.53" y="269.28" width="188.41" height="7.44"/><polygon class="cls-1" points="119.33 735 110.84 735 110.84 238.94 119.33 228.91 119.33 735"/><polygon class="cls-1" points="174.97 174.39 184.92 165.9 488.74 165.9 488.74 174.39 174.97 174.39"/><rect class="cls-2" y="55.1" width="9.56" height="557.29"/><polygon class="cls-1" points="0 55.1 242.17 55.1 242.17 64.66 9.56 64.66 0 55.1"/><circle class="cls-4" cx="159.56" cy="427.68" r="4.97"/><circle class="cls-4" cx="195.36" cy="369.34" r="4.97"/><circle class="cls-4" cx="227.57" cy="252.07" r="4.97"/><circle class="cls-4" cx="179.95" cy="294.95" r="4.97"/><circle class="cls-4" cx="324.71" cy="221.07" r="4.97"/><circle class="cls-2" cx="135.22" cy="512.35" r="4.97"/><circle class="cls-2" cx="195.36" cy="336.39" r="4.97"/><circle class="cls-4" cx="293.06" cy="254.96" r="4.97"/><circle class="cls-4" cx="159.46" cy="258.82" r="4.97"/><circle class="cls-5" cx="135.22" cy="447.95" r="4.97"/><circle class="cls-1" cx="171.93" cy="361.1" r="4.97"/><circle class="cls-2" cx="262.36" cy="193.42" r="4.97"/><circle class="cls-2" cx="348.15" cy="205.24" r="4.97"/><circle class="cls-5" cx="285.46" cy="212.29" r="4.97"/><polygon class="cls-4" points="144.82 357.73 134.51 367.72 148.31 371.65 144.82 357.73"/><polygon class="cls-2" points="195.75 389.72 185.44 399.7 199.24 403.64 195.75 389.72"/><polygon class="cls-2" points="149.11 278.31 138.79 288.3 152.6 292.24 149.11 278.31"/><polygon class="cls-1" points="128.62 405.11 133.85 418.48 142.81 407.26 128.62 405.11"/><polygon class="cls-1" points="164.83 317.39 170.07 330.75 179.02 319.53 164.83 317.39"/><polygon class="cls-1" points="308.26 184.79 313.5 198.16 322.45 186.94 308.26 184.79"/><polygon class="cls-1" points="252 250.83 257.24 264.19 266.19 252.97 252 250.83"/><polygon class="cls-4" points="227.13 198.56 232.37 211.92 241.32 200.7 227.13 198.56"/><polygon class="cls-1" points="135.45 478.86 140.69 492.23 149.65 481 135.45 478.86"/><polygon class="cls-5" points="185.26 415.7 182.19 429.72 195.87 425.36 185.26 415.7"/><polygon class="cls-5" points="312.84 235.08 309.77 249.1 323.45 244.75 312.84 235.08"/><rect class="cls-2" x="274.56" y="228.25" width="10.69" height="10.69"/><rect class="cls-2" x="194.98" y="188.84" width="10.69" height="10.69"/><rect class="cls-2" x="161.61" y="454.96" width="10.69" height="10.69" transform="translate(-222.63 163.69) rotate(-32.78)"/><rect class="cls-5" x="159.19" y="384.73" width="10.69" height="10.69" transform="translate(113.33 -30.17) rotate(15.92)"/><rect class="cls-5" x="134.85" y="320.99" width="10.69" height="10.69" transform="matrix(0.96, 0.27, -0.27, 0.96, 94.91, -25.94)"/><rect class="cls-5" x="243.43" y="224.44" width="10.69" height="10.69" transform="translate(269.73 -108.23) rotate(50.82)"/><rect class="cls-5" x="193.99" y="272.97" width="10.69" height="10.69" transform="translate(84 -44.01) rotate(15.92)"/><rect class="cls-5" x="376.44" y="182.7" width="10.69" height="10.69" transform="translate(66.24 -97.53) rotate(15.92)"/><rect class="cls-1" x="208.08" y="223.56" width="10.69" height="10.69" transform="translate(70.99 -49.77) rotate(15.92)"/><rect class="cls-6" x="19.78" y="309.89" width="83.82" height="2.09"/><rect class="cls-6" x="19.78" y="324.2" width="83.82" height="2.09"/><rect class="cls-6" x="19.78" y="295.75" width="83.82" height="2.09"/><rect class="cls-6" x="19.78" y="281.6" width="83.82" height="2.09"/><rect class="cls-6" x="19.78" y="267.46" width="83.82" height="2.09"/><rect class="cls-6" x="19.78" y="253.32" width="83.82" height="2.09"/><rect class="cls-6" x="19.78" y="338.5" width="83.82" height="2.09"/><rect class="cls-6" x="19.78" y="352.81" width="83.82" height="2.09"/><rect class="cls-6" x="19.78" y="367.11" width="83.82" height="2.09"/><rect class="cls-6" x="19.78" y="381.42" width="83.82" height="2.09"/><rect class="cls-6" x="19.78" y="395.72" width="83.82" height="2.09"/><rect class="cls-6" x="19.78" y="410.03" width="83.82" height="2.09"/><rect class="cls-6" x="19.78" y="424.33" width="83.82" height="2.09"/><rect class="cls-6" x="19.78" y="438.64" width="83.82" height="2.09"/><rect class="cls-6" x="19.78" y="452.94" width="83.82" height="2.09"/><rect class="cls-6" x="19.78" y="467.25" width="83.82" height="2.09"/><rect class="cls-6" x="19.78" y="481.55" width="83.82" height="2.09"/><rect class="cls-6" x="19.78" y="495.86" width="83.82" height="2.09"/><rect class="cls-6" x="19.78" y="510.16" width="83.82" height="2.09"/><rect class="cls-6" x="19.78" y="524.47" width="83.82" height="2.09"/><rect class="cls-6" x="19.78" y="538.77" width="83.82" height="2.09"/><rect class="cls-6" x="19.78" y="553.08" width="83.82" height="2.09"/><rect class="cls-6" x="19.78" y="567.39" width="83.82" height="2.09"/><rect class="cls-6" x="19.78" y="581.69" width="83.82" height="2.09"/><rect class="cls-6" x="19.78" y="596" width="83.82" height="2.09"/><rect class="cls-6" x="19.78" y="610.3" width="83.82" height="2.09"/><path class="cls-1" d="M135.05,149.34a35.37,35.37,0,0,1-2.34-6.32c0-.05,0,.1,0,.4,0-.3,0-.45,0-.4a34.37,34.37,0,0,1-2.33,6.32c-1.31,3.08,1.47,4.84,2.27,5.26a.82.82,0,0,0,0,.1l.11,0,.1,0v-.1C133.57,154.18,136.35,152.42,135.05,149.34Z"/><path class="cls-1" d="M140.89,154.7a33.79,33.79,0,0,1,1.51-6.57s-.08.07-.25.32c.16-.26.23-.39.19-.36a34.71,34.71,0,0,1-5.42,4c-2.78,1.86-1.41,4.86-1,5.64l-.06.09.11,0,.06.09.06-.08C137,157.94,140.29,158,140.89,154.7Z"/><path class="cls-1" d="M124.64,154.7a35.36,35.36,0,0,0-1.51-6.57s.07.07.24.32c-.15-.26-.22-.39-.18-.36a33.74,33.74,0,0,0,5.42,4c2.77,1.86,1.41,4.86,1,5.64l0,.09-.11,0a.37.37,0,0,1-.06.09l-.05-.08C128.52,157.94,125.24,158,124.64,154.7Z"/><path class="cls-1" d="M135.84,160.53a3.82,3.82,0,0,0-1.7.21s1-.5,1.06-1.07-1.21-1.42-1.21-1.42l-1.27-.83v0h0v0l-1.27.83s-1.28.86-1.21,1.42,1.07,1.07,1.07,1.07a3.88,3.88,0,0,0-1.71-.21.88.88,0,0,0-.78,1.13c.07.57,1.35,1.14,1.35,1.14s-.64-.57.64-1.21,1.92,1.35,1.92,1.35h0s.64-2,1.92-1.35.64,1.21.64,1.21,1.28-.57,1.35-1.14A.88.88,0,0,0,135.84,160.53Z"/><path class="cls-1" d="M90,190.42a34.37,34.37,0,0,0-6.32-2.33c-.05,0,.1,0,.4,0-.3,0-.45,0-.4,0A34.59,34.59,0,0,0,90,185.68c3.08-1.3,4.83,1.48,5.26,2.27h.1a.36.36,0,0,1,0,.1.49.49,0,0,1,0,.11h-.1C94.83,189,93.08,191.73,90,190.42Z"/><path class="cls-1" d="M95.36,196.27a34,34,0,0,0-6.57,1.5c-.05,0,.07-.07.31-.25-.25.16-.38.23-.35.19a34,34,0,0,0,4-5.41c1.86-2.79,4.85-1.42,5.64-1l.09-.05a.66.66,0,0,1,0,.11l.09,0-.09.06C98.59,192.38,98.65,195.66,95.36,196.27Z"/><path class="cls-1" d="M95.36,180a33.79,33.79,0,0,1-6.57-1.51c-.05,0,.07.08.31.25-.25-.16-.38-.23-.35-.19a33.74,33.74,0,0,1,4,5.42c1.86,2.78,4.85,1.41,5.64,1l.09.06a1.13,1.13,0,0,0,0-.12l.09-.06-.09-.05C98.59,183.9,98.65,180.61,95.36,180Z"/><path class="cls-1" d="M101.18,191.22a4,4,0,0,1,.22-1.71s-.5,1-1.07,1.07-1.42-1.21-1.42-1.21l-.84-1.28h0v0h0l.83-1.27s.85-1.28,1.42-1.21,1.07,1.07,1.07,1.07a4,4,0,0,1-.22-1.71.88.88,0,0,1,1.14-.78c.57.07,1.14,1.35,1.14,1.35s-.57-.64-1.21.64,1.35,1.92,1.35,1.92v0s-2,.63-1.35,1.92,1.21.64,1.21.64-.57,1.27-1.14,1.35A.89.89,0,0,1,101.18,191.22Z"/><path class="cls-4" d="M76.38,241S75.75,262.93,62,259.1c-16.48-4.6-21.51-.5-21.51-.5s3.41-4.81,7.56-5.69c5.18-1.09,6.7-.14,15.71-1.19S76.38,241,76.38,241Z"/><path class="cls-4" d="M74,239.07s-3.11,7.3-8.79,6.92-9.15-5.07-10.63-7.57a8.78,8.78,0,0,0-5.42-4.2,4.67,4.67,0,0,0-4.73,2.21s1.82-3.69,3.87-4.7c2.42-1.18,7.64-.52,11,2S68.72,241.18,74,239.07Z"/><path class="cls-4" d="M183.11,134.27s21.93-.63,18.1-14.35c-4.6-16.47-.5-21.51-.5-21.51s-4.82,3.41-5.69,7.56c-1.09,5.18-.15,6.71-1.19,15.71S183.11,134.27,183.11,134.27Z"/><path class="cls-4" d="M181.18,131.86s7.3-3.11,6.92-8.8-5.07-9.15-7.57-10.63a8.7,8.7,0,0,1-4.2-5.42,4.67,4.67,0,0,1,2.21-4.73s-3.69,1.82-4.7,3.87c-1.18,2.42-.52,7.64,2,11S183.29,126.61,181.18,131.86Z"/><path class="cls-2" d="M121.81,202c-32.53,9.25-45,11.3-55.7,9.81C53.29,210.07,36.94,202.8,39,187c1.11-8.71,10.88-18.19,20.31-16,9.1,2.1,8.18,14.34,3.2,19.32C66.76,186,64.75,173.81,57,175c-6,.89-10.92,8.82-10.79,14.6.3,12.59,16.45,17.88,25.69,18.29C88.91,208.6,121.81,202,121.81,202Z"/><path class="cls-2" d="M144.32,173.46c9.25-32.53,11.3-45,9.81-55.7-1.78-12.82-9.06-29.16-24.87-27.14-8.71,1.11-18.19,10.88-16,20.31,2.11,9.1,14.35,8.19,19.33,3.21-4.28,4.27-16.49,2.26-15.35-5.49.89-6,8.82-10.91,14.6-10.78,12.59.29,17.88,16.44,18.29,25.68C150.88,140.56,144.32,173.46,144.32,173.46Z"/><path class="cls-5" d="M57.71,105.66c3.06,7.88,63.89,69.57,66.36,73.84.06.1-.18-.11-.66-.56.45.48.65.73.55.67-4.19-2.6-65.87-63.46-73.66-66.74-6.72-2.84-5-9.81-4.43-11.67L45.7,101l.24-.07.08-.24.16.16C48.07,100.35,55.07,98.87,57.71,105.66Z"/><path class="cls-5" d="M198,247.8c-5.1-.35-35.72-30.9-38.28-31.71-.06,0,0,.12.26.36-.25-.21-.39-.3-.36-.25.87,2.53,30.67,33.94,31.17,39,.43,4.37,6,1.35,7.56.43l.07.08a1,1,0,0,0,.12-.19l.2-.13-.08-.08C199.48,253.76,202.34,248.1,198,247.8Z"/><path class="cls-5" d="M50,282.47c7.89-3.07,69.57-63.88,73.85-66.37.09-.06-.12.19-.57.66.48-.44.73-.65.67-.55-2.6,4.2-63.46,65.88-66.74,73.67-2.84,6.72-9.8,5-11.67,4.44l-.15.15a1.33,1.33,0,0,1-.08-.23l-.24-.09.16-.15C44.66,292.11,43.18,285.11,50,282.47Z"/><path class="cls-5" d="M226.28,106.15C223.22,114,162.4,175.73,159.92,180c-.06.1.19-.12.66-.57-.44.48-.65.74-.56.67,4.2-2.6,65.88-63.45,73.68-66.73,6.71-2.84,5-9.8,4.43-11.67l.16-.16a1.33,1.33,0,0,0-.23-.08c-.06-.15-.09-.24-.09-.24l-.15.16C235.93,100.85,228.93,99.36,226.28,106.15Z"/><path class="cls-1" d="M167.22,196.76c-4.24,2-5.36.86-9.55-4s-16.55-6-16.55-6l-12.15-1-.17-.17,0,.16-.17,0,.18.18,1,12.14s1.16,12.36,6,16.55,5.94,5.32,4,9.55.77,8.24,5.58,12.44,14.92,3.1,14.92,3.1-11.65-6.06-11.12-16.72,6.2-16.34,16.87-16.87,16.73,11.12,16.73,11.12,1.09-10.11-3.1-14.93S171.46,194.77,167.22,196.76Z"/><path class="cls-7" d="M853.55,215.8c130-9.85,143.85,43.9,251.76,85.31,81.79,31.39,63.54,100.83-4.75,91.9-40.9-5.35-79.07-3.29-100.68,22.84C999.88,415.85,899.75,292.81,853.55,215.8Z"/><path class="cls-7" d="M988.64,256.59c54.54,8.44,71.51,15.47,71.51,15.47s-62.34-24.62-76.79-31.32-59.45-21.21-59.45-21.21l-5.69,7.15Z"/><path class="cls-8" d="M868,235.49c-51.36-46.61-299.27-134.1-469.51-41.85S84,606.88,84.28,731.94c0,0-16.16,174,203.53,174H727.1c21.15,0,42.06-5.85,59.5-17.81,22.47-15.42,51.16-26.65,50.38-78.69-.31-20.42-100.3-71.45-98.09-112.66.36-6.65,9.75-79.61,10.15-86.62,1-17.2,89.15,12.23,90.38-6.6C850.38,435.33,868,235.49,868,235.49Z"/><path class="cls-7" d="M790.09,888.18c22.46-15.42,51.16-26.65,50.37-78.69-.31-20.42-100.29-71.45-98.08-112.66.07-1.26.46-4.93,1.06-10.09a213,213,0,0,0-34.15,23.61c-17.54-33.43-42.26-61-76.29-79.28C431.89,523.11,365,805.65,387.29,906h343.3C751.74,906,772.65,900.14,790.09,888.18Z"/><path class="cls-9" d="M464.14,433.49s-30.4,59.88-28,106.1c0,0-31.25-90.12,5.55-150.74S464.14,433.49,464.14,433.49Z"/><path class="cls-8" d="M904.81,241.43s71-3.55,155.34,59.22c0,0-48.51-12.37-74.82,13.31S951.41,259.25,904.81,241.43Z"/><path class="cls-8" d="M994.65,309.52s6.11-10,30.62-6a43.69,43.69,0,0,0-24.48-12.9C985.58,288.3,994.65,309.52,994.65,309.52Z"/><path class="cls-9" d="M462.45,408.64s-40.31,53.72-45.9,99.66c0,0-15.19-94.16,31.55-147.5S462.45,408.64,462.45,408.64Z"/><path class="cls-5" d="M633,661.47s-47.19,19.18-71.28,47.68S485.63,806.76,499.58,906h231s40.09-11,73.2-39,8.69-100.79,8.69-100.79Z"/><path d="M915.2,627.8s14.26,88.45,48.5,124.59,47.17,55.64,41.9,81.32-93.73,28-93.73,28l-48.5-19.49L792,749.54l-77.52-82.27,98.91-90.83Z"/><path class="cls-4" d="M970.36,313.32c81.79,7.76,102.72,19.1,135.05,21s48.71,10.3,48.51,26-23.89,36.13-67.1,27.13-104.34,6.65-104.34,6.65Z"/><path d="M970.36,325.8c73.95,5.41,92.87,13.31,122.1,14.66s44,7.18,43.86,18.11-21.6,25.18-60.67,18.9-94.33,4.64-94.33,4.64Z"/><path class="cls-4" d="M798.53,638.17s61.27,16.45,61.27,74.07c0,46.73,53.44,51.83,73.41,33.38,12.66-11.69-10.27-59.65-10.18-72s-21.79-24.36-21.79-24.36l-95-45S783.63,621.75,798.53,638.17Z"/><path class="cls-1" d="M825.48,614.64s-7.29,46.29-1.27,56.12,11.1,23.62,8.56,26.07l20.07,42.72s25.58,22.83,27.17,26,7,24.55,18.07,25,20.68,11.8,29,12.6,35.35-1.41,35.35-1.41,25.74-3.65,26.9-11.19,2.83-5.32,2.83-5.32,12.67,2.49,15.43,24.12-75,16.48-75,16.48-59.27-7.61-61.17-8.88S777,682.49,777,682.49l-10.15-53.26,49.11-31.07Z"/><path d="M787.28,622.09s-12.84,68,66.57,150.27c0,0,17.6,49.93,77.52,43.75s54.08.76,68.63-10.46c0,0,7.16-5.47,7.64-3.09s12.75,24.49-1.09,31.15S900.25,848,900.25,848l-35.93-9-69.91-86.31-79.89-61.58Z"/><path class="cls-10" d="M822.15,645.06c13,3.54,26.9,20.79,31.28,28.63s8.78,18.63,10.39,36.7,8,35.47,32.83,38.82c-14.74-2.21-30.09-14.77-29.14-40.33,1-26.21-5.11-53.84-44.72-70.71Z"/><path class="cls-10" d="M824.1,641.43s42.39,15.54,46.06,44.86,5.3,42.64,11.75,46.13c0,0-6.53-4.37-7-21.88-.3-11.9-.14-36.52-7.9-45.52s-18-17-21.69-19.08-22.05-16.24-22.05-16.24l-.88,12.36Z"/><path class="cls-1" d="M864.26,641s12.68,43.29,38.44,42.48,18.29-4.1,29.94-2.82,67.52,9.16,95.74-6.06l12.36-2.85s19.65-1.9,20-23.78l-38-24.73Z"/><path class="cls-11" d="M911.25,649.14s17,6.38,15.88,15.88c0,0,15.34-4.87,20.47,0,0,0,18.93-5.58,24,1.38,0,0,10.67-8.65,20.56-1.38,0,0,12.66-7.85,21.78-3.55,0,0,8-12.17,20.18-12.26a138.82,138.82,0,0,1,20.08,1.12v-5.77l-12.12-12.72h-90l-38.39,3.58Z"/><path d="M994.7,675.71c6-4.75,17.87-5.6,21.79-3.12C1016.49,672.59,1005.46,661.13,994.7,675.71Z"/><path d="M1024,659.74c6-4.76,17.86-5.6,21.78-3.12C1045.8,656.62,1034.77,645.15,1024,659.74Z"/><path d="M924.17,676.16c6.74-3.72,18.53-2.66,22,.42C946.18,676.58,937.13,663.49,924.17,676.16Z"/><path d="M891.7,659.36c6.73-3.72,18.53-2.65,22,.43C913.7,659.79,904.65,646.7,891.7,659.36Z"/><path d="M971.31,677.4c5.89-3.42,16.35-2.71,19.48,0C990.79,677.35,982.53,665.94,971.31,677.4Z"/><path d="M950.13,676.32c5.27-3.51,14.5-3,17.23-.37C967.36,676,960.24,664.71,950.13,676.32Z"/><path class="cls-9" d="M805.51,612.24c14.3,24.6,42,46.55,104.61,43.62,108.43-5.07,109.69-2.54,123-27.9s13.31-79.26,13.31-79.26-7.59,50.31-16.26,84.69c-4.44,17.59,42.42,25.39,59.7,4.78,14.41-17.19,26-59-10.15-77.42-34.77-17.69-9.83-12-9.83-12a129.4,129.4,0,0,0-13.67-20.44,19.35,19.35,0,0,1-4-17.75c6.12-21.91,14.74-78.27-21.16-164.22C984,233.58,873.59,201.25,761.88,206.48s-215.85,1-251.52,69c0,0-140.76,195.92-43.75,294.83S756.69,711,810.9,783.3s70.38,99.86,118.88,99.86S1005,851.78,1005,833.71c0,0-34.87-5.06-98.59,4.45s-47.6-33.94-133.55-115.73C723,675,805.51,612.24,805.51,612.24Z"/><path d="M719.28,408.11c18.62-.46,61.54-2.21,89.39,27.05a4,4,0,0,1-1.47,6.49C789.48,448.34,732.49,464.94,719.28,408.11Z"/><circle class="cls-6" cx="763.47" cy="426.79" r="10.94"/><circle class="cls-4" cx="763.47" cy="426.79" r="10.94"/><circle class="cls-12" cx="763.47" cy="421.01" r="3.65"/><path d="M1042.53,414.16c-13.84-.38-36.57-1.85-56.51,22.17a4.79,4.79,0,0,0,1.65,7.37C1000.46,449.75,1033.11,460.11,1042.53,414.16Z"/><circle class="cls-4" cx="1015.24" cy="429.83" r="8.7"/><circle class="cls-12" cx="1015.24" cy="425.23" r="3.3"/><path class="cls-7" d="M625.8,215.8C495.78,206,483.14,262.93,374,301.11,291.62,330,297.32,402.87,378.8,393c40.94-5,79.06-3.29,100.68,22.84C479.48,415.85,579.61,292.81,625.8,215.8Z"/><path class="cls-9" d="M630.67,229.5s-29.6-26.82-143.16,29.87c-94.74,47.29-110.61,53.95-110.61,53.95s46.88-13.37,55.6-11.64-8.7,13.58-8.7,13.58-30.05,58.09,8.7,66.85c53.11,12,30.84,41,31.64,51.38,2.54,32.8,58.79-42.79,58.79-42.79H694.84L697.38,300Z"/><path class="cls-5" d="M909.06,663.57c-7.81-5.51-18.73.51-18.21,9.87.79,14.08,2.78,39.77,7.17,49.62,6.18,13.87,10-32.83,23.77-46.24C921.79,676.82,916.21,668.62,909.06,663.57Z"/><path class="cls-5" d="M911,799.22c-5.53,6.66-16.63,4.34-18.46-3.74-2.77-12.15-7.32-34.45-5.87-43.92,1.66-10.85,11.76,12.67,23.78,26.07a16.56,16.56,0,0,1,.7,21.4Z"/><path class="cls-5" d="M975.39,799.22c5.53,6.66,16.63,4.34,18.46-3.74,2.77-12.15,7.32-34.45,5.87-43.92C998.06,740.71,988,764.23,976,777.63a16.54,16.54,0,0,0-.71,21.4Z"/><path class="cls-5" d="M1031.25,661.61c6.24-4.77,15,.44,14.54,8.54-.63,12.19-2.22,34.42-5.72,43-4.56,11.1-7.51-22.63-16.63-37a6,6,0,0,1,.39-6.92A43.29,43.29,0,0,1,1031.25,661.61Z"/><path class="cls-5" d="M946,680.36c-5.39-5.07-20.29-5.39-21.24,0s1.9,24.36,6.34,24.24C935,704.5,937.71,683.53,946,680.36Z"/><path class="cls-5" d="M975.53,685.25a6,6,0,0,1,6.4-7.81c5.43.61,10.41,2.93,10.28,6.14-.24,5.47-7.12,23.38-11.43,22.31C977.9,705.18,978.23,693.27,975.53,685.25Z"/><path class="cls-5" d="M931.7,801a3.74,3.74,0,0,1-1.76,6c-3.25,1-6.67.87-7.37-1-1.2-3.19-1.64-15.11,1.09-15.55C925.48,790.22,928.19,797.11,931.7,801Z"/><path class="cls-5" d="M956,801.06a3.76,3.76,0,0,0,1.76,6.05c3.26,1,6.69.86,7.39-1,1.21-3.2,1.64-15.15-1.09-15.59C962.24,790.22,959.51,797.12,956,801.06Z"/><path class="cls-5" d="M947,802.87a3.75,3.75,0,0,0,3.9,4.94c3.39-.31,6.52-1.7,6.47-3.7-.08-3.41-4.15-14.65-6.85-14C948.73,790.48,948.79,797.9,947,802.87Z"/><path class="cls-5" d="M943,802.87a3.74,3.74,0,0,1-3.89,4.94c-3.39-.31-6.53-1.7-6.48-3.7.08-3.41,4.15-14.65,6.85-14C941.29,790.48,941.23,797.9,943,802.87Z"/><path class="cls-5" d="M952.4,685.25a6,6,0,0,1,6.4-7.81c5.43.61,10.41,2.93,10.28,6.14-.24,5.47-7.12,23.38-11.43,22.31C954.77,705.18,955.1,693.27,952.4,685.25Z"/><path class="cls-5" d="M996,678.77c5.39-5.07,20.29-5.39,21.24,0s-1.9,24.36-6.34,24.25C1007,702.92,1004.26,681.94,996,678.77Z"/><path class="cls-5" d="M803.79,663.13c-.09-3.43,2.24-6.79,5.66-7.07,4.08-.35,6.57,3.81,7.93,12.18,1.9,11.72,14.59,17.3,9.51,24.92C822,700.48,804.8,699.82,803.79,663.13Z"/><path class="cls-5" d="M828.65,705.05c9-2.74,13.24.28,14.26,8.71s14.6,14.2,8.25,18.73S824.45,733.56,828.65,705.05Z"/><path class="cls-5" d="M857.91,745.23c6-2.75,9.26-1,10.76,4.74s11.52,8.53,7.51,12.28S857.66,765.51,857.91,745.23Z"/><path class="cls-7" d="M712.76,412.68c11.41,26.16,28.78,58,101.41,31.39-1.81.65-35.78,20.56-64.93,12.15C734,451.82,719.63,440.8,712.76,412.68Z"/><path class="cls-7" d="M1048.26,414.18c-7.73,24.49-19.48,54.32-68.63,29.39,1.19.6,23.63,17.76,43.09,11.14C1033.53,451,1043.43,441.53,1048.26,414.18Z"/><path class="cls-4" d="M446.8,383.38c43.4,3.87,97.17-3.33,146.62-13.48s64.67-32.12,64.67-32.12-15.21-32.55-78.62-22.55-119.2,6.49-153.44,6.49-82.74,12.68-100.49,38.62c0,0-6.42,32.45,50.88,26.37C416.42,382.46,430.44,381.92,446.8,383.38Z"/><path d="M468.88,378.75c38.87,3.18,87-2.75,131.3-11.1s57.91-26.44,57.91-26.44-13.62-26.8-70.4-18.57S480.94,328,450.28,328s-74.1,10.44-90,31.8c0,0-3.33,18.93,48,13.93C444.1,370.21,454.22,377.54,468.88,378.75Z"/><path class="cls-9" d="M684.09,340.58s-86.55-10.94-137.91-3.8c0,0,57.07-1.43,81.8,7.6,0,0-32.82,10-53.26,9,0,0,35.6,2.38,51.08,2.38,0,0-42.52,13.31-66.78,11.41,0,0,18.07,3.71,54-2.42S684.09,340.58,684.09,340.58Z"/><path class="cls-8" d="M586.06,214.89s91.37,19.65,93.27,62.44c0,0,1.91-69.42-37.09-81.79S586.06,214.89,586.06,214.89Z"/><path class="cls-8" d="M578.88,208.27S672,199.8,686.52,240.08c0,0-12.92-53.39-53.82-53.57S578.88,208.27,578.88,208.27Z"/><path class="cls-8" d="M719.28,402.87c20.92,0,69-3.35,98,35.66,0,0,15.74-50.87-3.07-76.08S789.66,385.28,719.28,402.87Z"/><path class="cls-5" d="M579.66,649.21l.08,0-.07,0Z"/><path class="cls-5" d="M629.88,670.12s29.3,13.77,29.32,13.78c1.7.81,65.26,31.14,84.17,40.36s74.52,43.66,110.49,102.07c34.39,55.85,117.31,58.43,151.1,7.38-4.5-.57-38.37-7.57-97.65,1.28-63.72,9.51-47.6-33.94-133.55-115.73C761.26,707.36,676.36,647.37,629.88,670.12Z"/><path class="cls-7" d="M547.13,406.17c-17.11,102.13,33,164.52,109,186.9C656.08,593.07,489.6,588.58,547.13,406.17Z"/><path class="cls-7" d="M607,408.44c-27.31,65.76-7.37,121.47,43.65,152.39C650.62,560.83,533.28,527.66,607,408.44Z"/><path class="cls-7" d="M519.73,403.15c-9.51,36.5-48.82,190.68,146.94,211.12C590.75,622.09,428.52,584.28,519.73,403.15Z"/><path class="cls-7" d="M482.37,407.45c-9.75,38.89-50.05,203.13,150.63,224.9C555.17,640.68,388.87,600.4,482.37,407.45Z"/><path class="cls-7" d="M433.14,766.2S419.38,679.65,442.2,628c0,0-71.33,95-54.53,179.71S433.14,766.2,433.14,766.2Z"/><path class="cls-5" d="M561.11,814.82S551.62,733.66,574.54,682c0,0-75.62,89.47-59,174.19S561.11,814.82,561.11,814.82Z"/><path class="cls-5" d="M955.12,839.86s-32.21,27.86-61.64,28.4c0,0,58.38,13.32,92.36-15.06S955.12,839.86,955.12,839.86Z"/><path class="cls-5" d="M940.74,844s-35.54,19.31-62.89,15.25c0,0,51.3,20.58,88.59,1.09S940.74,844,940.74,844Z"/><path class="cls-5" d="M733.49,709.06s-15-28.63-34.54-38.57c0,0,42.28,10.35,58.3,39.89S733.49,709.06,733.49,709.06Z"/><path class="cls-5" d="M753.66,721.21s-6.48-26.33-19.16-42c0,0,38.36,28.17,58.17,59.1C804.77,757.2,753.66,721.21,753.66,721.21Z"/><path class="cls-5" d="M960.62,574.88s-26.57-4-40.63-16.55c0,0,20.8,34.35,49.21,36.13S960.62,574.88,960.62,574.88Z"/><path class="cls-5" d="M956.77,567.34s-26.46-4.68-40.16-17.67c0,0,19.84,34.92,48.19,37.48S956.77,567.34,956.77,567.34Z"/><path class="cls-5" d="M958.25,563.35s-26.36-5.2-39.8-18.45c0,0,19.15,35.3,47.45,38.4S958.25,563.35,958.25,563.35Z"/><path class="cls-5" d="M553.58,836.92s-23-78.4-9.14-133.17c0,0-59.46,100.94-28.77,181.64,7.67,20.17,23.14,10,28.13,9.19C558.78,892.29,553.58,836.92,553.58,836.92Z"/><path class="cls-5" d="M561.31,866.57s-44.58-68.48-47-124.94c0,0-30.2,87.72,22.37,156.21,13.15,17.12,53.48-3,58-5.17C608.41,886.18,561.31,866.57,561.31,866.57Z"/><path class="cls-7" d="M369,906s-30.43-102.89,0-178.56c0,0,24.09,112.13,52,141.06L415.78,906Z"/><path class="cls-5" d="M544.5,887.2C527.18,862,499.6,815.57,497,771.55c0,0-24.7,71.09,2.7,134.39Z"/><path class="cls-8" d="M433.14,313.32c46.15,2.06,103.6-1.75,146.52-9.36s77.83,7.54,87,30.4c0,0-7.34-88.73-69.46-87.46S526.47,289.71,433.14,313.32Z"/><path class="cls-8" d="M447.2,299.72c44.38,1.77,99.6-1.51,140.87-8.05s74.83,6.48,83.66,26.15c0,0-7.06-76.35-66.78-75.26S536.94,279.4,447.2,299.72Z"/><path class="cls-9" d="M522.93,295.29a395.73,395.73,0,0,0,79.22-5.06c23.21-4.12,42.08,4.07,47,16.43,0,0-4-48-37.55-47.29S573.39,282.52,522.93,295.29Z"/><path class="cls-9" d="M525.32,291.34a434.24,434.24,0,0,0,79.22-4.6c23.21-3.74,42.08,3.71,47,14.94,0,0-4-43.61-37.55-43S575.78,279.74,525.32,291.34Z"/><path class="cls-8" d="M808.16,614.27c-27.45-48.61-1.78-85.7,36.79-92.3,0,0,4.83-23.36,46.3-9.29,0,0-27.21-18.83-49.5-3.53,0,0,17.15-31.65,70.8-22,0,0-51-18.82-85.9,12.62C826.65,499.8,744.19,555,808.16,614.27Z"/><path class="cls-8" d="M995.18,488.19c43.26-7.8,57.09,17.72,57.09,17.72-18-12.33-39.92,2.84-39.92,2.84,33.45-11.34,37.34,7.5,37.34,7.5,2.44-8.15,4.42-17.81,5.66-24.48C1028.23,476,995.18,488.19,995.18,488.19Z"/><path class="cls-8" d="M812.48,606.88c2.86,8.08,19.39,36.61,57,40.89s113-2.37,113-2.37,18.55-.66,31.51-7.23c0,0-110.68,11-142.54,2S820.09,617.82,812.48,606.88Z"/><path class="cls-8" d="M1040.26,640.64c5.71,2.38,20.93,8.56,43.28,0C1083.54,640.64,1066.54,643.11,1040.26,640.64Z"/><path class="cls-8" d="M792.67,507c-13.95,15.69-32,30.43-21.33,65.14C771.34,572.16,743.85,530.79,792.67,507Z"/><path class="cls-8" d="M911.22,607c-.27.88-3,1.76-5.66.92s-4.43-3.08-4.16-4,2.43-.07,5.15.77S911.5,606.11,911.22,607Z"/><path class="cls-8" d="M938.34,609.06c-.05.92-2.45,2.41-5.29,2.24s-5-2-5-2.88,2.35-.64,5.18-.46S938.4,608.14,938.34,609.06Z"/><path class="cls-8" d="M886.06,598.3c-.41.83-3.2,1.29-5.75.05s-3.9-3.73-3.49-4.56,2.41.31,5,1.55S886.46,597.47,886.06,598.3Z"/><path class="cls-8" d="M928.07,596.12c-.18.91-2.76,2-5.55,1.49s-4.71-2.63-4.52-3.54,2.41-.3,5.19.26S928.26,595.22,928.07,596.12Z"/><path class="cls-8" d="M902.16,590c-.32.87-3,1.6-5.71.62s-4.25-3.32-3.93-4.19,2.43.07,5.09,1.05S902.48,589.12,902.16,590Z"/><path class="cls-8" d="M920,621.3c-.18.91-2.76,2.05-5.54,1.49s-4.71-2.63-4.53-3.54,2.41-.31,5.19.26S920.17,620.4,920,621.3Z"/><path class="cls-8" d="M894.07,615.17c-.32.86-3,1.6-5.7.61s-4.26-3.31-3.94-4.18,2.43.06,5.1,1S894.4,614.3,894.07,615.17Z"/><path class="cls-8" d="M1100.91,612.68c.42.82-.88,3.33-3.41,4.62s-5.32.88-5.74.06,1.69-1.75,4.22-3S1100.49,611.86,1100.91,612.68Z"/><path class="cls-8" d="M1080.9,623c.17.9-1.78,3-4.56,3.49s-5.36-.63-5.54-1.54,2.11-1.21,4.9-1.75S1080.72,622.12,1080.9,623Z"/><path class="cls-8" d="M1088.16,610c.34.86-1.2,3.23-3.84,4.27s-5.38.38-5.72-.48,1.85-1.58,4.49-2.62S1087.82,609.1,1088.16,610Z"/><path class="cls-8" d="M684.09,429.41c8.56,26.81,1,67.62,128.39,50.78C812.48,480.19,656,525.35,684.09,429.41Z"/><path class="cls-8" d="M1053.34,451.38c-30.62,32.25-76.59,6.06-76.59,6.06,21.15,20.19,39.9,24.77,55.43,22,14.1-2.49,23-14.71,21.24-27.36C1053.38,451.82,1053.35,451.58,1053.34,451.38Z"/><path class="cls-5" d="M731.67,207.75c70.38,31.71,101.65,49.67,130.92,98.91,19.32,32.52,71.72,125.48,64.54,174.93-1.77,12.18-3.77,23-5.81,33.06-9.24,45.64,27,87.71,73.55,85.62,13.25-.59,26.69-1,39.32-1,20.09,0,44.35-39.91,33-56.48-29.67-43.21-55.66-37.91-75.2-59.13-34.59-37.55-89.71-126.94-89.27-176.88S779.2,206,779.2,206Z"/><path class="cls-9" d="M768.62,214.61C825.8,231.43,885.85,266.42,903,330.84c15.59,58.63,47.21,127.43,67.4,149.35-11.21.33-58.2-67.61-75-145.83C875.9,243.43,768.62,214.61,768.62,214.61Z"/><polygon points="958.63 579.14 990.97 604.5 1022.72 623.2 1057.1 606.88 1076.56 600.7 1086.07 588.01 1083.54 568.51 1062.14 556.95 992.21 556.95 958.63 579.14"/><path class="cls-9" d="M956,555.42c21.69-16.12,65.21-33.58,102.73-20.66C1049.3,520.81,994.61,518.43,956,555.42Z"/><path class="cls-11" d="M958.63,579.14c20.29,18.39,33.6,15.22,41.85,5.07s32.51-17.09,31.88-4.41-17.3,32.31-41.39,24.7c0,0,12,23.46,34.87,32.34s46.28-29.17,50.72-36.14c0,0-30.43,0-19.65-21.56s30.43,3.17,29.16,8.87c0,0,11.42-53.25-55.16-53.25S958.63,579.14,958.63,579.14Z"/><path d="M1045.62,548.45s-5.86,50.52-13.34,85.17c.89-1.68,1.79-3.5,2.75-5.5C1047.47,602.31,1045.62,548.45,1045.62,548.45Z"/><path class="cls-8" d="M784.52,378.69s-27.95,11.34-44.59,12c0,0,42.44-19.42,50-27.5Z"/><path class="cls-8" d="M797.44,369s-28.93,8.5-45.56,7.51c0,0,29.94-10.23,45.19-17.91a2.65,2.65,0,0,1,3.62,3.48Z"/><path class="cls-8" d="M1042.53,407.41c-13.41,0-44.18-2.27-62.76,24.17,0,0-9.34-42.69,2.71-59.77S997.44,395.49,1042.53,407.41Z"/><path class="cls-8" d="M998.66,388.7s21.36,11.33,34.08,12c0,0-32.43-19.41-38.25-27.5Z"/><path class="cls-8" d="M988.78,379s22.12,8.5,34.83,7.51c0,0-22.89-10.24-34.54-17.92-1.73-1.14-3.59,1.19-2.77,3.49Z"/><path class="cls-5" d="M753.52,214.67s40.26,20.83,67.21,41.42c2-.68-22.07-26.82-60.87-41.42C724,201.17,753.52,214.67,753.52,214.67Z"/><path class="cls-5" d="M810.17,237.47s32.45,31.66,52.23,59.21c2.09-.08-13.3-32.09-46.16-57.36C785.83,216,810.17,237.47,810.17,237.47Z"/><path class="cls-5" d="M786.3,213.21s42.57,15.57,71.91,32.59c1.88-.94-25.28-23.82-65.62-33.39C755.28,203.55,786.3,213.21,786.3,213.21Z"/><path class="cls-5" d="M826.9,237.74s40.85,19.65,68.38,39.45c2-.74-22.83-26.17-62-39.64C797,225.1,826.9,237.74,826.9,237.74Z"/><path class="cls-7" d="M792.67,399.63c18.86,10.63,26.47,23.53,24.29,34.25-.67,3.29-.32,6.65-2.11,9.49-5,7.89-19.31,22.57-56.54,21.64C803,475.79,854,453,840.46,421.13,840.46,421.13,829.6,396.91,792.67,399.63Z"/><path class="cls-7" d="M794.1,406.36c22.82,7.45,34.23,17.75,32.33,35.51l-12.26,4.28C817.56,440.12,820,419.48,794.1,406.36Z"/><path class="cls-7" d="M833.41,407.92c5.39,14,11.09,22.54,3.33,43C836.74,450.9,858.13,430.72,833.41,407.92Z"/><path class="cls-7" d="M996.05,416A29.46,29.46,0,0,0,978.88,436a9.5,9.5,0,0,0,.56,6.18c2.41,5.38,9.93,15.73,32.4,17.76-27.69,3.7-56.69-14.42-46.16-33.71C965.68,426.25,979.69,403.57,996.05,416Z"/><path class="cls-7" d="M978.72,442.24c-.27-6.62,2.79-16.27,16.46-23.12-17,5.49-25.48,13.08-24.07,26.16l9.13,3.15a14.46,14.46,0,0,1-1.52-6.19"/><path class="cls-7" d="M967.48,419.12c-2.1,10.61-5,17.33,2.16,31.45C969.64,450.57,953.65,437.88,967.48,419.12Z"/><path class="cls-4" d="M776,653.5c-12.4,22.94-12.37,34.38,31.7,85.1s53.63,77.51,59.78,83,18.66,12.24,70.42,4.74c0,0-57.29,7.39-67.43-6.56s-35.28-66.28-73.87-104.46S776,653.5,776,653.5Z"/><path class="cls-4" d="M904.74,823.16c13.63.09,46.76-3.88,62.69-1.58s33.87,3.57,40.28-4.36c0,0-16.45,4.52-38.63,3S932.29,819.35,904.74,823.16Z"/><circle class="cls-4" cx="880.81" cy="817.31" r="2.96"/><circle class="cls-4" cx="892.1" cy="820.08" r="1.5"/><path class="cls-8" d="M671.73,382.11c-28.06,49.21-50.51,116,43.79,134.64a32.56,32.56,0,0,1,26.42,28.58c2,20.35,9.79,48.08,36.21,62.92,0,0-38,20.77-36.07,62.24,0,0-10-32.32,21.39-62.71,0,0-26.82-22.13-34.88-52.74A32.51,32.51,0,0,0,705,531.67C660.38,520.69,588.76,478.87,671.73,382.11Z"/><path class="cls-8" d="M786.8,611.26c-20.92,15.59-40.08,28.76-36.61,69.36C750.19,680.62,748.76,641.31,786.8,611.26Z"/><path class="cls-9" d="M631,670.19s-59.8-21.86-82.58-20.36c-.66-2,57.15-2.29,78.26,4.25Z"/><path class="cls-9" d="M607.17,660.08s-57.54-27.25-80.37-27.84c-.48-2,57.12,3,77.54,11.41Z"/><path class="cls-9" d="M822.26,795.69s-12.56-15-25.8-22c0,0,20.55,10.08,26.48,16Z"/><path class="cls-9" d="M807,776.24S792.13,763.6,777.9,759c0,0,22,6.46,28.81,11.32Z"/><path class="cls-9" d="M789.89,760.43s-15.75-11.58-30.26-15.22c0,0,22.35,4.94,29.53,9.3Z"/><path class="cls-9" d="M768.35,745.62s-16.2-10.94-30.84-14c0,0,22.52,4,29.87,8.12Z"/><path class="cls-5" d="M783.77,748.57s-16.2-10.94-30.84-14c0,0,22.53,4,29.87,8.12Z"/><path class="cls-5" d="M806.28,763.43s-16.2-10.94-30.84-14c0,0,22.52,4,29.87,8.12Z"/><path class="cls-5" d="M824.29,782.35s-14.94-12.62-29.18-17.22c0,0,22,6.42,28.84,11.26Z"/><path class="cls-5" d="M993.82,832.61c-11.9,4-29.13,14.37-29.13,14.37S938.14,872,913,877.22c0,0,61.87,3.19,86.91-31.6,4.17-5.79,5.47-9.68,5-12C1001.15,834.19,996.63,833.32,993.82,832.61Z"/><path class="cls-7" d="M991.32,834.39c-6.47,1.63-15.82,5.86-15.82,5.86s-14.38,10.11-28.07,12.29c0,0,33.7,1,47.22-13,2.25-2.33,3-3.89,2.7-4.8A23,23,0,0,1,991.32,834.39Z"/><path class="cls-7" d="M997.47,834.66c-14.27-1.43-63.49-1.19-92.73,4.75C904.74,839.41,933.74,866.76,997.47,834.66Z"/><path class="cls-9" d="M644.14,438.53c-5.23,10.23-12.91,41.91,10.15,79.71l-29.88-2.9S624.41,467.52,644.14,438.53Z"/><path class="cls-9" d="M644.85,471.46c-.71,8.56,6.39,32.71,21.58,53.79,5.12,7.12,5.27,11.24,14.28,17.85L655.79,550S637.61,505.77,644.85,471.46Z"/><path class="cls-9" d="M452.51,588.58C395.44,633.37,385.23,734,385.23,734s-6.43-96.33,11.64-147.68,27.26-56.41,27.26-56.41C426.06,557,441.86,575,452.51,588.58Z"/><path class="cls-9" d="M434.22,563.92c-38.17,19.25-57.32,77.47-57.32,77.47s9.18-57.8,26.21-85.88S426,525.6,426,525.6C423.5,541.85,430,554.5,434.22,563.92Z"/><path class="cls-4" d="M162.89,748.78c-17.06-73.4,75.15-279,75.15-279S159.36,582,141.32,628.87s-13.92,57.32-13.92,57.32C146,670.51,145.85,749.06,162.89,748.78Z"/><path class="cls-4" d="M271.63,897.84h0A168.61,168.61,0,0,1,103,729.23h0a229.05,229.05,0,0,1,9.81-66.45C142.92,563.59,255.65,277.33,408.28,206c0,0-178.49,98.09-241.9,477.84C166.38,683.79,130.88,862.74,271.63,897.84Z"/><path class="cls-9" d="M408.28,400.7s-4.29,25.46-6.66,54.11c7.53-6.63-153.12,79.95-146,346C255.65,800.79,181,564,408.28,400.7Z"/><path class="cls-9" d="M406.85,401.24s-6.6,39.38-11.87,57.05c6.08-3.11-92,21.9-151.07,148.59C243.91,606.88,255.65,454.81,406.85,401.24Z"/><path class="cls-5" d="M643.06,163.76a38.11,38.11,0,0,1-24.3,6.29c-107.17-8-185.86,34.65-199.67,67.23.1-15.09,24.39-60.9,63.83-69.89,41.36-9.43,98.28-14.15,160.14-3.63Z"/><path class="cls-5" d="M597.6,166.93s-49.1,5-60.47,11.68c0,0,20.14-12.56,46.1-13.88S597.6,166.93,597.6,166.93Z"/><path class="cls-5" d="M572.47,166.63s-48.12,10.08-58.44,17.9A102.62,102.62,0,0,1,557.84,166C583.47,161.93,572.47,166.63,572.47,166.63Z"/><path class="cls-5" d="M616.27,164.92s-49.08,5.09-60.44,11.81c0,0,20.12-12.6,46.07-14S616.27,164.92,616.27,164.92Z"/><path class="cls-5" d="M629.07,165.65s-49.08,4.23-60.43,9.65A125.34,125.34,0,0,1,614.69,164C640.64,162.77,629.07,165.65,629.07,165.65Z"/><path class="cls-5" d="M458.2,190.88S420.51,214.47,414.42,229c0,0,6.47-27,38.72-40.33Z"/><path class="cls-5" d="M472.15,183.44s-42.94,15.77-52.81,28.84c0,0,13.64-25.17,48.51-32Z"/><path class="cls-5" d="M482.8,182.3s-41.46,7.35-56.4,17.81c0,0,30.08-32.5,74.93-34.89Z"/><path class="cls-9" d="M544.28,209.11c31-21.57,99.73-29.45,156.79-29.8a223,223,0,0,1,63.28,9l17.11,4.95S668.87,176.09,544.28,209.11Z"/><path class="cls-8" d="M734.5,756.43c-6,34.93-59.41,104.21-28.82,149.56H689.52s-13.36-33.44-2-61.36S729.72,781.22,734.5,756.43Z"/><path class="cls-8" d="M690.31,840.8s7.65,18.28,8.89,10.39c3-19,16.2-32.58,27.4-50.4C726.6,800.79,698,828.13,690.31,840.8Z"/><path class="cls-8" d="M685.75,859.39s7.49,27.29,8.15,19.34c2.81-33.7,14.47-39,25.38-57.15C719.28,821.58,693.26,846.51,685.75,859.39Z"/><path d="M801.07,676.58c3.8,15.18,12.36,26.59,24.25,22.55C825.32,699.13,806.06,711.34,801.07,676.58Z"/><path d="M825.32,708.88s-3.8,27.1,19.74,28.06C845.06,736.94,818.9,742.64,825.32,708.88Z"/><path d="M855,745.62s0,23,17.84,20.58C872.88,766.2,853.38,774,855,745.62Z"/><path class="cls-9" d="M1080.82,318.46c24.12,7.11,60.49,11.33,68.72,14.68,0,0-26.11-9.73-47.42-12.21Z"/><path class="cls-9" d="M357.39,324.47c25-2.86,60.12-13.16,69-13.29,0,0-27.84,1.22-48.42,7.26Z"/><path class="cls-4" d="M442.2,653.84s9.47-41,20.61-60.23c0,0,20.56,14.14,34.43,14.17C497.24,607.78,462.81,619.49,442.2,653.84Z"/><path class="cls-7" d="M419.34,289.22c-61,13.32-79.54,22-79.54,22s68.27-30.52,84-38.6,65.32-26.78,65.32-26.78l7.13,6.81Z"/><path class="cls-7" d="M470.75,266.9c-61.89,8.14-81.1,15.19-81.1,15.19s70.59-24.67,87-31.4,67.34-21.19,67.34-21.19l6,1.32Z"/><path class="cls-5" d="M803.64,434.14a7.51,7.51,0,0,1-.89,6.26s4.24-1.14,4-2.24A7.69,7.69,0,0,0,803.64,434.14Z"/><path class="cls-5" d="M989.9,435.4a7.48,7.48,0,0,0,.89,6.25s-4.24-1.13-4-2.24A7.59,7.59,0,0,1,989.9,435.4Z"/><path class="cls-6" d="M890.6,759s6.69,30.75,12.1,36.72C902.7,795.69,898.34,773.63,890.6,759Z"/><path class="cls-6" d="M993.15,759s-6.69,30.75-12.1,36.72C981.05,795.69,985.41,773.63,993.15,759Z"/><path class="cls-6" d="M905.05,665c-5.07,2.57-6.08,34.9-4.46,52.66C900.59,717.68,899.65,680.89,905.05,665Z"/><path class="cls-6" d="M1032.32,665c5.08,2.3,6.09,31.3,4.47,47.22C1036.79,712.24,1037.73,679.25,1032.32,665Z"/><path class="cls-6" d="M930.89,699.84c-1.43-6.65,1.19-15.93,3.33-19.22Z"/><path class="cls-6" d="M987.29,682.05c1.42,6.66-1.19,15.93-3.33,19.23Z"/><path class="cls-6" d="M963.13,682.05c1.43,6.66-1.19,15.93-3.33,19.23Z"/><path class="cls-6" d="M964.7,793.83c1.3,3.75-1.08,9-3,10.84Z"/><path class="cls-6" d="M868.71,756.1c-4-.21-7.92-4.39-8.91-6.89Z"/><path class="cls-6" d="M820.39,691c-4-.21-7.92-4.38-8.91-6.89Z"/><path class="cls-6" d="M847.13,728.05c-4-.21-7.92-4.38-8.91-6.89Z"/><path class="cls-6" d="M818,678.61c-3.92-5.9-5.52-15.76-5.07-19.69Z"/><path class="cls-6" d="M928.79,804.4c-3.39-2.07-4.89-7.62-4.57-10.29Z"/><path class="cls-6" d="M1011.81,678.87c2.36,6.39,1.09,15.94-.55,19.51Z"/><path class="cls-10" d="M921.79,727.41c4.12-1.56-.09-23.94-3.58-33.88s1.12-13.41,2.86-14.92h3.46a21.66,21.66,0,0,0-2.74,14.92C923.44,701.83,928.29,726.28,921.79,727.41Z"/><path class="cls-10" d="M930.48,715.3s7.23,25.27-11.16,29.91C919.32,745.21,939.18,744.67,930.48,715.3Z"/><path class="cls-10" d="M975.22,770.62s-12.12,9.51-10.42,16.8c0,0-7.16,2.89-8.52,8.27,0,0-7.95-13.66-9.56-8.59s-2.94,12-2.94,12-1.46-14.22-6.11-12.64-5.6,10.46-5.6,10.46-8.48-13.67-10.58-12.07-3.27,10.83-3.27,10.83,1.73-18.36-1.79-26.34c-3-6.86,11.21,16.49,11.21,16.49L921,758l13.56,24.35s-.34-19-2.5-24.73,11.71,26.11,11.71,26.11c1.08,3.06-.48-14-6.22-35.16-1.32-4.84,14.39,29,18.72,35.16C956.28,783.73,969,772.88,975.22,770.62Z"/><path class="cls-1" d="M1033.61,618.79s12.88-54.79,6.5-79.2c0,0-62.89.36-68.8,33.63,0,0,27.55-19,50.79-13.68C1029.23,561.16,1038,562.38,1033.61,618.79Z"/><path class="cls-1" d="M1039.6,624.6c4.75-15.06,11.09-66.27,9.82-84.22,1.58.83,33.33,7.84,34.88,38.81,0,0-.64-19-23.59-12.5C1054.25,568.51,1051.33,580.17,1039.6,624.6Z"/><path d="M240.84,930.15s-83.39-41.56-89.86-80.5c0,0,75,46.72,146.74,59.52Z"/><path d="M295.43,930.15s-83.38-41.56-89.85-80.5c0,0,75,46.72,146.74,59.52Z"/><path d="M350,930.15s-83.39-41.56-89.85-80.5c0,0,75,46.72,146.74,59.52Z"/><path d="M404.63,930.15s-83.39-41.56-89.86-80.5c0,0,75,46.72,146.74,59.52Z"/><path d="M459.22,930.15s-83.38-41.56-89.85-80.5c0,0,75,46.72,146.74,59.52Z"/><path d="M513.82,930.15s-83.39-41.56-89.85-80.5c0,0,75,46.72,146.74,59.52Z"/><path d="M568.42,930.15s-83.39-41.56-89.86-80.5c0,0,75,46.72,146.74,59.52Z"/><path d="M623,930.15s-83.38-41.56-89.85-80.5c0,0,75,46.72,146.74,59.52Z"/><path d="M677.61,930.15s-83.39-41.56-89.85-80.5c0,0,75,46.72,146.74,59.52Z"/><path d="M758.07,930.15s83.39-41.56,89.85-80.5c0,0-75,46.72-146.74,59.52Z"/><path d="M703.47,930.15s83.39-41.56,89.86-80.5c0,0-75,46.72-146.74,59.52Z"/></g></g></svg>