<svg xmlns="http://www.w3.org/2000/svg" viewBox="0 0 165.95 165.95"><defs><style>.cls-1{fill:#e4da00;}</style></defs><title>Asset 1</title><g id="Layer_2" data-name="Layer 2"><g id="_1200" data-name="1200"><path class="cls-1" d="M83,0h0A82.92,82.92,0,0,0,15.8,131.61L5.46,162.44l31.89-10.2A83,83,0,1,0,83,0Z"/><path d="M51.09,74.22l2.09,1.83A11.37,11.37,0,0,1,49.71,79a8.29,8.29,0,0,1-3.86.92,7.53,7.53,0,0,1-5.48-2.14,7,7,0,0,1-2.2-5.21,7.34,7.34,0,0,1,1-3.8A7.25,7.25,0,0,1,42,66.06a8.81,8.81,0,0,1,4.23-1A7.87,7.87,0,0,1,51,66.45a3.72,3.72,0,0,1,1.85,2.86,2.3,2.3,0,0,1-.29,1.14,2.14,2.14,0,0,1-.89.81,2.61,2.61,0,0,1-1.26.31,2.15,2.15,0,0,1-1-.21,2.27,2.27,0,0,1-.71-.54,5.08,5.08,0,0,1-.49-.88,6.9,6.9,0,0,0-.73-1.21,1.79,1.79,0,0,0-.6-.46,1.92,1.92,0,0,0-.81-.17,2.4,2.4,0,0,0-1.41.48A3.25,3.25,0,0,0,43.6,70a5.13,5.13,0,0,0-.44,2.15,5.22,5.22,0,0,0,.51,2.34A3.75,3.75,0,0,0,45,76.09a3.47,3.47,0,0,0,1.89.54,4.21,4.21,0,0,0,2-.54A8.08,8.08,0,0,0,51.09,74.22Z"/><path d="M60,58.79v7.86a12,12,0,0,1,2.48-1.2,6.82,6.82,0,0,1,2.08-.35,4.84,4.84,0,0,1,2.4.58,3.8,3.8,0,0,1,1.55,1.43,4.66,4.66,0,0,1,.5,2.31v5.91a4.07,4.07,0,0,0,.07,1,.77.77,0,0,0,.43.4,3.79,3.79,0,0,0,1,.07h.67v2.73H62.81V76.84h.42a2.26,2.26,0,0,0,.84-.11.64.64,0,0,0,.31-.32,3.82,3.82,0,0,0,.08-1V70.52a4.39,4.39,0,0,0-.12-1.28,1.07,1.07,0,0,0-.43-.52,1.34,1.34,0,0,0-.77-.2,4,4,0,0,0-1.4.26,8.77,8.77,0,0,0-1.77,1v5.64a3.31,3.31,0,0,0,.09,1,.61.61,0,0,0,.32.31,2.54,2.54,0,0,0,.9.11h.31v2.73H53.36V76.84h.79a2.64,2.64,0,0,0,.89-.09.63.63,0,0,0,.29-.31,2.69,2.69,0,0,0,.1-.88V62.72H53.36V60a17.16,17.16,0,0,0,2.64-.4,18.84,18.84,0,0,0,2.64-.8Z"/><path d="M79.8,71V70a3.48,3.48,0,0,0-.16-1.29,1.27,1.27,0,0,0-.56-.59,2.13,2.13,0,0,0-1-.23,2.11,2.11,0,0,0-.85.16,1.61,1.61,0,0,0-.61.39,3.44,3.44,0,0,0-.53.94,2.94,2.94,0,0,1-.91,1.26,2.1,2.1,0,0,1-1.25.38,2,2,0,0,1-1.49-.57,1.86,1.86,0,0,1-.58-1.4,2.63,2.63,0,0,1,.59-1.68,5.53,5.53,0,0,1,2.37-1.6,9.46,9.46,0,0,1,3.54-.63,7.88,7.88,0,0,1,3.35.64,4.21,4.21,0,0,1,1.92,1.52,5.19,5.19,0,0,1,.55,2.7V75a4.24,4.24,0,0,0,.1,1.2,1,1,0,0,0,.42.45,1.32,1.32,0,0,0,.73.2,3.55,3.55,0,0,0,1.06-.22v2.76a7.75,7.75,0,0,1-2.31.38,5.3,5.3,0,0,1-2.22-.42,4,4,0,0,1-1.55-1.28,11.79,11.79,0,0,1-2.57,1.31,6.94,6.94,0,0,1-2.23.39,4.65,4.65,0,0,1-3.27-1.14,3.66,3.66,0,0,1-1.24-2.81,3.56,3.56,0,0,1,.43-1.74,4.13,4.13,0,0,1,1.29-1.39,8.25,8.25,0,0,1,2.64-1A25.37,25.37,0,0,1,79.8,71Zm0,2.35a15.57,15.57,0,0,0-2.62.54,2.42,2.42,0,0,0-1.09.7,1.34,1.34,0,0,0-.33.85,1.2,1.2,0,0,0,.43,1,1.61,1.61,0,0,0,1.15.38,3,3,0,0,0,1.08-.24,9,9,0,0,0,1.38-.7Z"/><path d="M92.77,65.1V67a9.22,9.22,0,0,1,2.51-1.42,7.5,7.5,0,0,1,2.59-.47,5.05,5.05,0,0,1,1.6.25,4.44,4.44,0,0,1,1.29.64,4.2,4.2,0,0,1,.94,1.08,10.12,10.12,0,0,1,2.63-1.51,7.56,7.56,0,0,1,2.56-.46,5,5,0,0,1,2,.41,4.09,4.09,0,0,1,1.5,1.11,3.52,3.52,0,0,1,.74,1.53,7,7,0,0,1,.11,1.48V75.5a2.51,2.51,0,0,0,.11.93.73.73,0,0,0,.36.33,3.84,3.84,0,0,0,1,.08h.63v2.73h-8.26V76.84a4.3,4.3,0,0,0,1.15-.09.62.62,0,0,0,.35-.3,2.14,2.14,0,0,0,.12-.9V70.4a3.69,3.69,0,0,0-.12-1.18,1.12,1.12,0,0,0-.47-.5,1.6,1.6,0,0,0-.83-.2,3.46,3.46,0,0,0-1.2.24,12,12,0,0,0-1.89,1.09v5.54a2.68,2.68,0,0,0,.12,1,.72.72,0,0,0,.39.33,5.41,5.41,0,0,0,1.11.08v2.73H96.14V76.84a4.6,4.6,0,0,0,1.18-.1.6.6,0,0,0,.32-.31,2.69,2.69,0,0,0,.12-1V70.55a3.62,3.62,0,0,0-.2-1.48,1.16,1.16,0,0,0-1.11-.55,4.14,4.14,0,0,0-.84.09,4.32,4.32,0,0,0-.87.31c-.15.08-.54.32-1.16.74l-.33.21V75.4a3.15,3.15,0,0,0,.09,1,.64.64,0,0,0,.33.32,2,2,0,0,0,.86.13h.38v2.73H86.64V76.84h.55a3.9,3.9,0,0,0,1.1-.09.59.59,0,0,0,.33-.33,2.66,2.66,0,0,0,.12-1V69h-2.1V66.31a15.82,15.82,0,0,0,4.8-1.21Z"/><path d="M122.14,71V70a3.78,3.78,0,0,0-.15-1.29,1.34,1.34,0,0,0-.57-.59,2.08,2.08,0,0,0-1-.23,2.15,2.15,0,0,0-.85.16,1.69,1.69,0,0,0-.61.39,3.49,3.49,0,0,0-.52.94,3,3,0,0,1-.92,1.26,2.1,2.1,0,0,1-1.25.38,2.05,2.05,0,0,1-1.49-.57,1.9,1.9,0,0,1-.58-1.4,2.58,2.58,0,0,1,.6-1.68,5.56,5.56,0,0,1,2.36-1.6,9.46,9.46,0,0,1,3.54-.63,7.85,7.85,0,0,1,3.35.64A4.29,4.29,0,0,1,126,67.26a5.3,5.3,0,0,1,.54,2.7V75a4.67,4.67,0,0,0,.1,1.2,1,1,0,0,0,.43.45,1.26,1.26,0,0,0,.72.2,3.49,3.49,0,0,0,1.06-.22v2.76a7.75,7.75,0,0,1-2.31.38,5.3,5.3,0,0,1-2.22-.42,4,4,0,0,1-1.54-1.28,12,12,0,0,1-2.57,1.31,7,7,0,0,1-2.23.39,4.7,4.7,0,0,1-3.28-1.14,3.66,3.66,0,0,1-1.24-2.81,3.56,3.56,0,0,1,.43-1.74,4.13,4.13,0,0,1,1.29-1.39,8.22,8.22,0,0,1,2.65-1A25.08,25.08,0,0,1,122.14,71Zm0,2.35a15.57,15.57,0,0,0-2.62.54,2.42,2.42,0,0,0-1.09.7,1.33,1.33,0,0,0-.32.85,1.22,1.22,0,0,0,.42,1,1.63,1.63,0,0,0,1.15.38,3,3,0,0,0,1.08-.24,9,9,0,0,0,1.38-.7Z"/><path d="M44.45,89.58v1.89A12.12,12.12,0,0,1,47.19,90a7.18,7.18,0,0,1,2.33-.4,5,5,0,0,1,2.43.58,3.76,3.76,0,0,1,1.54,1.46A5.18,5.18,0,0,1,54,94.09V100a2.71,2.71,0,0,0,.1,1,.69.69,0,0,0,.34.31,3.82,3.82,0,0,0,1,.07h.69v2.74H47.81v-2.74a10.18,10.18,0,0,0,1.06,0,.69.69,0,0,0,.47-.33,2.74,2.74,0,0,0,.11-1V94.79a2.59,2.59,0,0,0-.21-1.3A1.22,1.22,0,0,0,48.16,93a3.6,3.6,0,0,0-1.3.27A8.81,8.81,0,0,0,45,94.37V100a2,2,0,0,0,.2,1.13,1.42,1.42,0,0,0,1,.21h.45v2.74H38.38v-2.74h.41a5.44,5.44,0,0,0,1.21-.08.69.69,0,0,0,.35-.3,1.91,1.91,0,0,0,.12-.83V93.52H38.38V90.79a18.79,18.79,0,0,0,4.76-1.21Z"/><path d="M64,89.58a8.94,8.94,0,0,1,4.22,1A6.87,6.87,0,0,1,71,93.12,7.32,7.32,0,0,1,72,97a7.14,7.14,0,0,1-2.15,5.38,8,8,0,0,1-5.75,2.06,8,8,0,0,1-5.83-2.08A7,7,0,0,1,56.15,97a7.31,7.31,0,0,1,1-3.83,7,7,0,0,1,2.76-2.57A8.76,8.76,0,0,1,64,89.58Zm.06,3.1a2.69,2.69,0,0,0-1.52.49,3.09,3.09,0,0,0-1.09,1.41A6.27,6.27,0,0,0,61.08,97a6.69,6.69,0,0,0,.38,2.46,3,3,0,0,0,1.06,1.45,2.52,2.52,0,0,0,1.47.47,2.71,2.71,0,0,0,2.14-1.06A5,5,0,0,0,67,97a5.29,5.29,0,0,0-.82-3.23A2.58,2.58,0,0,0,64.08,92.68Z"/><path d="M82.56,89.92h12v2.74l-8.43,8.41h1.92a6.46,6.46,0,0,0,2.34-.33,4,4,0,0,0,1.44-1,7.05,7.05,0,0,0,1-1.69l2.57,1-1.87,5.07H80.18v-2.74l8.36-8.41h-1.3a5.64,5.64,0,0,0-1.92.25,3.51,3.51,0,0,0-1.3.93,11.92,11.92,0,0,0-1.12,1.69l-2.48-1.14Z"/><path d="M103.58,95.49v-1a3.72,3.72,0,0,0-.16-1.29,1.29,1.29,0,0,0-.57-.59,2.33,2.33,0,0,0-1.86-.07,1.61,1.61,0,0,0-.61.39,3.44,3.44,0,0,0-.53.94,3,3,0,0,1-.91,1.26,2.1,2.1,0,0,1-1.25.38,2,2,0,0,1-1.49-.57,1.85,1.85,0,0,1-.58-1.4,2.63,2.63,0,0,1,.59-1.68,5.53,5.53,0,0,1,2.37-1.6,9.46,9.46,0,0,1,3.54-.63,8,8,0,0,1,3.35.64,4.21,4.21,0,0,1,1.92,1.52,5.19,5.19,0,0,1,.55,2.7v5.07a4.24,4.24,0,0,0,.1,1.2,1,1,0,0,0,.42.46,1.39,1.39,0,0,0,.72.19,3.54,3.54,0,0,0,1.07-.22v2.76a7.85,7.85,0,0,1-2.31.38,5.3,5.3,0,0,1-2.22-.42,4,4,0,0,1-1.55-1.28,11.36,11.36,0,0,1-2.57,1.31,6.94,6.94,0,0,1-2.23.39,4.65,4.65,0,0,1-3.27-1.14,3.67,3.67,0,0,1-1.25-2.81,3.57,3.57,0,0,1,.44-1.74,4,4,0,0,1,1.28-1.39,8.67,8.67,0,0,1,2.65-1A25.37,25.37,0,0,1,103.58,95.49Zm0,2.35a15.57,15.57,0,0,0-2.62.54,2.36,2.36,0,0,0-1.09.7,1.36,1.36,0,0,0-.33.85,1.2,1.2,0,0,0,.43.95,1.61,1.61,0,0,0,1.14.39,3.12,3.12,0,0,0,1.09-.25,9,9,0,0,0,1.38-.7Z"/><path d="M116.2,89.58v1.57a14,14,0,0,1,2.47-1.28,5.75,5.75,0,0,1,1.83-.29,5.07,5.07,0,0,1,4,1.83,8,8,0,0,1,1.78,5.35,8.46,8.46,0,0,1-1.56,5.21,5.62,5.62,0,0,1-4.78,2.42,6,6,0,0,1-1.69-.21,6.3,6.3,0,0,1-1.57-.8v2.84a3.63,3.63,0,0,0,.08,1,.69.69,0,0,0,.32.31,4,4,0,0,0,1.1.09h.67v2.73h-8.78v-2.73h.47a5,5,0,0,0,1.18-.08.61.61,0,0,0,.32-.33,2.7,2.7,0,0,0,.12-1V93.53h-2.09V90.79a22.55,22.55,0,0,0,2.59-.46,14,14,0,0,0,2.17-.75Zm.52,4.42v4.62a4.37,4.37,0,0,0,.2,1.55,1.65,1.65,0,0,0,.71.75,2.32,2.32,0,0,0,1.16.29,2.27,2.27,0,0,0,1.9-1.06,5.56,5.56,0,0,0,.76-3.23,5.35,5.35,0,0,0-.66-3,1.92,1.92,0,0,0-1.62-1A4.16,4.16,0,0,0,116.72,94Z"/></g></g></svg>