<svg xmlns="http://www.w3.org/2000/svg" viewBox="0 0 235.64 93.73"><defs><style>.cls-1,.cls-2{fill:#e4da00;}.cls-2{fill-rule:evenodd;}</style></defs><title>Asset 2</title><g id="Layer_2" data-name="Layer 2"><g id="_1200" data-name="1200"><polygon class="cls-1" points="212.08 93.56 214.01 88.66 228.39 88.66 230.33 93.56 235.64 93.56 221.2 57.09 206.76 93.56 212.08 93.56"/><path class="cls-1" d="M183.15,93.57v-36h9.46a9.88,9.88,0,0,1,7.26,3,10.07,10.07,0,0,1,.2,14.18,9.94,9.94,0,0,1,3.41,3.65,10.14,10.14,0,0,1-1.72,12.16,10,10,0,0,1-7.27,3Z"/><path class="cls-1" d="M148.89,93.57H144v-36l17.12,25.89,17.1-25.89v36H148.89Z"/><path class="cls-2" d="M78.11,60.57A39.24,39.24,0,0,0,68,27.58l1.13-8.31c.48-1.75-3.73-4.52-10.12-6.95a1.88,1.88,0,0,1,2.23-.66c-.26-.11,3.07,1.05,7.38,2.49C83,19,84.45,6.27,81,5.74,66.11,3.44,64.07-1.4,55.82.39,49,2.16,47.25,6.9,46.29,8.73,39,7.34,33.48,7.5,33,9.33l-3.23,7A39.29,39.29,0,1,0,78.11,60.57ZM28.42,55c-2.72,1.71-6,.65-7.88-1.84C13.85,43.87,19.14,33,20,31.57a1.87,1.87,0,0,1,2.79-.49c2,1.65-.51,3.3,3.64,7.13,2.9,2.69,5.3,5.31,5.59,8.55A8.73,8.73,0,0,1,28.42,55ZM56,63.16c-2.92,1.13-6.25.31-7.67-2.57a8.7,8.7,0,0,1,1.22-8.87c2-2.62,5.36-3.59,9.25-4.35,5.54-1.09,4.29-3.8,6.83-4.16a1.87,1.87,0,0,1,2.13,1.88C67.69,46.78,66.5,58.8,56,63.16Z"/><path class="cls-1" d="M104.64,52.67h-21V16.25h4.94v31.6h16.11Z"/><path class="cls-1" d="M131.65,47.86H117l-1.81,4.76h-5.4l14.51-36.56,14.54,36.61h-5.33Z"/><path class="cls-1" d="M146.12,51.71a2.9,2.9,0,0,1-2.15.91,3.06,3.06,0,0,1-2.19-.91,3,3,0,0,1-.91-2.17,2.88,2.88,0,0,1,.91-2.17,2.94,2.94,0,0,1,2.19-.91A3.11,3.11,0,0,1,147,49.54,2.93,2.93,0,0,1,146.12,51.71Z"/><path class="cls-1" d="M83.59,93.57v-36h9.46a9.89,9.89,0,0,1,7.27,3,10.1,10.1,0,0,1,.2,14.18,10.29,10.29,0,0,1,4.7,8.6,9.77,9.77,0,0,1-3,7.21,10,10,0,0,1-7.26,3Z"/><path class="cls-1" d="M112.35,87.55a17,17,0,0,1,0-24,17,17,0,0,1,29,12,17,17,0,0,1-29,12Z"/></g></g></svg>