<svg xmlns="http://www.w3.org/2000/svg" viewBox="0 0 241.22 40.61"><defs><style>.cls-1{fill:#fff;}</style></defs><title>Asset 2</title><g id="Layer_2" data-name="Layer 2"><g id="Layer_1-2" data-name="Layer 1"><polygon class="cls-1" points="215.09 40.6 217.23 35.17 233.18 35.17 235.33 40.6 241.22 40.6 225.2 0.15 209.19 40.6 215.09 40.6"/><path class="cls-1" d="M183,40.61V.71h10.49A11,11,0,0,1,201.55,4a10.8,10.8,0,0,1,3.34,8,10.75,10.75,0,0,1-3.12,7.73A11.35,11.35,0,0,1,207,29.3a10.79,10.79,0,0,1-3.34,8,11,11,0,0,1-8.06,3.32Z"/><path class="cls-1" d="M145,40.61h-5.43V.7l19,28.71L177.52.7V40.61H145Z"/><path class="cls-1" d="M23.34,40.6H0V.71H5.48V35.26H23.34Z"/><path class="cls-1" d="M53.3,35.26H37.09l-2,5.28h-6L45.19,0,61.32,40.61H55.41Z"/><path class="cls-1" d="M69.35,39.54a3.22,3.22,0,0,1-2.38,1,3.42,3.42,0,0,1-2.44-1,3.37,3.37,0,0,1-1-2.41,3.24,3.24,0,0,1,1-2.41,3.31,3.31,0,0,1,2.44-1,3.45,3.45,0,0,1,3.39,3.42A3.26,3.26,0,0,1,69.35,39.54Z"/><path class="cls-1" d="M72.59,40.61V.71H83.08A11,11,0,0,1,91.14,4a10.8,10.8,0,0,1,3.34,8,10.75,10.75,0,0,1-3.12,7.73,11.42,11.42,0,0,1,5.21,9.54,10.83,10.83,0,0,1-3.34,8,11.05,11.05,0,0,1-8.06,3.32Z"/><path class="cls-1" d="M104.48,33.93A18.16,18.16,0,0,1,99,20.6a18.18,18.18,0,0,1,5.52-13.31,18.88,18.88,0,0,1,26.64,0,18.13,18.13,0,0,1,5.51,13.31,18.11,18.11,0,0,1-5.51,13.33,18.81,18.81,0,0,1-26.64,0Z"/></g></g></svg>