<?xml version="1.0" encoding="utf-8"?>
<!-- Generator: Adobe Illustrator 23.0.3, SVG Export Plug-In . SVG Version: 6.00 Build 0)  -->
<svg version="1.1" id="Layer_1" xmlns="http://www.w3.org/2000/svg" xmlns:xlink="http://www.w3.org/1999/xlink" x="0px" y="0px"
	 viewBox="0 0 613 179" style="enable-background:new 0 0 613 179;" xml:space="preserve">
<style type="text/css">
	.st0{fill:#E7E000;}
	.st1{fill:#E50051;}
</style>
<g>
	<polygon class="st0" points="335.3,164 392.9,77.4 351.2,77.4 293.6,164 	"/>
	<g>
		<path class="st1" d="M324.9,68.9l-0.7-0.1l-1.9-0.3c-1.7-0.2-4.2-0.6-7.3-0.9c-3.2-0.3-7-0.7-11.4-0.8c-4.9-0.2-9.9-0.2-14.8,0.1
			c-2.8,0.2-5.6,0.4-8.4,0.7c-2.9,0.3-5.9,0.7-9,1.2c-6.4,1-12.8,2.5-19,4.5c-3.3,1-6.5,2.3-9.6,3.7c-1.6,0.7-3.1,1.5-4.7,2.4
			c-1.5,0.9-3,1.8-4.5,2.8c-3,1.9-6,3.9-8.7,6.2c-0.6,0.6-1.3,1.2-1.8,1.8c-0.5,0.6-0.9,1.3-1.1,2c-0.1,0.3-0.1,0.6,0,0.9
			c0.1,0.1,0.1,0.3,0.2,0.4c0.1,0.1,0.2,0.2,0.3,0.3c0.5,0.3,1.3,0.4,2.1,0.2c1.7-0.3,3.4-0.8,5-1.6c1.6-0.7,3.3-1.5,4.9-2.3
			c3.2-1.6,6.4-3.4,9.7-4.9c6.5-2.8,13.3-4.9,20.3-6.3c6.5-1.3,13.1-2.1,19.7-2.4c3.1-0.1,6.2-0.2,9.2-0.1c3,0.1,5.8,0.3,8.6,0.6
			c5,0.5,9.9,1.3,14.8,2.4c2.2,0.5,4.2,1.1,6,1.6c1.8,0.6,3.5,1.1,5,1.6c3,1,5.4,2,6.9,2.6c0.8,0.3,1.4,0.6,1.8,0.8l0.6,0.3
			c0,0-0.9-0.3-2.5-0.8c-1.6-0.5-4-1.2-7.1-2.1l-5.1-1.4c-1.9-0.5-3.8-1-6-1.4c-4.8-1-9.7-1.8-14.7-2.2c-2.7-0.3-5.5-0.4-8.5-0.5
			c-2.9-0.1-6,0-9.1,0.1c-6.5,0.3-13,1.1-19.4,2.4c-6.8,1.3-13.5,3.4-19.9,6.1c-3.2,1.4-6.4,3.2-9.6,4.8c-1.6,0.8-3.3,1.6-5,2.3
			c-1.7,0.8-3.5,1.3-5.4,1.7c-0.5,0.1-1,0.1-1.6,0c-0.6,0-1.2-0.2-1.7-0.6c-0.3-0.2-0.5-0.4-0.7-0.7c-0.2-0.2-0.3-0.5-0.4-0.8
			c-0.2-0.6-0.2-1.2-0.1-1.8c0.3-1,0.8-1.9,1.5-2.7c0.6-0.7,1.3-1.4,2-2c2.8-2.5,5.9-4.4,8.9-6.4l4.6-2.9c1.6-0.9,3.2-1.7,4.8-2.4
			c3.2-1.5,6.5-2.7,9.8-3.8c6.3-2,12.7-3.5,19.3-4.6c5.8-1,11.7-1.6,17.6-1.8c5-0.2,10-0.2,15,0c3.9,0.2,7.7,0.7,11.5,1.3
			c1.6,0.3,3,0.6,4.2,0.8l3.1,0.8l1.9,0.5L324.9,68.9"/>
		<path class="st1" d="M324.8,82.5l-0.5,0.5l-1.4,1.4c-1.6,1.6-3.1,3.3-4.5,5.1c-0.9,1.2-1.7,2.5-2.4,3.8c-0.8,1.5-1.3,3-1.6,4.7
			c-0.3,1.7-0.3,3.5,0,5.2c0.4,1.8,1,3.5,2,5c1,1.6,2.1,3,3.4,4.3c0.6,0.7,1.3,1.3,2,1.9l0.6,0.5c0.1,0.1,0.1,0.1,0.2,0.2
			c0.1,0.1,0.3,0.3,0.3,0.5c0.3,0.7,0.3,1.5-0.1,2.1c-0.1,0.1-0.2,0.3-0.4,0.4c-0.1,0.1-0.2,0.1-0.3,0.2l-0.5,0.4
			c-0.3,0.3-0.6,0.5-0.9,0.8c-0.6,0.6-1.2,1.2-1.7,1.7c-1,1.1-1.9,2.3-2.7,3.6c-0.7,1.1-1.2,2.2-1.6,3.4c-0.3,0.9-0.5,1.9-0.7,2.9
			c-0.1,0.6-0.2,1.3-0.2,1.9l0,0.7l-0.1-0.7c-0.1-0.6-0.1-1.3-0.1-1.9c0-1,0.2-2,0.4-3c0.3-1.3,0.7-2.6,1.3-3.8
			c0.7-1.4,1.6-2.7,2.6-4c0.5-0.7,1.1-1.3,1.8-1.9c0.3-0.3,0.6-0.6,1-0.9l0.5-0.4c0.1-0.1,0.2-0.2,0.2-0.2c0,0,0.1-0.1,0.1-0.1
			c0.1-0.1,0.1-0.3,0-0.5c0,0-0.1-0.1,0-0.1c0,0-0.1-0.1-0.1-0.1l-0.1-0.1l-0.5-0.5c-0.7-0.6-1.4-1.3-2.1-2
			c-1.4-1.4-2.6-2.9-3.6-4.6c-1-1.7-1.8-3.6-2.2-5.5c-0.4-1.9-0.4-3.9,0-5.8c0.3-1.8,1-3.5,1.8-5.1c0.7-1.4,1.6-2.7,2.6-4
			c1.5-1.8,3-3.5,4.8-5.1l1.4-1.3l0.3-0.3l0.1-0.1L324.8,82.5z"/>
		<path class="st1" d="M326.3,131.4l0.5,0c0.6,0,1.1,0.2,1.7,0.3c0.8,0.3,1.6,0.7,2.2,1.3c0.9,0.7,1.6,1.6,2.2,2.6
			c0.7,1.2,1,2.7,0.7,4.1c-0.2,0.8-0.5,1.5-1.1,2.2c-0.5,0.6-1.2,1.1-1.9,1.5c-0.2,0.1-0.4,0.2-0.5,0.2c-0.2,0.1-0.4,0.2-0.6,0.2
			l-1.6,0.5l-0.6,0.1l-1.2,0.2c-1.6,0.2-3.2,0.2-4.7,0c-1.6-0.2-3.1-0.6-4.6-1.2c-1.4-0.5-2.8-1.2-4.1-2c-1.2-0.8-2.4-1.7-3.3-2.7
			l-0.2-0.2l-0.1-0.1l0,0l0-0.1l0-0.1l-0.3-0.4c-0.1-0.2-0.2-0.3-0.3-0.5l-0.2-0.5c-0.2-0.7-0.4-1.4-0.3-2.1
			c0.1-1.2,0.6-2.4,1.5-3.2c0.6-0.6,1.4-1.1,2.2-1.4c0.3-0.1,0.6-0.2,0.9-0.3c0.2-0.1,0.5-0.1,0.7-0.1l0.6-0.1l0.1,1l-0.5,0.1
			c-0.2,0-0.4,0.1-0.6,0.2c-0.3,0.1-0.5,0.2-0.7,0.3c-0.6,0.3-1.2,0.7-1.7,1.2c-0.6,0.6-0.9,1.4-0.9,2.3c0,0.5,0.1,0.9,0.3,1.4
			c0,0.1,0.1,0.2,0.2,0.3c0.1,0.1,0.1,0.2,0.2,0.3l0.3,0.5l0,0l0,0l0.2,0.2c0.9,0.9,1.9,1.7,3,2.3c1.2,0.7,2.4,1.3,3.7,1.8
			c1.3,0.5,2.7,0.8,4.1,1c1.4,0.2,2.8,0.2,4.2,0l1-0.2l0.5-0.1l1.6-0.4c0.1,0,0.3-0.1,0.4-0.1c0.1,0,0.3-0.1,0.4-0.2
			c1-0.4,1.8-1.3,2.1-2.3c0.2-1,0-2.1-0.5-3c-0.4-0.8-1-1.6-1.7-2.2c-0.5-0.5-1.1-0.9-1.8-1.2c-0.4-0.2-0.8-0.3-1.3-0.4l-0.5-0.1
			L326.3,131.4z"/>
		<path class="st1" d="M345.8,121.9l-0.3-0.3l-0.8-0.7l-0.6-0.5c-0.2-0.2-0.4-0.3-0.7-0.5c-0.5-0.4-1.1-0.7-1.7-0.9
			c-0.7-0.2-1.4-0.4-2.2-0.3c-0.8,0-1.6,0.2-2.4,0.5c-0.9,0.3-1.7,0.7-2.4,1.2c-0.8,0.5-1.6,1.2-2.3,1.8c-0.7,0.7-1.4,1.4-2,2.2
			c-0.6,0.7-1.2,1.5-1.7,2.3c-0.5,0.8-0.9,1.6-1.3,2.4c-0.4,0.7-0.7,1.5-1,2.2c-0.1,0.4-0.2,0.7-0.3,1c-0.1,0.3-0.2,0.7-0.3,0.9
			c-0.1,0.5-0.2,1-0.3,1.6c-0.1,0.3-0.1,0.7-0.1,1l0,0.4l-0.1-0.4c-0.1-0.3-0.1-0.7-0.1-1.1c0-0.6,0-1.1,0-1.7c0-0.3,0.1-0.7,0.1-1
			l0.2-1.1c0.2-0.8,0.4-1.6,0.7-2.4c0.3-0.9,0.7-1.8,1.2-2.6l0.7-1.3l0.9-1.3c0.6-0.9,1.3-1.7,2-2.4c0.8-0.8,1.6-1.4,2.5-2.1
			c0.9-0.6,1.8-1.1,2.8-1.4c1-0.3,2-0.5,3-0.4c0.9,0.1,1.8,0.3,2.7,0.8c0.4,0.2,0.7,0.4,1,0.7c0.3,0.2,0.5,0.5,0.8,0.7
			c0.4,0.4,0.7,0.9,1,1.4c0.2,0.3,0.3,0.6,0.5,0.9L345.8,121.9 M314.6,140.5l0.1,0.3l0.2,0.9c0.2,1,0.5,2,0.9,3l0.8,1.9
			c0.3,0.7,0.7,1.4,1,2.1c0.4,0.7,0.9,1.4,1.4,2c0.2,0.3,0.5,0.6,0.8,1l0.9,0.9l1,0.8l0.6,0.4c0,0-0.1-0.1,0,0l0,0l0,0l0,0
			c0,0-0.1-0.1-0.1,0c0,0-0.1,0-0.1,0c-0.1,0-0.2,0.1-0.2,0.2c0,0,0,0,0,0.1c0,0,0,0,0,0l0-0.1l0-0.3c0-0.4,0.1-0.9,0.1-1.3
			c0.1-1.6,0.4-3.1,0.7-4.6c0.2-1.1,0.5-2.2,0.9-3.3c0.2-0.4,0.3-0.7,0.4-0.9l0.2-0.3l1.3,0.7l-0.1,0.3c-0.1,0.2-0.2,0.4-0.3,0.8
			c-0.4,1-0.7,2-0.9,3c-0.3,1.5-0.5,3-0.6,4.5c0,0.4-0.1,0.8-0.1,1.3l0,0.3c0,0.2,0,0.3-0.1,0.5c-0.2,0.6-1,0.9-1.6,0.7
			c0,0-0.1,0-0.1-0.1l-0.1-0.1l-0.1-0.1l-0.6-0.4c-0.4-0.3-0.7-0.6-1.1-0.9c-0.3-0.3-0.7-0.7-1-1c-0.3-0.4-0.6-0.7-0.9-1.1
			c-0.5-0.7-1-1.4-1.4-2.2c-0.4-0.7-0.8-1.5-1.1-2.2c-0.3-0.7-0.6-1.4-0.8-2.1c-0.3-1-0.6-2.1-0.9-3.2l-0.3-1.2L314.6,140.5z"/>
		<path class="st1" d="M377.3,58.2l0.3-0.1c0.3-0.1,0.5-0.2,0.7-0.3c0.4-0.2,0.7-0.3,1-0.5c0.4-0.3,0.9-0.6,1.3-0.9
			c0.5-0.4,0.9-0.8,1.3-1.3c0.5-0.5,0.9-1.1,1.3-1.6c0.9-1.3,1.7-2.6,2.4-4l0.4-0.8l0,0.1l0,0l0,0l0,0c0,0,0,0.1,0,0.1c0,0,0,0,0,0
			c0,0.1,0,0.2,0.1,0.2c0.1,0.1,0.1,0.1,0.2,0.1l-1.2,0.1l-1.2,0.1c-1.4,0.2-2.9,0.3-4.3,0.3c-1.1,0-2.1-0.1-3.2-0.3
			c-0.3-0.1-0.6-0.1-0.9-0.2l-0.3-0.1l0.5-1.4l0.3,0.1c0.2,0.1,0.5,0.2,0.7,0.2c0.9,0.2,1.9,0.3,2.9,0.2c1.4,0,2.8-0.1,4.2-0.3
			l2.4-0.3c0.7-0.1,1.3,0.4,1.3,1.1c0,0.1,0,0.1,0,0.2c0,0.1,0,0.2-0.1,0.3l0,0.1l0,0.1l0,0l-0.1,0.3l-0.3,0.5
			c-0.8,1.4-1.6,2.8-2.6,4.2c-0.4,0.6-0.9,1.2-1.4,1.8c-0.5,0.5-1,1-1.5,1.4c-0.5,0.4-0.9,0.7-1.4,1c-0.4,0.2-0.8,0.4-1.2,0.6
			c-0.4,0.2-0.6,0.2-0.8,0.3l-0.3,0.1L377.3,58.2z M345,120.7c0,0-0.1,0.1-0.1,0.3c0,0.1,0,0.2,0,0.2c0,0.2,0,0.3,0,0.5
			c0,0.4,0.2,0.8,0.4,1.2c0.2,0.5,0.6,0.8,1.1,1c0.6,0.2,1.2,0.3,1.9,0.2c0.2,0,0.4,0,0.6-0.1l0.6-0.1l1.2-0.4l1.2-0.5l1.3-0.7
			l1.1-0.7l1.1-0.8c0.7-0.6,1.3-1.3,1.9-2c0.5-0.7,1-1.4,1.4-2.2c0.3-0.7,0.6-1.5,0.7-2.3c0.1-0.6,0-1.3-0.2-1.9
			c-0.1-0.1-0.1-0.2-0.2-0.4l-0.2-0.3l0,0c0,0,0,0,0,0l-0.3-0.2c-0.1-0.1-0.2-0.2-0.3-0.3c-0.3-0.3-0.7-0.5-1.1-0.6
			c-0.3-0.1-0.6-0.1-0.9,0l-0.7-0.8c0.1-0.1,0.3-0.2,0.5-0.3c0.4-0.2,0.8-0.2,1.3-0.2c0.6,0.1,1.2,0.3,1.7,0.6l0.4,0.3l0.2,0.1
			l0.1,0.1c0,0,0,0,0.1,0.1l0.1,0.1l0.5,0.5c0.1,0.2,0.2,0.4,0.4,0.6c0.4,0.9,0.6,1.8,0.5,2.7c-0.1,1-0.3,1.9-0.7,2.8
			c-0.4,0.9-0.9,1.8-1.5,2.6l-0.5,0.6l-0.5,0.6c-0.4,0.4-0.7,0.7-1.1,1.1c-0.4,0.4-0.8,0.6-1.2,1c-0.4,0.3-0.9,0.6-1.3,0.9l-1.3,0.7
			c-0.5,0.2-0.9,0.4-1.4,0.6c-0.5,0.2-0.9,0.3-1.4,0.4c-0.5,0.1-1,0.2-1.4,0.2c-1,0.1-1.9-0.1-2.7-0.6c-0.7-0.4-1.3-1.1-1.6-1.8
			c-0.2-0.6-0.3-1.2-0.3-1.8c0-0.2,0-0.5,0.1-0.7c0.1-0.2,0.1-0.4,0.2-0.6c0-0.1,0.1-0.2,0.2-0.2l0.1-0.1L345,120.7z"/>
		<path class="st1" d="M344.6,90.4l-0.1,0.1l-0.3,0.4c-0.4,0.5-0.8,0.9-1.2,1.3c-1.5,1.4-3.2,2.7-5.1,3.7l-3.6,2
			c-1.3,0.7-2.4,1.6-3.5,2.6c-0.5,0.5-0.8,1.1-0.9,1.8c-0.1,0.7,0,1.4,0.3,2.1c0.3,0.7,0.7,1.4,1.1,2c0.4,0.6,1,1.1,1.6,1.5
			c1.3,0.7,2.9,0.9,4.5,0.8c1.6-0.1,3.1-0.4,4.6-0.9c0.7-0.2,1.4-0.5,2.1-0.8l0.5-0.2l0.2-0.1l0.3-0.1c0.4-0.2,0.7-0.3,1.1-0.5
			c1.4-0.5,2.9-0.5,4.4-0.2c1.2,0.3,2.3,0.9,3.3,1.8c0.7,0.6,1.2,1.4,1.7,2.3c0.3,0.5,0.5,1.1,0.6,1.7c0.1,0.4,0.1,0.6,0.1,0.6
			s-0.1-0.2-0.4-0.5c-0.2-0.3-0.6-0.8-1-1.4c-0.5-0.7-1.1-1.3-1.8-1.8c-0.8-0.7-1.8-1.2-2.8-1.4c-1.2-0.2-2.5-0.1-3.7,0.3
			c-0.3,0.1-0.6,0.2-0.9,0.4l-0.2,0.1c-0.1,0.1-0.2,0.1-0.3,0.2l-0.5,0.2c-0.7,0.3-1.5,0.6-2.3,0.8c-1.6,0.5-3.3,0.8-5,1
			c-1.7,0.1-3.6-0.1-5.3-1c-0.8-0.5-1.5-1.1-2.1-1.9c-0.5-0.7-1-1.5-1.3-2.4c-0.4-0.9-0.5-1.9-0.3-2.8c0.2-0.9,0.6-1.8,1.3-2.5
			c1.1-1.1,2.4-2.1,3.8-2.9c1.3-0.7,2.5-1.4,3.6-2c1.8-0.9,3.4-2.1,4.9-3.4c0.4-0.4,0.8-0.8,1.1-1.2c0.1-0.1,0.2-0.3,0.3-0.3
			l0.1-0.1L344.6,90.4z M316.6,67.4l-0.1-0.2l-0.2-0.7c-0.3-0.9-0.5-1.7-0.6-2.6c-0.2-1.4-0.2-2.8,0-4.2c0.2-1.8,0.8-3.5,1.5-5.2
			c0.9-2,2.3-3.7,4.1-5c0.2-0.2,0.5-0.4,0.8-0.5l0.7-0.4c0.5-0.3,1.1-0.5,1.7-0.7c1.2-0.4,2.4-0.6,3.6-0.7c2.6-0.2,5.1,0.1,7.6,1
			c0.6,0.2,1.2,0.5,1.8,0.8c0.5,0.3,1,0.5,1.6,0.6c1.2,0.1,2.4,0,3.4-0.4c1.1-0.4,2.2-1,3.1-1.8c0.5-0.4,0.9-0.8,1.3-1.2
			c0.3-0.4,0.6-0.9,0.7-1.4c0-0.1,0-0.2,0-0.3c0-0.1,0-0.3-0.1-0.4c-0.1-0.3-0.2-0.5-0.3-0.8c-0.2-0.5-0.5-0.9-0.9-1.2
			c-0.9-0.6-2-0.9-3.1-1c-1.1-0.1-2.3-0.1-3.4-0.1c-0.6,0-1.3,0-1.9-0.2c-0.6-0.2-1.2-0.4-1.8-0.8c-1-0.7-1.8-1.6-2.4-2.7
			c-0.5-1-0.9-2-1-3.1c-0.3-1.9,0.1-3.9,1.1-5.6c0.8-1.2,1.9-2.2,3.3-2.8c0.8-0.4,1.7-0.6,2.6-0.7c0.2,0,0.5,0,0.7,0l0.2,0l-0.8,0.4
			c-0.8,0.4-1.5,0.8-2.2,1.3c-1,0.7-1.8,1.7-2.4,2.8c-0.7,1.4-1,3-0.7,4.5c0.1,0.9,0.4,1.7,0.8,2.5c0.4,0.8,1,1.5,1.8,2.1
			c0.4,0.3,0.8,0.5,1.2,0.6c0.5,0.1,1,0.2,1.5,0.2c1.2,0,2.4,0.1,3.6,0.3c1.2,0.2,2.5,0.5,3.7,1.4c0.6,0.5,1,1,1.3,1.7
			c0.1,0.3,0.2,0.7,0.3,1c0,0.2,0.1,0.3,0.1,0.5c0,0.2,0,0.4,0,0.6c-0.1,0.7-0.4,1.4-0.9,2c-0.4,0.5-0.9,1-1.4,1.4
			c-1,0.8-2.2,1.5-3.5,2c-1.3,0.5-2.7,0.7-4,0.6c-0.4,0-0.7-0.1-1.1-0.3l-0.3-0.1l-0.2-0.1l-0.4-0.2c-0.5-0.3-1.1-0.5-1.6-0.7
			c-2.2-0.7-4.6-1-7-0.7c-1.1,0.1-2.2,0.3-3.3,0.7c-0.5,0.2-1,0.4-1.5,0.6l-0.7,0.4c-0.2,0.1-0.4,0.3-0.6,0.4
			c-1.6,1.2-2.8,2.7-3.6,4.5c-0.8,1.5-1.3,3.1-1.5,4.7c-0.2,1.3-0.3,2.6-0.2,3.9c0.1,0.8,0.2,1.6,0.4,2.4c0.1,0.3,0.1,0.5,0.2,0.6
			l0.1,0.2L316.6,67.4z"/>
		<path class="st1" d="M347.9,30l-0.2,0.4l-0.5,1.1c-0.2,0.6-0.3,1.1-0.4,1.7c-0.1,0.7,0.3,1.3,0.9,1.6c0.2,0.1,0.3,0.1,0.5,0.2
			l0.6,0.1l1.5,0.2c1.1,0.1,2.2,0.3,3.2,0.5c1.2,0.2,2.3,0.6,3.4,1.2c1.2,0.6,2.2,1.4,3,2.5c0.7,1,1.3,2.1,1.7,3.3l1.5,3.1
			c0.5,0.9,1,1.8,1.7,2.6c0.6,0.7,1.3,1.3,2.1,1.7c0.7,0.3,1.4,0.5,2.2,0.4c0.6,0,1.2-0.1,1.8-0.3c0.4-0.1,0.8-0.3,1.1-0.4l0.4-0.2
			l-0.4,0.2c-0.3,0.2-0.7,0.4-1.1,0.6c-0.6,0.3-1.2,0.5-1.8,0.6c-0.9,0.1-1.7,0.1-2.6-0.2c-1-0.4-1.8-0.9-2.5-1.7
			c-0.8-0.8-1.4-1.7-2-2.7l-1.6-3.1c-0.5-1-1-2-1.6-3c-0.7-0.8-1.5-1.5-2.4-2c-1-0.5-2-0.9-3-1.2l-3.1-0.7l-1.5-0.3
			c-0.2,0-0.5-0.1-0.7-0.2c-0.2-0.1-0.5-0.2-0.7-0.4c-0.4-0.3-0.8-0.7-0.9-1.2c-0.1-0.4-0.2-0.9-0.1-1.3c0.1-0.6,0.4-1.3,0.7-1.8
			c0.2-0.4,0.4-0.7,0.7-1L347.9,30 M343.4,74.5l0-0.2l0-0.1c0,0,0,0,0,0c0-0.1,0-0.1-0.1-0.2c-0.4-0.6-0.9-1.1-1.5-1.4
			c-0.8-0.6-1.8-1.2-3.1-1.9c-1.2-0.7-2.6-1.5-4.1-2.5c-0.8-0.5-1.5-1.1-2.2-1.7c-0.8-0.7-1.5-1.6-1.9-2.6c-0.2-0.6-0.2-1.2-0.1-1.9
			c0.1-0.3,0.2-0.6,0.3-0.9l0.2-0.4l0.3-0.4l0.1-0.2l0,0l0,0c0,0,0,0,0-0.1l0.1-0.1c0.1-0.1,0.2-0.2,0.3-0.3
			c0.3-0.2,0.6-0.4,0.9-0.6c0.6-0.3,1.3-0.3,2-0.2c1.2,0.2,2.3,0.7,3.3,1.2l3,1.5c2,0.9,4.1,1.6,6.1,1.1c0.4-0.1,0.8-0.3,1.2-0.6
			c0.3-0.3,0.6-0.7,0.8-1.1c0.3-1,0.6-2.1,0.6-3.2c0.1-1.2,0.3-2.3,0.7-3.4c0.2-0.6,0.6-1.1,1.1-1.5c0.5-0.4,1.1-0.6,1.7-0.7
			l0.8-0.1l0.9,0c0.3,0,0.6,0,0.8,0.1c0.3,0.1,0.5,0.1,0.8,0.2c1,0.3,2,0.8,2.9,1.4c1.7,1.2,2.9,2.7,4.1,3.9
			c0.6,0.6,1.2,1.1,1.8,1.5c0.6,0.4,1.2,0.7,1.8,0.9c1.1,0.2,2.2,0.2,3.2-0.1c0.7-0.2,1.5-0.4,2.2-0.7c0.5-0.2,0.8-0.3,0.8-0.3
			s-0.2,0.2-0.6,0.6c-0.6,0.6-1.3,1-2,1.4c-0.3,0.1-0.5,0.2-0.8,0.3c-0.3,0.1-0.6,0.2-0.9,0.2c-0.7,0.1-1.5,0.1-2.2-0.1
			c-1.6-0.4-3-1.5-4.2-2.8c-1.2-1.3-2.3-2.8-3.8-4c-0.7-0.6-1.6-1.1-2.5-1.4c-0.2-0.1-0.5-0.1-0.7-0.2c-0.2,0-0.5,0-0.7-0.1l-0.7,0
			l-0.8,0.1c-0.5,0.1-0.9,0.3-1.3,0.6c-0.4,0.3-0.6,0.7-0.8,1.2c-0.3,1.1-0.4,2.1-0.3,3.2c0.1,1.2-0.1,2.4-0.4,3.6
			c-0.2,0.7-0.6,1.3-1.1,1.8c-0.5,0.5-1.2,0.8-1.9,1c-1.2,0.3-2.5,0.3-3.8,0c-1.2-0.3-2.3-0.7-3.4-1.2c-1.1-0.5-2-1.1-3-1.6
			c-0.9-0.5-1.8-0.9-2.8-1.1c-0.4-0.1-0.8-0.1-1.2,0.1c-0.2,0.1-0.3,0.2-0.5,0.3c-0.1,0.1-0.2,0.2-0.3,0.3l-0.1,0.1c0.1-0.1,0,0,0,0
			l0,0l0,0l-0.1,0.1l-0.2,0.3l-0.1,0.3c-0.1,0.2-0.2,0.4-0.2,0.5c-0.1,0.4-0.1,0.8,0,1.1c0.3,0.8,0.8,1.5,1.4,2.1
			c0.6,0.6,1.3,1.1,2,1.6c1.4,1,2.8,1.8,4,2.5c1.2,0.7,2.3,1.4,3.1,2c0.7,0.5,1.3,1.1,1.8,1.9c0.1,0.3,0.2,0.6,0.2,0.9l0,0.2
			L343.4,74.5z"/>
		<path class="st1" d="M369.4,50.6l-0.1-0.3c-0.1-0.4-0.1-0.7-0.1-1.1c0-0.6,0.1-1.1,0.3-1.7c0.3-0.8,0.8-1.4,1.5-1.8
			c0.4-0.2,0.9-0.4,1.3-0.5l0.4,0c0.1,0,0.2,0,0.3,0c0.3,0,0.6,0.1,0.8,0.1c1,0.3,1.9,0.9,2.5,1.6c1.3,1.5,2.2,3.3,2.7,5.3
			c0.3,1,0.4,2,0.5,3c0.1,1,0,2-0.2,3c-0.2,1-0.7,1.9-1.3,2.7c-0.2,0.2-0.3,0.4-0.5,0.5c-0.1,0.1-0.2,0.1-0.3,0.2l-0.2,0.1l-0.1,0
			l0,0l0,0l-0.1,0c-0.4,0.2-0.7,0.3-1.1,0.4c-0.7,0.3-1.5,0.3-2.3,0.2c-0.6-0.1-1.1-0.4-1.6-0.8c-0.3-0.2-0.5-0.5-0.7-0.8
			c-0.1-0.1-0.2-0.2-0.2-0.4l0.9-0.5c0,0,0,0.1,0.2,0.2c0.2,0.2,0.4,0.3,0.6,0.5c0.3,0.2,0.7,0.3,1.1,0.3c0.6,0,1.3-0.2,1.9-0.5
			l0.5-0.3c0,0-0.1,0,0,0l0,0l0,0l0,0l0.1-0.1c0.1,0,0.1-0.1,0.2-0.1c0.1-0.1,0.2-0.2,0.3-0.3c0.4-0.6,0.7-1.2,0.8-1.9
			c0.2-1.6,0.1-3.3-0.3-4.9c-0.4-1.6-1.1-3.1-2.1-4.5c-0.4-0.5-0.9-0.9-1.6-1.2c-0.1,0-0.2-0.1-0.3-0.1c-0.1,0-0.4,0-0.5,0
			c-0.3,0-0.5,0.1-0.7,0.2c-0.4,0.2-0.8,0.5-1,1c-0.2,0.4-0.3,0.8-0.4,1.2c0,0.3-0.1,0.5-0.1,0.8l0,0.3L369.4,50.6z M336.2,26.2
			l-0.1-0.3c-0.1-0.3-0.1-0.7,0-1.1c0-0.2,0.1-0.5,0.2-0.7l0.2-0.4c0.1-0.1,0.2-0.2,0.3-0.4c0.2-0.3,0.4-0.5,0.7-0.7
			c0.3-0.2,0.6-0.4,0.9-0.5L339,22l0.6-0.1c0.4-0.1,0.8-0.1,1.2-0.1l1.2,0.1l1.2,0.2c0.8,0.2,1.7,0.5,2.4,0.9l1.2,0.6l1.1,0.7
			l0.3,0.2l0.3,0.2l0.5,0.4c0.4,0.3,0.7,0.6,1,1c0.6,0.7,1.1,1.5,1.4,2.3c0.3,0.8,0.4,1.7,0.3,2.6c-0.1,0.8-0.4,1.6-0.9,2.2
			c-0.5,0.6-1.1,0.9-1.8,1.1c-0.5,0.1-1.1,0.1-1.6-0.1c-0.2,0-0.4-0.1-0.5-0.2c-0.1,0-0.3-0.1-0.4-0.2l-0.3-0.2l0.5-0.9l0.3,0.1
			c0.2,0.1,0.5,0.2,0.7,0.2c0.4,0.1,0.7,0.1,1.1,0c0.4-0.1,0.8-0.4,1.1-0.7c0.3-0.4,0.5-1,0.6-1.5c0-0.7-0.1-1.3-0.3-1.9
			c-0.3-0.7-0.7-1.3-1.2-1.8c-0.3-0.3-0.5-0.5-0.8-0.8c-0.2-0.1-0.3-0.2-0.5-0.4l-0.2-0.2l-0.3-0.2l-1.1-0.6l-1.1-0.5
			c-0.4-0.2-0.7-0.3-1.1-0.5s-0.7-0.2-1.1-0.3c-0.4-0.1-0.7-0.2-1.1-0.2l-1-0.1c-0.3,0-0.6,0-0.9,0.1l-0.4,0.1l-0.4,0.1
			c-0.2,0.1-0.5,0.2-0.7,0.3c-0.2,0.1-0.4,0.3-0.5,0.4l-0.2,0.2c0,0.1-0.1,0.2-0.1,0.2c-0.1,0.1-0.1,0.3-0.2,0.4
			c-0.1,0.2-0.1,0.4-0.1,0.7l0,0.3L336.2,26.2z M348.4,124.6l0.2,0.3c0.2,0.3,0.4,0.5,0.6,0.8c0.6,1,1.1,2.1,1.4,3.2
			c0.5,1.6,0.8,3.3,0.7,4.9l0,0.3c0,0.2,0,0,0,0.1c0,0,0,0,0,0c0.1,0-0.1,0.1,0.4-0.3c0.4-0.3,0.7-0.6,1-0.9l0.9-1
			c0.6-0.7,1.1-1.4,1.6-2.1c0.5-0.7,0.9-1.5,1.3-2.2l0.5-1.1c0.1-0.4,0.3-0.7,0.4-1.1c0.1-0.4,0.2-0.7,0.3-1.1
			c0.1-0.3,0.1-0.7,0.1-1c0-0.3,0-0.6,0-0.9c0-0.3,0-0.6-0.1-0.8l0-0.4l-0.1-0.3c-0.1-0.2-0.1-0.4-0.1-0.6l-0.3-0.8l-0.1-0.3
			l0.9-0.5l0.2,0.3l0.4,0.9c0.1,0.2,0.1,0.4,0.2,0.7l0.1,0.4c0,0.1,0,0.3,0.1,0.4c0.1,0.3,0.1,0.6,0.1,1c0,0.3,0,0.7,0,1.1
			c0,0.4-0.1,0.8-0.1,1.2l-0.3,1.2c-0.1,0.4-0.3,0.8-0.4,1.2l-0.5,1.2c-0.4,0.8-0.9,1.7-1.4,2.4c-0.5,0.8-1.1,1.6-1.7,2.3l-1,1.1
			l-1.1,1l-0.3,0.2c-0.1,0.1-0.3,0.2-0.5,0.3c-0.8,0.4-1.8,0-2.1-0.8c0,0,0-0.1,0-0.1c-0.1-0.2-0.1-0.4-0.1-0.6l0-0.4
			c0-0.8,0-1.6-0.1-2.4c-0.1-0.7-0.2-1.4-0.4-2.1c-0.3-1-0.6-2.1-1.1-3c-0.1-0.3-0.3-0.5-0.4-0.8l-0.2-0.3L348.4,124.6z
			 M317.6,112.1l-0.7-0.2c-0.2-0.1-0.4-0.1-0.7-0.2c-0.3-0.1-0.6-0.1-1-0.1c-0.4,0-0.8,0-1.2,0l-0.6,0l-0.7,0.1
			c-0.2,0-0.5,0.1-0.7,0.1c-0.2,0-0.5,0.1-0.7,0.2l-0.7,0.2l-0.6,0.3c-0.4,0.2-0.8,0.5-1.2,0.8c-0.2,0.1-0.4,0.3-0.6,0.5l-0.5,0.5
			c-0.3,0.3-0.6,0.7-0.8,1.1l-0.6,1.1l-0.4,1c-0.1,0.3-0.2,0.6-0.3,0.8c-0.1,0.2-0.1,0.4-0.2,0.5l-0.1,0.2l0-0.2l0-0.5l0.1-0.8
			c0.1-0.3,0.2-0.7,0.3-1.1c0.1-0.4,0.3-0.8,0.5-1.2c0.1-0.2,0.2-0.4,0.3-0.6c0.1-0.2,0.2-0.4,0.4-0.6l0.5-0.6
			c0.2-0.2,0.4-0.4,0.6-0.6c0.2-0.2,0.4-0.4,0.6-0.5c0.2-0.2,0.4-0.3,0.7-0.5l0.7-0.4c0.2-0.1,0.5-0.2,0.8-0.3
			c0.2-0.1,0.5-0.2,0.8-0.3c0.3-0.1,0.5-0.1,0.8-0.2l0.8-0.1l0.7-0.1c0.4,0,0.9,0,1.3,0c0.4,0,0.8,0.1,1.1,0.1l0.9,0.2l0.7,0.2
			L317.6,112.1z"/>
		<path class="st1" d="M306.2,116.4l-0.3,0l-0.1,0l-0.1,0c-0.1,0-0.2,0-0.3,0.1c-0.1,0-0.3,0.1-0.4,0.2l-0.2,0.1l-0.2,0.2
			c-0.3,0.3-0.5,0.6-0.7,1c-0.1,0.2-0.1,0.4-0.1,0.6c0,0.2,0.1,0.4,0.1,0.6l0.1,0.2c0,0.1,0.1,0.1,0.1,0.2c0.1,0.1,0.1,0.2,0.2,0.3
			c0.2,0.2,0.4,0.4,0.6,0.6c0.5,0.4,1,0.7,1.6,0.9l0.9,0.4l0.2,0.1l0.3,0.1l0.5,0.2l0.5,0.2l0.5,0.1c0.3,0.1,0.6,0.1,0.9,0.2
			c0.6,0.1,1.2,0.1,1.8,0l0.4-0.1c0.1,0,0.3-0.1,0.4-0.1c0.2-0.1,0.5-0.2,0.7-0.3c0.4-0.2,0.7-0.6,0.8-1c0.1-0.1,0-0.2,0.1-0.3
			c0-0.1,0-0.2,0-0.3l0-0.3c0-0.1-0.1-0.2-0.1-0.2c-0.1-0.3-0.3-0.5-0.5-0.7c-0.2-0.1-0.3-0.3-0.5-0.4l-0.2-0.1l0.2-0.6l0.3,0.1
			c0.7,0.2,1.2,0.7,1.6,1.3c0.3,0.5,0.4,1.1,0.2,1.7c-0.2,0.7-0.6,1.3-1.2,1.7c-0.3,0.2-0.6,0.4-0.9,0.5c-0.3,0.1-0.7,0.3-1,0.3
			c-0.7,0.1-1.5,0.2-2.2,0.1c-0.4,0-0.7-0.1-1.1-0.2l-0.6-0.1l-0.5-0.2l-0.5-0.2l-0.3-0.1c-0.1,0-0.2-0.1-0.3-0.1l-1-0.4
			c-0.7-0.3-1.3-0.7-1.9-1.1c-0.3-0.2-0.5-0.5-0.8-0.8l-0.3-0.5l-0.1-0.2l-0.1-0.3c-0.1-0.4-0.2-0.7-0.1-1.1c0-0.3,0.1-0.7,0.3-1
			c0.1-0.1,0.1-0.3,0.2-0.4c0.1-0.1,0.2-0.2,0.3-0.3c0.2-0.2,0.4-0.4,0.6-0.5l0.3-0.2l0.3-0.1c0.2-0.1,0.4-0.1,0.6-0.2
			c0.2,0,0.3-0.1,0.5-0.1l0.2,0l0.1,0l0.2,0.1L306.2,116.4z"/>
		<path class="st1" d="M311.8,120.1l0.1-0.4c0-0.2,0.1-0.3,0.2-0.4c0.1-0.2,0.2-0.4,0.3-0.5l0.2-0.3l0.3-0.3
			c0.2-0.2,0.5-0.3,0.7-0.5c0.6-0.3,1.2-0.5,1.8-0.5c0.3,0,0.6,0,1,0c0.3,0,0.6,0.1,0.9,0.1c0.3,0.1,0.6,0.2,0.9,0.3
			c0.3,0.1,0.5,0.3,0.7,0.4l0.3,0.2c0.1,0.1,0.2,0.2,0.2,0.2c0.1,0.1,0.3,0.3,0.4,0.4l0.3,0.4l-1.3,0.7l-0.2-0.3
			c-0.1-0.1-0.1-0.2-0.2-0.3l-0.1-0.2l-0.2-0.2c-0.1-0.1-0.3-0.2-0.5-0.3c-0.2-0.1-0.4-0.2-0.6-0.3c-0.2-0.1-0.5-0.2-0.7-0.2
			c-0.3-0.1-0.5-0.1-0.8-0.1c-0.3,0-0.5,0-0.8,0c-0.3,0-0.5,0.1-0.8,0.2c-0.2,0.1-0.5,0.2-0.7,0.3l-0.3,0.2
			c-0.1,0.1-0.2,0.1-0.3,0.2c-0.2,0.1-0.3,0.2-0.4,0.4c-0.1,0.1-0.2,0.2-0.3,0.3L311.8,120.1 M306.6,121.8l0,0.2l0.1,0.5
			c0.1,0.6,0.2,1.2,0.4,1.8c0.3,0.8,0.7,1.6,1.1,2.3c0.3,0.4,0.6,0.8,0.9,1.2c0.3,0.4,0.7,0.7,1.1,1.1l0.4,0.4c0,0,0.1,0.1,0,0
			c0,0,0,0,0,0c0,0-0.1,0-0.1,0c0,0-0.1,0.1-0.1,0.1c0,0,0,0.1,0,0l0.3-1.5l0.6-2.7c0.2-0.7,0.4-1.3,0.7-1.9
			c0.1-0.2,0.2-0.4,0.3-0.5l0.1-0.2l0.8,0.6l-0.1,0.1c-0.1,0.1-0.2,0.3-0.2,0.4c-0.3,0.6-0.5,1.1-0.6,1.7c-0.2,0.8-0.4,1.7-0.6,2.6
			l-0.2,1.5c0,0.1,0,0.2-0.1,0.3c-0.1,0.1-0.2,0.2-0.3,0.3c-0.3,0.2-0.7,0.2-1,0c0,0-0.1-0.1-0.1-0.1l-0.2-0.1l-0.3-0.3
			c-0.4-0.4-0.8-0.8-1.2-1.2c-0.4-0.4-0.7-0.8-1-1.3c-0.5-0.8-1-1.6-1.3-2.6c-0.2-0.6-0.4-1.3-0.5-2l-0.1-0.5l0-0.2L306.6,121.8z
			 M331.6,27.5l-0.3,0.2c-0.3,0.2-0.6,0.4-0.9,0.7c-0.4,0.4-0.8,0.8-1.1,1.2c-0.4,0.6-0.7,1.2-1,1.9c-0.3,0.8-0.4,1.6-0.4,2.4
			c0,0.9,0.1,1.8,0.4,2.7c0.3,0.9,0.7,1.7,1.4,2.5c0.6,0.7,1.3,1.4,2.1,1.9c0.4,0.3,0.9,0.5,1.3,0.6c0.2,0.1,0.5,0.1,0.7,0.2
			l0.8,0.1l3.1,0.3l3,0.2c0.9,0.1,1.8,0.2,2.7,0.4c0.9,0.2,1.7,0.6,2.4,1.3c0.3,0.3,0.5,0.7,0.6,1.1c0.1,0.3,0.1,0.6,0.1,1
			c0,0.4,0,0.8-0.1,1.3l-0.1,0.4l-1.1-0.2l0.1-0.4c0.1-0.3,0.1-0.7,0.1-1.1c0-0.5-0.1-1-0.4-1.4c-0.5-0.5-1.1-0.8-1.8-0.9
			c-0.9-0.2-1.7-0.3-2.6-0.3l-3-0.2l-3.2-0.4l-1.6-0.3c-0.6-0.1-1.1-0.3-1.6-0.6c-0.5-0.3-1-0.6-1.5-0.9c-0.4-0.4-0.8-0.8-1.2-1.3
			c-0.7-0.9-1.1-1.9-1.4-3c-0.4-1.9-0.3-3.9,0.6-5.7c0.6-1.3,1.5-2.3,2.6-3c0.3-0.2,0.6-0.4,1-0.5L331.6,27.5"/>
		<path class="st1" d="M327.8,31.1l-0.1-0.1c-0.1,0-0.1-0.1-0.2-0.1l-0.3-0.3c-0.2-0.2-0.4-0.5-0.6-0.8c-0.2-0.4-0.3-0.8-0.3-1.2
			c-0.1-1,0.2-1.9,0.7-2.7c0.6-0.9,1.3-1.6,2.3-2.1c0.5-0.3,0.9-0.5,1.4-0.6c0.5-0.1,1-0.2,1.4-0.3c0.5-0.1,0.9-0.1,1.4-0.1
			c0.4,0,0.8,0,1.2,0.1c0.6,0.1,1.2,0.2,1.8,0.3l0.7,0.2l-0.4,1.3l-0.6-0.1c-0.5-0.1-1.1-0.2-1.6-0.3c-0.4,0-0.7-0.1-1.1-0.1
			c-0.4,0-0.8,0-1.2,0.1c-0.4,0-0.8,0.1-1.2,0.3c-0.4,0.1-0.8,0.3-1.2,0.5c-0.7,0.4-1.3,0.9-1.8,1.6c-0.4,0.6-0.5,1.2-0.5,1.9
			c0,0.4,0.2,0.8,0.5,1.1l0.1,0.1c0,0,0.1,0.1,0.1,0.1l0.1,0.1L327.8,31.1z M310.2,130.2c-0.1,0-0.2-0.1-0.3-0.2
			c-2.7-2.3-4.1-4.8-4.5-8.1l0.9-0.1c0.2,2.1,0.9,4.8,4.2,7.5c0.4-2.5,0.9-5.4,1.9-6.9l0.7,0.5c-1.1,1.5-1.6,5.1-1.8,6.5
			c0,0.3-0.2,0.6-0.5,0.7C310.7,130.3,310.4,130.3,310.2,130.2 M340.5,22.1l0.2-0.2c0.1-0.2,0.3-0.4,0.6-0.7c0.3-0.3,0.7-0.7,1-1
			l0.7-0.5l0.8-0.5c0.6-0.4,1.3-0.7,1.9-1c0.7-0.3,1.5-0.6,2.2-0.8l2.4-0.6l2.5-0.4l0.6-0.1l0.5,0l0.1,0h0.1c0.5,0,1,0.3,1.3,0.7
			c0.3,0.4,0.4,1,0.2,1.5c0,0.1,0,0.1-0.1,0.2l0,0.1l0,0l-0.1,0.1l-0.2,0.3l-0.3,0.6l-0.6,1c-0.8,1.2-1.5,2.4-2.1,3.7
			c-0.2,0.5-0.4,1-0.6,1.5c-0.1,0.4-0.2,0.8-0.3,1.2c0,0.2-0.1,0.5-0.1,0.7l0,0.3l-1.5-0.1l0-0.3c0-0.3,0.1-0.6,0.2-0.9
			c0.3-1,0.6-2,1.1-3l0.9-1.8l1.1-2l0.6-1c0.1-0.2,0.2-0.3,0.3-0.5l0.1-0.3l0.1-0.1l0,0c0,0,0,0,0,0c0,0,0,0,0,0c0-0.1,0-0.1,0-0.2
			c0-0.1-0.1-0.1-0.1-0.1l-1.2,0.1l-2.5,0.3c-0.8,0.1-1.6,0.3-2.3,0.5c-0.7,0.2-1.4,0.4-2.1,0.7c-0.6,0.2-1.2,0.5-1.8,0.8
			c-0.5,0.3-1,0.6-1.4,0.9c-0.3,0.3-0.7,0.5-1,0.8c-0.3,0.2-0.5,0.4-0.6,0.6l-0.2,0.2L340.5,22.1z"/>
		<path class="st1" d="M329.9,24l0.1-0.2l0.3-0.6l0.6-1c0.3-0.4,0.6-0.8,0.9-1.2c0.8-0.9,1.8-1.7,2.8-2.5c0.6-0.4,1.1-0.8,1.8-1.1
			l1.9-1l1.9-0.8l1-0.4l0.5-0.2l0.1,0c0.1,0,0.2,0,0.3,0c0.2,0,0.4,0,0.6,0.1c0.4,0.1,0.7,0.3,0.9,0.6c0.3,0.3,0.4,0.8,0.3,1.2
			c0,0.1,0,0.2-0.1,0.3l0,0.1l-0.1,0.2l-0.2,0.4l-0.7,1.5c-0.3,0.7-0.6,1.5-0.8,2.3c-0.1,0.2-0.1,0.4-0.1,0.7l0,0.2l-1.4-0.4
			l0.3-0.9l0.9-2.4l0.6-1.6l0.2-0.4l0.1-0.2l0-0.1c0,0,0,0,0,0c0,0,0-0.1-0.2-0.1c-0.1,0,0,0-0.2,0l-0.5,0.2l-0.9,0.3l-1.9,0.7
			l-1.8,0.9c-0.6,0.3-1.1,0.6-1.7,1c-1,0.6-1.8,1.3-2.6,2.2c-0.3,0.3-0.6,0.7-0.9,1c-0.3,0.3-0.4,0.6-0.6,0.8
			c-0.2,0.2-0.3,0.5-0.4,0.6l-0.1,0.2L329.9,24z M377.8,88.1l-0.1,0.1l-0.4,0.3c-0.5,0.4-0.9,0.9-1.3,1.3c-0.3,0.3-0.5,0.6-0.8,1
			l-0.8,1.2c-0.3,0.4-0.5,0.9-0.7,1.3c-0.2,0.5-0.5,0.9-0.6,1.4c-0.2,0.5-0.3,1-0.5,1.5c-0.2,0.5-0.2,1-0.4,1.5
			c-0.1,0.5-0.1,1-0.2,1.4c-0.1,0.4-0.1,0.8-0.1,1.3c0,0.4,0,0.7,0,1.1l0,0.8l0,0.7l-1.2,0.1l0-0.8l-0.1-0.9c0-0.4,0-0.8,0-1.1
			c0-0.5,0-0.9,0.1-1.4l0.2-1.5l0.4-1.6l0.5-1.6c0.2-0.5,0.4-1,0.7-1.5c0.2-0.5,0.5-1,0.8-1.4c0.3-0.5,0.6-0.9,0.8-1.3l0.8-1.1
			c0.4-0.5,0.9-1,1.4-1.5l0.4-0.4l0.2-0.1L377.8,88.1z"/>
		<path class="st1" d="M376.1,97.2c-0.4,1-0.9,2-1.6,3c-0.8,1.1-1.9,2-2.9,1.9c-0.1,0-0.3,0-0.4-0.1l-0.2-0.1l-0.2-0.1l-1-0.5
			l-1.9-1c-5.2-2.6-10-4.8-14.2-6.7c-4.2-1.9-7.7-3.4-10.3-4.3c-1.3-0.5-2.3-0.8-2.9-1.1l-1.1-0.3l3.7,2l9.9,5l6.7,3.2l7.4,3.7
			l1.9,1l1,0.5l0.3,0.1l0.4,0.1c1.1,0.4,2.4,0.1,3.3-0.6c0.7-0.5,1.3-1.1,1.7-1.8c0.7-1,1.3-2.1,1.7-3.3L376.1,97.2z M357.3,80
			L365,83l8.2,3.3c0.7,0.3,1.4,0.6,2.1,0.9l1.1,0.4c0.1,0,0.2,0.1,0.3,0.2c0.1,0.1,0.2,0.2,0.2,0.2c0.3,0.6,0.5,1.2,0.5,1.8
			c0.1,0.7,0,1.4,0,2.2c-0.1,1-0.3,1.9-0.5,2.9l1.5,0.6c0.3-1.1,0.5-2.2,0.6-3.3c0.1-0.8,0.1-1.6,0-2.4c0-0.9-0.3-1.8-0.8-2.5
			c-0.2-0.2-0.3-0.4-0.6-0.6c-0.2-0.2-0.4-0.3-0.7-0.4l-1.1-0.4l-2.1-0.9l-8.2-3.3l-7.7-3l-7-2.5c-2.2-0.8-4.2-1.4-6-2
			c-1.8-0.6-3.4-1-4.6-1.4c-1.3-0.4-2.3-0.6-3-0.8l-1.1-0.2l1,0.4l13.3,5.1L357.3,80"/>
		<path class="st1" d="M374.9,96.4l6.8,2.7l-0.2,0.3c-0.3,0.4-0.3,1-0.3,1.5c0.1,0.2,0.2,0.4,0.4,0.5l0.1,0c1.1,0.4,2.9,0.6,3.3,0.1
			c0,0,0.2-0.2,0-0.6c-0.2-0.4-0.4-0.9-0.7-1.3c-0.2-0.2-0.2-0.5,0-0.7c0.2-0.2,0.4-0.3,0.7-0.3c0.3,0.1,0.7,0.1,1-0.1
			c0.2-0.2,0.2-0.4,0.2-0.7c-0.1-1.3-0.7-2.3-1.6-2.7c-0.3-0.1-0.7-0.1-1,0c-0.7,0.2-0.7,0.8-0.5,1.5c0.1,0.2,0.1,0.3,0,0.5
			c-0.1,0.4-0.2,0.5-7.9-2.5C375.1,95.2,374.9,95.8,374.9,96.4 M381.6,101.9l-0.1-0.1c-0.4-0.1-0.7-0.5-0.8-0.8
			c-0.1-0.6-0.1-1.1,0.2-1.7l-6.5-2.5l0-0.1c-0.3-1,0.6-2.5,0.7-2.6l0.1-0.2l0.2,0.1c2.3,0.9,6,2.3,7.2,2.7c-0.1-0.6-0.2-1.7,1-2.1
			c0.5-0.1,1-0.1,1.4,0.1c1.1,0.4,1.9,1.7,2,3.2c0.1,0.4-0.1,0.9-0.4,1.2c-0.4,0.3-1,0.4-1.5,0.2c0.3,0.5,0.5,0.9,0.7,1.4
			c0.2,0.4,0.2,0.9-0.2,1.2C384.9,102.7,382.6,102.3,381.6,101.9 M372.1,85.6l-0.6,0.4c-0.2,0.2-0.4,0.3-0.6,0.5
			c-0.3,0.2-0.5,0.5-0.8,0.7c-0.3,0.3-0.6,0.6-0.8,0.9c-0.3,0.4-0.6,0.7-0.8,1.1c-0.3,0.4-0.5,0.8-0.8,1.3L367,92
			c-0.2,0.5-0.4,1-0.5,1.4c-0.2,0.5-0.3,1-0.4,1.4c-0.1,0.5-0.2,0.9-0.2,1.4c0,0.4-0.1,0.8,0,1.2c0,0.6,0.1,1.2,0.3,1.8l0.3,0.6
			l-1.6,0.4l0-0.8l0.1-0.9l0.2-1.1l0.3-1.2l0.4-1.4l0.5-1.4l0.3-0.7L367,92l0.6-1.4l0.6-1.4l0.3-0.6l0.3-0.6l0.6-1.1l0.5-1l0.4-0.7
			l0.4-0.6L372.1,85.6z"/>
		<path class="st1" d="M370.8,85.1l-0.6,0.4c-0.2,0.2-0.4,0.3-0.6,0.5c-0.3,0.2-0.5,0.5-0.7,0.7c-0.3,0.3-0.6,0.6-0.8,0.9l-0.8,1.1
			c-0.3,0.4-0.5,0.8-0.8,1.3l-0.7,1.4c-0.2,0.5-0.4,1-0.6,1.4c-0.2,0.5-0.3,1-0.4,1.4c-0.1,0.5-0.2,0.9-0.2,1.4c0,0.4-0.1,0.8,0,1.2
			c0,0.6,0.1,1.2,0.3,1.8l0.3,0.6l-1.6,0.4l0-0.8l0.1-0.9l0.2-1.1l0.3-1.2l0.4-1.4l0.5-1.4l0.6-1.4l0.6-1.4l0.6-1.4l0.6-1.3l0.6-1.1
			l0.5-1l0.4-0.7l0.4-0.6L370.8,85.1z M361.7,81.6l-0.6,0.4c-0.2,0.1-0.4,0.3-0.6,0.5c-0.3,0.2-0.5,0.4-0.7,0.7
			c-0.6,0.6-1.1,1.2-1.6,1.9c-0.3,0.4-0.5,0.8-0.7,1.2l-0.6,1.3l-0.5,1.3l-0.4,1.3c-0.1,0.4-0.2,0.8-0.2,1.3
			c-0.1,0.4-0.1,0.8-0.1,1.2c0,0.6,0,1.1,0.1,1.7l0.2,0.6l-1.6,0.1l0.2-0.7l0.2-0.8l0.3-1l0.4-1.1l0.5-1.2l0.5-1.3l0.6-1.3l1.2-2.6
			l1.2-2.2l0.9-1.6l0.3-0.6L361.7,81.6z"/>
		<path class="st1" d="M360.4,81.1l-0.6,0.4c-0.2,0.1-0.4,0.3-0.6,0.5c-0.3,0.2-0.5,0.4-0.7,0.7c-0.6,0.6-1.1,1.2-1.6,1.9
			c-0.5,0.8-1,1.6-1.4,2.5c-0.2,0.4-0.4,0.9-0.5,1.3l-0.4,1.3c-0.1,0.4-0.2,0.8-0.2,1.3c-0.1,0.4-0.1,0.8-0.1,1.2
			c0,0.6,0,1.1,0.1,1.7l0.2,0.6l-1.6,0.1l0.2-0.7c0-0.2,0.1-0.5,0.2-0.8s0.2-0.6,0.3-1c0.6-1.7,1.2-3.4,2-5l0.6-1.3l0.6-1.2l1.2-2.2
			l0.5-0.9l0.4-0.7l0.3-0.6L360.4,81.1z M351.4,77.5l-0.5,0.4c-0.2,0.1-0.4,0.3-0.6,0.4c-0.2,0.2-0.5,0.4-0.7,0.6
			c-0.3,0.3-0.5,0.5-0.8,0.8c-0.3,0.3-0.5,0.6-0.8,1c-0.3,0.4-0.5,0.7-0.7,1.1l-0.6,1.2c-0.4,0.8-0.7,1.7-0.9,2.6
			c-0.1,0.4-0.2,0.8-0.3,1.2c-0.1,0.4-0.1,0.8-0.1,1.1c0,0.6,0,1.1,0.1,1.6l0.1,0.6l-1.6,0l0.2-0.7l0.2-0.7c0.1-0.3,0.2-0.6,0.3-0.9
			l0.4-1.1l0.5-1.2l0.5-1.2l0.6-1.3l1.2-2.5l1.1-2.1l0.9-1.5l0.3-0.6L351.4,77.5z"/>
		<path class="st1" d="M350.1,77l-0.5,0.4c-0.2,0.1-0.4,0.3-0.6,0.4c-0.2,0.2-0.5,0.4-0.7,0.6c-0.3,0.3-0.5,0.5-0.8,0.8
			c-0.3,0.3-0.5,0.6-0.8,1c-0.3,0.3-0.5,0.7-0.7,1.1c-0.2,0.4-0.4,0.8-0.6,1.2c-0.4,0.8-0.7,1.7-0.9,2.5c-0.1,0.4-0.2,0.8-0.3,1.2
			c-0.1,0.4-0.1,0.8-0.1,1.1c0,0.5,0,1.1,0.1,1.6l0.1,0.6l-1.6-0.1l0.2-0.7l0.2-0.7c0.1-0.3,0.2-0.6,0.3-0.9l0.4-1.1l0.5-1.2
			l0.5-1.2l0.6-1.2l1.2-2.4l1.1-2.1l0.9-1.5l0.3-0.6L350.1,77z M341.2,73.6l-1.2,0.8c-0.2,0.1-0.4,0.3-0.5,0.4
			c-0.2,0.2-0.4,0.4-0.6,0.6c-1.1,1.1-2,2.4-2.6,3.8c-0.7,1.4-1.1,2.9-1.2,4.5c0,0.5,0,1,0.1,1.5l0.1,0.6l-1.2-0.3
			c0,0-0.3-0.1-0.2-0.4l0.2-0.7l0.3-0.8l0.8-2l0.5-1.1l0.5-1.2c0.7-1.5,1.5-3.1,2-4.2l0.7-1.4c0.1-0.2,0.2-0.5,0.3-0.7L341.2,73.6z"
			/>
		<path class="st1" d="M339.9,73l-1.1,0.7c-0.2,0.1-0.4,0.3-0.5,0.4c-0.2,0.2-0.4,0.4-0.6,0.6c-1.1,1.1-2,2.5-2.7,3.9
			c-0.4,0.8-0.6,1.6-0.9,2.4c-0.2,0.7-0.3,1.4-0.3,2.2c0,0.5,0,1,0.1,1.5l0.1,0.6l-1.6-0.4c0,0,0.1,0.1,0.2-0.3
			c0.1-0.2,0.2-0.4,0.2-0.7l0.3-0.9L334,81l0.5-1.2l0.5-1.2l1.1-2.3l1-2l0.7-1.5c0.1-0.2,0.2-0.3,0.2-0.4L339.9,73z M317.5,67.6
			c0,0-0.2,0.2-0.4,0.4c-0.1,0.2-0.3,0.3-0.4,0.5c-0.2,0.2-0.3,0.5-0.4,0.7c-0.8,1.3-1.3,2.7-1.5,4.2c-0.1,0.4-0.1,0.8-0.2,1.2
			c0,0.4,0,0.8,0,1.2c0,0.4,0,0.7,0.1,1.1c0,0.3,0.1,0.7,0.2,1c0.1,0.5,0.3,0.9,0.5,1.4c0.2,0.3,0.3,0.5,0.3,0.5l-1.6,0.5
			c0,0,0-0.2,0-0.6l0-0.7l0.1-0.9c0.1-1.3,0.3-2.9,0.6-4.5l0.9-4.5c0.1-0.3,0.1-0.6,0.2-0.9c0-0.3,0.1-0.5,0.1-0.7
			c0.1-0.4,0.1-0.6,0.1-0.6L317.5,67.6z"/>
		<path class="st1" d="M316.1,67.4l-0.4,0.4l-0.4,0.5c-0.2,0.2-0.3,0.4-0.4,0.7l-0.4,0.9c-0.1,0.3-0.3,0.6-0.4,1
			c-0.1,0.3-0.2,0.7-0.4,1.1l-0.3,1.2c-0.2,0.8-0.2,1.5-0.2,2.3c0,0.4,0,0.7,0.1,1.1c0,0.3,0.1,0.6,0.2,0.9c0.1,0.5,0.3,0.9,0.5,1.3
			c0.1,0.2,0.2,0.3,0.3,0.5l-1.6,0.4l0-0.6l0.1-0.7l0.1-0.9l0.1-1l0.2-1.1l0.2-1.1l0.2-1.2c0.3-1.6,0.6-3.1,0.8-4.4l0.3-1.5
			c0.1-0.4,0.1-0.6,0.1-0.6L316.1,67.4z M305.9,66.2c0,0-0.1,0.2-0.3,0.5c-0.1,0.2-0.2,0.4-0.3,0.6c-0.1,0.2-0.2,0.5-0.4,0.7
			c-0.3,0.6-0.5,1.3-0.6,2c-0.1,0.4-0.2,0.8-0.2,1.2c-0.1,0.4-0.1,0.8-0.1,1.2c0,0.4,0,0.8,0,1.2c0,0.4,0.1,0.8,0.1,1.2
			c0.1,0.4,0.1,0.7,0.3,1.1c0.1,0.3,0.2,0.6,0.3,0.9c0.2,0.4,0.4,0.8,0.7,1.2l0.4,0.4l-1.4,0.8l-0.1-0.6l-0.1-0.7l-0.1-0.9l-0.1-2.1
			l0-2.4c0.1-1.6,0.2-3.2,0.3-4.5l0.1-0.9c0-0.3,0-0.5,0-0.7c0-0.4,0-0.6,0-0.6L305.9,66.2z"/>
		<path class="st1" d="M304.6,65.9l-0.3,0.5c-0.3,0.4-0.5,0.9-0.7,1.3c-0.3,0.6-0.5,1.3-0.7,2c-0.1,0.4-0.2,0.8-0.2,1.2
			c-0.1,0.4-0.1,0.8-0.1,1.2l0,1.2c0,0.4,0,0.8,0.1,1.2c0.1,0.4,0.1,0.7,0.2,1.1c0.1,0.3,0.2,0.6,0.3,0.9c0.2,0.4,0.4,0.8,0.7,1.2
			l0.4,0.4l-1.4,0.8l-0.1-0.6l-0.1-0.7l-0.1-0.9l0-2.1l0.1-2.4c0.1-1.6,0.3-3.3,0.4-4.5c0.1-0.6,0.1-1.2,0.1-1.5c0-0.4,0-0.6,0-0.6
			L304.6,65.9z M295.2,65.8c0,0-0.1,0.2-0.3,0.5c-0.2,0.4-0.4,0.8-0.6,1.3c-0.5,1.3-0.8,2.7-0.8,4.2c0,0.4,0,0.8,0,1.2
			c0,0.4,0.1,0.7,0.1,1.1c0.1,0.3,0.2,0.7,0.3,1c0.1,0.3,0.2,0.6,0.3,0.9c0.2,0.4,0.4,0.8,0.7,1.1l0.4,0.3l-1.4,0.8l-0.1-0.6
			l-0.1-0.7l-0.1-0.8c-0.1-1.4-0.2-2.9-0.1-4.3l0.1-2.3l0-1.1l0-1l0-1.5l0-0.6L295.2,65.8z"/>
		<path class="st1" d="M293.8,65.7c0,0-0.1,0.2-0.3,0.5c-0.2,0.4-0.4,0.8-0.6,1.3c-0.2,0.6-0.4,1.3-0.6,1.9
			c-0.1,0.4-0.1,0.7-0.2,1.1c0,0.4-0.1,0.8-0.1,1.2l0,1.2c0,0.4,0.1,0.7,0.1,1.1c0.1,0.3,0.2,0.7,0.3,1c0.1,0.3,0.2,0.6,0.3,0.9
			c0.2,0.4,0.4,0.8,0.7,1.1l0.4,0.3l-1.4,0.8l-0.1-0.6l-0.1-0.7l-0.1-0.8l-0.1-2l0-2.3l0.1-4.3l0-1.5l0-0.6L293.8,65.7z M285.5,66.1
			l-0.2,0.5l-0.2,0.5c-0.1,0.2-0.2,0.4-0.2,0.7l-0.2,0.8c-0.1,0.3-0.1,0.6-0.2,0.9c-0.1,0.3-0.1,0.7-0.1,1l0,1.1c0,0.4,0,0.7,0.1,1
			l0.2,1c0.1,0.6,0.3,1.2,0.6,1.7c0.2,0.5,0.6,1,1,1.4l-1.5,0.6c0,0,0-0.2,0-0.5l-0.1-1.4l-0.1-1.8l-0.1-2.1l-0.1-2.1l-0.1-1.8
			l-0.1-1.3l-0.1-0.5L285.5,66.1z"/>
		<path class="st1" d="M284.1,66.3l-0.2,0.5l-0.2,0.5c-0.1,0.2-0.2,0.4-0.2,0.7c-0.2,0.6-0.3,1.2-0.4,1.8c-0.1,0.7-0.1,1.4-0.1,2.1
			c0,0.7,0.1,1.4,0.3,2c0.1,0.6,0.3,1.2,0.6,1.7c0.2,0.5,0.6,1,1,1.4l-1.5,0.6c0,0,0-0.2,0-0.5l-0.1-1.4l-0.1-1.8l-0.2-2.1l-0.1-1
			l-0.1-1l-0.1-1.8l-0.1-1.3l-0.1-0.5L284.1,66.3z M325.1,80.3c-0.1-0.7-0.1-1.4,0-2.1c0.1-0.8,0.3-1.6,0.5-2.4
			c0.1-0.4,0.3-0.8,0.4-1.2l0.5-1.1c0.3-0.6,0.7-1.2,1.1-1.8c0.2-0.2,0.3-0.4,0.5-0.6c0.1-0.2,0.3-0.3,0.4-0.5
			c0.1-0.1,0.3-0.3,0.5-0.5l-1.5-0.4l-0.1,0.3l-0.5,1.5l-1.4,4.4l-0.3,1.2l-0.3,1.2l-0.3,1.1l-0.3,1l-0.2,0.9l-0.1,0.7l-0.1,0.6
			l1.6-0.1c0,0-0.1-0.2-0.2-0.5C325.2,81.3,325.1,80.8,325.1,80.3"/>
		<path class="st1" d="M323.8,79.8c-0.1-1.5,0.1-3,0.6-4.5c0.1-0.4,0.3-0.8,0.4-1.2l0.5-1.1c0.3-0.6,0.7-1.2,1.1-1.8
			c0.2-0.2,0.3-0.4,0.5-0.6c0.1-0.2,0.3-0.3,0.4-0.5l0.4-0.4l-1.5-0.4l0,0.1l-0.5,1.5l-1.4,4.4c-0.5,1.6-0.9,3.2-1.2,4.4
			c-0.1,0.3-0.1,0.6-0.2,0.9l-0.2,0.7c-0.1,0.4-0.1,0.6-0.1,0.6l1.6-0.1c0,0-0.1-0.2-0.2-0.5C323.9,80.8,323.8,80.3,323.8,79.8
			 M320.7,85.7l0.8,0.4l2.2,0.9l4.8,1.9l1.8,0.7l1.7,0.8l1.7,0.8l1.6,0.8l1.4,0.7l1.2,0.7l0.9,0.6l0.8,0.5l-1.2,1.2l-0.5-0.7
			c-0.2-0.3-0.4-0.5-0.6-0.7c-0.3-0.3-0.6-0.6-0.9-0.9c-0.3-0.3-0.8-0.6-1.2-1l-1.4-1l-1.6-0.9l-1.7-0.8l-1.8-0.7l-1.8-0.6l-1.7-0.4
			l-1.5-0.3l-1.3-0.2l-1-0.1l-0.9,0L320.7,85.7z"/>
		<path class="st1" d="M337,96.1l-0.6-0.6c-0.2-0.2-0.5-0.4-0.7-0.6c-0.3-0.3-0.6-0.5-1-0.8l-1.2-0.8l-1.4-0.9l-1.6-0.8l-1.7-0.7
			c-1.1-0.5-2.3-0.9-3.4-1.2c-1-0.3-2-0.5-3.1-0.7c-1-0.2-2-0.3-3.1-0.3l0.3-1.6l0.8,0.3l2.1,0.9l6.3,2.6l3.4,1.4l1.5,0.7l1.4,0.6
			l2.1,1l0.8,0.4L337,96.1z M313.7,96.4l0.7,0.2l1.9,0.4l1.2,0.3l1.4,0.3l1.4,0.3l1.5,0.3l3,0.5l2.6,0.4l1.1,0.2l0.8,0.2l0.8,0.2
			l-0.8,1.4l-0.1-0.1c-0.1-0.1-0.2-0.2-0.4-0.3c-0.2-0.2-0.4-0.3-0.7-0.4c-0.3-0.2-0.6-0.3-0.9-0.5c-0.8-0.4-1.6-0.7-2.4-0.9
			c-1-0.3-1.9-0.5-2.9-0.7c-1-0.2-2-0.3-3-0.4c-0.5,0-0.9,0-1.4-0.1c-0.4,0-0.9,0-1.2,0c-0.4,0-0.7,0.1-1,0.1
			c-0.3,0-0.5,0.1-0.8,0.1l-0.7,0.1L313.7,96.4z"/>
		<path class="st1" d="M313.5,97.7l0.7,0.2l1.9,0.4l1.2,0.3l1.4,0.3l2.9,0.6l3,0.5l2.6,0.4l1.1,0.2l0.8,0.2l0.8,0.2l-0.8,1.4
			l-0.1-0.1c-0.1-0.1-0.2-0.2-0.4-0.3c-0.2-0.2-0.4-0.3-0.7-0.4c-0.3-0.2-0.6-0.3-0.9-0.5c-0.4-0.2-0.8-0.3-1.1-0.5l-1.3-0.4
			c-1-0.3-1.9-0.5-2.9-0.7c-1-0.2-2-0.3-3-0.4c-0.5,0-0.9,0-1.4,0c-0.4,0-0.9,0-1.2,0c-0.4,0-0.7,0.1-1,0.1l-0.8,0.1l-0.7,0.1
			L313.5,97.7z M317.8,111.6c0,0,0.2-0.1,0.6-0.2l1.5-0.7c1.2-0.5,2.7-1.3,4.3-2.2l2.2-1.2l1-0.6c0.3-0.2,0.6-0.4,0.9-0.5
			c0.6-0.3,1.1-0.6,1.5-0.8l0.6-0.3l0.2,1.6l-0.1,0c-0.1,0-0.3,0-0.4,0c-0.2,0-0.4,0-0.7,0c-0.3,0-0.6,0.1-0.9,0.1
			c-3.1,0.7-6,2.2-8.3,4.3c-0.2,0.2-0.4,0.4-0.6,0.6c-0.2,0.2-0.3,0.3-0.4,0.5c-0.2,0.3-0.4,0.5-0.4,0.5L317.8,111.6z"/>
		<path class="st1" d="M318.7,112.5c0,0,0.2-0.1,0.6-0.2l1.4-0.6l2-0.9l2.2-1.1l2.2-1.2l1.9-1l1.4-0.7l0.6-0.3l0.2,1.6l-0.1,0
			c-0.1,0-0.3,0-0.4,0c-0.2,0-0.4,0-0.6,0c-0.3,0-0.6,0.1-0.8,0.1c-1.5,0.3-3,0.8-4.3,1.5c-1.4,0.7-2.7,1.6-3.8,2.6
			c-0.2,0.2-0.4,0.4-0.6,0.6c-0.2,0.2-0.3,0.3-0.4,0.5l-0.4,0.5L318.7,112.5z M339.8,109c0,0.1,0,0.3-0.1,0.4l-0.1,1.1l0,1.5l0,0.8
			l0,0.9l0,1.7l0,1.5l0,0.6l0,0.5l-0.1,0.5l-1.4-0.8l0.1,0c0.1,0,0.1-0.1,0.2-0.1c0.1-0.1,0.2-0.2,0.3-0.3c0.1-0.2,0.2-0.3,0.3-0.5
			c0.4-1,0.6-2,0.6-3.1c0-0.6-0.1-1.1-0.2-1.7c-0.1-0.5-0.2-1-0.4-1.4c-0.1-0.2-0.2-0.4-0.3-0.5c-0.1-0.1-0.2-0.3-0.2-0.4
			c-0.1-0.1-0.2-0.2-0.3-0.3L339.8,109z"/>
		<path class="st1" d="M338.6,109.1c0,0,0,0.2,0,0.4l-0.1,1.1l0,3.1l0,1.7l0.1,1.5l0,0.6l0,0.5l-0.1,0.5l-1.4-0.8l0.1,0
			c0.1,0,0.1-0.1,0.2-0.1c0.1-0.1,0.2-0.2,0.3-0.3c0.1-0.2,0.2-0.3,0.3-0.5c0.2-0.4,0.4-0.9,0.4-1.4c0.1-0.3,0.1-0.5,0.1-0.8
			c0-0.3,0-0.6,0-0.8c0-0.6-0.1-1.1-0.2-1.6c-0.1-0.5-0.3-0.9-0.5-1.4c-0.1-0.2-0.2-0.3-0.3-0.5c-0.1-0.1-0.2-0.3-0.2-0.4l-0.3-0.3
			L338.6,109.1z M328,127.4c0,0-0.1-0.1-0.4-0.3l-1.1-0.8l-3.3-2.1l-4.1-2.3l-0.5-0.3l-0.5-0.3l1.3-0.9l0,0.1c0,0.1,0.1,0.2,0.1,0.3
			c0.1,0.2,0.2,0.3,0.3,0.5c0.1,0.2,0.3,0.4,0.4,0.6c0.4,0.5,0.8,0.9,1.3,1.3c0.5,0.4,1.1,0.8,1.7,1.2c0.6,0.4,1.2,0.7,1.9,0.9
			c0.6,0.2,1.1,0.4,1.7,0.5c0.2,0.1,0.5,0.1,0.7,0.1c0.2,0,0.4,0,0.6,0l0.5,0L328,127.4z"/>
		<path class="st1" d="M328.3,126.2c0,0-0.1-0.1-0.4-0.3l-1.1-0.7l-3.3-2l-1.8-1l-1.6-0.9l-1.2-0.7l-0.5-0.3l1.4-0.9l0,0.1
			c0,0.1,0.1,0.2,0.1,0.3c0.1,0.2,0.1,0.3,0.2,0.5c0.1,0.2,0.3,0.4,0.4,0.6c0.8,1,1.8,1.8,2.9,2.4c1.1,0.7,2.3,1.1,3.5,1.4
			c0.2,0.1,0.5,0.1,0.7,0.1c0.2,0,0.4,0,0.5,0l0.5,0L328.3,126.2z M314.2,118.4c0-0.1,0-0.2,0.1-0.4c0-0.2,0-0.6,0-1
			c0-0.9-0.1-1.8-0.2-2.6l-0.4-2.6c-0.1-0.3-0.1-0.7-0.1-1l0-0.5l1.5,0.7l-0.1,0c-0.1,0-0.1,0.1-0.2,0.1c-0.1,0.1-0.1,0.2-0.2,0.3
			c-0.1,0.1-0.1,0.3-0.2,0.4c-0.3,0.8-0.4,1.7-0.3,2.5c0,0.5,0.1,0.9,0.3,1.4c0.1,0.4,0.3,0.8,0.5,1.1c0.1,0.1,0.2,0.3,0.3,0.4
			c0.1,0.1,0.2,0.2,0.3,0.3c0.1,0.1,0.2,0.2,0.3,0.2L314.2,118.4z"/>
		<path class="st1" d="M315.2,118.2c0-0.1,0-0.2,0-0.4c0-0.2,0-0.6,0-0.9l0-1.2l-0.1-1.3l-0.4-2.6c-0.1-0.3-0.1-0.6-0.1-1l0-0.5
			l1.5,0.7l-0.1,0c-0.1,0-0.1,0.1-0.2,0.1c-0.1,0.1-0.2,0.2-0.2,0.3c-0.1,0.1-0.2,0.3-0.2,0.4c-0.3,0.8-0.4,1.6-0.3,2.5
			c0.1,0.8,0.4,1.7,0.8,2.4c0.1,0.1,0.2,0.3,0.3,0.4c0.1,0.1,0.2,0.2,0.3,0.3c0.1,0.1,0.2,0.2,0.3,0.2L315.2,118.2z M312.5,118.9
			c0,0-0.3,0.8-0.4,0.7l-0.6-0.6c-0.6-0.6-1.3-1.1-1.9-1.6l-1.1-0.8l-1-0.7l-0.8-0.5l-0.3-0.3l1.5-0.6l0,0.1c0,0.1,0,0.1,0,0.2
			c0,0.1,0,0.2,0,0.3c0,0.1,0.1,0.3,0.1,0.4c0.1,0.4,0.3,0.7,0.6,1c0.1,0.2,0.3,0.3,0.4,0.5c0.2,0.2,0.3,0.3,0.5,0.4
			c0.3,0.3,0.7,0.5,1.1,0.7c0.4,0.2,0.7,0.3,1.1,0.3c0.1,0,0.3,0,0.5,0c0.1,0,0.2,0,0.4,0c0.1,0,0.2,0,0.3,0L312.5,118.9z"/>
		<path class="st1" d="M313.4,118.5c0,0-0.2,0.5-0.4,0.3l-0.7-0.6l-2.1-1.6l-1.1-0.8l-1-0.7c-0.3-0.2-0.5-0.4-0.8-0.6l-0.3-0.3
			l1.5-0.5l0,0.1c0,0.1,0,0.1,0,0.2c0,0.1,0,0.2,0,0.3c0,0.2,0.1,0.3,0.1,0.4c0.2,0.4,0.4,0.7,0.6,1c0.1,0.2,0.3,0.3,0.5,0.5
			c0.2,0.2,0.4,0.3,0.5,0.4c0.4,0.3,0.8,0.5,1.2,0.6c0.4,0.1,0.8,0.2,1.2,0.3c0.2,0,0.3,0,0.5,0c0.1,0,0.3,0,0.4,0
			c0.2,0,1.5,0,1.5,0L313.4,118.5z M325.5,135.7l-0.6-0.2l-0.6-0.2l-0.8-0.3l-0.9-0.3l-1-0.4l-2.2-0.7l-3.2-1l-0.9-0.3l-0.8-0.3
			c-0.2-0.1-0.5-0.2-0.6-0.3c-0.2-0.1,0-0.2-0.1-0.3c-0.1-0.1,0.1-0.3,0.1-0.3l0.3-1.5l0.3,0.7c0,0.1,0.1,0.2,0.2,0.3
			c0.1,0.2,0.2,0.3,0.4,0.4c0.2,0.2,0.4,0.4,0.6,0.5c1.1,0.9,2.4,1.5,3.8,2c1.4,0.5,2.8,0.7,4.2,0.8c0.3,0,0.5,0,0.8,0
			c0.2,0,0.4,0,0.6-0.1l0.6-0.1L325.5,135.7z"/>
		<path class="st1" d="M325.8,133.7c0,0-0.1,0.2-0.4,0.1l-1.5-0.5l-4.2-1.4l-2.2-0.7l-1-0.4l-0.9-0.3l-0.8-0.3
			c-0.2-0.1-0.5-0.2-0.6-0.3c-0.1-0.1-0.3-0.2-0.4-0.3c-0.1-0.1,0.4-0.1,0.4-0.1l0.6-1.2l0.1,0.3c0,0.1,0.1,0.2,0.1,0.3
			c0.1,0.2,0.2,0.3,0.4,0.5c0.2,0.2,0.4,0.4,0.6,0.6c0.2,0.2,0.5,0.4,0.8,0.6l0.9,0.5l1,0.5c0.4,0.2,0.7,0.3,1.1,0.4
			c0.7,0.2,1.5,0.4,2.3,0.5c0.7,0.1,1.4,0.2,2,0.1c0.3,0,0.5,0,0.8-0.1c0.2,0,0.4-0.1,0.6-0.1l0.6-0.1L325.8,133.7z M354.8,108.9
			l-0.3,0.6l-0.3,0.7l-0.5,0.9l-0.6,1.1l-0.7,1.2L352,114l-0.4,0.6c-0.3,0.4-0.6,0.8-0.9,1.2l-1,1.1c-0.3,0.4-0.7,0.7-1,1l-1,0.9
			l-1,0.8l-0.9,0.6l-0.7,0.4l-0.6,0.4l-0.5-1.6l0.2,0c0.1,0,0.3,0,0.5,0c0.6-0.1,1.1-0.2,1.7-0.4c0.4-0.1,0.7-0.3,1.1-0.5
			c0.8-0.4,1.6-1,2.2-1.6c0.4-0.3,0.7-0.7,1-1.1c0.3-0.4,0.6-0.8,0.8-1.2c0.2-0.4,0.5-0.8,0.6-1.3l0.3-0.6l0.2-0.6
			c0.1-0.2,0.1-0.4,0.2-0.6c0-0.2,0.1-0.4,0.1-0.6l0.2-1l0.1-0.8l0-0.7L354.8,108.9z"/>
		<path class="st1" d="M353.8,108.2c0,0-0.1,0.2-0.3,0.6l-0.4,0.7l-0.5,0.9l-0.6,1.1l-0.7,1.1c-0.2,0.4-0.5,0.8-0.8,1.2l-0.4,0.6
			l-0.5,0.6l-1,1.1l-1,1l-1.9,1.6l-1.4,1.1l-0.5,0.5l-0.8-1.4c0.8-0.2,1.6-0.5,2.3-0.8l1.1-0.5c0.4-0.2,0.7-0.4,1.1-0.7
			c0.4-0.3,0.8-0.5,1.1-0.8c0.4-0.3,0.7-0.6,1.1-1l0.5-0.6l0.4-0.6c0.1-0.2,0.3-0.4,0.4-0.6c0.1-0.2,0.2-0.4,0.3-0.6
			c0.2-0.4,0.3-0.8,0.5-1.2c0.1-0.4,0.2-0.8,0.3-1.1c0.1-0.6,0.2-1.2,0.2-1.7l0-0.7L353.8,108.2z M326.4,82.8l-0.1,0.1l-0.3,0.2
			c-0.3,0.3-0.7,0.6-1,1c-1.1,1.2-2.2,2.5-3.2,3.9c-1.4,1.9-2.7,3.9-3.8,6c-0.6,1.2-1.1,2.4-1.4,3.7c-0.3,1.3-0.3,2.7-0.1,4
			c0.4,2.7,1.4,5.2,3,7.4c0.7,1,1.5,2,2.3,2.9l1.3,1.2c0.4,0.4,0.8,0.8,1.2,1.3c0.3,0.5,0.5,1,0.5,1.5c0,0.5-0.1,1-0.3,1.4
			c-0.3,0.7-0.8,1.3-1.4,1.8c-0.4,0.3-0.8,0.6-1.2,0.8l-0.4,0.2c0,0,0.1-0.1,0.4-0.3c0.4-0.3,0.7-0.6,1.1-0.9
			c0.5-0.5,0.9-1.1,1.2-1.7c0.3-0.8,0.2-1.8-0.3-2.5c-0.3-0.4-0.7-0.8-1.1-1.1c-0.4-0.4-0.9-0.8-1.3-1.2c-0.9-0.9-1.7-1.9-2.5-2.9
			c-1.6-2.3-2.7-4.9-3.1-7.7c-0.2-1.4-0.2-2.9,0.1-4.3c0.4-1.3,0.9-2.6,1.5-3.8c1.1-2.1,2.4-4.2,3.9-6.1c1-1.4,2.1-2.7,3.3-3.9
			c0.3-0.3,0.7-0.7,1.1-1l0.3-0.2l0.1-0.1L326.4,82.8z"/>
		<path class="st1" d="M325.2,82.8l-0.1,0.1l-0.3,0.2c-0.4,0.3-0.7,0.6-1,1c-1.1,1.2-2.2,2.6-3.2,4c-1.4,1.9-2.7,4-3.7,6.1
			c-0.6,1.2-1.1,2.4-1.4,3.7c-0.3,1.3-0.3,2.7-0.1,4.1c0.4,2.7,1.5,5.3,3,7.5c0.7,1,1.5,2,2.5,2.8c0.4,0.4,0.9,0.7,1.4,1.1
			c0.5,0.4,0.9,0.8,1.2,1.2c0.3,0.5,0.5,1,0.6,1.6c0,0.5-0.1,1-0.4,1.4c-0.4,0.7-0.9,1.2-1.6,1.7c-0.4,0.3-0.8,0.5-1.3,0.7
			c-0.3,0.1-0.5,0.2-0.5,0.2s0.2-0.1,0.4-0.3c0.4-0.3,0.8-0.5,1.1-0.9c0.6-0.5,1-1,1.4-1.7c0.4-0.8,0.3-1.8-0.3-2.5
			c-0.3-0.4-0.7-0.8-1.1-1.1c-0.5-0.3-1-0.7-1.4-1.1c-1-0.9-1.8-1.8-2.6-2.9c-1.6-2.3-2.7-5-3.2-7.8c-0.2-1.4-0.2-2.9,0-4.3
			c0.3-1.4,0.8-2.7,1.5-3.9c1.1-2.2,2.4-4.3,3.8-6.2c1-1.4,2.1-2.7,3.3-4c0.3-0.4,0.7-0.7,1.1-1c0.1-0.1,0.2-0.2,0.3-0.2l0.1-0.1
			L325.2,82.8z M327.6,83.3L327.6,83.3l-0.4,0.3c-0.2,0.2-0.6,0.5-1,0.9c-1.1,1.2-2.2,2.4-3.2,3.7c-1.4,1.8-2.7,3.7-3.8,5.7
			c-0.6,1.1-1.1,2.3-1.5,3.5c-0.1,0.3-0.2,0.6-0.2,0.9c-0.1,0.3-0.1,0.7-0.1,1c0,0.7,0,1.3,0.1,1.9c0.4,2.6,1.3,5,2.7,7.2
			c0.6,1,1.4,2,2.2,2.9c0.4,0.4,0.8,0.8,1.2,1.2c0.4,0.4,0.8,0.7,1.2,1.1c0.7,0.7,1,1.8,0.7,2.8c-0.2,0.7-0.6,1.4-1.1,1.9
			c-0.3,0.3-0.6,0.7-1,1c-0.2,0.2-0.4,0.3-0.4,0.3s0.1-0.1,0.3-0.4c0.3-0.3,0.6-0.7,0.8-1.1c0.4-0.6,0.7-1.2,0.8-1.9
			c0.2-0.8-0.1-1.7-0.7-2.3c-0.3-0.3-0.8-0.6-1.2-1s-0.8-0.8-1.2-1.2c-0.8-0.9-1.6-1.9-2.3-2.9c-1.5-2.3-2.5-4.8-2.9-7.5
			c-0.2-1.4-0.1-2.8,0.3-4.2c0.4-1.3,0.9-2.5,1.6-3.7c1.1-2,2.4-4,3.9-5.8c1-1.3,2.1-2.5,3.3-3.7c0.4-0.4,0.8-0.7,1-0.9
			c0.1-0.1,0.2-0.2,0.3-0.2l0.1-0.1L327.6,83.3z M328.9,83.8c0,0-0.1,0.1-0.4,0.3l-1,0.9c-1.1,1.1-2.2,2.3-3.2,3.5
			c-1.4,1.7-2.7,3.6-3.9,5.5c-0.6,1.1-1.2,2.2-1.6,3.4c-0.4,1.2-0.5,2.5-0.4,3.8c0.3,2.5,1.2,4.9,2.7,7c0.6,1,1.4,1.9,2.2,2.8
			c0.4,0.4,0.8,0.8,1.2,1.1c0.4,0.4,0.8,0.6,1.2,1.1c0.7,0.7,1,1.8,0.6,2.8c-0.2,0.7-0.6,1.3-1.1,1.9c-0.4,0.5-0.9,0.9-1.4,1.2
			c0,0,0.1-0.1,0.3-0.3c0.3-0.3,0.6-0.7,0.8-1c0.4-0.5,0.7-1.2,0.9-1.8c0.2-0.8,0-1.7-0.6-2.2c-0.3-0.3-0.7-0.6-1.1-1
			c-0.4-0.4-0.8-0.7-1.2-1.2c-0.8-0.9-1.6-1.8-2.3-2.8c-1.5-2.2-2.5-4.7-2.9-7.4c-0.2-1.4,0-2.7,0.4-4.1c0.4-1.2,1-2.4,1.6-3.6
			c1.2-2,2.5-3.8,4-5.6c1-1.2,2.1-2.4,3.3-3.5c0.4-0.4,0.8-0.7,1-0.9s0.4-0.3,0.4-0.3L328.9,83.8z M318.9,113.4l-0.2-0.1l-0.4-0.2
			c-0.5-0.2-1.1-0.3-1.6-0.4c-0.3-0.1-0.7-0.1-1.1-0.2c-0.4,0-0.8,0-1.2,0c-0.4,0-0.9,0-1.3,0.1c-0.5,0.1-0.9,0.2-1.3,0.3
			c-0.4,0.1-0.9,0.3-1.3,0.5c-0.2,0.1-0.4,0.2-0.6,0.4c-0.2,0.1-0.4,0.2-0.5,0.4c-0.3,0.3-0.6,0.6-0.9,0.9c-0.3,0.3-0.5,0.6-0.7,0.9
			l-0.5,0.8l-0.6,1.3l0.2-0.6l0.3-0.7l0.5-0.9c0.2-0.3,0.4-0.7,0.7-0.9c0.3-0.3,0.6-0.7,0.9-0.9c0.2-0.2,0.3-0.3,0.5-0.4
			c0.2-0.1,0.4-0.3,0.6-0.4c0.4-0.2,0.8-0.5,1.3-0.6c0.5-0.2,0.9-0.3,1.4-0.4c0.5-0.1,0.9-0.2,1.4-0.2c0.4,0,0.9,0,1.3,0l1.2,0.1
			c0.6,0.1,1.2,0.2,1.7,0.3l0.5,0.1l0.2,0L318.9,113.4z M321.3,115.1l-0.6-0.2l-1.7-0.5c-0.4-0.1-0.7-0.2-1.2-0.3l-1.3-0.2l-0.7-0.1
			l-0.7,0c-0.2,0-0.5,0-0.7,0l-0.7,0.1c-0.5,0.1-1,0.2-1.4,0.3c-0.5,0.1-0.9,0.3-1.3,0.6c-0.2,0.1-0.4,0.2-0.6,0.4
			c-0.2,0.1-0.4,0.3-0.5,0.4c-0.3,0.3-0.6,0.6-0.8,0.9l-0.6,0.8c-0.2,0.3-0.2,0.5-0.3,0.7l-0.3,0.6l0.3-0.6l0.3-0.7l0.5-0.9
			c0.2-0.3,0.5-0.6,0.8-0.9c0.2-0.2,0.3-0.3,0.5-0.4c0.2-0.2,0.4-0.3,0.6-0.4c0.4-0.3,0.9-0.5,1.3-0.6c0.5-0.2,1-0.3,1.5-0.4
			c0.3-0.1,0.5-0.1,0.8-0.1c0.3,0,0.5-0.1,0.8-0.1l0.7,0l0.7,0c0.5,0,0.9,0.1,1.4,0.2l1.2,0.2c0.7,0.2,1.4,0.3,1.8,0.5l0.7,0.2
			L321.3,115.1z M321.7,116.2l-0.6-0.2l-1.6-0.5c-0.8-0.2-1.6-0.4-2.4-0.5l-1.4-0.1c-0.5,0-0.9,0-1.4,0c-0.2,0-0.5,0.1-0.7,0.1
			c-0.2,0-0.5,0.1-0.7,0.1l-0.7,0.2l-0.6,0.3l-0.3,0.1c-0.1,0.1-0.2,0.1-0.3,0.2l-0.5,0.3c-0.3,0.3-0.6,0.5-0.8,0.8l-0.6,0.8
			c-0.1,0.2-0.3,0.4-0.4,0.7l-0.3,0.6l0.3-0.6c0.1-0.2,0.2-0.5,0.3-0.7l0.5-0.8l0.8-0.9c0.2-0.1,0.3-0.3,0.5-0.4l0.3-0.2l0.3-0.2
			l0.6-0.3l0.7-0.2c0.2-0.1,0.5-0.2,0.7-0.2l0.7-0.1c0.5-0.1,1-0.1,1.5-0.1c0.5,0,1,0,1.4,0c0.8,0.1,1.7,0.2,2.5,0.3l1.7,0.4
			l0.6,0.2L321.7,116.2z M329.8,84.4l-0.2,0.1c-0.2,0.1-0.3,0.2-0.4,0.3c-0.5,0.4-1,0.8-1.4,1.3c-1.4,1.4-2.7,2.9-4,4.5
			c-0.7,0.9-1.3,1.8-1.9,2.6c-0.3,0.4-0.6,0.8-0.8,1.3c-0.2,0.4-0.5,0.8-0.6,1.2c-0.2,0.4-0.4,0.7-0.5,1c-0.1,0.3-0.2,0.5-0.3,0.8
			l-0.2,0.7l0.2-0.7c0.1-0.3,0.2-0.6,0.3-0.8c0.1-0.3,0.3-0.7,0.5-1c0.2-0.4,0.4-0.8,0.6-1.2c0.2-0.4,0.5-0.8,0.7-1.3
			c0.5-0.9,1.1-1.8,1.8-2.7c1.2-1.7,2.5-3.2,3.8-4.7c0.5-0.5,1-1,1.5-1.4c0.1-0.1,0.3-0.2,0.5-0.3l0.2-0.1L329.8,84.4z M331.1,84.7
			l-0.1,0.1c-0.1,0.1-0.2,0.1-0.4,0.3c-0.5,0.3-0.9,0.7-1.3,1.1c-1.3,1.2-2.5,2.5-3.7,3.8c-0.6,0.7-1.2,1.5-1.8,2.2
			c-0.5,0.7-1,1.3-1.4,2c-0.4,0.6-0.7,1.1-0.9,1.5l-0.3,0.6l0.3-0.6c0.2-0.4,0.5-0.9,0.8-1.6c0.4-0.7,0.8-1.4,1.3-2.1
			c0.5-0.8,1.1-1.5,1.7-2.3c1.1-1.4,2.3-2.8,3.5-4c0.4-0.4,0.9-0.8,1.3-1.2c0.2-0.1,0.3-0.2,0.4-0.3l0.1-0.1L331.1,84.7z
			 M332.4,85.2l-0.5,0.3l-1.2,0.9c-1.2,0.9-2.3,2-3.3,3.1c-1,1.1-2,2.3-2.9,3.5c-0.4,0.5-0.6,0.9-0.8,1.2l-0.3,0.5l0.3-0.5
			c0.2-0.4,0.5-0.9,0.8-1.3c0.8-1.3,1.7-2.5,2.7-3.7c1-1.2,2-2.3,3.2-3.3c0.5-0.4,0.9-0.7,1.2-1c0.3-0.2,0.5-0.3,0.5-0.3L332.4,85.2
			z M355.8,112.4l-0.2-0.3c-0.2-0.3-0.4-0.6-0.6-0.8c-0.8-0.9-1.7-1.7-2.8-2.2c-0.7-0.4-1.4-0.6-2.2-0.8c-0.4-0.1-0.8-0.1-1.2,0
			c-0.4,0.1-0.8,0.2-1.2,0.4l-2.6,1.3c-0.9,0.4-1.9,0.8-2.9,1.1c-1,0.3-2,0.5-3,0.6c-1,0.1-2,0.1-3-0.1c-1.7-0.2-3.4-0.9-4.9-1.9
			c-0.6-0.4-1.1-0.9-1.6-1.4c-0.4-0.4-0.7-0.8-0.9-1.3c-0.2-0.3-0.3-0.6-0.4-0.9l-0.1-0.3l0.2,0.3c0.1,0.3,0.3,0.6,0.5,0.9
			c0.7,1,1.6,1.8,2.6,2.4c0.7,0.4,1.4,0.7,2.2,1c0.8,0.3,1.7,0.5,2.6,0.6c0.9,0.1,1.9,0.1,2.8-0.1c1-0.1,1.9-0.4,2.9-0.6
			c0.9-0.3,1.9-0.6,2.8-1l2.6-1.2c0.4-0.2,0.9-0.3,1.4-0.4c0.5,0,1,0,1.4,0.1c0.8,0.2,1.6,0.5,2.3,0.9c1.1,0.6,2,1.5,2.7,2.5
			c0.2,0.3,0.4,0.6,0.5,0.9L355.8,112.4 M355.4,113l-0.2-0.3c-0.2-0.3-0.4-0.6-0.6-0.8c-0.3-0.4-0.7-0.8-1.1-1.1
			c-0.5-0.4-1.1-0.7-1.7-1c-0.7-0.3-1.5-0.4-2.3-0.4c-0.8,0.1-1.7,0.3-2.4,0.8l-2.6,1.3c-1.9,0.8-3.9,1.3-5.9,1.4
			c-1,0-2-0.1-2.9-0.3c-1.7-0.4-3.3-1.1-4.7-2.1c-1-0.7-1.8-1.6-2.5-2.7c-0.2-0.3-0.3-0.6-0.4-0.9l-0.1-0.3l0.1,0.3
			c0.1,0.3,0.3,0.6,0.5,0.9c0.7,1,1.6,1.8,2.6,2.4c1.4,0.9,3,1.5,4.6,1.8c0.9,0.2,1.8,0.3,2.8,0.2c1-0.1,1.9-0.3,2.8-0.5
			c0.9-0.2,1.9-0.5,2.8-0.9c0.9-0.4,1.7-0.8,2.6-1.2c0.8-0.5,1.8-0.7,2.7-0.7c2.1,0.1,4,1.2,5.2,2.9c0.2,0.3,0.3,0.6,0.5,0.9
			L355.4,113 M312.8,131.7c-0.1,0.1-0.1,0.2-0.2,0.2c-0.2,0.2-0.3,0.5-0.4,0.8c-0.2,0.4-0.2,0.9-0.1,1.3c0.1,0.6,0.3,1.1,0.6,1.5
			c0.2,0.3,0.4,0.5,0.6,0.7c0.3,0.2,0.5,0.4,0.8,0.6c0.6,0.4,1.3,0.8,2,1.1c0.8,0.3,1.5,0.6,2.3,0.9c0.8,0.3,1.7,0.5,2.5,0.7
			c0.8,0.2,1.7,0.3,2.5,0.4c0.8,0.1,1.6,0.1,2.5,0c0.7-0.1,1.5-0.3,2.1-0.6c0.6-0.3,1-0.8,1.3-1.4c0.2-0.5,0.2-1.1,0.1-1.7
			c-0.1-0.4-0.3-0.9-0.5-1.3c-0.1-0.3-0.3-0.5-0.4-0.8l-0.2-0.3l0.2,0.2c0.2,0.2,0.4,0.5,0.6,0.7c0.3,0.4,0.5,0.8,0.7,1.3
			c0.2,0.6,0.3,1.3,0.1,1.9c-0.2,0.8-0.7,1.4-1.4,1.9c-0.7,0.5-1.5,0.8-2.4,0.9c-0.9,0.2-1.8,0.2-2.7,0.1c-0.9,0-1.8-0.2-2.7-0.4
			c-0.9-0.2-1.8-0.4-2.6-0.7c-0.8-0.3-1.6-0.6-2.4-1c-0.8-0.4-1.5-0.8-2.1-1.3c-0.3-0.2-0.6-0.5-0.9-0.8c-0.1-0.1-0.2-0.3-0.4-0.4
			c-0.1-0.1-0.2-0.3-0.3-0.5c-0.3-0.6-0.5-1.2-0.5-1.9c0-0.5,0.2-1,0.4-1.4c0.2-0.3,0.4-0.5,0.6-0.7
			C312.6,131.8,312.7,131.7,312.8,131.7 M311.4,132.2c-0.1,0.1-0.2,0.2-0.3,0.2c-0.2,0.3-0.4,0.6-0.5,0.9c-0.2,0.5-0.2,1-0.1,1.5
			c0.1,0.6,0.4,1.2,0.8,1.8c0.9,1.1,2.4,2.1,4,2.9c0.9,0.4,1.8,0.7,2.7,1.1c0.9,0.3,1.9,0.6,2.8,0.8c1.9,0.4,3.8,0.4,5.7,0.1
			c0.9-0.2,1.7-0.5,2.4-0.9c0.7-0.4,1.2-1,1.5-1.7c0.3-0.6,0.3-1.3,0.2-1.9c-0.1-0.5-0.3-1-0.6-1.4c-0.2-0.3-0.3-0.6-0.5-0.9
			l-0.2-0.3l0.2,0.3c0.2,0.3,0.4,0.5,0.6,0.8c0.3,0.4,0.5,0.9,0.7,1.5c0.2,0.7,0.2,1.4-0.1,2.1c-0.3,0.8-0.9,1.5-1.6,1.9
			c-0.8,0.5-1.6,0.9-2.6,1.1c-2,0.4-4,0.4-6,0c-1-0.2-2-0.4-2.9-0.8c-0.9-0.3-1.8-0.7-2.7-1.1c-0.8-0.4-1.6-0.9-2.4-1.4
			c-0.7-0.5-1.3-1.1-1.7-1.8c-0.4-0.6-0.7-1.3-0.8-2c-0.1-0.5,0-1.1,0.2-1.6c0.1-0.3,0.3-0.6,0.6-0.9
			C311.2,132.3,311.3,132.2,311.4,132.2 M305.5,116.9c-0.1,0.1-0.2,0.3-0.3,0.5c-0.2,0.4-0.1,0.9,0.2,1.3c0.2,0.2,0.4,0.5,0.7,0.6
			c0.3,0.2,0.6,0.4,0.9,0.5c0.3,0.2,0.7,0.3,1.1,0.4l1.1,0.3c0.2,0,0.4,0.1,0.6,0.1c0.2,0,0.4,0.1,0.6,0.1c0.4,0,0.8,0,1.1,0
			c0.3,0,0.7-0.1,1-0.3c0.3-0.1,0.5-0.4,0.6-0.6c0-0.1,0.1-0.3,0.1-0.4v-0.2l0-0.2c0-0.2-0.1-0.4-0.2-0.6l-0.3-0.5l0.4,0.4
			c0.1,0.2,0.2,0.4,0.3,0.6l0.1,0.2l0,0.2c0,0.2,0,0.3,0,0.5c-0.1,0.4-0.3,0.7-0.6,0.9c-0.3,0.2-0.7,0.3-1.1,0.4
			c-0.2,0-0.4,0.1-0.6,0.1c-0.2,0-0.4,0-0.6,0c-0.4,0-0.8-0.1-1.2-0.2c-0.4-0.1-0.8-0.2-1.2-0.3c-0.4-0.1-0.8-0.3-1.1-0.5
			c-0.3-0.2-0.7-0.4-1-0.6c-0.3-0.2-0.5-0.5-0.7-0.8c-0.2-0.3-0.2-0.6-0.2-0.9c0-0.2,0.1-0.5,0.2-0.7c0.1-0.1,0.2-0.2,0.3-0.3
			C305.4,116.9,305.5,116.9,305.5,116.9 M304.9,117.1c-0.2,0.1-0.3,0.3-0.3,0.5c-0.1,0.5,0,1.1,0.3,1.5c0.5,0.6,1.1,1,1.8,1.3
			c0.4,0.2,0.8,0.4,1.2,0.5c0.4,0.2,0.9,0.3,1.3,0.4c0.9,0.2,1.7,0.3,2.6,0.2c0.8-0.1,1.6-0.4,1.9-1c0.1-0.3,0.2-0.6,0.1-0.9
			c0-0.2-0.1-0.5-0.2-0.7c-0.1-0.1-0.2-0.3-0.2-0.4l-0.1-0.1l0.1,0.1c0.1,0.1,0.2,0.2,0.3,0.4c0.1,0.2,0.2,0.4,0.3,0.7
			c0.1,0.3,0.1,0.7-0.1,1c-0.2,0.4-0.5,0.7-0.8,0.8c-0.4,0.2-0.8,0.4-1.2,0.4c-0.9,0.1-1.9,0.1-2.8-0.1c-0.9-0.2-1.8-0.5-2.6-0.9
			c-0.8-0.3-1.4-0.9-1.9-1.6c-0.2-0.3-0.3-0.6-0.3-1c0-0.3,0-0.5,0.2-0.7c0.1-0.1,0.2-0.3,0.3-0.4
			C304.8,117.2,304.8,117.2,304.9,117.1 M356.1,111.5c0.1,0,0.1,0.1,0.2,0.1c0.1,0.2,0.2,0.3,0.3,0.5c0.2,0.7,0.3,1.4,0.2,2.2
			c-0.1,1-0.5,2-1.1,2.9c-0.3,0.5-0.7,1-1.1,1.4c-0.4,0.4-0.8,0.8-1.3,1.2c-0.9,0.7-1.9,1.4-2.9,1.9c-0.9,0.5-1.9,0.8-3,0.9
			c-0.4,0-0.9,0-1.3-0.2c-0.3-0.1-0.6-0.3-0.8-0.6c-0.1-0.2-0.2-0.4-0.2-0.6l0-0.2l0.1,0.2c0.1,0.2,0.2,0.3,0.3,0.5
			c0.2,0.2,0.4,0.4,0.7,0.4c0.4,0.1,0.7,0.1,1.1,0c0.9-0.2,1.8-0.6,2.6-1.1c1-0.6,1.9-1.2,2.7-1.9c0.4-0.3,0.9-0.7,1.3-1.1
			c0.4-0.4,0.7-0.8,1-1.2c0.6-0.8,1-1.7,1.2-2.6c0.2-0.7,0.2-1.3,0.1-2c0-0.2-0.1-0.4-0.2-0.5C356.2,111.6,356.2,111.5,356.1,111.5"
			/>
		<path class="st1" d="M356.9,111.1c0.1,0,0.1,0.1,0.2,0.1c0.2,0.1,0.3,0.3,0.4,0.5c0.4,0.7,0.6,1.6,0.5,2.4
			c-0.1,1.2-0.5,2.3-1.1,3.3c-0.3,0.6-0.7,1.1-1.1,1.6c-0.4,0.5-0.9,1-1.4,1.5c-0.5,0.5-1,0.9-1.6,1.3c-0.5,0.4-1.1,0.7-1.7,1
			c-1.1,0.5-2.2,0.8-3.4,0.8c-0.5,0-1-0.1-1.4-0.3c-0.3-0.1-0.7-0.4-0.9-0.6c-0.1-0.2-0.2-0.4-0.3-0.6c0-0.1,0-0.2,0-0.2
			c0.1,0.3,0.2,0.5,0.5,0.7c0.6,0.5,1.4,0.7,2.1,0.5c1.1-0.1,2.1-0.5,3.1-1c0.5-0.3,1.1-0.6,1.6-1c0.5-0.4,1-0.8,1.5-1.2l1.3-1.4
			c0.4-0.5,0.8-1,1.1-1.5c0.6-0.9,1-1.9,1.3-3c0.1-0.8,0.1-1.5-0.2-2.3c-0.1-0.2-0.2-0.4-0.3-0.6C357,111.2,357,111.2,356.9,111.1
			 M324.3,136.2c0-0.2-0.1-0.4-0.1-0.6l0-0.7c0-0.3,0-0.6,0-0.9c0-0.8,0.2-1.6,0.3-2.3c0.2-0.9,0.4-1.7,0.7-2.6l0.5-1.3l0.5-1.2
			l0.5-1.1l0.5-1c0.3-0.6,0.7-1.1,0.9-1.4l0.3-0.5l-0.3,0.6l-0.7,1.5l-0.9,2.1l-0.5,1.2l-0.4,1.3l-0.4,1.3l-0.3,1.3l-0.5,2.2
			l-0.2,1.6L324.3,136.2 M323.5,135.9c0-0.2-0.1-0.4-0.1-0.6l0-0.7c0-0.3,0-0.6,0-0.9c0-0.8,0.2-1.6,0.3-2.3
			c0.2-0.9,0.4-1.7,0.7-2.6l0.5-1.3l0.5-1.2l0.5-1.1l0.5-1c0.3-0.6,0.7-1.1,0.9-1.4l0.3-0.5l-0.3,0.6l-0.7,1.5l-0.9,2.1l-0.5,1.2
			l-0.4,1.3l-0.4,1.3l-0.3,1.3l-0.5,2.2l-0.2,1.6L323.5,135.9 M322.6,135.6c0-0.2-0.1-0.4-0.1-0.6l0-0.7c0-0.3,0-0.6,0-0.9
			c0-0.8,0.2-1.6,0.3-2.3c0.2-0.9,0.4-1.7,0.7-2.6l0.5-1.3l0.5-1.2l0.5-1.1l0.5-1c0.3-0.6,0.7-1.1,0.9-1.4l0.3-0.5l-0.3,0.6
			l-0.7,1.5l-0.9,2.1l-0.5,1.2l-0.4,1.3l-0.4,1.3l-0.3,1.3l-0.5,2.2l-0.2,1.6L322.6,135.6 M227.6,94l1-0.8l1.2-1l0.8-0.6l0.9-0.7
			c1.3-0.9,2.9-2,4.8-3.1c1.9-1.1,4.2-2.3,6.6-3.4c2.5-1.1,5.2-2.3,8.2-3.3s6.1-2,9.5-2.8c3.3-0.8,6.8-1.5,10.3-2
			c3.6-0.5,7.2-0.8,10.8-1c1.8-0.1,3.6-0.1,5.5-0.1c0.9,0,1.8,0,2.7,0c0.9,0,1.8,0,2.7,0.1c1.8,0.1,3.6,0.2,5.3,0.4l2.6,0.2l2.6,0.3
			c1.7,0.2,3.3,0.5,5,0.8c1.6,0.2,3.2,0.6,4.7,0.9c1.5,0.3,3,0.7,4.4,1c1.4,0.3,2.8,0.7,4.1,1.1c2.6,0.7,5,1.5,7.1,2.2l5.4,2
			l4.6,1.9l-4.7-1.8l-5.4-1.8c-2.1-0.6-4.5-1.4-7.1-2c-1.3-0.3-2.7-0.7-4.1-1c-1.4-0.3-2.9-0.7-4.4-1c-1.5-0.3-3.1-0.6-4.7-0.8
			c-1.6-0.2-3.3-0.5-5-0.7l-2.5-0.3l-2.6-0.2c-1.7-0.2-3.5-0.2-5.3-0.3c-0.9-0.1-1.8,0-2.7-0.1c-0.9,0-1.8,0-2.7,0
			c-1.8,0-3.6,0-5.4,0.2c-3.6,0.2-7.2,0.6-10.7,1.1c-3.5,0.5-7,1.2-10.3,2s-6.4,1.8-9.4,2.7c-2.9,1-5.7,2.1-8.1,3.2
			c-2.5,1.1-4.7,2.3-6.6,3.3c-1.9,1.1-3.5,2.1-4.8,3l-0.9,0.6l-0.8,0.6c-0.5,0.4-0.9,0.7-1.2,1l-1,0.8L227.6,94z M225.8,93.9l1-0.9
			l1.2-1l1.7-1.3l1-0.8l1.1-0.8l2.6-1.7c1.9-1.2,4.1-2.4,6.6-3.6c2.5-1.2,5.2-2.4,8.2-3.5c3.1-1.1,6.3-2.1,9.5-3
			c3.4-0.9,6.9-1.6,10.4-2.1c3.6-0.6,7.2-0.9,10.9-1.1c1.8-0.1,3.7-0.1,5.5-0.2c0.9,0,1.8,0,2.7,0c0.9,0,1.8,0,2.7,0.1
			c1.8,0.1,3.6,0.1,5.3,0.3l2.6,0.2l2.6,0.3c3.4,0.4,6.7,1,9.8,1.5c1.5,0.3,3,0.6,4.5,1c1.4,0.3,2.8,0.7,4.2,1
			c1.3,0.3,2.6,0.7,3.8,1l3.4,1l5.5,1.8l4.7,1.8l-4.7-1.6c-1.5-0.5-3.4-1.1-5.5-1.7c-2.1-0.6-4.5-1.3-7.2-1.9
			c-1.3-0.3-2.7-0.7-4.2-1c-1.4-0.3-2.9-0.6-4.5-0.9c-3.1-0.5-6.3-1-9.7-1.4l-2.6-0.3l-2.6-0.2c-1.7-0.1-3.5-0.2-5.3-0.3
			c-0.9,0-1.8,0-2.7,0c-0.9,0-1.8,0-2.7,0c-1.8,0.1-3.6,0.1-5.4,0.2c-3.6,0.2-7.2,0.7-10.8,1.2c-3.5,0.5-6.9,1.3-10.3,2.1
			c-3.3,0.8-6.4,1.9-9.4,2.9s-5.6,2.2-8.1,3.4c-2.5,1.2-4.6,2.4-6.5,3.5c-0.9,0.6-1.8,1.1-2.6,1.6l-1.1,0.8l-1,0.7
			c-0.6,0.5-1.2,0.9-1.7,1.3c-0.5,0.4-0.9,0.7-1.2,1l-1,0.8L225.8,93.9z M223.9,94.2l1-1c0.3-0.3,0.7-0.7,1.2-1.2
			c0.5-0.5,1.1-1,1.8-1.5c1.6-1.3,3.3-2.5,5-3.6c2.2-1.4,4.6-2.8,7-4c2.6-1.3,5.6-2.6,8.7-3.8c3.2-1.2,6.6-2.2,10.1-3.2
			c3.6-0.9,7.3-1.7,11.1-2.3c3.9-0.6,7.7-0.9,11.6-1.1c1-0.1,2-0.1,2.9-0.1l2.9,0c1.9,0.1,3.9,0,5.8,0.2l2.9,0.2l2.8,0.3
			c1.9,0.2,3.7,0.4,5.5,0.7l1.4,0.2l4,0.7c1.7,0.3,3.4,0.7,5.1,1.1c3.3,0.8,6.3,1.6,9.1,2.4l2.1,0.6l1.9,0.7l3.6,1.2l5.7,2.2
			l4.9,2.1l-5-2c-1.6-0.6-3.5-1.3-5.8-2.1l-3.6-1.2l-2-0.6l-2.1-0.6c-2.8-0.8-5.9-1.6-9.1-2.3c-1.6-0.3-3.3-0.7-5.1-1l-4-0.6
			l-1.4-0.2c-1.8-0.2-3.6-0.5-5.5-0.6l-2.8-0.2c-0.9,0-1.9-0.1-2.9-0.1c-1.9-0.1-3.8-0.1-5.8-0.1c-1,0-1.9,0-2.9,0.1
			c-1,0-1.9,0-2.9,0.1c-3.9,0.2-7.7,0.6-11.5,1.2c-3.7,0.6-7.4,1.3-11,2.3c-3.5,0.9-6.9,2-10,3.2c-3.1,1.2-6,2.4-8.6,3.7
			c-2.6,1.3-4.9,2.6-6.9,3.9c-1.7,1.1-3.4,2.3-5,3.5c-0.7,0.5-1.3,1-1.7,1.4c-0.5,0.4-0.9,0.8-1.2,1.1l-1,1L223.9,94.2z M317,142.1
			l0,0.4c0,0.1,0,0.3,0.1,0.5s0.1,0.4,0.1,0.6c0.2,1.1,0.5,2.2,0.9,3.2c0.4,1.1,0.8,2.1,1.3,3.1c0.2,0.5,0.5,0.9,0.8,1.3
			c-0.3-0.4-0.6-0.8-0.9-1.3c-0.6-1-1.1-2-1.5-3c-0.5-1-0.8-2.1-1.1-3.2c-0.1-0.4-0.2-0.7-0.2-1.1l-0.1-0.4L317,142.1z M307.7,121.8
			l0,0.3c0,0.2,0,0.5,0.1,0.7c0.1,0.7,0.3,1.4,0.6,2.1c0.3,0.7,0.5,1.4,0.9,2c0.2,0.3,0.3,0.6,0.5,0.9c-0.2-0.3-0.4-0.5-0.6-0.8
			c-0.4-0.6-0.8-1.3-1.1-2c-0.3-0.7-0.6-1.4-0.8-2.1c-0.1-0.2-0.1-0.5-0.2-0.8l0-0.3L307.7,121.8z M318.7,143.2l0,0.8
			c0,0.5,0.1,1.1,0.2,1.6s0.2,1.1,0.4,1.6l0.2,0.7c0,0-0.1-0.3-0.3-0.7c-0.2-0.5-0.4-1-0.6-1.6c-0.2-0.5-0.3-1.1-0.4-1.6l-0.1-0.8
			L318.7,143.2z M320.3,143.6l0,0.4c0,0.2,0,0.5-0.1,0.8l0,0.8l0,0.4c0,0-0.1-0.1-0.1-0.4l-0.2-0.8l-0.2-0.9l-0.1-0.4L320.3,143.6z
			 M378.5,55.9l0.4-0.2c0.1-0.1,0.2-0.1,0.4-0.2c0.1-0.1,0.3-0.2,0.5-0.3c0.9-0.7,1.7-1.4,2.5-2.2c0.8-0.8,1.5-1.6,2.2-2.5
			c0.3-0.4,0.6-0.8,0.9-1.3c-0.2,0.5-0.5,0.9-0.8,1.3c-0.6,0.9-1.3,1.8-2.1,2.7c-0.7,0.9-1.5,1.7-2.4,2.4c-0.3,0.2-0.6,0.5-0.9,0.7
			l-0.4,0.2L378.5,55.9z M378.7,53.9l0.7-0.3c0.5-0.3,0.9-0.6,1.4-0.9c0.5-0.3,0.9-0.7,1.3-1l0.6-0.5l-0.5,0.6
			c-0.4,0.4-0.8,0.8-1.2,1.2c-0.4,0.4-0.9,0.7-1.3,1.1l-0.6,0.4L378.7,53.9z M378.4,52.2l0.4-0.1l0.8-0.3l0.7-0.4l0.3-0.2
			c0,0-0.1,0.1-0.3,0.3s-0.4,0.4-0.6,0.6l-0.7,0.5l-0.3,0.2L378.4,52.2z M343,22.3l0.3-0.2c0.3-0.2,0.6-0.4,0.9-0.6
			c0.9-0.5,1.8-1,2.8-1.4c1-0.4,1.9-0.7,2.9-1c0.5-0.1,0.9-0.2,1.4-0.3c-0.5,0.1-0.9,0.2-1.4,0.4c-1,0.3-1.9,0.8-2.8,1.2
			c-0.9,0.5-1.8,1-2.6,1.6l-0.8,0.6l-0.3,0.3L343,22.3z M344.8,22.7l0.6-0.4c0.4-0.3,0.9-0.6,1.3-0.8c0.5-0.2,0.9-0.5,1.4-0.7
			l0.7-0.2l-0.6,0.3c-0.4,0.3-0.9,0.5-1.3,0.8c-0.4,0.3-0.8,0.6-1.2,1l-0.5,0.5L344.8,22.7z M346.1,23.5l0.3-0.2l0.7-0.5
			c0.3-0.2,0.7-0.4,1-0.5c-0.3,0.2-0.6,0.5-0.8,0.8l-0.5,0.6l-0.2,0.3L346.1,23.5z M333,23.2l0.2-0.3c0.1-0.2,0.4-0.5,0.7-0.8
			c0.7-0.7,1.4-1.4,2.2-2c0.8-0.6,1.6-1.2,2.4-1.7c0.4-0.2,0.8-0.4,1.2-0.6c-0.4,0.2-0.8,0.4-1.1,0.7c-0.8,0.6-1.6,1.2-2.3,1.8
			c-0.7,0.6-1.4,1.3-2,2.1l-0.6,0.7l-0.2,0.3L333,23.2z M334.7,23.1l0.4-0.5c0.3-0.4,0.7-0.7,1-1.1c0.4-0.3,0.7-0.6,1.1-1l0.5-0.4
			l-0.5,0.5c-0.3,0.3-0.7,0.7-1,1.1c-0.3,0.4-0.6,0.8-0.8,1.2l-0.3,0.6L334.7,23.1z M336.1,23.4l0.2-0.3l0.5-0.6
			c0.3-0.3,0.5-0.5,0.8-0.7c-0.2,0.3-0.4,0.6-0.5,0.9l-0.3,0.7l-0.1,0.3L336.1,23.4z M357.4,120.9l0,0.4c0,0.4-0.1,0.8-0.2,1.1
			c-0.2,1.1-0.5,2.2-0.9,3.3c-0.4,1.1-0.8,2.1-1.3,3.1c-0.2,0.5-0.5,0.9-0.8,1.3c0.3-0.4,0.5-0.9,0.7-1.4c0.4-1,0.8-2.1,1.1-3.2
			c0.3-1.1,0.5-2.1,0.7-3.2l0.1-0.6l0-0.5l0-0.4L357.4,120.9z M356.1,122.2l-0.1,0.8c-0.1,0.6-0.3,1.1-0.4,1.6
			c-0.2,0.5-0.4,1.1-0.6,1.6l-0.3,0.7c0,0,0.1-0.3,0.2-0.7c0.2-0.5,0.3-1.1,0.4-1.6c0.1-0.5,0.2-1.1,0.2-1.6l0-0.8L356.1,122.2z
			 M354.7,123l-0.1,0.4l-0.2,0.8l-0.2,0.8l-0.1,0.4l0-0.4c0-0.3,0-0.6,0-0.8l-0.1-0.8l0-0.4L354.7,123z M327.9,35.6
			c0.2-0.2,0.4-0.4,0.6-0.5c0.6-0.5,1.3-0.8,2.1-0.9c0.7-0.2,1.5-0.2,2.2,0c0.4,0.1,0.7,0.3,1,0.5l0.1-1.6c0,0-0.1,0.1-0.3,0.2
			l-0.8,0.3c-0.7,0.3-1.5,0.5-2.2,0.7c-0.8,0.2-1.5,0.3-2.3,0.3c-0.3,0-0.5,0-0.8,0c-0.1,0-0.2,0-0.3,0l0.6,1.5
			C327.8,35.8,327.9,35.7,327.9,35.6"/>
		<path class="st1" d="M334.7,42.1c-0.1,0-0.1,0.1-0.2,0.1l1.6,0.4l0-0.1l1.5,0.4c0-0.1-0.1-0.1-0.1-0.2c-0.1-0.1-0.2-0.3-0.2-0.4
			c-0.1-0.4-0.1-0.8,0-1.2c0.1-0.4,0.4-0.7,0.8-0.9c0.1-0.1,0.3-0.1,0.4-0.1c0.1,0,0.1,0,0.2,0l-1.3-1c0,0.1,0,0.2,0,0.2l0,0.5
			c0,0.4,0,0.8-0.2,1.2c-0.1,0.4-0.4,0.7-0.7,1c-0.1,0.1-0.3,0.2-0.4,0.3l-0.1,0.1l-0.1-0.1c-0.1-0.2-0.2-0.3-0.2-0.5
			c-0.1-0.5-0.1-0.9,0.1-1.4c0.2-0.4,0.5-0.8,0.9-1c0.1-0.1,0.3-0.1,0.5-0.2c0.1,0,0.1,0,0.2,0l-1.3-1c0,0,0,0.1,0,0.3l0,0.6
			c0,0.5-0.1,0.9-0.3,1.4c-0.2,0.4-0.4,0.9-0.7,1.2C335,41.9,334.8,42,334.7,42.1 M329.7,55l0.9,1.1c0.3,0.4,0.5,0.7,0.7,1.1
			c0.2,0.4,0.4,0.7,0.5,1.1c0.1,0.3,0.3,0.6,0.3,0.9l0.2,0.7l0,0.3c0.3,0,0.7,0,1,0.1l0.6-0.1l-0.4-0.7l-0.5-0.7l-0.6-0.8l-0.8-0.9
			l-0.9-1L329.7,55l-1-1.1l-0.5-0.5l0.5,0.5C329,54.2,329.4,54.6,329.7,55 M328.1,53.4L328.1,53.4L328.1,53.4 M327.8,34
			c0.2-0.2,0.3-0.4,0.5-0.5c0.6-0.4,1.2-0.7,1.9-0.9c0.7-0.1,1.4-0.1,2.1,0c0.3,0.1,0.6,0.2,0.9,0.4l0-1.6c0,0-0.1,0.1-0.3,0.2
			l-0.7,0.3c-0.7,0.3-1.4,0.5-2.1,0.7c-0.7,0.2-1.4,0.3-2.1,0.3c-0.3,0-0.5,0-0.8-0.1c-0.2,0,0.2,0.5,0.2,0.5l0,0.9
			C327.7,34.2,327.8,34.1,327.8,34 M369,55.2L369,55.2L369,55.2 M341.7,62l-0.4,0.3l1.4,0.9l0.2-0.7c0-0.2,0.1-0.5,0.1-0.7l0.1-0.9
			l0-1.1c0-0.2,0-0.4,0-0.6c0-0.2,0-0.4,0-0.6l-0.1-1.2l-0.1-1.3l-0.1-1.3l-0.1-1.2l-0.3-2.2l-0.1-0.9l-0.1-0.7l-0.1-0.6l-1.5,0.7
			l0-0.2l-1.5,0.7c0.1,0.1,0.3,0.3,0.4,0.4c0.1,0.2,0.3,0.3,0.4,0.5c0.2,0.2,0.3,0.5,0.4,0.7c0.2,0.3,0.3,0.6,0.4,0.9
			c0.1,0.3,0.2,0.7,0.3,1c0.1,0.4,0.2,0.8,0.2,1.1l0.1,1.2c0,0.4,0,0.8,0,1.2c0,0.4-0.1,0.8-0.1,1.2c0,0.4-0.1,0.7-0.2,1.1
			c-0.1,0.3-0.2,0.6-0.3,0.9l-0.4,0.7l-0.3,0.5l-0.3,0.3l1.4,0.9l0.2-0.6c0.1-0.5,0.2-1.1,0.3-1.6l0-1l0-1.1l-0.1-1.2l-0.1-1.2
			l-0.3-2.4l-0.3-2.1l-0.2-1.6l0-0.3l0.4,0.4c0.1,0.2,0.3,0.3,0.4,0.5c0.2,0.2,0.3,0.5,0.4,0.7c0.2,0.3,0.3,0.6,0.4,0.9
			c0.1,0.3,0.2,0.7,0.4,1.1l0.3,1.2c0.1,0.4,0.1,0.8,0.2,1.3c0,0.4,0,0.8,0,1.3l-0.1,1.2c0,0.4-0.1,0.7-0.2,1.1
			c-0.1,0.3-0.2,0.6-0.3,1c-0.1,0.3-0.2,0.5-0.4,0.7C341.9,61.7,341.8,61.9,341.7,62 M317,60.4c0.2-0.1,0.5-0.2,0.7-0.2
			c0.3-0.1,0.7-0.1,1-0.2c0.4-0.1,0.8-0.1,1.2-0.1c0.4,0,0.9,0,1.4,0l1.5,0.1l1.5,0.2c0.5,0.1,1,0.2,1.5,0.4l1.4,0.5
			c0.4,0.2,0.8,0.3,1.2,0.5c0.4,0.2,0.7,0.4,1.1,0.6c0.3,0.2,0.6,0.4,0.8,0.6l0.5,0.5l0.2,0.3l0.1,0l0.2,0.1l0.1-0.2
			c-0.1-0.5-0.2-1-0.2-1.5l-0.4-0.2l-1-0.4l-1.2-0.3l-1.3-0.3l-1.4-0.3l-1.5-0.3l-1.5-0.3l-1.4-0.2l-2.6-0.4l-1.1-0.1l-0.8-0.1
			l-0.7-0.1l0.2,1.6l0,0L317,60.4 M331.5,63.8l-0.2-0.1l-0.1,0.1l-0.2-0.2l-1-0.3l-1.3-0.4l-1.4-0.3l-1.5-0.3l-1.6-0.3l-1.6-0.3
			l-1.5-0.3l-1.4-0.2l-1.3-0.2l-1.1-0.2l-0.9-0.1l0,0v0l-0.7-0.1l0.2,1.6l0.7-0.2c0.3-0.1,0.5-0.1,0.8-0.2c0.4-0.1,0.7-0.1,1.1-0.2
			c0.4-0.1,0.8-0.1,1.3-0.1l1.4,0c1,0.1,2.1,0.2,3.1,0.4c0.5,0.1,1,0.2,1.5,0.4l1.5,0.5c0.5,0.2,0.9,0.4,1.3,0.6
			c0.4,0.2,0.8,0.4,1.1,0.6c0.3,0.2,0.6,0.4,0.9,0.6l0.6,0.5l0.4,0.5l0.4-0.5C331.9,64.6,331.7,64.2,331.5,63.8 M361.4,50.8
			c-0.2,0.2-0.3,0.5-0.5,0.7c-0.2,0.2-0.4,0.4-0.6,0.6c-0.2,0.2-0.4,0.3-0.6,0.5c-0.2,0.1-0.4,0.2-0.6,0.4c-0.3,0.1-0.6,0.2-1,0.2h0
			l0.2-0.3l1-1.3l0.5-0.7l0.5-0.8l2-2.8l0.4-0.6l0-0.1l0,0.1c0,0.1,0,0.3,0,0.5c0,0.2,0,0.4-0.1,0.6C362.4,48.8,362,49.9,361.4,50.8
			 M363,46.4l-0.1,0l0.1-0.1l-0.2-0.5l-1.2-0.3c0,0.1,0,0.3,0,0.5c0,0.2,0,0.3,0,0.5c0,0.2,0,0.4-0.1,0.6c-0.1,0.5-0.3,1-0.5,1.5
			c-0.1,0.3-0.3,0.5-0.4,0.8c-0.2,0.3-0.3,0.5-0.5,0.8c-0.2,0.3-0.4,0.5-0.6,0.7c-0.2,0.2-0.4,0.4-0.6,0.6c-0.4,0.4-0.8,0.7-1.3,0.9
			c-0.2,0.1-0.4,0.2-0.6,0.2c-0.1,0-0.3,0.1-0.4,0.1c-0.1,0-0.2,0-0.3,0l0,0c0.4,0.3,0.8,0.5,1.2,0.8l0,0l0,0.1l1,0.7L359,54
			l0.4-0.5l0.5-0.6l0.5-0.7l0.5-0.7l2.8-3.8C363.4,47.2,363.2,46.8,363,46.4 M367.4,60.1l1,0.8l0.2-0.5c0.1-0.2,0.1-0.4,0.1-0.6
			c0.1-0.2,0.1-0.4,0.1-0.7l0.1-0.8l0.1-0.9c0-0.3,0-0.6,0-0.9l0-0.9v-0.4l0,0.4c0,0.6-0.1,1.2-0.3,1.8c-0.1,0.3-0.2,0.5-0.3,0.8
			c-0.1,0.2-0.2,0.4-0.3,0.7c-0.1,0.2-0.2,0.3-0.4,0.5l-0.3,0.3l0.1-0.4l0.1-0.8l0-0.9l0-1l0-1l0-1.9l0-1.7l0-0.7l0.2,0.2
			c0.1,0.1,0.2,0.3,0.3,0.4c0.1,0.2,0.2,0.4,0.3,0.6c0.4,0.9,0.6,1.9,0.6,2.8l0-1.3l0-1.6l0-1.2l0-0.2c-0.2,0-0.5,0-0.8,0l-0.7,0.2
			l0-0.4c0,0,0,0,0,0l-0.7-0.3c0,0,0,0,0,0l-0.8,0.3c0.1,0.1,0.2,0.2,0.3,0.4c0.1,0.1,0.2,0.3,0.3,0.4c0.1,0.2,0.2,0.4,0.3,0.6
			c0.5,1.1,0.7,2.3,0.6,3.6c0,0.3-0.1,0.7-0.1,1c0,0.3-0.1,0.6-0.2,0.9c-0.1,0.3-0.2,0.6-0.3,0.8c-0.1,0.3-0.2,0.5-0.3,0.7
			c-0.1,0.2-0.2,0.4-0.4,0.5l-0.3,0.3l-0.3,0.2l1.3,1l0.2-0.5C367.3,60.4,367.3,60.3,367.4,60.1 M350.3,51.8l-1.2-1.2l-1.2-1.1
			l-1.1-1.1l-0.4-0.5l-0.1-0.1l0.2,0c0.1,0,0.3,0,0.4,0c0.2,0,0.4,0.1,0.5,0.1c1,0.3,1.8,0.9,2.6,1.6c0.2,0.2,0.4,0.4,0.6,0.6
			c0.2,0.2,0.3,0.4,0.5,0.7c0.1,0.2,0.2,0.4,0.3,0.7c0.2,0.4,0.3,0.7,0.3,1.1c0,0.1,0,0.3,0,0.4l0,0.1l-0.3-0.4L350.3,51.8
			 M351.3,54.4c0.1-0.3,0.3-0.6,0.5-0.9l-0.1-0.1l0.2,0c0.3-0.3,0.6-0.5,1-0.7l-0.2-0.3l-0.4-0.5l-1-1.1l-0.6-0.6l-0.6-0.6l-2.2-2.2
			l-0.8-0.8c-0.1-0.1-0.2-0.2-0.3-0.3l-0.6,1.3l-0.1-0.1c-0.1-0.1-0.1-0.2-0.2-0.3l-0.1-0.1l-0.7,1.5l0.1,0c0.1,0,0.2,0,0.3,0
			c0.1,0,0.3,0,0.4,0c0.2,0,0.4,0.1,0.6,0.1c0.5,0.2,0.9,0.4,1.3,0.7c0.2,0.2,0.4,0.3,0.6,0.5c0.2,0.2,0.4,0.4,0.6,0.6
			c0.4,0.4,0.7,0.9,1,1.3c0.2,0.4,0.4,0.8,0.6,1.3c0,0.2,0.1,0.4,0.1,0.5l0,0.4l-0.1,0.3L351.3,54.4z M347.2,31.3l-0.1-0.1l-0.7-0.3
			l-0.8-0.3l-2.1-0.5l-2.4-0.5l-2.4-0.5l-2.1-0.4l-0.9-0.2l-0.7-0.1c-0.2,0-0.4-0.1-0.6-0.1l0.2,1.6c0.2-0.1,0.4-0.2,0.5-0.3
			c0.2-0.1,0.4-0.1,0.6-0.2c0.3-0.1,0.5-0.1,0.8-0.2c0.3-0.1,0.7-0.1,1-0.1l1.1,0c0.4,0,0.8,0.1,1.2,0.1c0.4,0.1,0.8,0.2,1.2,0.2
			c0.8,0.2,1.5,0.4,2.3,0.7c0.3,0.1,0.7,0.3,1,0.5c0.3,0.2,0.6,0.3,0.8,0.5c0.2,0.2,0.4,0.3,0.6,0.5l-0.7-0.2l-2.2-0.4l-1.2-0.2
			l-1.2-0.2l-2.5-0.3l-2.2-0.3l-0.9-0.1l-0.7-0.1l-0.6-0.1l0.2,1.6c0,0,0.2-0.1,0.5-0.3c0.2-0.1,0.4-0.2,0.6-0.2
			c0.3-0.1,0.6-0.2,0.8-0.2c0.3-0.1,0.7-0.1,1-0.1l1.1-0.1l1.2,0.1c0.4,0,0.8,0.1,1.2,0.2c0.8,0.1,1.6,0.3,2.4,0.6
			c0.4,0.1,0.7,0.2,1.1,0.4c0.3,0.1,0.6,0.3,0.9,0.4c0.3,0.1,0.5,0.3,0.7,0.5l0.5,0.4l0.3,0.4l0.1-0.1
			C346.4,32.8,346.8,31.9,347.2,31.3 M345.8,40.1l-0.2-0.3c-0.1-0.1-0.1-0.2-0.2-0.4c-0.3-0.7-0.4-1.5-0.2-2.2
			c0-0.2,0.1-0.4,0.2-0.6c0.1-0.2,0.2-0.4,0.3-0.5c0.1-0.2,0.2-0.3,0.4-0.4c0.1-0.1,0.2-0.2,0.4-0.3c0.2-0.1,0.4-0.1,0.6-0.1
			c0,0,0,0,0,0l-0.2,0.3c-0.2,0.4-0.3,0.7-0.4,1.1l-0.1,0.6l-0.1,0.6l-0.1,0.6l-0.1,0.6l-0.2,1L345.8,40.1 M345.9,40.4l-0.2,0.7
			l0.5,0.2c0.1,0,0.1,0.1,0.2,0.1l0.8-0.2c-0.1-0.1-0.2-0.2-0.2-0.2c-0.1-0.1-0.1-0.2-0.2-0.3c-0.1-0.1-0.2-0.2-0.2-0.4
			c-0.2-0.3-0.2-0.7-0.3-1c0-0.4,0-0.8,0.1-1.2c0-0.2,0.1-0.4,0.2-0.6c0.1-0.2,0.2-0.4,0.3-0.5c0.1-0.2,0.2-0.3,0.3-0.4
			c0.1-0.1,0.2-0.2,0.4-0.3c0.2-0.1,0.4-0.2,0.6-0.1c0.1,0,0.1,0,0.2,0.1l-0.2-0.7l-0.2-0.1c-0.2-0.1-0.4-0.2-0.5-0.3l-0.2,0.3v0
			l-0.4-1.3l-0.3,0.3c-0.1,0.1-0.2,0.2-0.3,0.4l-0.2,0.5l-0.2,0.5l-0.2,0.5l-0.2,0.6l-0.2,0.6c-0.1,0.2-0.1,0.4-0.2,0.6l-0.1,0.6
			l-0.2,1.1l-0.1,0.5l-0.1,0.4l-0.1,0.3L345.9,40.4L345.9,40.4 M335,58.4l-0.5-0.7l-0.6-0.8l-0.8-0.9l-0.4-0.5l-0.5-0.5l-1-1l-1-1
			c-1.4-1.3-2.9-2.6-4-3.5c-0.3-0.2-0.5-0.5-0.8-0.6c-0.1-0.1-0.2-0.2-0.4-0.3c-0.5,0.2-1,0.4-1.4,0.6l0,0.1l0,0l-1.5,0.7
			c0.1,0,0.3,0.1,0.5,0.1c0.2,0.1,0.5,0.1,0.7,0.2c0.3,0.1,0.6,0.2,0.9,0.4c0.4,0.2,0.7,0.4,1.1,0.6c0.4,0.2,0.7,0.5,1.1,0.7
			c0.4,0.3,0.8,0.6,1.1,0.9c0.2,0.1,0.3,0.3,0.5,0.5l-0.5-0.5c-0.4-0.3-0.7-0.7-1.1-1l-1.9-1.7l-0.8-0.7c0.1,0,0.3,0.1,0.4,0.1
			c0.2,0.1,0.5,0.1,0.7,0.2c0.3,0.1,0.6,0.2,0.9,0.3c0.4,0.2,0.7,0.3,1,0.5c0.4,0.2,0.7,0.4,1.1,0.7c0.4,0.3,0.8,0.5,1.1,0.8
			c0.4,0.3,0.7,0.6,1.1,0.9c0.4,0.3,0.7,0.7,1,1c0.3,0.4,0.6,0.7,0.9,1.1c0.3,0.3,0.5,0.7,0.7,1.1c0.2,0.3,0.4,0.7,0.5,1
			c0.1,0.3,0.2,0.6,0.3,0.9c0.1,0.3,0.1,0.5,0.1,0.7c0,0.4,0,0.6,0,0.6l1.6-0.3L335,58.4"/>
		<path class="st1" d="M335.8,30.2l-0.1,0.2c0,0.1-0.1,0.3-0.2,0.6c-0.2,0.7-0.3,1.5-0.2,2.3c0,1.2,0.4,2.3,1,3.3
			c0.4,0.6,0.9,1.1,1.6,1.4c0.8,0.3,1.5,0.4,2.3,0.4c1.7,0.1,3.6,0.1,5.4,0.8c1,0.4,1.8,0.9,2.5,1.7c0.8,0.8,1.3,1.7,1.6,2.8
			c0.1,0.6,0.1,1.1-0.1,1.7c-0.2,0.5-0.4,1-0.7,1.5c-0.6,0.9-1.4,1.8-2.2,2.5c-0.9,0.7-1.8,1.4-2.9,1.8c-1.1,0.5-2.2,0.8-3.4,0.8
			c-0.3,0-0.6,0-0.9-0.1c-0.3-0.1-0.5-0.1-0.8-0.2c-0.6-0.2-1.1-0.3-1.6-0.5c-1.1-0.4-2.1-0.7-3.2-1c-2.1-0.6-4.2-0.6-6.3-0.2
			c-0.5,0.1-1,0.2-1.5,0.4l-0.7,0.2l-0.7,0.3c-0.2,0.1-0.5,0.2-0.7,0.3l-0.7,0.3c-0.2,0.1-0.4,0.3-0.6,0.4s-0.4,0.3-0.5,0.4
			c-1.3,1.2-2.3,2.7-2.9,4.3c-0.5,1.4-0.9,2.9-1,4.4c-0.1,1.2-0.1,2.3,0,3.5c0.1,0.7,0.1,1.5,0.3,2.2l0.1,0.8l-0.6,0.1l-0.1-0.8
			c-0.1-0.8-0.2-1.5-0.3-2.3c-0.1-1.2-0.1-2.4,0-3.6c0.1-1.6,0.5-3.1,1.1-4.6c0.6-1.8,1.7-3.3,3.1-4.6c0.2-0.2,0.4-0.3,0.6-0.5
			c0.2-0.1,0.4-0.3,0.6-0.4l0.7-0.3c0.3-0.1,0.5-0.2,0.7-0.3l0.7-0.3l0.8-0.2c0.5-0.2,1-0.3,1.5-0.4c2.2-0.4,4.4-0.4,6.6,0.2
			c1.1,0.3,2.1,0.7,3.2,1c0.5,0.2,1.1,0.4,1.6,0.5c0.3,0.1,0.5,0.1,0.8,0.2c0.3,0,0.5,0.1,0.8,0.1c1.1,0,2.2-0.2,3.1-0.7
			c1-0.4,1.9-1,2.8-1.7c0.8-0.7,1.6-1.5,2.1-2.4c0.3-0.4,0.5-0.9,0.7-1.4c0.2-0.5,0.2-1,0.1-1.5c-0.2-1-0.7-1.9-1.4-2.6
			c-0.7-0.7-1.5-1.3-2.4-1.6c-1.8-0.7-3.6-0.7-5.3-0.8c-0.4,0-0.8-0.1-1.2-0.1c-0.4-0.1-0.8-0.2-1.2-0.3c-0.7-0.3-1.3-0.8-1.7-1.5
			c-0.6-1-1-2.2-1-3.4c0-0.8,0.1-1.5,0.3-2.3c0.1-0.3,0.1-0.4,0.2-0.6L335.8,30.2 M337,30.7l-0.2,0.8c-0.2,0.7-0.3,1.5-0.3,2.3
			c0,0.5,0.1,1.1,0.3,1.6c0.2,0.6,0.6,1.1,1.2,1.4c0.6,0.4,1.3,0.6,2,0.6l2.4,0.2c0.9,0.1,1.8,0.2,2.6,0.4c0.9,0.2,1.8,0.6,2.7,1.1
			c1.8,1.1,3.1,3,3.3,5.1c0,0.3,0.1,0.6,0,0.8c0,0.2,0,0.3-0.1,0.4l-0.1,0.4c-0.1,0.3-0.2,0.5-0.3,0.8c-0.1,0.3-0.3,0.5-0.4,0.7
			c-0.6,0.9-1.4,1.8-2.2,2.5c-0.9,0.8-1.8,1.4-2.8,2c-1,0.6-2.1,1-3.3,1.2l-0.9,0.1l-0.9-0.1c-0.6-0.1-1.1-0.3-1.7-0.4l-3.2-1
			c-2-0.7-4.2-0.9-6.3-0.8c-1,0.1-2,0.3-3,0.6l-0.7,0.2l-0.7,0.3c-0.4,0.2-0.8,0.5-1.1,0.8c-1.5,1.2-2.3,2.8-2.9,4.3
			c-0.5,1.4-0.8,2.9-1,4.4c-0.1,1.2-0.1,2.3,0,3.5c0.1,1,0.2,1.7,0.3,2.2l0.1,0.8l-0.6,0.1l-0.1-0.8c-0.1-0.5-0.2-1.3-0.3-2.3
			c-0.1-1.2-0.1-2.4,0-3.6c0.1-1.6,0.5-3.1,1-4.6c0.1-0.4,0.3-0.8,0.5-1.2c0.2-0.4,0.4-0.8,0.7-1.2c0.3-0.4,0.5-0.8,0.9-1.2
			c0.3-0.4,0.7-0.7,1.1-1c0.4-0.3,0.8-0.6,1.3-0.9l0.7-0.3c0.2-0.1,0.5-0.2,0.8-0.3c1-0.3,2.1-0.5,3.1-0.6c2.2-0.2,4.4,0.1,6.5,0.8
			c1.1,0.3,2.1,0.7,3.2,1c0.5,0.2,1.1,0.3,1.6,0.4c0.3,0.1,0.5,0.1,0.8,0.1c0.3,0,0.5,0,0.8,0c1.1-0.2,2.1-0.5,3.1-1.1
			c1-0.5,1.9-1.2,2.7-1.9c0.8-0.7,1.5-1.5,2.2-2.4c0.1-0.2,0.3-0.4,0.4-0.7c0.1-0.2,0.2-0.5,0.3-0.7l0.1-0.4c0-0.1,0.1-0.2,0.1-0.3
			c0-0.2,0-0.5,0-0.7c-0.2-2-1.4-3.8-3.1-4.8c-0.8-0.5-1.6-0.9-2.5-1.1c-0.8-0.2-1.7-0.4-2.6-0.5l-2.4-0.3c-0.7-0.1-1.5-0.3-2.1-0.7
			c-0.6-0.4-1-0.9-1.2-1.5c-0.2-0.5-0.3-1.1-0.3-1.6c0-0.8,0.1-1.5,0.4-2.3C336.9,31,337,30.7,337,30.7"/>
		<path class="st1" d="M337.9,31l-0.1,0.2c-0.1,0.2-0.1,0.4-0.2,0.6c-0.2,0.7-0.2,1.5-0.1,2.2c0.1,0.5,0.3,1,0.7,1.4
			c0.4,0.5,1,0.8,1.6,0.9c0.3,0.1,0.7,0.1,1,0.1l1.1,0.1c0.8,0.1,1.6,0.2,2.4,0.3c1.8,0.4,3.5,1.2,4.9,2.4c0.8,0.7,1.4,1.4,1.9,2.3
			c0.4,1,0.6,2,0.7,3.1c0,0.3,0,0.6,0,0.8c0,0.3-0.1,0.6-0.2,0.8c-0.2,0.5-0.5,1-0.8,1.5c-1.9,2.8-4.7,4.9-7.8,6.1
			c-0.6,0.2-1.1,0.3-1.7,0.3c-0.3,0-0.6,0-0.9-0.1c-0.3-0.1-0.6-0.1-0.8-0.2c-1.1-0.3-2.2-0.6-3.2-1c-2.1-0.7-4.2-1.3-6.2-1.3
			c-1-0.1-2,0-3,0.3c-0.9,0.2-1.8,0.6-2.6,1.1c-1.4,1-2.5,2.5-3,4.2c-0.5,1.4-0.8,2.9-0.9,4.4c-0.1,1.2-0.1,2.3,0.1,3.5
			c0.1,1,0.2,1.7,0.3,2.2l0.2,0.8l-0.6,0.1l-0.2-0.8c-0.1-0.5-0.2-1.3-0.3-2.3c-0.1-1.2-0.1-2.4-0.1-3.6c0.1-1.6,0.4-3.1,0.9-4.6
			c0.6-1.8,1.8-3.3,3.3-4.4c1.7-1.1,3.8-1.5,6-1.5c2.2,0.1,4.3,0.7,6.4,1.4c1,0.3,2.1,0.7,3.2,1c0.3,0.1,0.5,0.1,0.8,0.2
			c0.3,0,0.5,0.1,0.8,0.1c0.5,0,1.1-0.1,1.6-0.3c3.1-1.2,5.7-3.2,7.6-5.9c0.6-0.9,1-1.8,1-2.8c0-1-0.2-2-0.6-2.9
			c-0.5-0.8-1.1-1.6-1.8-2.2c-1.4-1.2-3-2-4.7-2.4c-0.8-0.2-1.6-0.3-2.4-0.4c-0.4,0-0.7-0.1-1.1-0.1c-0.4,0-0.7,0-1.1-0.1
			c-0.6-0.1-1.2-0.5-1.7-1c-0.4-0.4-0.6-0.9-0.7-1.5c-0.1-0.8-0.1-1.5,0.1-2.3c0.1-0.2,0.1-0.4,0.2-0.6L337.9,31 M321.7,68.4
			l-0.1-0.3l-0.2-0.9c-0.2-1.1-0.3-2.2-0.3-3.3c0-1.5,0.1-3.1,0.4-4.6c0.2-0.9,0.4-1.7,0.7-2.5c0.3-0.9,0.8-1.7,1.4-2.4
			c0.6-0.7,1.3-1.2,2.1-1.7c0.8-0.4,1.6-0.7,2.5-0.7c0.8-0.1,1.6,0,2.4,0.2c0.7,0.1,1.4,0.3,2.1,0.5c1.3,0.4,2.3,0.7,3.1,1L337,54
			l-1.2-0.3l-3.1-0.8c-1.4-0.4-3-0.6-4.5-0.5c-0.8,0.1-1.6,0.4-2.3,0.8c-0.7,0.4-1.4,1-2,1.6c-0.6,0.6-1,1.4-1.3,2.2
			c-0.3,0.8-0.5,1.6-0.7,2.4c-0.3,1.5-0.4,3-0.3,4.5c0,1.1,0.1,2.1,0.3,3.1c0.1,0.3,0.1,0.6,0.2,0.8l0.1,0.3L321.7,68.4z"/>
		<path class="st1" d="M330,29.7l-0.1,0.3l-0.4,0.9c-0.2,0.4-0.3,0.9-0.4,1.4c-0.2,0.6-0.2,1.2-0.3,1.8c0,0.7,0.1,1.4,0.3,2.1
			c0.2,0.8,0.6,1.5,1.2,2.1c0.3,0.3,0.6,0.6,0.9,0.9l0.5,0.4l0.6,0.4c0.8,0.4,1.6,0.7,2.5,0.9c1.8,0.3,3.6,0.4,5.4,0.5
			c1.7,0.1,3.4,0.2,4.8,0.7c0.6,0.2,1.2,0.6,1.7,1c0.4,0.4,0.7,0.8,0.9,1.3c0.1,0.3,0.2,0.6,0.3,1l0.1,0.3l-0.6,0.1l-0.1-0.3
			c-0.1-0.3-0.1-0.6-0.3-0.8c-0.2-0.4-0.4-0.8-0.8-1.1c-0.4-0.4-1-0.7-1.5-0.9c-1.2-0.5-2.8-0.6-4.6-0.7c-1.8,0-3.7-0.2-5.5-0.5
			c-0.9-0.2-1.9-0.5-2.7-1c-0.2-0.1-0.4-0.3-0.6-0.4c-0.2-0.2-0.4-0.3-0.5-0.5c-0.3-0.3-0.7-0.6-0.9-1c-1-1.3-1.5-2.9-1.4-4.6
			c0.1-0.6,0.2-1.3,0.4-1.9c0.2-0.5,0.3-0.9,0.6-1.4c0.1-0.3,0.3-0.6,0.5-0.8L330,29.7 M328.4,28.8l0.2-0.3c0.2-0.2,0.4-0.4,0.6-0.6
			c0.6-0.5,1.3-1,2.1-1.3c0.4-0.2,0.8-0.3,1.3-0.4c0.4-0.1,0.8-0.1,1.2-0.1c0.2,0,0.3,0,0.5,0.1c0.1,0,0.2,0,0.4,0.1l0.3,0.1h-0.3
			c-0.3,0-0.5,0-0.8,0.1c-0.4,0.1-0.7,0.1-1.1,0.2c-0.4,0.1-0.8,0.3-1.2,0.4c-0.7,0.3-1.4,0.7-2.1,1.1l-0.7,0.4L328.4,28.8
			 M340.4,25.3l0.1,0c0.1,0,0.2,0,0.3,0c0.4,0,0.7,0,1.1,0.1c1.1,0.2,2.1,0.6,3,1.1c0.5,0.3,1,0.6,1.4,1c0.2,0.2,0.4,0.4,0.6,0.6
			c0.2,0.2,0.3,0.4,0.4,0.6c0.1,0.2,0.2,0.3,0.3,0.5c0.1,0.1,0.1,0.3,0.2,0.4l0.1,0.4l-0.2-0.3c-0.1-0.1-0.1-0.3-0.2-0.4
			c-0.1-0.2-0.2-0.3-0.4-0.4c-0.1-0.2-0.3-0.3-0.5-0.5c-0.2-0.2-0.4-0.3-0.6-0.5c-0.2-0.2-0.4-0.3-0.7-0.5l-0.7-0.4l-0.7-0.4
			c-0.2-0.1-0.5-0.2-0.7-0.3l-1.3-0.5c-0.3-0.1-0.7-0.2-1-0.3L340.4,25.3 M340.3,24.1l0.1,0c0.1,0,0.2,0,0.3,0l0.5,0
			c0.2,0,0.5,0.1,0.7,0.1c1.3,0.2,2.5,0.7,3.6,1.3c0.6,0.3,1.2,0.7,1.7,1.1c0.2,0.2,0.5,0.4,0.7,0.7c0.2,0.2,0.4,0.4,0.5,0.7
			l0.2,0.3l0.1,0.3c0.1,0.2,0.1,0.3,0.2,0.5l0.1,0.5l-0.2-0.4c-0.1-0.2-0.2-0.3-0.3-0.5l-0.2-0.3l-0.2-0.3c-0.2-0.2-0.3-0.4-0.6-0.6
			c-0.2-0.2-0.4-0.4-0.7-0.6l-0.8-0.5l-0.9-0.5l-0.9-0.4l-0.9-0.4l-1.6-0.6c-0.2-0.1-0.5-0.1-0.7-0.2c-0.2-0.1-0.4-0.1-0.5-0.1
			L340.3,24.1 M372.5,49.9L372.5,49.9c0.1,0.1,0.2,0.2,0.3,0.3c0.2,0.3,0.4,0.6,0.6,0.9c0.5,1,0.8,2,0.9,3.1
			c0.1,0.6,0.1,1.1,0.1,1.7c0,0.3-0.1,0.5-0.1,0.8c0,0.2-0.1,0.5-0.2,0.7c-0.1,0.2-0.1,0.4-0.3,0.5c-0.1,0.1-0.1,0.3-0.2,0.4
			l-0.3,0.3l0.2-0.4c0.1-0.1,0.1-0.3,0.2-0.4c0.1-0.2,0.1-0.4,0.1-0.6c0.1-0.2,0.1-0.4,0.1-0.7c0-0.2,0-0.5,0-0.8c0-0.3,0-0.5,0-0.8
			l-0.1-0.8l-0.1-0.8c0-0.3-0.1-0.5-0.2-0.8l-0.4-1.4c-0.1-0.3-0.2-0.6-0.4-1L372.5,49.9 M373.4,49.1L373.4,49.1
			c0.2,0.2,0.2,0.3,0.3,0.4c0.1,0.1,0.2,0.3,0.3,0.5c0.1,0.2,0.2,0.4,0.3,0.6c0.5,1.1,0.9,2.4,1.1,3.6c0.1,0.7,0.1,1.4,0.1,2
			c0,0.3-0.1,0.6-0.1,0.9c-0.1,0.3-0.1,0.6-0.2,0.8l-0.1,0.3l-0.2,0.3c-0.1,0.2-0.2,0.3-0.3,0.5l-0.3,0.4l0.2-0.4
			c0.1-0.1,0.2-0.3,0.2-0.5c0-0.1,0.1-0.2,0.1-0.3l0.1-0.3c0.1-0.3,0.1-0.5,0.1-0.8c0-0.3,0.1-0.6,0.1-0.9l0-1l-0.1-1l-0.2-1l-0.2-1
			l-0.5-1.7l-0.2-0.7c-0.1-0.2-0.1-0.3-0.2-0.5L373.4,49.1 M374.9,95.7l6.8,2.9l-7.1-2.3L374.9,95.7z"/>
		<path class="st1" d="M375.1,95.2l6.8,2.9l-7.1-2.3L375.1,95.2z M378,89.1l-0.4,0.4l-1.1,1.2l-0.7,0.8l-0.7,1l-0.7,1.1
			c-0.2,0.4-0.4,0.8-0.6,1.2l-0.5,1.2c-0.1,0.4-0.3,0.8-0.4,1.2c-0.1,0.4-0.2,0.8-0.3,1.2c-0.1,0.4-0.1,0.7-0.1,1.1l-0.1,0.9v1.3
			l-0.1-1.3l0-0.9c0-0.4,0-0.7,0.1-1.1c0-0.4,0.1-0.8,0.2-1.2c0.1-0.4,0.2-0.8,0.3-1.3c0.1-0.4,0.3-0.8,0.5-1.3l0.6-1.2
			c0.2-0.4,0.4-0.8,0.6-1.1l0.7-1l0.7-0.9l1.1-1.2l0.4-0.4L378,89.1z"/>
		<path class="st1" d="M377.2,92.4l-0.2,0.2l-0.6,0.6c-0.6,0.6-1.1,1.2-1.5,2c-0.1,0.2-0.2,0.4-0.2,0.6c-0.1,0.2-0.1,0.4-0.2,0.6
			c-0.1,0.4-0.1,0.8-0.1,1.2l0,0.5l0,0.4l0,0.3l-0.1-0.3c-0.1-0.3-0.2-0.6-0.2-0.8c0-0.2-0.1-0.4-0.1-0.6c0-0.2,0-0.4,0-0.7
			c0.1-0.5,0.2-1,0.4-1.4c0.1-0.2,0.2-0.4,0.4-0.6c0.1-0.2,0.3-0.4,0.4-0.6c0.3-0.3,0.6-0.6,0.9-0.8c0.2-0.2,0.5-0.3,0.8-0.4
			L377.2,92.4"/>
	</g>
</g>
</svg>
