<?xml version="1.0" encoding="utf-8"?>
<!-- Generator: Adobe Illustrator 23.0.3, SVG Export Plug-In . SVG Version: 6.00 Build 0)  -->
<svg version="1.1" id="Layer_1" xmlns="http://www.w3.org/2000/svg" xmlns:xlink="http://www.w3.org/1999/xlink" x="0px" y="0px"
	 viewBox="0 0 169.7 166.3" style="enable-background:new 0 0 169.7 166.3;" xml:space="preserve">
<style type="text/css">
	.st0{fill:#E4DA00;}
	.st1{clip-path:url(#SVGID_2_);}
	.st2{fill:#D6953A;}
	.st3{fill:#C68130;}
	.st4{fill:#D74B2F;}
	.st5{fill:#27626E;}
	.st6{fill:#051E1E;}
	.st7{fill:#1E525A;}
	.st8{fill:#377E83;}
	.st9{fill:#FFFFFF;}
	.st10{fill:#D8DAB8;}
	.st11{fill:#9F6524;}
</style>
<title>Asset 1</title>
<g>
	<g id="_1200">
		<ellipse class="st0" cx="84.9" cy="83.1" rx="83.8" ry="79.5"/>
		<g>
			<defs>
				<ellipse id="SVGID_1_" cx="84.9" cy="83.1" rx="83.8" ry="79.5"/>
			</defs>
			<clipPath id="SVGID_2_">
				<use xlink:href="#SVGID_1_"  style="overflow:visible;"/>
			</clipPath>
			<g class="st1">
				<path class="st2" d="M-92.8-9c0,0-11.4,22.5-10.5,39.9c0,0-11.8-33.9,2.1-56.8S-92.8-9-92.8-9z"/>
				<path class="st3" d="M73.1-81.3c0,0,26.7-1.4,58.5,22.3c0,0-18.3-4.6-28.2,5S90.6-74.6,73.1-81.3z"/>
				<path class="st3" d="M106.9-55.7c0,0,2.3-3.8,11.5-2.3c-2.5-2.6-5.7-4.3-9.2-4.9C103.5-63.7,106.9-55.7,106.9-55.7z"/>
				<path d="M77,64.2c0,0,5.4,33.3,18.3,46.9s17.8,21,15.8,30.6s-35.3,10.6-35.3,10.6l-18.3-7.3L30.6,110L1.4,79l37.2-34.2L77,64.2z
					"/>
				<path class="st4" d="M33,68.1c0,0,23.1,6.2,23.1,27.9c0,17.6,20.1,19.5,27.6,12.6c4.8-4.4-3.9-22.5-3.8-27.1s-8.2-9.2-8.2-9.2
					L36,55.3C36,55.3,27.4,61.9,33,68.1z"/>
				<path class="st5" d="M43.2,59.2c0,0-2.8,17.4-0.5,21.1s4.2,8.9,3.2,9.8l7.6,16.1c0,0,9.6,8.6,10.2,9.8c0.6,1.2,2.6,9.2,6.8,9.4
					s7.8,4.4,10.9,4.7s13.3-0.5,13.3-0.5s9.7-1.4,10.1-4.2s1.1-2,1.1-2s4.8,0.9,5.8,9.1s-28.2,6.2-28.2,6.2s-22.3-2.9-23-3.3
					S25,84.8,25,84.8l-3.8-20l18.5-11.7L43.2,59.2z"/>
				<path d="M28.8,62c0,0-4.8,25.6,25.1,56.6c0,0,6.6,18.8,29.2,16.5s20.4,0.3,25.8-3.9c0,0,2.7-2.1,2.9-1.2s4.8,9.2-0.4,11.7
					s-40,5.4-40,5.4l-13.5-3.4l-26.3-32.5L1.4,88L28.8,62z"/>
				<path class="st6" d="M42,70.7c4.9,1.3,10.1,7.8,11.8,10.8s3.3,7,3.9,13.8s3,13.4,12.4,14.6c-5.6-0.8-11.3-5.6-11-15.2
					c0.4-9.9-1.9-20.3-16.8-26.6L42,70.7z"/>
				<path class="st6" d="M42.7,69.3c0,0,16,5.8,17.3,16.9s2,16.1,4.4,17.4c0,0-2.5-1.6-2.6-8.2c-0.1-4.5,0-13.8-3-17.1
					c-2.4-2.7-5.1-5.2-8.2-7.2c-1.4-0.8-8.3-6.1-8.3-6.1L42,69.6L42.7,69.3z"/>
				<path class="st5" d="M57.8,69.1c0,0,4.8,16.3,14.5,16s6.9-1.5,11.3-1.1s25.4,3.4,36-2.3l4.7-1.1c0,0,7.4-0.7,7.5-8.9l-14.3-9.3
					L57.8,69.1z"/>
				<path class="st7" d="M75.5,72.2c0,0,6.4,2.4,6,6c0,0,5.8-1.8,7.7,0c0,0,7.1-2.1,9.1,0.5c0,0,4-3.2,7.7-0.5c0,0,4.8-3,8.2-1.3
					c0,0,3-4.6,7.6-4.6c2.5,0,5.1,0.1,7.6,0.4v-2.2l-4.6-4.8H90.9l-14.4,1.4L75.5,72.2z"/>
				<path d="M106.9,82.2c2.3-1.8,6.7-2.1,8.2-1.2C115.1,81,111,76.7,106.9,82.2z"/>
				<path d="M118,76.2c2.3-1.8,6.7-2.1,8.2-1.2C126.1,75,122,70.7,118,76.2z"/>
				<path d="M80.3,82.3c2.5-1.4,7-1,8.3,0.2C88.6,82.5,85.2,77.6,80.3,82.3z"/>
				<path d="M68.1,76.1c2.5-1.4,7-1,8.3,0.2C76.4,76.2,73,71.3,68.1,76.1z"/>
				<path d="M98.1,82.8c2.2-1.3,6.2-1,7.3,0C105.4,82.8,102.3,78.5,98.1,82.8z"/>
				<path d="M90.1,82.4c2-1.3,5.5-1.1,6.5-0.1C96.6,82.3,94,78.1,90.1,82.4z"/>
				<path class="st2" d="M35.7,58.3c5.4,9.3,15.8,17.5,39.4,16.4c40.8-1.9,41.3-1,46.3-10.5s5-29.8,5-29.8s-2.9,18.9-6.1,31.9
					c-1.7,6.6,16,9.6,22.5,1.8c5.4-6.5,9.8-22.2-3.8-29.1c-13.1-6.7-3.7-4.5-3.7-4.5c-1.5-2.7-3.2-5.3-5.1-7.7
					c-1.6-1.8-2.1-4.3-1.5-6.7c2.3-8.2,5.6-29.5-8-61.8C102.9-84.2,61.3-96.4,19.2-94.5s-81.3,0.4-94.7,26c0,0-53,73.8-16.5,111
					s109.2,53,129.6,80.2s26.5,37.6,44.8,37.6s28.3-11.8,28.3-18.6c0,0-13.1-1.9-37.1,1.7s-17.9-12.8-50.3-43.6
					C4.6,81.9,35.7,58.3,35.7,58.3z"/>
				<path d="M3.2-18.5c7-0.2,23.2-0.8,33.7,10.2c0.6,0.6,0.6,1.5,0,2.1c-0.1,0.1-0.3,0.2-0.5,0.3C29.6-3.4,8.2,2.9,3.2-18.5z"/>
				<circle class="st8" cx="19.8" cy="-11.5" r="4.1"/>
				<circle class="st4" cx="19.8" cy="-11.5" r="4.1"/>
				<circle class="st9" cx="19.8" cy="-13.7" r="1.4"/>
				<path d="M124.9-16.3c-5.2-0.1-13.8-0.7-21.3,8.3c-0.6,0.8-0.5,1.9,0.2,2.5c0.1,0.1,0.2,0.2,0.4,0.2
					C109.1-2.9,121.4,1,124.9-16.3z"/>
				<circle class="st4" cx="114.6" cy="-10.4" r="3.3"/>
				<circle class="st9" cx="114.6" cy="-12.1" r="1.2"/>
				<path class="st10" d="M74.7,77.6c-2-1.4-4.7-0.9-6.1,1.1c-0.5,0.8-0.8,1.7-0.8,2.6c0.3,5.3,1,15,2.7,18.7
					c2.3,5.2,3.8-12.4,9-17.4C78.2,80.7,76.5,79,74.7,77.6z"/>
				<path class="st10" d="M75.4,128.7c-2.1,2.5-6.3,1.6-7-1.4c-1-4.6-2.8-13-2.2-16.5c0.6-4.1,4.4,4.8,8.9,9.8
					C77.2,122.8,77.3,126.2,75.4,128.7L75.4,128.7z"/>
				<path class="st10" d="M99.6,128.7c2.1,2.5,6.3,1.6,7-1.4c1-4.6,2.8-13,2.2-16.5c-0.6-4.1-4.4,4.8-9,9.8
					C97.8,122.8,97.7,126.2,99.6,128.7L99.6,128.7z"/>
				<path class="st10" d="M120.7,76.9c2.3-1.8,5.6,0.2,5.5,3.2c-0.2,4.6-0.8,13-2.1,16.2c-1.7,4.2-2.8-8.5-6.3-13.9
					c-0.5-0.8-0.5-1.9,0.1-2.6C118.7,78.7,119.6,77.7,120.7,76.9z"/>
				<path class="st10" d="M88.5,84c-2-1.9-7.6-2-8,0s0.7,9.2,2.4,9.1C84.4,93,85.4,85.1,88.5,84z"/>
				<path class="st10" d="M99.7,85.8c-0.4-1.2,0.3-2.5,1.5-2.8c0.3-0.1,0.6-0.1,0.9-0.1c2,0.2,3.9,1.1,3.9,2.3
					c-0.1,2.1-2.7,8.8-4.3,8.4C100.6,93.3,100.7,88.8,99.7,85.8z"/>
				<path class="st10" d="M83.2,129.3c0.5,0.6,0.4,1.5-0.1,2c-0.1,0.1-0.3,0.2-0.5,0.3c-1.2,0.4-2.5,0.3-2.8-0.4
					c-0.4-1.2-0.6-5.7,0.4-5.9C80.8,125.3,81.9,127.9,83.2,129.3z"/>
				<path class="st10" d="M92.3,129.4c-0.5,0.6-0.5,1.5,0.1,2c0.2,0.1,0.3,0.2,0.5,0.3c1.2,0.4,2.5,0.3,2.8-0.4
					c0.5-1.2,0.6-5.7-0.4-5.9C94.7,125.3,93.7,127.9,92.3,129.4z"/>
				<path class="st10" d="M89,130.1c-0.3,0.7,0.1,1.5,0.9,1.8c0.2,0.1,0.4,0.1,0.6,0.1c1.3-0.1,2.5-0.6,2.4-1.4
					c0-1.3-1.6-5.5-2.6-5.3C89.6,125.4,89.6,128.2,89,130.1z"/>
				<path class="st10" d="M87.4,130.1c0.3,0.7-0.1,1.5-0.9,1.8c-0.2,0.1-0.4,0.1-0.6,0.1c-1.3-0.1-2.5-0.6-2.4-1.4
					c0-1.3,1.6-5.5,2.6-5.3C86.8,125.4,86.8,128.2,87.4,130.1z"/>
				<path class="st10" d="M91,85.8c-0.4-1.2,0.3-2.5,1.5-2.8c0.3-0.1,0.6-0.1,0.9-0.1c2,0.2,3.9,1.1,3.9,2.3
					c-0.1,2.1-2.7,8.8-4.3,8.4C91.9,93.3,92,88.8,91,85.8z"/>
				<path class="st10" d="M107.4,83.3c2-1.9,7.6-2,8,0s-0.7,9.2-2.4,9.1C111.5,92.4,110.5,84.6,107.4,83.3z"/>
				<path class="st10" d="M35,77.5c-0.1-1.3,0.8-2.5,2.1-2.7c1.5-0.1,2.5,1.4,3,4.6c0.7,4.4,5.5,6.5,3.6,9.4S35.4,91.3,35,77.5z"/>
				<path class="st10" d="M44.4,93.3c3.4-1,5,0.1,5.4,3.3s5.5,5.4,3.1,7S42.8,104,44.4,93.3z"/>
				<path class="st10" d="M55.4,108.3c2.3-1,3.5-0.4,4.1,1.8s4.3,3.2,2.8,4.6S55.3,116,55.4,108.3z"/>
				<path class="st11" d="M0.8-16.8C5.1-7,11.6,5,38.9-5c-0.7,0.2-13.5,7.7-24.4,4.6C8.7-2.1,3.3-6.2,0.8-16.8z"/>
				<path class="st11" d="M127.1-16.3c-2.9,9.2-7.3,20.5-25.8,11.1c0.4,0.2,8.9,6.7,16.2,4.2C121.5-2.4,125.2-6,127.1-16.3z"/>
				<path class="st2" d="M-10-44c0,0-32.6-4.1-51.9-1.4c0,0,21.5-0.5,30.8,2.9c0,0-12.3,3.8-20,3.4c0,0,13.4,0.9,19.2,0.9
					c0,0-16,5-25.1,4.3c0,0,6.8,1.4,20.3-0.9S-10-44-10-44z"/>
				<path class="st3" d="M3.2-20.5c7.9,0,26-1.3,36.9,13.4c0,0,5.9-19.2-1.1-28.6S29.7-27.1,3.2-20.5z"/>
				<path class="st10" d="M-49.4,72.2L-49.4,72.2L-49.4,72.2z"/>
				<path class="st10" d="M-30.4,80.1l11,5.2c0.6,0.3,24.6,11.7,31.7,15.2s28.1,16.4,41.6,38.4c13,21,44.2,22,56.9,2.8
					c-1.7-0.2-14.4-2.8-36.8,0.5c-24,3.6-17.9-12.8-50.3-43.6C19,94.1-13,71.5-30.4,80.1z"/>
				<path class="st11" d="M-61.6-19.3c-6.4,38.5,12.4,61.9,41,70.4C-20.6,51.1-83.3,49.4-61.6-19.3z"/>
				<path class="st11" d="M-39-18.4C-49.4,6.3-41.8,27.3-22.6,39C-22.6,39-66.8,26.5-39-18.4z"/>
				<path class="st11" d="M-71.9-20.4c-3.6,13.8-18.4,71.8,55.3,79.5C-45.2,62-106.3,47.8-71.9-20.4z"/>
				<path class="st11" d="M-86-18.8c-3.7,14.6-18.8,76.5,56.7,84.7C-58.6,69-121.2,53.9-86-18.8z"/>
				<path class="st10" d="M92,144c0,0-12.1,10.5-23.2,10.7c0,0,22,5,34.8-5.7S92,144,92,144z"/>
				<path class="st10" d="M86.6,145.6c0,0-13.4,7.3-23.7,5.7c0,0,19.3,7.8,33.4,0.4S86.6,145.6,86.6,145.6z"/>
				<path class="st10" d="M8.6,94.8c0,0-5.6-10.8-13-14.5c0,0,15.9,3.9,22,15S8.6,94.8,8.6,94.8z"/>
				<path class="st10" d="M16.2,99.3c0,0-2.4-9.9-7.2-15.8c0,0,14.4,10.6,21.9,22.3C35.4,112.9,16.2,99.3,16.2,99.3z"/>
				<path class="st10" d="M94.1,44.2c0,0-10-1.5-15.3-6.2c0,0,7.8,12.9,18.5,13.6S94.1,44.2,94.1,44.2z"/>
				<path class="st10" d="M92.6,41.4c0,0-10-1.8-15.1-6.6c0,0,7.5,13.1,18.1,14.1S92.6,41.4,92.6,41.4z"/>
				<path class="st10" d="M93.2,39.9c0,0-9.9-2-15-7c0,0,7.2,13.3,17.9,14.5S93.2,39.9,93.2,39.9z"/>
				<path class="st2" d="M-70.7-61c10,0.4,20-0.3,29.8-1.9c8.7-1.5,15.8,1.5,17.7,6.2c0,0-1.5-18.1-14.1-17.8S-51.7-65.8-70.7-61z"
					/>
				<path class="st3" d="M36.7,59.1C26.3,40.8,36,26.8,50.5,24.3c0,0,1.8-8.8,17.4-3.5c0,0-10.2-7.1-18.6-1.3c0,0,6.5-11.9,26.7-8.3
					c0,0-19.2-7.1-32.3,4.8C43.6,16,12.6,36.8,36.7,59.1z"/>
				<path class="st3" d="M107.1,11.6c16.3-2.9,21.5,6.7,21.5,6.7c-6.8-4.6-15,1.1-15,1.1c12.6-4.3,14.1,2.8,14.1,2.8
					c0.9-3,1.6-6.1,2.1-9.2C119.5,7,107.1,11.6,107.1,11.6z"/>
				<path class="st3" d="M38.3,56.3c1.1,3,7.3,13.8,21.5,15.4s42.5-0.9,42.5-0.9s7-0.2,11.9-2.7c0,0-41.7,4.1-53.7,0.7
					S41.2,60.4,38.3,56.3z"/>
				<path class="st3" d="M124.1,69c2.1,0.9,7.9,3.2,16.3,0C134.9,69.6,129.5,69.6,124.1,69z"/>
				<path class="st3" d="M30.8,18.7c-5.2,5.9-12.1,11.5-8,24.5C22.8,43.2,12.5,27.6,30.8,18.7z"/>
				<path class="st3" d="M75.5,56.3c-0.1,0.3-1.1,0.7-2.1,0.3s-1.7-1.2-1.6-1.5s0.9,0,1.9,0.3S75.6,56,75.5,56.3z"/>
				<path class="st3" d="M85.7,57.1c0,0.3-0.9,0.9-2,0.8s-1.9-0.7-1.9-1.1s0.9-0.2,1.9-0.2S85.7,56.8,85.7,57.1z"/>
				<path class="st3" d="M66,53.1c-0.1,0.3-1.2,0.5-2.2,0c-1-0.5-1.5-1.4-1.3-1.7s0.9,0.1,1.9,0.6C65.3,52.4,66.2,52.7,66,53.1z"/>
				<path class="st3" d="M81.8,52.2c-0.1,0.3-1,0.8-2.1,0.6s-1.8-1-1.7-1.3s0.9-0.1,1.9,0.1S81.9,51.9,81.8,52.2z"/>
				<path class="st3" d="M72.1,49.9c-0.1,0.3-1.1,0.6-2.1,0.2s-1.6-1.2-1.5-1.6s0.9,0,1.9,0.4S72.2,49.6,72.1,49.9z"/>
				<path class="st3" d="M78.8,61.7c-0.1,0.3-1,0.8-2.1,0.6s-1.8-1-1.7-1.3s0.9-0.1,2,0.1S78.8,61.3,78.8,61.7z"/>
				<path class="st3" d="M69,59.4c-0.1,0.3-1.1,0.6-2.1,0.2s-1.6-1.2-1.5-1.6s0.9,0,1.9,0.4S69.1,59.1,69,59.4z"/>
				<path class="st3" d="M146.9,58.5c0.2,0.3-0.3,1.2-1.3,1.7s-2,0.3-2.2,0s0.6-0.7,1.6-1.1S146.7,58.2,146.9,58.5z"/>
				<path class="st3" d="M139.4,62.3c0.1,0.3-0.7,1.1-1.7,1.3s-2-0.2-2.1-0.6s0.8-0.4,1.8-0.7S139.3,62,139.4,62.3z"/>
				<path class="st3" d="M142.1,57.5c0.1,0.3-0.4,1.2-1.4,1.6s-2,0.1-2.2-0.2s0.7-0.6,1.7-1S142,57.1,142.1,57.5z"/>
				<path class="st3" d="M-10-10.5C-6.8-0.4-9.6,14.9,38.3,8.6C38.3,8.6-20.6,25.6-10-10.5z"/>
				<path class="st3" d="M129-2.3C117.4,9.9,100.1,0,100.1,0c8,7.6,15,9.3,20.9,8.3c5-0.7,8.6-5.3,8-10.3C129-2.1,129-2.2,129-2.3z"
					/>
				<path class="st10" d="M7.9-94C34.4-82,46.1-75.3,57.2-56.7c7.3,12.2,27,47.2,24.3,65.9c-0.7,4.6-1.4,8.7-2.2,12.4
					c-2.9,14.6,6.6,28.8,21.2,31.7c2.1,0.4,4.3,0.6,6.5,0.5c5-0.2,10.1-0.4,14.8-0.4c7.6,0,16.7-15,12.4-21.3
					c-11.2-16.3-21-14.3-28.3-22.3c-13-14.1-33.8-47.8-33.6-66.6s-46.5-38-46.5-38L7.9-94z"/>
				<path class="st2" d="M21.8-91.4C43.3-85.1,66-71.9,72.4-47.7c5.9,22.1,17.8,48,25.4,56.2c-4.2,0.1-21.9-25.4-28.2-54.9
					C62.2-80.5,21.8-91.4,21.8-91.4z"/>
				<polygon points="93.3,45.8 105.5,55.4 117.5,62.4 130.4,56.3 137.7,54 141.3,49.2 140.3,41.8 132.3,37.5 106,37.5 				"/>
				<path class="st2" d="M92.3,36.9c8.2-6.1,24.6-12.6,38.7-7.8C127.5,23.9,106.9,23,92.3,36.9z"/>
				<path class="st7" d="M93.3,45.8c7.6,6.9,12.6,5.7,15.8,1.9s12.2-6.4,12-1.7s-6.5,12.2-15.6,9.3c0,0,4.5,8.8,13.1,12.2
					s17.4-11,19.1-13.6c0,0-11.5,0-7.4-8.1s11.4,1.2,11,3.3c0,0,4.3-20-20.8-20S93.3,45.8,93.3,45.8z"/>
				<path d="M126.1,34.3c0,0-2.2,19-5,32.1c0.3-0.6,0.7-1.3,1-2.1C126.8,54.6,126.1,34.3,126.1,34.3z"/>
				<path class="st3" d="M27.8-29.7c0,0-10.5,4.3-16.8,4.6c0,0,16-7.3,18.8-10.4L27.8-29.7z"/>
				<path class="st3" d="M32.6-33.3c0,0-10.9,3.2-17.2,2.8c0,0,11.3-3.8,17-6.7c0.5-0.2,1.1-0.1,1.3,0.4c0.1,0.3,0.1,0.6,0,0.9
					L32.6-33.3z"/>
				<path class="st3" d="M124.9-18.8c-5,0-16.6-0.9-23.6,9.1c0,0-3.5-16.1,1-22.5S108-23.3,124.9-18.8z"/>
				<path class="st3" d="M108.4-25.9c0,0,8,4.3,12.8,4.5c0,0-12.2-7.3-14.4-10.3L108.4-25.9z"/>
				<path class="st3" d="M104.7-29.5c0,0,8.3,3.2,13.1,2.8c-4.5-2-8.8-4.2-13-6.8c-0.7-0.4-1.4,0.5-1,1.3L104.7-29.5z"/>
				<path class="st10" d="M16.1-91.4c0,0,15.2,7.8,25.3,15.6c0.7-0.3-8.3-10.1-22.9-15.6C5-96.5,16.1-91.4,16.1-91.4z"/>
				<path class="st10" d="M37.4-82.8c0,0,12.2,11.9,19.7,22.3c0.8,0-5-12.1-17.4-21.6C28.3-90.9,37.4-82.8,37.4-82.8z"/>
				<path class="st10" d="M28.4-91.9c0,0,16,5.9,27.1,12.3c0.7-0.3-9.5-9-24.7-12.6C16.8-95.6,28.4-91.9,28.4-91.9z"/>
				<path class="st10" d="M43.7-82.7c0,0,15.4,7.4,25.7,14.9c0.7-0.3-8.6-9.9-23.4-14.9C32.5-87.4,43.7-82.7,43.7-82.7z"/>
				<path class="st11" d="M30.8-21.7c7.1,4,10,8.9,9.1,12.9c-0.2,1.2-0.1,2.5-0.8,3.6c-1.9,3-7.3,8.5-21.3,8.1
					C34.7,6.9,54-1.7,48.8-13.7C48.8-13.7,44.7-22.8,30.8-21.7z"/>
				<path class="st11" d="M31.4-19.2c8.6,2.8,12.9,6.7,12.2,13.4L39-4.2C40.2-6.5,41.1-14.3,31.4-19.2z"/>
				<path class="st11" d="M46.2-18.7c2,5.3,4.2,8.5,1.2,16.2C47.4-2.4,55.5-10,46.2-18.7z"/>
				<path class="st11" d="M107.4-15.6c-3.2,1.4-5.6,4.2-6.4,7.6c-0.2,0.8-0.1,1.6,0.2,2.3c0.9,2,3.7,5.9,12.2,6.7
					C103,2.3,92-4.5,96-11.7C96-11.7,101.2-20.3,107.4-15.6z"/>
				<path class="st11" d="M100.9-5.7c-0.1-2.5,1.1-6.1,6.2-8.7c-6.4,2.1-9.6,4.9-9.1,9.8l3.4,1.2C101.1-4,100.9-4.8,100.9-5.7"/>
				<path class="st11" d="M96.7-14.4c-0.8,4-1.9,6.5,0.8,11.8C97.5-2.6,91.4-7.3,96.7-14.4z"/>
				<path class="st4" d="M24.6,73.8c-4.7,8.6-4.7,12.9,11.9,32S56.7,135,59,137.1s7,4.6,26.5,1.8c0,0-21.6,2.8-25.4-2.5
					s-13.3-25-27.8-39.3S24.6,73.8,24.6,73.8z"/>
				<path class="st4" d="M73,137.7c5.1,0,17.6-1.5,23.6-0.6s12.8,1.3,15.2-1.6c-4.8,1.1-9.7,1.5-14.5,1.1
					C88.9,136.1,83.4,136.3,73,137.7z"/>
				<circle class="st4" cx="64" cy="135.5" r="1.1"/>
				<circle class="st4" cx="68.3" cy="136.6" r="0.6"/>
				<path class="st3" d="M-14.7-28.3c-10.6,18.5-19,43.7,16.5,50.7c5.3,1,9.4,5.4,10,10.8c0.7,7.7,3.7,18.1,13.6,23.7
					c0,0-14.3,7.8-13.6,23.4c0,0-3.8-12.2,8-23.6c0,0-10.1-8.3-13.1-19.9C5.6,32.4,2.2,29-2.2,28C-19,23.8-45.9,8.1-14.7-28.3z"/>
				<path class="st3" d="M28.6,57.9c-7.9,5.9-15.1,10.8-13.8,26.1C14.8,84.1,14.3,69.3,28.6,57.9z"/>
				<path class="st2" d="M-30,80.1c0,0-22.5-8.2-31.1-7.7c-0.2-0.7,21.5-0.9,29.5,1.6L-30,80.1z"/>
				<path class="st2" d="M-39,76.3c0,0-21.7-10.3-30.3-10.5c-0.2-0.8,21.5,1.1,29.2,4.3L-39,76.3z"/>
				<path class="st2" d="M42,127.3c0,0-4.7-5.6-9.7-8.3c0,0,7.7,3.8,10,6L42,127.3z"/>
				<path class="st2" d="M36.2,120.1c0,0-5.6-4.8-11-6.5c0,0,8.3,2.4,10.9,4.3L36.2,120.1z"/>
				<path class="st2" d="M29.8,114.1c0,0-5.9-4.4-11.4-5.7c0,0,8.4,1.9,11.1,3.5L29.8,114.1z"/>
				<path class="st2" d="M21.7,108.5c0,0-6.1-4.1-11.6-5.3c0,0,8.5,1.5,11.2,3.1L21.7,108.5z"/>
				<path class="st10" d="M27.5,109.6c0,0-6.1-4.1-11.6-5.3c0,0,8.5,1.5,11.2,3.1L27.5,109.6z"/>
				<path class="st10" d="M36,115.2c0,0-6.1-4.1-11.6-5.3c0,0,8.5,1.5,11.2,3L36,115.2z"/>
				<path class="st10" d="M42.7,122.3c0,0-5.6-4.8-11-6.5c0,0,8.3,2.4,10.9,4.2L42.7,122.3z"/>
				<path class="st10" d="M106.6,141.3c-3.8,1.5-7.5,3.3-11,5.4c0,0-10,9.4-19.5,11.4c0,0,23.3,1.2,32.7-11.9
					c1.6-2.2,2.1-3.6,1.9-4.5C109.3,141.8,107.9,141.6,106.6,141.3z"/>
				<path class="st11" d="M105.6,141.9c-2,0.6-4,1.3-5.9,2.2c0,0-5.4,3.8-10.6,4.6c0,0,12.7,0.4,17.8-4.9c0.9-0.9,1.1-1.5,1-1.8
					C107.1,142.1,106.4,142.1,105.6,141.9z"/>
				<path class="st11" d="M108,142c-5.4-0.5-23.9-0.4-34.9,1.8C73,143.8,84,154.1,108,142z"/>
				<path class="st2" d="M-25-7.1c-2,3.9-4.9,15.8,3.8,30l-11.2-1.1C-32.5,21.8-32.5,3.8-25-7.1z"/>
				<path class="st2" d="M-24.8,5.3c-0.3,3.2,2.4,12.3,8.1,20.2c1.9,2.7,2,4.2,5.4,6.7l-9.4,2.6C-20.7,34.9-27.5,18.2-24.8,5.3z"/>
				<path d="M34,82.5c1.4,5.7,4.6,10,9.1,8.5C43.1,91,35.9,95.6,34,82.5z"/>
				<path d="M43.1,94.7c0,0-1.4,10.2,7.4,10.6C50.6,105.3,40.7,107.4,43.1,94.7z"/>
				<path d="M54.3,108.5c0,0,0,8.6,6.7,7.8C61,116.3,53.7,119.2,54.3,108.5z"/>
				<path class="st10" d="M35-8.7c0.2,0.8,0.1,1.7-0.3,2.4c0,0,1.6-0.4,1.5-0.8C35.9-7.9,35.5-8.4,35-8.7z"/>
				<path class="st10" d="M105.1-8.3c-0.2,0.8-0.1,1.7,0.3,2.3c0,0-1.6-0.4-1.5-0.8C104.1-7.4,104.5-7.9,105.1-8.3z"/>
				<path class="st8" d="M67.7,113.5c0,0,2.5,11.6,4.6,13.8C72.3,127.3,70.6,119.1,67.7,113.5z"/>
				<path class="st8" d="M106.3,113.5c0,0-2.5,11.6-4.6,13.8C101.8,127.3,103.4,119.1,106.3,113.5z"/>
				<path class="st8" d="M73.2,78.2c-1.9,1-2.3,13.1-1.7,19.8C71.5,98,71.1,84.2,73.2,78.2z"/>
				<path class="st8" d="M121.1,78.2C123,79,123.4,90,122.7,96C122.7,96,123.1,83.5,121.1,78.2z"/>
				<path class="st8" d="M82.9,91.3c-0.4-2.5,0.1-5,1.3-7.2L82.9,91.3z"/>
				<path class="st8" d="M104.1,84.6c0.4,2.5-0.1,5-1.3,7.2L104.1,84.6z"/>
				<path class="st8" d="M95,84.6c0.4,2.5-0.1,5-1.2,7.2L95,84.6z"/>
				<path class="st8" d="M95.6,126.7c0.3,1.5-0.1,3-1.1,4.1L95.6,126.7z"/>
				<path class="st8" d="M59.5,112.5c-1.5-0.3-2.7-1.2-3.4-2.6L59.5,112.5z"/>
				<path class="st8" d="M41.3,88c-1.5-0.3-2.7-1.3-3.3-2.6L41.3,88z"/>
				<path class="st8" d="M51.3,101.9c-1.5-0.3-2.7-1.2-3.4-2.6L51.3,101.9z"/>
				<path class="st8" d="M40.4,83.3c-1.3-2.2-2-4.8-1.9-7.4L40.4,83.3z"/>
				<path class="st8" d="M82.1,130.7c-1.2-0.9-1.8-2.4-1.7-3.9L82.1,130.7z"/>
				<path class="st8" d="M113.3,83.4c0.7,2.4,0.6,5-0.2,7.4L113.3,83.4z"/>
				<path class="st6" d="M79.5,101.7c1.6-0.6,0-9-1.4-12.8s0.4-5,1.1-5.6h1.3c-1,1.7-1.4,3.7-1,5.6C80.1,92,81.9,101.2,79.5,101.7z"
					/>
				<path class="st6" d="M82.7,97.1c0,0,2.7,9.5-4.2,11.3C78.5,108.3,86,108.2,82.7,97.1z"/>
				<path class="st6" d="M99.6,117.9c0,0-4.6,3.6-3.9,6.3c0,0-2.7,1.1-3.2,3.1c0,0-3-5.1-3.6-3.2c-0.4,1.5-0.8,3-1.1,4.5
					c0,0-0.6-5.4-2.3-4.8s-2.1,3.9-2.1,3.9s-3.2-5.1-4-4.6s-1.2,4.1-1.2,4.1s0.7-6.9-0.7-9.9c-1.1-2.6,4.2,6.2,4.2,6.2l-2.5-10.5
					l5.1,9.2c0,0-0.1-7.2-0.9-9.3s4.4,9.8,4.4,9.8c0.4,1.1-0.2-5.3-2.4-13.2c-0.5-1.8,5.4,10.9,7.1,13.2
					C92.4,122.9,97.2,118.8,99.6,117.9z"/>
				<path class="st5" d="M121.6,60.8c0,0,4.8-20.6,2.4-29.8c0,0-23.7,0.1-25.9,12.7c0,0,10.4-7.1,19.1-5.1
					C119.9,39.1,123.2,39.5,121.6,60.8z"/>
				<path class="st5" d="M123.8,63c1.8-5.7,4.2-25,3.7-31.7c0.6,0.3,12.5,3,13.1,14.6c0,0-0.2-7.1-8.9-4.7
					C129.3,41.8,128.2,46.2,123.8,63z"/>
			</g>
		</g>
	</g>
</g>
</svg>
