<svg xmlns="http://www.w3.org/2000/svg" viewBox="0 0 567.17 505.68"><defs><style>.cls-1{fill:#e3a02a;}</style></defs><title>Asset 7</title><g id="Layer_2" data-name="Layer 2"><g id="_1200" data-name="1200"><path class="cls-1" d="M383,379.93h0Z"/><path class="cls-1" d="M444.13,503.29l.68-.59.3-.3.15-.16,2.44-2.65c3.17-3.53,6.23-7.06,9.27-10.63q18.24-21.37,35.28-43.69c11.35-14.89,22.39-30,32.74-45.71s20.17-31.76,28.31-48.95a157.75,157.75,0,0,0,10.15-27l.24-.89.22-1,.37-1.71.73-3.43c.37-2.43.84-4.9,1.12-7.31a142.59,142.59,0,0,0,1-14.42,189.69,189.69,0,0,0-8-56.61A217,217,0,0,0,536,186.19a201.45,201.45,0,0,0-16.64-23.28,189.72,189.72,0,0,0-19.76-20.73,197.86,197.86,0,0,0-22.64-17.62,207.22,207.22,0,0,0-23.81-13.34q3.24-8.3,7-17.72c5.63-13.83,12.09-29.4,19.16-46.41,3.48-8.54,7.18-17.34,10.75-26.78.44-1.2.88-2.4,1.3-3.72.1-.34.2-.66.31-1.06.05-.23.09-.29.18-.76l.09-.59,0-.41c0-.27,0,.28,0-.66l0-.39c0-.26-.06-.54-.12-.77a11.29,11.29,0,0,0-.35-1.39,16.11,16.11,0,0,0-6.06-8A13.64,13.64,0,0,0,475.06.24a16.53,16.53,0,0,0-8.77,5.17A30.27,30.27,0,0,0,463.4,9c-.41.65-.87,1.35-1.23,2l-1,1.84c-1.22,2.43-2.55,4.86-3.7,7.34-2.4,4.93-4.7,10-6.94,15.07-4.49,10.21-8.8,20.73-13,31.5-8.36,21.56-16.48,44-23.42,67.41-.82,3-1.74,5.94-2.49,8.86l-1.15,4.41-.29,1.1-.15.62-.13.6-.52,2.39a73.92,73.92,0,0,0-1.19,19.46c.79,11,3.79,21.65,7.76,31.67h-.1l-.51,6.1-.59,6-.69,6c-.17,1.59-.4,3.17-.61,4.75a87,87,0,0,0-19.14-37.84c-9.56-11-21.82-19.39-34.9-25.45a115.83,115.83,0,0,0-20.47-7.25,103.58,103.58,0,0,0-64,4.65A131.09,131.09,0,0,0,238.1,182.8,166.57,166.57,0,0,0,209.46,215a186.37,186.37,0,0,0-20,38.12,183.38,183.38,0,0,0-9.92,36.21l-4.89-.86c-1.64-.29-3.08-.46-4.6-.63s-3-.3-4.51-.39c-3-.2-6-.28-9-.22a86.46,86.46,0,0,0-18,2.12,54.74,54.74,0,0,0-16.88,6.83l-.86.59c-.28-.69-.6-1.52-1.06-2.45-.31-.65-.65-1.35-1-2.1s-.82-1.5-1.25-2.3-.95-1.6-1.46-2.42-1.08-1.62-1.66-2.42-1.22-1.57-1.85-2.34-1.33-1.45-2-2.16-1.35-1.32-2.06-1.88-1.36-1.1-2-1.56a23.94,23.94,0,0,0-3.45-2c-.22-.11-.46-.2-.65-.28a4.79,4.79,0,0,0-.57-.21l-.44-.15-.08-.16-1.73.7q-.68-1.95-1.35-3.75c17.19-32.88,15.8-55.7,11.55-69.1-5.87-18.49-18.55-26.05-22.29-27.94-11.43-5.74-26.84-4.89-36.64,2A47.65,47.65,0,0,0,37.06,191l.09.06-.1,0c-.27.51-.6,1.07-1,1.69-3.14,5.27-9,15.09-5.78,35.14,2.34,14.76,2.57,19.73-7.65,33.66a68.63,68.63,0,0,0-15.5,19.45c-10.58,20.2-9.4,44.57,3.4,70.52,27.54,55.78,39.05,88.34,38.5,108.87a34.48,34.48,0,0,0,2.29,14c6.8,16.77,26.32,18.08,26.56,18.09l1.81.1L84,488a51.55,51.55,0,0,0,23.4,13.47,48.8,48.8,0,0,0,29.55-2.12,64.91,64.91,0,0,0,24.37-17.07A107.26,107.26,0,0,0,178.05,458l1.67-3.28,1.53-3.35c1.06-2.24,1.95-4.45,2.9-6.67l5.56-13.27c3.7-8.83,7.47-17.61,11.39-26.32a565.73,565.73,0,0,1,25.8-51c4.74-8.23,9.83-16.23,15.15-24a233.43,233.43,0,0,1,17.19-22.39,147.07,147.07,0,0,1,20.2-19.28c1.58-1.22,3.2-2.39,4.84-3.52l83.11,37.64-3.6,8a12.63,12.63,0,0,0-.35,9.57l-.06.1c-4.57,8-9.36,15.91-14.58,23.41-2.61,3.75-5.34,7.39-8.22,10.83a64,64,0,0,1-9.26,9.22,22.54,22.54,0,0,1-5,3,11,11,0,0,1-2.32.64,5.93,5.93,0,0,1-1.91-.11,5.8,5.8,0,0,1-1.7-.83,9.2,9.2,0,0,1-1.66-1.69l-2.16-2.74a37.78,37.78,0,0,0-2.79-3,20.69,20.69,0,0,0-7.23-4.78,13.5,13.5,0,0,0-9.9.28,19.54,19.54,0,0,0-7,5.4,39.36,39.36,0,0,0-4.42,6.45,83.16,83.16,0,0,0-5.88,13.5c-.79,2.28-1.5,4.57-2.16,6.87l-.49,1.73-.46,1.78-.83,3.49a227.07,227.07,0,0,0-4.63,28.12,117.72,117.72,0,0,0-.59,14.49c.22,4.93.54,10,2.87,15.34a13.4,13.4,0,0,0,7.09,7.24l1.65.6.83.3,1.08.29c.71.17,1.45.39,2.15.5l2.09.3a24.79,24.79,0,0,0,8.43-.7,48.87,48.87,0,0,0,7.16-2.66,15.59,15.59,0,0,1,2.57-.94,4.42,4.42,0,0,1,.73-.12.23.23,0,0,0,.14,0s0,0,0,0h0l.42.12a28.68,28.68,0,0,1,2.84,1c1,.41,2.08.82,3.13,1.27,4.2,1.77,8.42,3.69,12.62,5.63s8.39,3.93,12.55,6l6.2,3.06,1.51.78.74.38.62.34.6.32.2.08.4.18a5.24,5.24,0,0,0,.72.24,9.41,9.41,0,0,0,.91.25,9.91,9.91,0,0,0,1.41.22c.4,0,.82.09,1.18.09a30,30,0,0,0,8.19-1,28.06,28.06,0,0,0,7.64-3.16,17.26,17.26,0,0,0,3.65-3,8.09,8.09,0,0,0,.86-1,9.75,9.75,0,0,1,1,.14c.95.15,2,.39,3,.66,4.21,1.11,8.59,2.64,13,4.15l13.19,4.66c4.44,1.54,8.91,3.05,13.49,4.4a92.11,92.11,0,0,0,14.34,3.26,24.59,24.59,0,0,0,8.58-.21,11.94,11.94,0,0,0,2.67-1A9.91,9.91,0,0,0,444.13,503.29Zm40-489.74s0,0,0,0,0,0,0-.06S484.16,13.52,484.16,13.55ZM139.64,294.83a79.61,79.61,0,0,1,16.77-.89c2.09.1,4.18.28,6.26.51-1.7.14-3.71.34-6,.61-2.47.28-5.25.69-8.26,1.25a95,95,0,0,0-20.2,5.74,37.85,37.85,0,0,0-10.38,6.24A10.81,10.81,0,0,0,114.2,314a5.48,5.48,0,0,0,0,1.94,4.55,4.55,0,0,0,.22,1l.08.23,0,.12.14.27,0,0,.21.32a3.36,3.36,0,0,0,1.15.93,4.13,4.13,0,0,0,1,.36,8.24,8.24,0,0,0,1.77.24,41.56,41.56,0,0,0,12.3-2.13,92.08,92.08,0,0,0,11.12-4.12,41.21,41.21,0,0,0,9.66-5.59l.53-.5.44-.47a3.6,3.6,0,0,0,.78-1.39,1.64,1.64,0,0,0-.05-1,2.66,2.66,0,0,0-.29-.45l-.36-.29a3.77,3.77,0,0,0-1.4-.46,17.43,17.43,0,0,0-4.89.21,49.13,49.13,0,0,0-8.1,2.07,53.13,53.13,0,0,0-5.94,2.44,33.13,33.13,0,0,0-3.59,2c-.8.52-1.21.82-1.21.82s.43-.28,1.24-.77a35.94,35.94,0,0,1,3.67-1.84,48.59,48.59,0,0,1,6-2.14,48,48,0,0,1,8.05-1.67c2.47-.29,8.3-.49,4.21,2.35a40.07,40.07,0,0,1-9.5,4.9,100.62,100.62,0,0,1-11,3.53q-2.86.75-5.78,1.26a26.36,26.36,0,0,1-5.72.52,5.59,5.59,0,0,1-1.23-.18c-.41-.05-.57-.32-.5-.1l-.14-.23v0l0-.12a2.36,2.36,0,0,1-.12-.51,3,3,0,0,1,0-1.07,8.3,8.3,0,0,1,2.77-4.23,35.32,35.32,0,0,1,9.58-5.84,92.91,92.91,0,0,1,10.15-3.64c3.3-1,6.48-1.73,9.44-2.34,5.91-1.22,10.91-1.95,14.41-2.38l4.07-.48.27,0A48.9,48.9,0,0,1,161,304a60.83,60.83,0,0,1-13.4,10.12,74,74,0,0,1-15.77,6.58,67.09,67.09,0,0,1-8.37,1.91c-1.4.21-2.82.39-4.21.46a19.91,19.91,0,0,1-2,0,6.67,6.67,0,0,1-.93-.09,2.47,2.47,0,0,1-.47-.1,21.42,21.42,0,0,1-2.25-2.54,11.27,11.27,0,0,1-1.62-3.06,10.09,10.09,0,0,1-.52-3.38c0-.58.08-1.17.15-1.75l.15-.86.1-.48A34.9,34.9,0,0,1,123.93,300,50,50,0,0,1,139.64,294.83Zm-36.92-11.56a19,19,0,0,1,1.68,1c.61.34,1.2.82,1.85,1.26s1.25,1,1.87,1.54a8.48,8.48,0,0,0-.82.26,6.24,6.24,0,0,0-1.78,1.16,9.85,9.85,0,0,0-2.45,4.4,21.55,21.55,0,0,0-.76,5.55,40.86,40.86,0,0,0,1.23,10.27c.33,1.37.69,2.49.93,3.28l.41,1.22s-.13-.45-.35-1.24-.51-1.93-.78-3.31a40.53,40.53,0,0,1-.75-10.19,21.28,21.28,0,0,1,1-5.3,8.63,8.63,0,0,1,2.33-3.81A4.54,4.54,0,0,1,109,288.2h.33c.21.2.43.4.62.62.6.62,1.21,1.24,1.75,1.91s1.13,1.29,1.61,2,1,1.29,1.42,1.92l1.2,1.81c.74,1.08,1.24,2.06,1.65,2.73-.37.3-.73.61-1.08.92l-.23-.34c-.18-.28-.46-.62-.75-1s-.65-.8-1.07-1.24a9.32,9.32,0,0,0-1.5-1.29,4.31,4.31,0,0,0-2.16-.84,3,3,0,0,0-2.33.93,6.38,6.38,0,0,0-1.32,2,15.68,15.68,0,0,0-1,4.48,24.17,24.17,0,0,0,0,4,24.57,24.57,0,0,0,.36,2.77c.14.67.23,1,.23,1s-.07-.38-.17-1.05a24.58,24.58,0,0,1,0-6.67,15.17,15.17,0,0,1,1.23-4.25,5.67,5.67,0,0,1,1.24-1.73,2.18,2.18,0,0,1,1.7-.59,3.45,3.45,0,0,1,1.63.76,8,8,0,0,1,1.25,1.22,13.33,13.33,0,0,1,.92,1.19c.25.38.48.68.65,1l.33.56a37.16,37.16,0,0,0-6.58,8.21l-.22.37-.17,2.29c0,.7,0,1.4,0,2.11a14.5,14.5,0,0,0,.83,4.2,20.2,20.2,0,0,0,4.59,6.9l.11.11.12.08a4.64,4.64,0,0,0,1.54.6,12,12,0,0,0,1.26.19,20.9,20.9,0,0,0,2.35.12c1.55,0,3.06-.09,4.57-.23l.24,0c0,.16.1.45.2.87s.13.71.22,1.16a14.54,14.54,0,0,1,.17,1.5,8.54,8.54,0,0,1-.06,1.74,3.41,3.41,0,0,1-.63,1.68,2.15,2.15,0,0,1-1.63.76,5.59,5.59,0,0,1-2.1-.38,15.13,15.13,0,0,1-3.84-2.19,24.75,24.75,0,0,1-2.9-2.63,22.05,22.05,0,0,1-1.78-2.13c-.4-.55-.61-.87-.61-.87s.19.33.56.9a21,21,0,0,0,1.67,2.25,23.72,23.72,0,0,0,2.79,2.82,15.24,15.24,0,0,0,3.86,2.49,6.24,6.24,0,0,0,2.37.56,3,3,0,0,0,2.32-1,4.28,4.28,0,0,0,1-2.11,8.65,8.65,0,0,0,.18-2c0-.6,0-1.14-.09-1.63s-.1-.92-.17-1.25-.11-.62-.14-.79l1.57-.22c0,.14.07.26.1.42a23.77,23.77,0,0,1,.39,2.92,51.46,51.46,0,0,1-.16,9.27c-.09.86-.21,1.71-.34,2.54a4.81,4.81,0,0,1-1.34.29,8.62,8.62,0,0,1-4.33-1.12,21.28,21.28,0,0,1-4.39-3.12,40.39,40.39,0,0,1-6.55-7.85c-.77-1.17-1.34-2.19-1.75-2.91l-.6-1.13.55,1.16c.37.73.9,1.78,1.62,3a40.8,40.8,0,0,0,6.26,8.24,21.84,21.84,0,0,0,4.41,3.45,9.75,9.75,0,0,0,4.82,1.46,6.87,6.87,0,0,0,1-.12,20.48,20.48,0,0,1-1.38,4.58,5.91,5.91,0,0,1-.54.93h-.13a3.75,3.75,0,0,1-.92-.1,4.23,4.23,0,0,1-1-.25,15.16,15.16,0,0,1-4-2.14L117,343.42l-1.77-1.82a22.51,22.51,0,0,1-1.64-2,23.31,23.31,0,0,1-1.56-2.1l-1.46-2.18c-.49-.73-.87-1.53-1.31-2.29l-1.29-2.32-1.16-2.4c-.75-1.61-1.51-3.21-2.12-4.89s-1.37-3.32-1.85-5l-1.62-5.15c-.42-1.71-.88-3.41-1.25-5.13s-.58-3.49-.86-5.22a51.35,51.35,0,0,1-.33-5.23l0-2.59c0-.86.15-1.71.25-2.55a18.64,18.64,0,0,1,.44-2.48c.09-.41.15-.82.26-1.22l.39-1.16a15.93,15.93,0,0,1,2.06-4.15l.33-.41Zm-7.54,2c-.08.42-.2.84-.25,1.27L94.72,288c0,.49-.06,1-.09,1.46a21.37,21.37,0,0,0-.06,2.88l.1,2.85L95,298c.17,1.86.64,3.66.88,5.49.42,1.79.82,3.58,1.26,5.36s1,3.53,1.51,5.3l1.73,5.11c.58,1.77,1.25,3.43,1.88,5.14s1.29,3.4,2,5.08l1,2.54,1.16,2.49c.73,1.68,1.63,3.29,2.47,4.95.4.83.9,1.62,1.39,2.42s1,1.62,1.51,2.39l1.65,2.35,1.9,2.24c.6.63,1.23,1.25,1.9,1.86l-.38.15c-.38-.26-.84-.58-1.37-1-.81-.62-1.78-1.39-2.83-2.34a43.73,43.73,0,0,1-3.35-3.41,47.93,47.93,0,0,1-3.54-4.46,60.91,60.91,0,0,1-3.41-5.39c-1.1-1.92-2.14-4-3.1-6.08s-1.85-4.32-2.69-6.53-1.54-4.48-2.17-6.72a64.14,64.14,0,0,1-1.51-6.66,52.19,52.19,0,0,1-.74-6.33,44.89,44.89,0,0,1,0-5.68,40.45,40.45,0,0,1,.53-4.75,35.59,35.59,0,0,1,.73-3.59c.21-.93.44-1.67.6-2.21ZM90.84,287c0,.17,0,.34,0,.53-.07,1.07-.13,2.34-.15,3.82s0,3.13.09,4.92S91,300,91.32,302s.71,4.14,1.18,6.32,1.12,4.38,1.78,6.61,1.45,4.47,2.27,6.69,1.68,4.43,2.61,6.56,1.87,4.24,2.91,6.21,2.07,3.85,3.13,5.6,2.14,3.36,3.23,4.79,2.11,2.72,3.07,3.84,1.86,2,2.61,2.78l.37.36-2.31.94c-.39-.26-.85-.58-1.38-1-.8-.61-1.77-1.38-2.83-2.33a45.6,45.6,0,0,1-3.35-3.41,51.11,51.11,0,0,1-3.54-4.46,60,60,0,0,1-3.4-5.39c-1.1-1.92-2.15-4-3.11-6.09s-1.84-4.31-2.69-6.52-1.54-4.48-2.17-6.72a68.11,68.11,0,0,1-1.51-6.66,52.11,52.11,0,0,1-.73-6.33,46.93,46.93,0,0,1,0-5.68,45.23,45.23,0,0,1,.53-4.75c.21-1.4.49-2.62.73-3.59s.44-1.67.6-2.21Zm-4.69,1.9c0,.17,0,.34,0,.52-.07,1.07-.12,2.35-.15,3.83s0,3.13.1,4.92.29,3.74.58,5.76.71,4.15,1.18,6.32,1.12,4.38,1.78,6.62,1.45,4.47,2.27,6.69,1.67,4.43,2.61,6.56,1.86,4.24,2.9,6.2,2.07,3.86,3.13,5.61,2.15,3.36,3.23,4.79,2.12,2.72,3.07,3.84,1.86,2,2.61,2.78l.37.36-1.79.73c-.39-.26-.85-.58-1.38-1-.8-.61-1.77-1.38-2.82-2.33a43.74,43.74,0,0,1-3.36-3.41,52.66,52.66,0,0,1-3.54-4.46,60,60,0,0,1-3.4-5.39c-1.1-1.92-2.15-4-3.11-6.09s-1.84-4.31-2.69-6.52-1.54-4.48-2.17-6.72A68.11,68.11,0,0,1,84,311.87a52.11,52.11,0,0,1-.73-6.33,46.93,46.93,0,0,1,0-5.68,45.23,45.23,0,0,1,.53-4.75c.21-1.4.49-2.62.73-3.59s.44-1.67.6-2.21ZM105,354.72c-.38-.16-.76-.34-1.13-.53a26.58,26.58,0,0,1-4-2.63c-.63-.52-1.24-1.08-1.85-1.63s-1.18-1.17-1.76-1.77-1.12-1.25-1.67-1.9l-1.55-2c-1-1.38-2-2.77-2.81-4.25s-1.7-3-2.5-4.48-1.47-3.1-2.17-4.66-1.32-3.15-1.89-4.79-1.17-3.24-1.63-4.89-1-3.28-1.26-5c-.16-.84-.35-1.68-.49-2.52s-.22-1.68-.32-2.53a43,43,0,0,1-.29-5.07,38,38,0,0,1,.36-5,35,35,0,0,1,1-4.82c.23-.74.5-1.47.79-2.17,0,.28,0,.53,0,.83,0,1.47,0,3.12.1,4.92s.29,3.74.58,5.76.71,4.15,1.17,6.32,1.13,4.38,1.79,6.62,1.45,4.47,2.27,6.69,1.67,4.43,2.61,6.56,1.86,4.24,2.9,6.2,2.07,3.86,3.13,5.61,2.15,3.36,3.23,4.79,2.12,2.72,3.07,3.84C103.5,353.2,104.27,354,105,354.72ZM85.4,288.63l-.09.06,0-.05S85.39,288.62,85.4,288.63ZM92.3,278l-.4.16-.26-.35c-.26-.38-.65-.92-1.19-1.57a20.6,20.6,0,0,0-1.91-2.08,13.57,13.57,0,0,0-1.2-1,12.25,12.25,0,0,0-1.37-.94,8.28,8.28,0,0,0-1.51-.7,5.65,5.65,0,0,0-1.61-.3,2.57,2.57,0,0,0-.78.05,2.47,2.47,0,0,0-.72.19,3.7,3.7,0,0,0-1.15.69,4.61,4.61,0,0,0-.74.83,4.27,4.27,0,0,0-.43.73l-.31.66.38-.62a4.75,4.75,0,0,1,.5-.65,4.52,4.52,0,0,1,.78-.71,3.29,3.29,0,0,1,1.11-.49,1.72,1.72,0,0,1,.64-.1,2,2,0,0,1,.68,0,4.31,4.31,0,0,1,1.35.42,7.69,7.69,0,0,1,1.28.78,12.74,12.74,0,0,1,2.13,2.08,23.6,23.6,0,0,1,2.49,3.73l0,.08-9.26,3.75-1,.41-.62.82a10.82,10.82,0,0,0-.77,1.69c-.2.5-.35,1-.5,1.48a26.18,26.18,0,0,0-.72,2.87,36.63,36.63,0,0,0-.71,5.61,40,40,0,0,0,0,5.47c.08.89.08,1.79.18,2.68l.31,2.65c.1.88.29,1.75.43,2.62s.29,1.74.5,2.59l.57,2.57c.21.85.46,1.69.69,2.53.41,1.7,1,3.35,1.52,5s1.15,3.29,1.7,4.92,1.23,3.24,1.82,4.88,1.3,3.22,2,4.83,1.38,3.2,2.14,4.78c.47,1,1,2,1.5,3,0,.43.12,1.28.23,2.52,0,.44.09.94.14,1.48s0,1.11,0,1.73c0,1.24.11,2.63,0,4.16s-.07,3.19-.25,4.94c-.07.88-.15,1.78-.22,2.7s-.23,1.85-.35,2.81c-.2,1.91-.57,3.86-.87,5.86s-.72,4-1.16,6c-1.67,8-3.85,16-5.36,22-.77,3-1.34,5.49-1.72,7.25s-.51,2.79-.51,2.79l.77-2.73c.29-.86.6-1.9,1-3.1l1.31-4c.5-1.46,1-3,1.6-4.72s1.11-3.46,1.7-5.31c1.14-3.7,2.35-7.65,3.4-11.67.55-2,1-4,1.45-6s.81-4,1.08-5.94c.15-1,.3-1.93.44-2.87s.22-1.86.32-2.76c.24-1.79.32-3.51.42-5.09.11-1.29.1-2.51.11-3.64.46.74,1,1.47,1.45,2.21l1.63,2.2a43.81,43.81,0,0,0,3.07,3.51c0,.11,0,.19,0,.3-.07,1.57-.08,3.7-.21,6.26-.08,1.28-.15,2.66-.3,4.12s-.32,3-.52,4.59c-.46,3.17-1.07,6.54-1.84,9.89-.37,1.68-.82,3.34-1.22,5s-.91,3.24-1.35,4.79c-1,3.09-1.85,6-2.72,8.41s-1.6,4.47-2.11,5.9-.83,2.23-.83,2.23l1-2.16c.64-1.37,1.6-3.32,2.62-5.71s2.23-5.18,3.45-8.2c.57-1.53,1.17-3.11,1.77-4.72s1.14-3.26,1.66-4.93c1.07-3.34,2-6.73,2.74-9.95.34-1.62.69-3.19.94-4.69s.47-2.92.66-4.23.29-2.23.4-3.2c.38.28.76.56,1.16.83h0l1.25.73q-.06.49-.12,1.05a124.62,124.62,0,0,1-2.45,13.65A170.71,170.71,0,0,1,97.88,397c-1.22,3.37-2.55,6.83-4,10.31s-3,7-4.6,10.45c-3.19,7-6.23,14-8.68,20.81a135.63,135.63,0,0,0-5.48,19,79.43,79.43,0,0,0-1.53,11.74c-.25-.26-.51-.52-.75-.78-.09-.8-.12-1.9-.16-3.28,0-.77,0-1.62.08-2.55s.15-1.94.24-3c.24-2.15.55-4.58,1-7.21,1.85-10.56,5.83-24.37,9.77-38.18s7.68-27.73,9.32-38.4c.44-2.66.74-5.12.93-7.3.12-1.09.18-2.11.23-3.06s.1-1.81.09-2.6c0-1.57,0-2.81,0-3.65s-.06-1.29-.06-1.29,0,.45,0,1.29.06,2.08,0,3.65c0,.78-.06,1.65-.14,2.59s-.14,2-.28,3.05c-.23,2.18-.57,4.62-1,7.27-1.81,10.62-5.77,24.44-10,38.17s-8.41,27.5-10.46,38.15c-.54,2.66-.9,5.13-1.19,7.32-.1,1.11-.2,2.14-.29,3.1s-.09,1.85-.13,2.65c0,.37,0,.71,0,1.05-.3-.36-.58-.71-.85-1.06a.3.3,0,0,1,0-.1l-.18-.88c-.06-.35-.07-.78-.11-1.26a33.39,33.39,0,0,1-.08-3.47c0-1.35.11-2.9.22-4.57.5-6.73,1.71-15.69,2.91-24.65.58-4.48,1.17-9,1.72-13.17s1-8.14,1.33-11.51.61-6.19.76-8.17l.25-3.09s-.12,1.12-.34,3.09-.55,4.77-1,8.13-1,7.28-1.64,11.46-1.37,8.65-2.08,13.12c-1.44,8.92-2.89,17.85-3.58,24.64-.16,1.7-.3,3.27-.36,4.67,0,.84,0,1.6,0,2.31A8.37,8.37,0,0,1,67,459.2a1.42,1.42,0,0,0-.18-.6,64,64,0,0,1-.14-8.66c.19-4.52.63-9.61,1.35-15.14,1.4-11.07,3.55-23.91,5.28-37.83a179,179,0,0,0,1.58-21.62A154,154,0,0,0,73.21,353C71.09,338,66.89,323.52,63,310.14c-1-3.37-1.89-6.61-2.75-9.84A86,86,0,0,1,58.13,291a64.81,64.81,0,0,1-.49-17.14,48.76,48.76,0,0,1,3.45-13.75,27.75,27.75,0,0,1,5.6-8.68,15.64,15.64,0,0,1,4.94-3.5l.7-.29.12,0a12.76,12.76,0,0,1,1.67.94c-.68.57-1.45,1.26-2.3,2.09a42,42,0,0,0-4.57,5.59A40.62,40.62,0,0,0,63,264.52a44.61,44.61,0,0,0-2.52,10.7,57.38,57.38,0,0,0,.07,12.21,82.28,82.28,0,0,0,2.33,12.81C64,304.53,65.46,308.78,67,313s3,8.43,4.25,12.63a116.8,116.8,0,0,1,3.05,12.52,212.14,212.14,0,0,1,3,22.69c.51,6.69.63,12.28.55,16.19,0,2-.1,3.5-.2,4.54s-.12,1.6-.12,1.6,0-.55.15-1.6.18-2.58.25-4.53c.13-3.92.09-9.52-.32-16.22A213.64,213.64,0,0,0,74.87,338,118,118,0,0,0,72,325.41c-1.22-4.25-2.66-8.49-4.09-12.73S65.07,304.2,64,300a81.45,81.45,0,0,1-2.12-12.63A55,55,0,0,1,62,275.4a43.42,43.42,0,0,1,2.57-10.29,36.89,36.89,0,0,1,8.58-13.17c1-.95,1.86-1.68,2.57-2.25a28.64,28.64,0,0,1,2.73,2.55,41.7,41.7,0,0,0-8.16,8.33,33.62,33.62,0,0,0-4,7.17,26.75,26.75,0,0,0-1.36,4.31l-.24,1.15-.06.29,0,.17,0,.14-.08.56c-.09.75-.22,1.47-.27,2.28a53.41,53.41,0,0,0,0,9.63,82.42,82.42,0,0,0,1.5,9.72,181.54,181.54,0,0,0,5.23,18.46c1,2.89,1.9,5.68,2.72,8.34s1.52,5.21,2.12,7.57a142.6,142.6,0,0,1,3.3,15.9,143.77,143.77,0,0,0-2.71-16c-.52-2.39-1.16-5-1.86-7.67s-1.54-5.55-2.4-8.47a176,176,0,0,1-4.51-18.46,75.76,75.76,0,0,1-1.11-9.51,50.86,50.86,0,0,1,.31-9.13c.07-.71.23-1.48.35-2.21l.1-.55,0-.14s0-.07,0-.09l.06-.26.25-1a24.78,24.78,0,0,1,1.36-3.83,30.71,30.71,0,0,1,3.92-6.36,38.31,38.31,0,0,1,8-7.5,55.63,55.63,0,0,1,4.81,7.41c-.24,0-.46-.08-.72-.1a11,11,0,0,0-5.75,1.28,16.34,16.34,0,0,0-5.64,4.82,22.64,22.64,0,0,0-3.76,7.8,31.59,31.59,0,0,0-1,9.51,98.44,98.44,0,0,0,1,10c.55,3.4,1.3,6.81,2.19,10.17,1.77,6.74,4.1,13.28,5.86,19.53a134.44,134.44,0,0,1,3.69,17.35A120.93,120.93,0,0,1,83,360.1a121.37,121.37,0,0,0-1.12-17.3,135.73,135.73,0,0,0-3.39-17.47C76.82,319,74.6,312.44,73,305.72a102.93,102.93,0,0,1-2-10.1,97.61,97.61,0,0,1-.84-9.92,30.5,30.5,0,0,1,1.08-9.05,21.09,21.09,0,0,1,3.61-7.2,14.75,14.75,0,0,1,5.12-4.24,9.16,9.16,0,0,1,4.82-1,6,6,0,0,1,2.09.55A102.61,102.61,0,0,1,92.3,278Zm13.86,85.64h0l1.07-.44c1.93,20.25-7.77,42.11-17.17,63.3-3.33,7.51-6.47,14.59-9.12,21.61-4.26,11.32-5.07,19.05-4.18,24.34l-1.35-1.3a73.75,73.75,0,0,1,1.35-13.24,134.65,134.65,0,0,1,5.13-18.81c2.33-6.77,5.25-13.85,8.33-20.86,1.53-3.5,3.1-7,4.44-10.55s2.67-7,3.83-10.41a169.21,169.21,0,0,0,5.35-18.91,128.39,128.39,0,0,0,2.22-13.71C106.09,364.27,106.13,363.93,106.16,363.61ZM84,181.23c6.3,3.16,14.43,11,18.35,23.31,5,15.75,2.15,35.45-8.16,57.32q-1.25-2.53-2.49-4.69c.25-.38.64-.93,1.14-1.67s1.11-1.52,1.67-2.56l1.88-3.5c.63-1.3,1.17-2.77,1.82-4.29s1-3.22,1.59-4.93c.4-1.74.86-3.54,1.17-5.38s.6-3.72.69-5.62c.07-.94.17-1.88.2-2.82s0-1.88.05-2.8c0-1.86-.08-3.68-.15-5.44s-.26-3.45-.5-5-.46-3.1-.7-4.48A63.15,63.15,0,0,0,98.94,202c-.23-.78-.44-1.39-.6-1.8l-.23-.62s.07.22.19.64.3,1,.47,1.83a61,61,0,0,1,1.11,6.64c.15,1.38.31,2.88.38,4.47s.12,3.27.15,5,0,3.52-.21,5.33l-.24,2.73c-.1.91-.26,1.81-.39,2.72-.22,1.83-.68,3.6-1,5.36s-1,3.43-1.46,5.06c-.65,1.58-1.17,3.14-1.83,4.54s-1.31,2.72-2,3.88l-2,3.11c-.58.92-1.24,1.61-1.7,2.24l-.24.31c-.6-.9-1.19-1.74-1.78-2.53l.93-1.65c.44-.77,1-1.71,1.55-2.88S91.35,244,92,242.55s1.35-3,2-4.66,1.25-3.48,1.84-5.35c.32-.92.51-1.91.78-2.88s.5-2,.66-3,.41-2,.54-3.06.23-2.07.35-3.11a53.85,53.85,0,0,0,.14-6.21,57.35,57.35,0,0,0-.51-6c-.37-1.91-.62-3.76-1.13-5.47-.23-.85-.43-1.69-.66-2.49s-.53-1.55-.77-2.28c-.46-1.47-1-2.75-1.52-3.91a30.83,30.83,0,0,0-1.33-2.94c-.78-1.6-1.24-2.52-1.24-2.52s.39,1,1,2.6a30.09,30.09,0,0,1,1.1,3c.38,1.18.87,2.49,1.2,4,.19.73.39,1.5.59,2.29s.31,1.64.47,2.49c.37,1.7.48,3.53.7,5.4a55.88,55.88,0,0,1,.06,5.8,54.33,54.33,0,0,1-.58,5.93l-.56,2.93c-.2,1-.49,1.92-.73,2.87a28.79,28.79,0,0,1-.84,2.78c-.33.9-.57,1.82-.94,2.68-.7,1.73-1.36,3.4-2.13,4.93s-1.49,3-2.21,4.29-1.43,2.46-2,3.49-1.2,1.93-1.7,2.67l-.15.22c-.43-.46-.85-.89-1.27-1.3,10-15.17,16.36-49.21,1.37-62.49a26.8,26.8,0,0,0-6.14-4.11A26.84,26.84,0,0,1,84,181.23ZM37.6,251c2.62-7.41,2-14.1.42-24.38-2.75-17.26,2-25.18,4.78-29.91.35-.61.67-1.15,1-1.67,2.26-2.95,6.54-6.19,11.61-8.33-7.24,4.83-13.27,11.26-15.22,21.51A60.94,60.94,0,0,0,40.68,232c.22,1.18.4,2.12.47,2.8l.14,1.23c.44,3.88.93,8.22-.87,13.51C39.47,250,38.53,250.46,37.6,251Zm4.53-2.34c1.41-5,.95-9.08.53-12.8l-.14-1.21c-.07-.75-.26-1.7-.49-2.92a59.31,59.31,0,0,1-.53-23.25A29.62,29.62,0,0,1,52.41,190.6c-.56.58-1.09,1.19-1.6,1.83a38.72,38.72,0,0,0-7.58,16.7,49.13,49.13,0,0,0,.23,20l.63,2.54c.23.87.45,1.61.61,2.31a33.84,33.84,0,0,1,.74,4.63,21.14,21.14,0,0,1-.85,8.89C43.77,247.88,42.94,248.24,42.13,248.63Zm31.17-9-.66-.13-.67.1a106.13,106.13,0,0,0-21.92,5.66,31.14,31.14,0,0,0,.37-7,39.84,39.84,0,0,0-.66-5.36c-.19-.94-.41-1.8-.58-2.53l-.48-2.29a43.42,43.42,0,0,1,.4-17.68,32.3,32.3,0,0,1,6.76-13.74,20.24,20.24,0,0,1,10.21-6.53,19.72,19.72,0,0,1,5-.58,23.8,23.8,0,0,1,4.3.54,30.09,30.09,0,0,1,3.44,1c.95.39,1.68.67,2.38,1l1,.48C89.43,204.74,84,229.74,76.86,241A13,13,0,0,0,73.3,239.62ZM56.87,460.52C57.45,438.64,45.7,405,17.56,348c-1.36-2.75-2.56-5.49-3.64-8.19,1.6,2.69,3.26,5.4,5,8.16a256.45,256.45,0,0,1,13.51,23.67c4.1,8.3,7.77,16.87,11,25,1.56,4.07,3,8,4.28,11.83s2.44,7.4,3.44,10.75c.53,1.67,1,3.28,1.38,4.82s.81,3,1.14,4.38c.71,2.75,1.25,5.17,1.69,7.16s.73,3.57.95,4.63.33,1.65.33,1.65l-.29-1.65c-.21-1.07-.45-2.66-.87-4.66s-.9-4.43-1.55-7.19-1.41-5.89-2.33-9.27a338.39,338.39,0,0,0-17.16-48.36,274.34,274.34,0,0,0-12.58-24.39c-4.31-7.6-8.22-14.75-10.3-21.35-.6-1.63-1-3.25-1.39-4.76s-.65-3-.93-4.38-.4-2.69-.58-3.89-.22-2.32-.32-3.33c-.14-1.29-.17-2.42-.2-3.36.05-.55.11-1.11.17-1.66.14.62.32,1.24.47,1.84.2.76.4,1.5.6,2.23s.5,1.4.73,2.08.47,1.32.7,1.95.52,1.21.77,1.78c.51,1.12.93,2.17,1.38,3.07l1.22,2.29c.66,1.26,1,2,1,2l-.75-2.12c-.23-.67-.52-1.49-.85-2.42s-.57-2-.9-3.2c-.15-.59-.33-1.19-.48-1.83s-.25-1.3-.39-2-.26-1.37-.4-2.08-.16-1.45-.25-2.2-.2-1.49-.21-2.26l-.06-2.31a18.18,18.18,0,0,1,.06-2.33c.06-.78.06-1.56.17-2.33a36.81,36.81,0,0,1,.84-4.52l.27-1.09.35-1.05c.06-.16.11-.32.16-.48a1.92,1.92,0,0,0,0,.24l.08,2.65c0,.88.16,1.75.23,2.62s.15,1.73.34,2.57c.34,1.69.59,3.35,1.07,4.9.22.78.43,1.55.63,2.3s.51,1.45.75,2.14a36.2,36.2,0,0,0,1.5,3.86c.52,1.17,1,2.24,1.41,3.18s.91,1.71,1.25,2.37l1.08,2.05-.77-2.19c-.25-.69-.55-1.54-.89-2.5s-.59-2.1-.93-3.31a37.73,37.73,0,0,1-.9-3.94c-.14-.7-.31-1.41-.42-2.15s-.18-1.5-.28-2.27a45.59,45.59,0,0,1-.33-4.73c-.07-.8,0-1.62,0-2.43s0-1.61.13-2.42l.28-2.4c.1-.79.29-1.57.43-2.34a20.68,20.68,0,0,1,.54-2.26c.23-.74.37-1.48.65-2.17l.09-.27c0,.52-.05,1,0,1.55-.05,1.74.12,3.51.23,5.26.07.87.22,1.74.32,2.6s.22,1.73.42,2.56A50,50,0,0,0,20.78,299c.22.78.44,1.54.65,2.29s.52,1.45.76,2.15c.5,1.39,1,2.7,1.52,3.86s1,2.25,1.43,3.19l1.25,2.38,1.08,2.06-.77-2.2c-.25-.69-.55-1.54-.89-2.51s-.6-2.11-.94-3.32a37.72,37.72,0,0,1-.93-3.95c-.14-.7-.3-1.42-.43-2.16l-.3-2.28c-.25-1.53-.31-3.14-.41-4.76a22.08,22.08,0,0,1,0-2.44c0-.82,0-1.64,0-2.45.14-1.64.22-3.26.5-4.84s.57-3.11.87-4.58.76-2.87,1.23-4.16.93-2.52,1.36-3.63c.95-2.22,1.85-4,2.51-5.26.11-.21.21-.38.31-.56a74.3,74.3,0,0,1,7.76-5.62,54.74,54.74,0,0,0-4.57,27.53,69.38,69.38,0,0,0,4.94,20q1,2.29,2,4.55l2.05,4.34c1.34,2.86,2.65,5.66,3.87,8.41,2.46,5.49,4.66,10.74,6.47,15.66a128.57,128.57,0,0,1,4.24,13.67,107.56,107.56,0,0,1,2.12,10.84c.24,1.52.41,2.88.55,4.06s.25,2.19.32,3c.16,1.64.25,2.51.25,2.51s-.06-.87-.16-2.52c0-.82-.12-1.83-.22-3s-.22-2.56-.4-4.08a109.69,109.69,0,0,0-1.76-11,130.92,130.92,0,0,0-3.78-13.91c-1.65-5-3.68-10.37-6-16-1.14-2.8-2.35-5.67-3.59-8.58-.63-1.46-1.26-2.93-1.91-4.41s-1.17-3-1.77-4.49A66.53,66.53,0,0,1,36,287.5a53.8,53.8,0,0,1,2.78-20A52.87,52.87,0,0,1,43,258.38c.42-.73.85-1.42,1.3-2.1.2-.09.39-.2.58-.3-.23.37-.48.77-.72,1.19a41,41,0,0,0-2.86,6.28A55.56,55.56,0,0,0,39,272.06a60.37,60.37,0,0,0-1,10.47,62.15,62.15,0,0,0,1.45,11.63,132.5,132.5,0,0,0,7.87,24.09c1.68,4,3.37,7.91,4.82,11.89s2.83,7.91,4,11.77,2.19,7.63,3.05,11.22,1.55,7,2,10.22.87,6.12,1.1,8.73.35,4.9.34,6.78,0,3.36-.07,4.37-.06,1.55-.06,1.55,0-.54.08-1.55.14-2.49.11-4.37-.08-4.17-.27-6.79-.52-5.57-1-8.76-1.14-6.63-1.94-10.25-1.78-7.4-2.93-11.27-2.44-7.85-3.88-11.84-3.07-8-4.71-12a131.3,131.3,0,0,1-7.58-24A61.31,61.31,0,0,1,39,282.53a58.91,58.91,0,0,1,1.12-10.25,54.1,54.1,0,0,1,2.29-8.4,38.52,38.52,0,0,1,2.82-6,28.2,28.2,0,0,1,2-3c.68-.31,1.35-.63,2-.93-.42.62-.88,1.33-1.34,2.14a37,37,0,0,0-2.74,6.24,52.19,52.19,0,0,0-2,8.56c-.23,1.6-.43,3.26-.56,5a44.79,44.79,0,0,0-.2,5.38A74.73,74.73,0,0,0,44,292.7a161,161,0,0,0,7,24c1.49,4,3,7.93,4.42,11.88s2.68,7.85,3.83,11.66,2.13,7.53,3,11.07,1.54,6.93,2,10.08.86,6,1.09,8.62.33,4.84.32,6.69,0,3.32-.07,4.32-.07,1.52-.07,1.52,0-.53.08-1.52.15-2.46.12-4.32-.07-4.12-.26-6.7-.5-5.49-1-8.64-1.15-6.55-1.92-10.12-1.77-7.3-2.9-11.13-2.35-7.76-3.72-11.72-2.86-7.94-4.3-11.93a159.07,159.07,0,0,1-6.76-23.94,72.21,72.21,0,0,1-1.36-11.31,43.15,43.15,0,0,1,.25-5.25c.14-1.7.36-3.34.6-4.9a50.67,50.67,0,0,1,2-8.34,34.88,34.88,0,0,1,2.7-6,27.3,27.3,0,0,1,2.37-3.46l.27-.31c.66-.26,1.31-.53,2-.77-.42.61-.87,1.32-1.32,2.12a36.81,36.81,0,0,0-2.75,6.31,51.77,51.77,0,0,0-2,8.66c-.23,1.6-.42,3.28-.55,5a34.85,34.85,0,0,0-.12,5.44,82.51,82.51,0,0,0,1.76,11.53,201.42,201.42,0,0,0,7,24.26c1.44,4.05,2.88,8.09,4.13,12.12s2.45,8,3.46,11.9,1.89,7.68,2.63,11.29,1.34,7,1.75,10.23.74,6.13.93,8.73.27,4.89.25,6.77,0,3.35-.1,4.36-.07,1.54-.07,1.54,0-.54.09-1.54.15-2.48.14-4.36,0-4.16-.19-6.77-.41-5.56-.83-8.75-1-6.65-1.65-10.27-1.53-7.44-2.53-11.34-2.1-7.92-3.34-12-2.62-8.12-4-12.17a201.34,201.34,0,0,1-6.74-24.23,82.9,82.9,0,0,1-1.62-11.4,34.34,34.34,0,0,1,.16-5.29c.15-1.72.36-3.37.6-5a51.4,51.4,0,0,1,2-8.43A35.93,35.93,0,0,1,53.55,255a26,26,0,0,1,2.4-3.49l0,0c.61-.21,1.21-.43,1.83-.62a37.74,37.74,0,0,0-3.3,6.61,55.43,55.43,0,0,0-3.45,15.82A71.18,71.18,0,0,0,52.22,292a93.35,93.35,0,0,0,2.55,9.8c1,3.23,2,6.56,3.12,9.87,4.34,13.28,8.91,27.35,11.46,41.88a150.93,150.93,0,0,1,2.34,21.82,176.66,176.66,0,0,1-.86,21.33c-1.26,13.86-3,26.8-4,37.94-.54,5.56-.82,10.7-.87,15.25a65.06,65.06,0,0,0,.44,8.74c-1.32,1.44-3.94,12.23-1,21.21C59.49,475.65,56.64,469.16,56.87,460.52Zm30.38,24.07A6.29,6.29,0,0,0,89,479.76a6.5,6.5,0,0,0-2.53-4.61c-2.75-2.1-3.72-9.59,1.83-24.31,2.56-6.81,5.66-13.8,8.94-21.2,10.16-22.9,20.65-46.55,17.55-69.51l13.13-5.32,0,.05s.23-.12.65-.38a7.08,7.08,0,0,0,1.45-1.23,8.82,8.82,0,0,0,1.3-1.93,13.06,13.06,0,0,0,.91-2.28,35.12,35.12,0,0,0,1-10.73A57.36,57.36,0,0,0,132,328.16a29.71,29.71,0,0,0-.95-3.33c.62-.12,1.24-.22,1.85-.36a84.58,84.58,0,0,0,17.09-5.92,67.29,67.29,0,0,0,15.4-10,54.62,54.62,0,0,0,11.93-14.46h0l2.19-4.43c-.28,1.72-.54,3.44-.76,5.17a164,164,0,0,0,0,43,370.05,370.05,0,0,1,2.84,42.57,192.69,192.69,0,0,1-4.16,42.27C174.26,436.48,169,450,160.2,461a63.39,63.39,0,0,1-15.57,14.06,68,68,0,0,1-19.31,8.31c-12.6,3.24-25.83,3.43-38.8,2ZM253.33,302.45c-.4.47-.78,1-1.18,1.43.15-.33.31-.65.46-1,1.83-3.91,3.75-8.19,5.48-12.85a107.57,107.57,0,0,0,4.4-15.08c.21-1.36.43-2.73.65-4.11s.21-2.83.32-4.25a42.83,42.83,0,0,0-.15-4.37c-.11-1.4-.32-2.79-.42-4.14a81.6,81.6,0,0,1,.35-16.74,64.62,64.62,0,0,1,4.11-16.18,50.19,50.19,0,0,1,8.36-13.74A44.45,44.45,0,0,1,287.47,202a50.9,50.9,0,0,1,12.69-5c2-.63,4.07-.9,6-1.31s3.75-.52,5.47-.73l4.86-.33,4.14-.06c2.5-.09,4.46.11,5.8.12l2.06.08-2-.19c-1.34-.07-3.3-.39-5.81-.42l-4.15-.11-4.91.13c-1.74.14-3.61.29-5.56.5s-4,.53-6.12,1.08a52.17,52.17,0,0,0-13.19,4.74A46,46,0,0,0,274.13,210a49.52,49.52,0,0,0-9.06,14.21A66.85,66.85,0,0,0,260.52,241a84.09,84.09,0,0,0-.64,17.35c.12,1.42.25,2.83.37,4.24s.23,2.62.13,3.95-.1,2.64-.29,4-.41,2.61-.62,3.9A103.7,103.7,0,0,1,255.21,289c-1.68,4.57-3.42,8.84-5.15,12.74s-3.44,7.43-5,10.55c-.17.34-.32.66-.49,1A293.09,293.09,0,0,0,225,342.93c1.1-2.66,2.19-5.33,3.27-8.05,4.8-12.21,9.57-24.95,12.95-38.4.81-3.37,1.53-6.79,2-10.28a43.66,43.66,0,0,0,.38-10.68,84.17,84.17,0,0,0-2.19-10.41c-.85-3.38-1.65-6.75-2.25-10.13a60.78,60.78,0,0,1-.51-20.25,48.54,48.54,0,0,1,6.93-18.58,67,67,0,0,1,12.92-15c1.23-1.1,2.47-2.18,3.77-3.17s2.57-2,3.91-3l2-1.42a17.91,17.91,0,0,1,1.91-1.13c1.41-.75,2.84-1.48,4.29-2.15A105.66,105.66,0,0,1,310,180.93a96.29,96.29,0,0,1,32.88,3,98.61,98.61,0,0,1,25.77,11.22,126.55,126.55,0,0,1,17.62,13c4.57,4,7.92,7.47,10.2,9.81l3.43,3.68-3.14-3.93a133.68,133.68,0,0,0-9.64-10.48,115.37,115.37,0,0,0-17.18-14.07,101.3,101.3,0,0,0-26.12-12.45,93.7,93.7,0,0,0-34.13-3.89,106.72,106.72,0,0,0-37.17,9.51c-1.53.71-3,1.45-4.54,2.27a21.25,21.25,0,0,0-2.34,1.42l-2,1.51c-1.38,1-2.71,2-4,3.13s-2.63,2.2-3.91,3.36A71.43,71.43,0,0,0,242.08,214a52.44,52.44,0,0,0-7.24,20.17,61.72,61.72,0,0,0,1.22,21.4c.75,3.47,1.7,6.88,2.67,10.24a75.93,75.93,0,0,1,2.47,10,41.21,41.21,0,0,1-.3,10.09c-.45,3.38-1.13,6.74-1.91,10.06-3.18,13.29-7.78,26.05-12.42,38.28q-4.14,10.71-8.39,20.83c-4.87,9-9.43,18.21-13.75,27.49.22-.91.43-1.83.63-2.78.46-2,.9-4.08,1.3-6.22s.79-4.35,1.13-6.61.68-4.58,1-6.94c.58-4.72,1-9.61,1.35-14.58s.57-10,.65-15.07c.22-10.1,0-20.18-.07-29.58,0-4.71-.06-9.25.07-13.55s.38-8.34.78-12.06a66.87,66.87,0,0,1,1.73-10,44.28,44.28,0,0,1,2.57-7.42,32,32,0,0,1,2.4-4.47l1-1.52-1.1,1.43a33.31,33.31,0,0,0-2.8,4.3,44.75,44.75,0,0,0-3.09,7.38,67.88,67.88,0,0,0-2.42,10.1,118.26,118.26,0,0,0-1.39,12.18c-.32,4.34-.51,8.91-.67,13.63-.35,9.44-.45,19.48-.93,29.48s-1.21,20-2.5,29.23c-.3,2.32-.59,4.6-1,6.82s-.71,4.39-1.07,6.5-.71,4.16-1.12,6.13-.74,3.9-1.15,5.72c-1.53,7.33-3.1,13.35-4.17,17.59-.07.24-.13.46-.2.69-3.74,8.74-7.32,17.54-10.83,26.35-1.44,3.54-2.82,7.1-4.22,10.65-1,2.25-1.94,4.37-2.79,6.34-1.49,3.44-2.75,6.45-3.76,9-.08.16-.15.33-.24.49A103.09,103.09,0,0,1,158,479.29a63,63,0,0,1-22.49,16.58A45.84,45.84,0,0,1,108,498.64,49,49,0,0,1,85.56,487c13.36,1.63,27.06,1.63,40.25-1.7a70,70,0,0,0,19.89-8.49,65,65,0,0,0,16.13-14.44c9.13-11.34,14.52-25.14,17.73-39.12a195.38,195.38,0,0,0,4.38-42.77,369.42,369.42,0,0,0-2.7-42.86,162.06,162.06,0,0,1,.15-42.38,179.15,179.15,0,0,1,10.69-41,182.85,182.85,0,0,1,19.84-37.47,163.09,163.09,0,0,1,28.2-31.54,127.73,127.73,0,0,1,35.92-22,100.06,100.06,0,0,1,62-4.34,112.75,112.75,0,0,1,19.82,7.08c12.78,5.89,24.69,13.88,34,24.42a84.06,84.06,0,0,1,18.89,37.1c3.18,13.72,3.34,28.06,1.53,42.08a163.33,163.33,0,0,1-7.71,33.13l.36-2.8c.34-3,.65-6.59.78-10.77a106.54,106.54,0,0,0-.61-14.05,88.81,88.81,0,0,0-3.43-16.36,79.13,79.13,0,0,0-7.75-17.07A73.68,73.68,0,0,0,381,226.21a78,78,0,0,0-17.14-11.57,91.64,91.64,0,0,0-19.32-7c-1.67-.36-3.26-.79-5-1.09s-3.21-.62-4.91-.81a65,65,0,0,0-9.88-.65,47.9,47.9,0,0,0-18.35,3.66,39.29,39.29,0,0,0-7.56,4.34,40,40,0,0,0-5.94,5.54,43.63,43.63,0,0,0-7.21,12,54.38,54.38,0,0,0-3,10.35,47.52,47.52,0,0,0-.72,6.86c-.06,1.59,0,2.44,0,2.44s0-.85.2-2.43a50,50,0,0,1,1.15-6.75,52.14,52.14,0,0,1,3.42-10,42.82,42.82,0,0,1,7.53-11.27,38,38,0,0,1,5.8-5,37.31,37.31,0,0,1,7.25-3.84,45.31,45.31,0,0,1,17.42-2.85c1.54.09,3.1.1,4.67.3l2.36.23,2.34.36c1.54.19,3.17.58,4.79.89s3.15.77,4.73,1.15a93.91,93.91,0,0,1,18.45,7.08,73.87,73.87,0,0,1,16.11,11.17,69.57,69.57,0,0,1,12.11,14.56,82,82,0,0,1,11.2,31.69,115.48,115.48,0,0,1,1.14,13.59c.1,4.07,0,7.64-.17,10.56s-.38,5.22-.55,6.81c-.11,1.11-.19,1.84-.22,2.18-2.51-3.28-5.19-6.43-8-9.53a121.09,121.09,0,0,0-10.33-10.31,142.18,142.18,0,0,0-11.41-9.29,106.1,106.1,0,0,0-12.7-7.72,77.31,77.31,0,0,0-28.83-8.46,70.65,70.65,0,0,0-23,1.93,1.94,1.94,0,0,1,.05-.2l.63-2.5c.3-.91.62-1.89,1-2.95s.86-2.1,1.31-3.26,1.14-2.24,1.75-3.45a32.81,32.81,0,0,1,5.22-6.81l.8-.83c.29-.25.6-.48.9-.73.61-.48,1.2-1,1.85-1.47a28.81,28.81,0,0,1,4.26-2.38,13.3,13.3,0,0,1,2.34-.94c.81-.25,1.62-.54,2.46-.77a34.4,34.4,0,0,1,5.25-.79,45,45,0,0,1,11,.59L352,240c1.77.57,3.58,1,5.32,1.66a48.22,48.22,0,0,1,9.79,4.83,41.41,41.41,0,0,1,4.2,3.1c.68.53,1.24,1.16,1.86,1.73a19.33,19.33,0,0,1,1.73,1.78c.53.62,1.06,1.23,1.57,1.84s.93,1.28,1.39,1.9a44,44,0,0,1,2.39,3.79,56.66,56.66,0,0,1,3.25,7.18c.83,2.21,1.43,4.19,1.9,5.82s.82,2.93,1,3.81l.35,1.36s-.09-.48-.27-1.38-.44-2.2-.8-3.87-.86-3.68-1.56-6a57.79,57.79,0,0,0-2.87-7.49,45.3,45.3,0,0,0-2.22-4.05c-.44-.67-.84-1.39-1.32-2.06l-1.53-2a19.55,19.55,0,0,0-1.69-2c-.61-.63-1.17-1.34-1.84-1.93a40.56,40.56,0,0,0-4.23-3.53,50.54,50.54,0,0,0-10-5.72c-1.81-.78-3.73-1.4-5.61-2.12l-5.61-1.59a48.83,48.83,0,0,0-12.1-1.4,39.18,39.18,0,0,0-6,.55c-1,.2-2,.48-2.93.72a17.19,17.19,0,0,0-2.84.94,32.82,32.82,0,0,0-5.26,2.56c-.82.5-1.56,1.08-2.33,1.62-.38.27-.77.53-1.14.82l-1,.92a39.3,39.3,0,0,0-6.69,7.7c-.79,1.35-1.61,2.63-2.27,3.89s-1.24,2.49-1.73,3.65-.9,2.28-1.3,3.29-.65,2-.93,2.93c-.6,1.82-.79,3-1.05,3.93-.05.21-.1.39-.14.55A96.48,96.48,0,0,0,274.53,282,151.44,151.44,0,0,0,253.33,302.45ZM437.58,252c.24,2.54.49,5.25.74,8,.31,3.1.65,6.18,1,9-.27,1.35-.57,2.71-.89,4.06a238,238,0,0,1-10.15,30.68c-.23-1.14-.44-2.33-.63-3.58s-.46-2.75-.7-4.2-.39-3-.59-4.51c-.44-3.1-.76-6.38-1.06-9.77s-.53-6.92-.77-10.49-.34-7.21-.51-10.84-.26-7.27-.3-10.85-.09-7.11,0-10.52.13-6.7.18-9.82c.11-2.83.18-5.5.31-8,3.59,7,7.41,13.68,11,20.32.61,1.16,1.23,2.32,1.82,3.47v.09C437.17,247.09,437.37,249.46,437.58,252Zm-.5-6.9.18.35c.7,1.37,1.26,2.49,1.91,3.92l.48,1,.25.65a15,15,0,0,1,.42,1.58,22.28,22.28,0,0,1,.37,3.7,52.55,52.55,0,0,1-.83,9.59c-.36-1.95-.7-4-1-6C438,254.56,437.43,249.17,437.08,245.11Zm-9.53,60.44c-.11.29-.23.58-.35.87-4.32,10.68-9,21.09-13.95,31.18l-.34-2.72c-.1-1.24-.21-2.55-.32-3.9s-.21-2.78-.32-4.25-.12-3-.19-4.54c-.15-3.13-.14-6.42-.16-9.84s.14-6.93.21-10.51.3-7.21.45-10.84.38-7.27.66-10.84c0-.6.09-1.19.14-1.79.56-2.82,1.06-5.64,1.48-8.49s.66-5.58.88-8.39c.21-.79.44-1.58.64-2.37.52-2,1-4,1.48-6,1-4,1.82-8.07,2.61-12.14.4-2,.8-4.06,1.14-6.1s.73-4.07,1-6.11c.07-.48.15-1,.23-1.43,0,3.68.06,7.59.18,11.7.1,3.41.21,6.93.32,10.52s.28,7.21.43,10.85.43,7.26.64,10.84.54,7.08.8,10.48.58,6.68.85,9.8.56,6.06.87,8.77c.15,1.36.28,2.67.41,3.91C427.44,304.65,427.49,305.08,427.55,305.55Zm-52.42-.11-3.61,8-76.76-34.77a76.92,76.92,0,0,1,8.51-3.68,63,63,0,0,1,26.6-3.64,77.26,77.26,0,0,1,26.21,7.22,104.1,104.1,0,0,1,12.24,6.61A134.87,134.87,0,0,1,380,293c2.13,1.59,4.2,3.26,6.27,4.95A12.75,12.75,0,0,0,375.13,305.44Zm-88.76-22c.74-.49,1.49-1,2.25-1.42l80.57,36.49-.92,2Zm83,52.36-1.43-.66c-1.38-.62-1-4.35.74-8.28l7-15.45c1.78-3.94,4.36-6.65,5.74-6l1.43.65C385.52,307.3,372.64,337.33,369.33,335.84ZM402,308.92l.24,0c0,.06,0,.12-.07.19S402,309,402,308.92Zm1.91.71a160.13,160.13,0,0,0,8.94-28.49c-.2,3.26-.33,6.55-.48,9.85-.11,3.63-.22,7.27-.33,10.85s-.14,7.1-.09,10.52,0,6.7,0,9.83.05,6.08.1,8.82.1,5.23.19,7.46c0,.4,0,.78,0,1.16-2.27,4.6-4.58,9.15-7,13.53-.66,1.19-1.34,2.43-2,3.49l-1,1.6-.18.25A409.6,409.6,0,0,1,403.88,309.63Zm-3.5,50.85h.21a27.62,27.62,0,0,1-3.43,3.57c-.07-.48-.15-1-.24-1.68-.1-1.08-.23-2.41-.38-3.93s-.16-3.26-.26-5.15,0-3.95,0-6.12.08-4.47.24-6.83c.11-2.21.27-4.49.47-6.81a67.26,67.26,0,0,0,4.15-11.42A383,383,0,0,0,400.38,360.48Zm-13.76-12.37c-.08.7-.16,1.43-.24,2.11-.49,4.14-.93,8-1.25,11.33-.45,4.07-.8,7.29-1,9.19l-1.62.57-1.49.56c0-.35-.09-.73-.13-1.17-.12-1-.15-2.16-.25-3.53s-.07-2.92-.07-4.61c0-3.39.23-7.34.67-11.55a.88.88,0,0,1,0-.17h-.05a.77.77,0,0,0,0,.15c-.48,4.22-.92,8.15-1.31,11.52-.14,1.69-.39,3.23-.47,4.62s-.25,2.6-.35,3.6-.13,1.58-.18,2.1c-.41.25-.78.49-1.1.73a25.86,25.86,0,0,0-3.46,3.33c-1.68,1.9-3.14,3.8-4.56,5.7-.09-.79-.16-1.65-.24-2.65-.11-1.29-.15-2.77-.18-4.38s0-3.35.07-5.19.21-3.79.37-5.79c.37-4,.86-8.28,1.51-12.52.2-1.32.43-2.62.66-3.93l4.83,2.18C380,351.78,383.39,350.72,386.62,348.11Zm5.21-5.68c-.22,2.07-.43,4.12-.63,6.09-.45,4.13-.87,8-1.18,11.3s-.64,6.06-.84,8l-.13,1.09c-1.07.45-2.18.86-3.34,1.28,0-2,.11-4.91.27-8.57.16-3.32.42-7.2.71-11.36.07-.78.14-1.58.22-2.38A30.26,30.26,0,0,0,391.83,342.43Zm-1.21,25.79c0-2,.09-4.83.23-8.35.14-3.31.36-7.18.62-11.32.17-2.08.36-4.23.55-6.41a55.3,55.3,0,0,0,4.93-8.58c-.2,2.29-.39,4.56-.55,6.76-.38,4.73-.68,9.15-.93,12.94s-.39,7-.46,9.24c0,1.66,0,2.78,0,3.25A29.31,29.31,0,0,1,390.62,368.22Zm-25.81-25.45.18.26h0Zm4.23,4c.35.2.71.39,1.09.56l1.57.72c-.18,1.34-.38,2.67-.54,4-.28,2.13-.55,4.26-.77,6.36s-.4,4.17-.64,6.17c-.38,4-.74,7.76-1,11-.11,1.61-.32,3.08-.39,4.4s-.2,2.48-.28,3.43c0,.72-.08,1.29-.12,1.76-2.88,4-5.6,8-8.2,12-.12-.88-.22-1.9-.32-3.09s-.13-2.77-.19-4.38a103,103,0,0,1,.55-11c.41-4,.85-8.28,1.55-12.51.31-2.13.69-4.24,1.05-6.32.2-1,.41-1.95.62-2.93Q366.09,351.88,369,346.75Zm-13.46,21.52c2.3-3.32,4.5-6.7,6.63-10.11-.08.56-.17,1.08-.25,1.64-.28,2.09-.62,4.21-.87,6.35s-.51,4.26-.74,6.36-.42,4.17-.62,6.18c-.34,4-.65,7.75-.93,11s-.54,5.93-.71,7.82c-.1,1.24-.19,2.09-.25,2.55-2,3.08-4,6.14-5.91,9.14q-1.81,2.81-3.61,5.57c-.21-1.61-.42-3.82-.5-6.51-.05-2.84,0-6.17.26-9.71s.7-7.32,1.17-11.08,1.13-7.51,1.85-11c.18-.93.37-1.84.56-2.74C353,371.92,354.31,370.1,355.58,368.27ZM315,447.37c-.18-1.61-.37-3.91-.44-6.72s0-6.06.17-9.56.54-7.22,1-10.94c.25-1.85.5-3.7.79-5.52s.62-3.6.92-5.32c.67-3.44,1.4-6.63,2.16-9.32.47-1.77.94-3.29,1.37-4.58a14.52,14.52,0,0,0,4.15.12,18.51,18.51,0,0,0,4.42-1.18l0,0c-.1.65-.2,1.33-.31,2-.42,2.73-.87,5.9-1.32,9.3s-.91,7-1.33,10.66-.82,7.27-1.16,10.68-.64,6.62-.91,9.35-.4,5.06-.51,6.69c0,.28,0,.52,0,.76a57.52,57.52,0,0,1-7.43,3.84c-.47.2-.94.38-1.41.56C315,448,315,447.68,315,447.37ZM312.87,449c-1.63.57-3.26,1.08-4.89,1.49,2-32.45,6.21-48.62,8-55.61l.33-1.29a14.07,14.07,0,0,0,2.91,1.36c-.05.32-.1.63-.17,1-.18,1.14-.39,2.41-.61,3.8-.44,2.79-.91,6-1.41,9.5s-1,7.18-1.42,10.89c-.93,7.42-1.71,14.86-2.2,20.47-.23,2.8-.4,5.17-.49,6.84C312.92,448.11,312.89,448.62,312.87,449Zm12.56-12.65c-.06-2.74-.05-5.94.15-9.36s.51-7.07,1-10.69,1.05-7.24,1.66-10.61,1.36-6.48,2.08-9.12c.3-1.12.59-2.13.88-3.06a33.35,33.35,0,0,0,5.22-3.36c1.38-1.08,2.65-2.22,3.88-3.38-.37,2.47-.73,5.27-1.13,8.26-.21,1.67-.42,3.39-.63,5.14s-.4,3.52-.59,5.29-.37,3.56-.55,5.31-.33,3.47-.48,5.14c-.31,3.34-.61,6.46-.86,9.13-.37,4.51-.63,7.73-.71,8.68a42,42,0,0,1-9.46,8.77C325.69,441,325.51,438.91,325.43,436.39Zm11.41-11.29c0-1.33-.07-2.79,0-4.32s.07-3.16.18-4.83c.19-3.34.56-6.89,1-10.44s1-7.07,1.63-10.36,1.31-6.33,2-8.92c.09-.34.18-.64.26-1,1.78-1.79,3.44-3.66,5-5.55,1.31-1.57,2.58-3.17,3.81-4.78-.07.47-.14.93-.21,1.41-.46,3.54-1,7.3-1.37,11.07-.88,7.55-1.45,15.11-2,20.79s-.82,9.55-.82,9.55h0c-3,4.62-6,9.09-9,13.3C337.12,429.56,337,427.54,336.84,425.1Zm-22-32.61q-.21.84-.51,2c-1.84,7.09-6.08,23.5-8.11,56.47l-.87.2-.41.07c2-33.82,6.3-50.49,8.15-57.63.22-.83.4-1.53.55-2.14C314,391.81,314.4,392.15,314.81,392.49Zm-2.65-2.69c-.13.74-.41,1.83-.8,3.34-1.88,7.22-6.26,24.1-8.24,58.37l-1.41.18c0-.38-.1-.82-.16-1.33-.11-.93-.15-2-.25-3.34s-.12-2.77-.16-4.37c0-3.22.07-7,.36-11s.73-8.28,1.35-12.53c.29-2.13.66-4.24,1-6.33s.79-4.11,1.21-6.08.89-3.85,1.38-5.63,1-3.44,1.46-5,1.05-2.88,1.5-4.09,1-2.2,1.36-3a5.81,5.81,0,0,1,.32-.57ZM308,385a17.37,17.37,0,0,1,1.52,1.58c-.18.45-.39,1-.64,1.66-.28.92-.69,2-1,3.31s-.72,2.73-1.05,4.31-.71,3.3-1.06,5.12-.67,3.74-1,5.71-.66,4.05-1,6.14-.66,4.2-.92,6.34-.55,4.25-.83,6.35-.5,4.16-.74,6.16-.42,3.94-.62,5.78-.34,3.58-.49,5.19-.29,3.08-.37,4.41-.19,2.49-.21,3.43c0,.55,0,1-.05,1.42-.48,0-.95,0-1.42,0,2.27-38.79,7.23-58,9.37-66.3.09-.32.16-.61.24-.91Zm-1.81-1.54c-.14.52-.28,1.08-.45,1.73-2.15,8.35-7.14,27.68-9.42,66.63a10.66,10.66,0,0,1-1.28-.19c2.27-39,7.24-58.31,9.39-66.64.23-.88.43-1.64.59-2.3A13.77,13.77,0,0,1,306.2,383.42Zm36.42,99.14,3.16-3.28,4.85-5.55c1.82-2,3.57-4.31,5.48-6.7s3.8-5,5.76-7.71,3.79-5.63,5.75-8.51,3.75-6,5.49-9c3.59-6.09,6.9-12.31,10.19-18,1.62-2.86,3.29-5.55,4.92-8.07l2.46-3.61,2.51-3.22a31.71,31.71,0,0,1,2.47-2.82c.83-.86,1.56-1.73,2.35-2.45,1.63-1.37,3-2.67,4.21-3.57l4-2.74-4.15,2.5c-1.31.82-2.73,2.05-4.47,3.33-.84.68-1.63,1.51-2.53,2.33a32.6,32.6,0,0,0-2.68,2.7l-2.75,3.11-2.73,3.5c-1.8,2.45-3.67,5.07-5.47,7.85-3.66,5.51-7.35,11.5-11.27,17.29-1.91,2.94-4,5.75-5.95,8.56s-4,5.48-6.14,8-4,5-6.07,7.16-3.84,4.35-5.69,6.14l-4.95,5-4.09,3.76-1.09,1-4.64-2.18,2-1.74c1.44-1.24,3-2.81,4.77-4.43s3.64-3.4,5.52-5.37,3.94-4,5.9-6.2l3-3.35,3-3.55c2-2.36,3.91-4.92,5.84-7.42s3.71-5.11,5.39-7.72,3.33-5.17,4.89-7.67l4.35-7.26c1.39-2.3,2.68-4.49,4-6.44s2.48-3.73,3.57-5.28,2.2-2.8,3-3.88l2.91-3.16-3.13,3c-.92,1-2.09,2.22-3.32,3.68s-2.59,3.15-4,5.06-2.87,4-4.42,6.18L370,428.65c-1.71,2.37-3.46,4.83-5.35,7.24s-3.84,4.81-5.82,7.2-4.05,4.67-6.2,6.84c-1.06,1.09-2.1,2.18-3.14,3.26l-3.18,3.06c-2.05,2-4.18,3.87-6.16,5.63s-3.9,3.38-5.7,4.82-3.37,2.81-4.91,3.95l-3.94,3-.8.6c-2.63-1.19-5.28-2.36-8-3.48-1.09-.47-2.21-.92-3.35-1.36s-2.76-1-3.77-1.28l-.42-.12-.21-.06a2.63,2.63,0,0,0-.59-.1c-.53-.07-1.07-.12-1.6-.14a12.19,12.19,0,0,0-2.72.36,23.64,23.64,0,0,0-4,1.41,40.55,40.55,0,0,1-5.92,2.25,15.92,15.92,0,0,1-5.43.48l-1.36-.19c-.45-.07-.83-.21-1.25-.29l-.62-.14-.81-.29-1.64-.59a5.59,5.59,0,0,1-2.21-2.73c-1.44-3.18-2-7.66-2.1-12a110.59,110.59,0,0,1,.52-13.43,218.62,218.62,0,0,1,4.39-27l.79-3.31.4-1.6.46-1.63c.62-2.19,1.29-4.34,2-6.47a75.4,75.4,0,0,1,5.22-12.12,32.05,32.05,0,0,1,3.45-5.08,11.47,11.47,0,0,1,3.91-3.18,5,5,0,0,1,3.4-.19c-.17.72-.38,1.56-.65,2.58-2.15,8.34-7.13,27.65-9.41,66.55l-.12-.07a3.84,3.84,0,0,1-.86-1.49,19.85,19.85,0,0,1-.91-4.72,73.53,73.53,0,0,1-.1-9.83,175.29,175.29,0,0,1,1.84-17.56A245.38,245.38,0,0,1,298.12,393c1.44-5.56,2.48-8.46,2.48-8.46s-1.25,2.81-3.12,8.27A209.32,209.32,0,0,0,291,417c-1.11,5.29-2.21,11.17-2.93,17.7a69.32,69.32,0,0,0-.45,10.35,23.09,23.09,0,0,0,.87,5.77,7.79,7.79,0,0,0,1.82,3.23,6,6,0,0,0,1.76,1.15,12.42,12.42,0,0,0,1.66.58c4.25,1.09,8.32.76,12.46.2a61.27,61.27,0,0,0,24.37-9.5,46.29,46.29,0,0,0,10.59-9.72c5.88-7.42,11.19-15.4,16.83-23.59s11.37-16.7,17.58-25c1.56-2,3.17-4.07,4.81-5.86a18.44,18.44,0,0,1,2.35-2.22l.31-.2h0l.05,0,.47-.18c.65-.26,1.21-.45,1.77-.64,4.84-1.58,11-3.5,16-7.39a36.38,36.38,0,0,0,6.73-6.62l1.41-1.88,1.28-1.95c.85-1.31,1.52-2.55,2.24-3.82,2.81-5,5.44-10.15,8-15.34,5.18-10.39,10.14-21.09,14.74-32.16a256.53,256.53,0,0,0,11.92-34.59c1.47-6.09,2.78-12.32,2.68-19.23a32,32,0,0,0-.57-5.37,24.47,24.47,0,0,0-.76-2.84c-.2-.5-.36-.94-.59-1.48l-.48-1c-.61-1.34-1.4-3-2.1-4.3s-1.45-2.78-2.18-4.15c-5.93-10.87-12-21.31-16.78-32.28-.3-.67-.57-1.34-.85-2l0-.18-.12,0c-4.3-10.23-7.47-20.84-8.26-31.53a64.58,64.58,0,0,1,.87-17l.44-2.08.1-.51.12-.49.28-1.1,1.11-4.42c.73-2.95,1.57-5.76,2.35-8.64,6.6-23,14.48-45.42,22.57-66.85,4.08-10.7,8.27-21.17,12.61-31.28,2.16-5,4.38-10,6.67-14.84,1.11-2.44,2.35-4.74,3.51-7.1l.91-1.66.88-1.42a20.94,20.94,0,0,1,2-2.6,8.66,8.66,0,0,1,4.44-2.86,5.62,5.62,0,0,1,4.33,1,9.06,9.06,0,0,1,2.14,2.14c-1.44,3.28-4.19,9.57-8,18.4-2.86,6.69-6.3,14.84-10.16,24.22s-8.17,20-12.56,31.68-9,24.44-13.18,38.16c-2.1,6.85-4.09,14-5.77,21.33A125.65,125.65,0,0,0,430,168c-.06,1-.07,2,0,3s0,2,.1,3a26.74,26.74,0,0,0,.3,3.11c.19,1,.41,2,.68,3a94.59,94.59,0,0,0,4,11.48c3.12,7.48,6.68,14.82,10.34,22.16l11.2,22.05c1.85,3.69,3.71,7.43,5.31,11.12l.6,1.44.43,1.28a22.37,22.37,0,0,1,.54,2.8,38.9,38.9,0,0,1,.19,5.93c-.38,8.07-2.12,16.19-4.15,24.14S455,298.33,452.3,306s-5.65,15.23-9,22.45-7,14.21-10.87,21-7.83,13.27-12,19.44c-2.08,3.09-4.21,6.1-6.47,8.9a48.5,48.5,0,0,1-3.52,4c-.31.28-.63.61-.92.85a10.72,10.72,0,0,1-1,.77,23.49,23.49,0,0,1-2.17,1.3c-3.06,1.63-6.37,3.08-9.4,4.94a52.13,52.13,0,0,0-8.42,6.23,85.45,85.45,0,0,0-12.86,14.9c-1.77,2.62-3.49,5.18-5,7.75l-4.56,7.44A150.3,150.3,0,0,1,356.86,439a123,123,0,0,1-18.32,18.59,111.56,111.56,0,0,1-13.83,9.63c-3.36,2-5.23,2.88-5.23,2.88s1.89-.86,5.33-2.7A106,106,0,0,0,339,458.16a123.69,123.69,0,0,0,18.93-18.29,149.09,149.09,0,0,0,9.76-13l4.7-7.4c1.56-2.56,3.29-5,5.05-7.57a83.19,83.19,0,0,1,12.74-14.31,49.39,49.39,0,0,1,8.13-5.84c2.92-1.72,6.11-3.06,9.39-4.74a26.38,26.38,0,0,0,2.46-1.43c.36-.23.77-.58,1.17-.9s.71-.65,1.08-1a49.4,49.4,0,0,0,3.79-4.16c2.39-2.87,4.6-5.9,6.77-9,4.3-6.22,8.33-12.79,12.25-19.58s7.66-13.82,11.1-21.15,6.4-15,9.19-22.69q2.12-5.87,4-11.85c0,.22,0,.44.07.66a19.55,19.55,0,0,0,4.73,9.9,26.48,26.48,0,0,0,8.9,6.62,29.63,29.63,0,0,0,4.58,1.6c-.21.73-.4,1.47-.64,2.19A166.65,166.65,0,0,1,468,338.75c-3.89,8-8.05,15.54-12.17,22.51l-.6-.28-1.14-.48,0,0-1.23-.46a27.39,27.39,0,0,0-3.57-1,26.88,26.88,0,0,0-5.75-.55,22.85,22.85,0,0,0-7.46,1.34,15.79,15.79,0,0,0-7.42,5.52,14.1,14.1,0,0,0-2.44,10.22,18.54,18.54,0,0,0,3.33,8.08l-.6.37a34,34,0,0,0-3.23,2.11l-7.51,5.47-4,3.46a53,53,0,0,0-4.22,3.82l-4.22,4.3c-1.47,1.45-2.7,3.17-4.1,4.78l-2.06,2.5-1.92,2.67c-1.24,1.81-2.65,3.56-3.78,5.5s-2.42,3.81-3.58,5.76L387,430.08a22,22,0,0,0-3.06.85,15.72,15.72,0,0,0-7.42,5.52A14.14,14.14,0,0,0,374,446.66a16.75,16.75,0,0,0,1.19,4.23c-.49.79-1,1.57-1.48,2.32-1.15,1.75-2.22,3.5-3.36,5.15l-3.46,4.74c-1.09,1.57-2.29,3-3.44,4.34l-3.33,4c-2.2,2.46-4.35,4.55-6.18,6.48l-1.34,1.39-1.38,1.24-2.44,2.19c-.8.7-1.49,1.32-2.09,1.86ZM470.84,283.87a16.44,16.44,0,0,1,6.1-1.13,19.15,19.15,0,0,1,4.85.57,22.66,22.66,0,0,1,3,.95l1,.42,1.06.52a20.7,20.7,0,0,1,2.63,1.65,17.57,17.57,0,0,1,3.43,3.32,16,16,0,0,1,2.79,5.15,11,11,0,0,1,.13,6.15,9.19,9.19,0,0,1-4.05,5.22,15.7,15.7,0,0,1-7.68,2.24,21.67,21.67,0,0,1-8.65-1.47,21,21,0,0,1-7.54-4.88,14.4,14.4,0,0,1-4-7.3,9.51,9.51,0,0,1,1.43-7.2A11.76,11.76,0,0,1,470.84,283.87Zm-85.55,150.7a16.29,16.29,0,0,1,6.11-1.13,19.21,19.21,0,0,1,4.85.57,24.3,24.3,0,0,1,3,.94c.6.26.94.4,1,.42l1.05.53a21.05,21.05,0,0,1,2.64,1.64,18.46,18.46,0,0,1,3.43,3.32,16.14,16.14,0,0,1,2.78,5.16,10.87,10.87,0,0,1,.13,6.14,9.2,9.2,0,0,1-4.05,5.23,15.55,15.55,0,0,1-7.68,2.23,22.06,22.06,0,0,1-16.19-6.34,14.45,14.45,0,0,1-4-7.31,9.47,9.47,0,0,1,1.42-7.2A11.79,11.79,0,0,1,385.29,434.57Zm6.07-5-.24,0c.62-1.23,1.25-2.46,1.88-3.69,1-2,2.16-3.88,3.23-5.82s2.31-3.71,3.44-5.55l1.75-2.71c.63-.85,1.27-1.69,1.9-2.53,1.29-1.65,2.41-3.4,3.79-4.88L411,400a53,53,0,0,1,4-4l3.82-3.62,7.18-5.77a34,34,0,0,1,3.11-2.26l.6-.41c.37.51.75,1,1.15,1.48s1,1.06,1.52,1.57c-6,3.86-17.18,11.85-24.67,21.86a234.89,234.89,0,0,0-13.06,20.88A26.33,26.33,0,0,0,391.36,429.58Zm24.75,15.55c2.17-2.84,4.41-5.77,6.64-8.87l3.7-5.07q1.85-2.61,3.72-5.29c2.54-3.57,5.06-7.28,7.62-11.09s5.15-7.72,7.75-11.72c1.84-2.79,3.66-5.66,5.49-8.55a20.63,20.63,0,0,0,10.52-2.75l-1,1.46c-2.38,3.37-5,6.85-7.63,10.48-5.37,7.21-11.16,14.86-17.08,22.41-6.34,8.13-12.78,16.17-18.83,23.58A15.27,15.27,0,0,0,416.11,445.13Zm26.4-44.05c-2.66,3.93-5.29,7.79-7.94,11.5s-5.21,7.39-7.8,10.88l-3.8,5.18-3.78,5c-1.82,2.43-3.65,4.73-5.44,7a21.08,21.08,0,0,0-2.66-3.13,25.73,25.73,0,0,0-3.13-2.58l2-3,7.78-11.9-8.51,11.39L407,434.25l-.61-.39a32.35,32.35,0,0,0-3.06-1.64c9.1-12.06,19.58-26.79,30.62-43.81a26.19,26.19,0,0,0,13.14,5.82C445.59,396.54,444.05,398.84,442.51,401.08Zm8.18-12.57A21.72,21.72,0,0,1,442,387a21.08,21.08,0,0,1-7.53-4.88,14.4,14.4,0,0,1-4-7.3,9.54,9.54,0,0,1,1.42-7.2,11.72,11.72,0,0,1,5.48-4.21,16.21,16.21,0,0,1,6.1-1.13,19.21,19.21,0,0,1,4.85.57,22.43,22.43,0,0,1,3,.95l1,.42,1.06.52a19.59,19.59,0,0,1,2.63,1.65,17.49,17.49,0,0,1,3.43,3.31,16.07,16.07,0,0,1,2.79,5.16,11,11,0,0,1,.13,6.14,9.26,9.26,0,0,1-4.05,5.23A15.7,15.7,0,0,1,450.69,388.51Zm12.52-22.17a27.18,27.18,0,0,0-4.68-3.6c-.29-.18-.57-.34-.85-.49C462,355.38,466.31,348,470.41,340a170.57,170.57,0,0,0,9.52-22.79c.27-.82.5-1.66.75-2.49a26,26,0,0,0,3.53.3,22.4,22.4,0,0,0,5.22-.58c-.7,3.11-1.48,6.22-2.44,9.3A113.71,113.71,0,0,1,474.65,351q-5.13,8.32-10.31,16.56C464,367.11,463.59,366.71,463.21,366.34ZM353.45,487.51l2.27-2.24L357,484l1.37-1.55c1.86-2.16,4.06-4.51,6.25-7.21l3.26-4.3c1.14-1.48,2.31-3,3.36-4.69l3.34-5.08c1.1-1.76,2.12-3.62,3.21-5.47l.09-.16c.27.36.56.71.85,1.06s.48.49.72.74c-3.42,6.42-5.68,10.77-5.68,10.77,1.57-1.59,4.26-4.54,7.85-8.72a27.25,27.25,0,0,0,3.16,2.28l-.51.56c-1.89,2.05-3.74,4.06-5.61,5.94s-3.67,3.68-5.41,5.37-3.45,3.2-5,4.64-3,2.64-4.31,3.77-2.47,2.06-3.43,2.85l-2.84,2.31A20.34,20.34,0,0,1,353.45,487.51Zm22.47-8c-.66-.08-1.3-.19-2-.25.83-.86,1.68-1.76,2.53-2.71,1.66-1.83,3.43-3.74,5.16-5.8s3.52-4.18,5.3-6.36l.92-1.17A28.72,28.72,0,0,0,393,465l-5.1,5.52c-3,3.24-5.42,5.89-7,7.71l-1.71,2C378.12,480,377.07,479.72,375.92,479.53Zm9.2,2.4.08-.09c1.51-1.8,3.74-4.35,6.7-7.68,2.18-2.45,4.72-5.29,7.52-8.52a22,22,0,0,0,4.91-.63l-1.74,2.07c-4.63,5.5-8.55,10-11.29,13.15l-2.56,2.87C387.55,482.7,386.34,482.31,385.12,481.93Zm31.27,10.61.15-.17c1.55-1.82,3.78-4.47,6.59-7.89,5.62-6.81,13.53-16.64,22.8-28.6s19.85-26.1,30.72-41.6a577.17,577.17,0,0,0,31.83-50,199.78,199.78,0,0,0,12.83-27.34,138.8,138.8,0,0,0,6.51-28.5,135.86,135.86,0,0,0,.59-27.3,137.65,137.65,0,0,0-4.08-24.1,145.28,145.28,0,0,0-6.61-19.56c-2.38-5.67-4.77-10.47-6.87-14.34s-3.92-6.84-5.18-8.83-2-3-2-3,.67,1.06,1.92,3.07,3,5,5.06,8.88,4.37,8.73,6.67,14.41a145.26,145.26,0,0,1,6.32,19.58,136.23,136.23,0,0,1,3.73,24,134.85,134.85,0,0,1-.94,27.05,137.08,137.08,0,0,1-6.81,28.08,198.6,198.6,0,0,1-13,26.88c-10,17.44-21.35,34.07-32.35,49.38s-21.8,29.24-31.17,41.06-17.41,21.51-23.1,28.22c-2.84,3.35-5.1,6-6.64,7.73L412,491.13l-4-1.33,2.53-3.17,12.94-16.32c5.31-6.79,11.49-14.72,18-23.31s13.38-17.79,20.14-27.09c3.39-4.63,6.67-9.35,10-14l9.4-13.7c2.94-4.52,5.87-8.82,8.48-13l3.8-6.11c1.24-2,2.4-3.88,3.45-5.77l3.08-5.36c.48-.86,1-1.69,1.42-2.49l1.23-2.42c1.55-3.14,3.05-5.8,4-8.12l3-7.29s-1.17,2.62-3.2,7.21c-1,2.29-2.6,4.92-4.22,8l-1.28,2.38-1.48,2.45c-1,1.67-2.08,3.44-3.2,5.28s-2.29,3.74-3.58,5.67l-3.93,6c-2.71,4.12-5.74,8.35-8.78,12.78s-6.4,8.87-9.71,13.44-6.77,9.15-10.27,13.69c-7,9.12-14,18.17-20.74,26.56S426.05,461.34,420.59,468l-13.3,16-3.63,4.32-2.72-1,7.59-9.25c6.09-7.41,14.78-18,24.92-31s21.75-28.27,33.41-45.24c5.84-8.48,11.7-17.37,17.32-26.62A322,322,0,0,0,500,346.44c4.67-10,8.89-20.31,10.72-31.26a138.72,138.72,0,0,0-3.61-61.26c-1.34-4.55-2.83-8.93-4.49-13.08s-3.48-8.06-5.41-11.73a133.72,133.72,0,0,0-12-19.1,129.62,129.62,0,0,0-11.41-13.08c-3.42-3.39-6.34-5.79-8.3-7.45L462.38,187l2.94,2.61c1.86,1.77,4.62,4.33,7.8,7.9A137.36,137.36,0,0,1,483.88,211a143.47,143.47,0,0,1,20.71,43.67,135.93,135.93,0,0,1,3,60.07c-1.79,10.36-6,20.53-10.63,30.31a319.46,319.46,0,0,1-15.77,28.41c-5.64,9.14-11.52,17.94-17.37,26.35-11.74,16.78-23.32,32-33.41,45s-18.78,23.49-24.86,30.9L397.06,486l-3.17-1.11c.37-.43.75-.89,1.17-1.4,2.68-3.27,6.46-7.95,10.92-13.62,8.93-11.33,20.6-26.6,31.9-42.14,5.67-7.76,11.21-15.62,16.35-23,2.52-3.73,5-7.3,7.28-10.75.92-1.4,1.81-2.76,2.69-4.08a15,15,0,0,0,4.26-6.59c1.7-2.68,3.28-5.16,4.61-7.42,1.5-2.51,2.87-4.66,3.88-6.51l3.25-5.74-3.44,5.63c-1.07,1.81-2.51,3.91-4.09,6.37-1.11,1.73-2.37,3.6-3.72,5.58a15.37,15.37,0,0,0-1.18-8.35,19.34,19.34,0,0,0-1.6-2.89q5.31-8.81,10.56-17.73a116.84,116.84,0,0,0,12.15-27.94q1.53-5.22,2.59-10.48a19.26,19.26,0,0,0,3.71-1.67A15.28,15.28,0,0,0,502,303.2a14.92,14.92,0,0,0-.84-9.95,20.37,20.37,0,0,0-4.56-6.49,27.2,27.2,0,0,0-2.54-2.15A122.68,122.68,0,0,0,477.82,225a127.42,127.42,0,0,0-8.9-13.32c-1.3-1.81-2.63-3.28-3.71-4.63s-2.07-2.42-2.87-3.3l-2.45-2.71,2.41,2.74c.78.89,1.77,2,2.82,3.35s2.37,2.85,3.63,4.67a124.93,124.93,0,0,1,8.68,13.42,122.21,122.21,0,0,1,15.28,58.38l-.74-.48a32,32,0,0,0-3.34-1.76l-1.14-.48,0,0-1.23-.46c-.23-.09-.5-.18-.8-.27,0-.32,0-.63,0-.95a102.9,102.9,0,0,0-1.54-12.7A91.36,91.36,0,0,0,476,243a176.94,176.94,0,0,0-11.41-20c-4-6.14-7.88-11.82-11.38-17.12s-6.62-10.2-9.17-14.66a72.58,72.58,0,0,1-5.64-12,37.34,37.34,0,0,1-2-8.32c-.15-1-.1-1.74-.15-2.25l0-.78s0,.26,0,.78a19.07,19.07,0,0,0,0,2.27,34.24,34.24,0,0,0,1.53,8.5,74.81,74.81,0,0,0,5.15,12.43c2.34,4.64,5.32,9.68,8.7,15.08s7.11,11.19,10.88,17.4a217.85,217.85,0,0,1,10.93,19.95,87.05,87.05,0,0,1,7.37,22.88,109,109,0,0,1,1.35,12.28,27.39,27.39,0,0,0-5.25-.46,22.9,22.9,0,0,0-7.46,1.34,16,16,0,0,0-7,4.94c.16-.58.33-1.16.49-1.74,2.08-8.08,4-16.31,4.34-24.89a42.2,42.2,0,0,0-.25-6.53,24.53,24.53,0,0,0-.66-3.31c-.19-.56-.36-1.1-.57-1.67l-.61-1.44c-1.72-3.93-3.59-7.61-5.47-11.33q-5.69-11.06-11.31-22c-3.68-7.29-7.26-14.57-10.36-21.89a92.56,92.56,0,0,1-3.95-11,23.32,23.32,0,0,1-.91-5.52c-.08-1-.12-2-.11-2.88s0-1.88,0-2.84a95.38,95.38,0,0,1,1.1-11.36c.56-3.75,1.22-7.45,2-11.1,1.56-7.29,3.42-14.37,5.41-21.22,4-13.69,8.38-26.46,12.58-38.19,8.48-23.45,16.09-42.82,21.47-56.34l7.41-18.56A6.82,6.82,0,0,1,484,13a2.93,2.93,0,0,1,.12.44l0,.14-.21.73c-.32,1.07-.73,2.23-1.13,3.36-3.33,9.18-6.95,18.12-10.31,26.67S466,61.16,462.92,69s-5.74,15.35-8.3,22.4c-5.12,14.09-9.23,26.52-12.38,36.85s-5,18.67-5.63,24.48a42.65,42.65,0,0,0-.29,6.66,16.72,16.72,0,0,0,.17,1.7c.05.38.08.57.08.57a41.07,41.07,0,0,1,1-5.51l3,1c1.05.42,2.25,1,3.68,1.57s3.06,1.5,4.81,2.42,3.64,2,5.57,3.22l3,1.86,3.06,2.07c2.1,1.37,4.16,3,6.31,4.49s4.25,3.22,6.3,5,4.12,3.45,6.1,5.22,3.86,3.57,5.71,5.29,3.54,3.49,5.09,5.21,3.07,3.31,4.35,4.88,2.5,3,3.48,4.29,1.89,2.44,2.53,3.43l2.08,3.09L500.82,206c-.57-1-1.39-2.22-2.31-3.6s-2-2.92-3.2-4.55-2.59-3.37-4.05-5.19-3.13-3.65-4.79-5.59-3.5-3.84-5.41-5.72-3.82-3.84-5.82-5.68-4.06-3.66-6.06-5.46-4.07-3.46-6.13-5l-3-2.32-3-2.12c-1.9-1.41-3.83-2.57-5.55-3.73s-3.42-2-4.92-2.88-2.95-1.52-4.06-2l-3.43-1.45c.68-2.24,1.51-4.8,2.46-7.67l1.25.55c1.15.47,2.42,1.11,3.9,1.83l2.36,1.16,2.6,1.41c1.82,1,3.74,2.1,5.77,3.31s4.12,2.59,6.29,4,4.36,2.95,6.54,4.59,4.38,3.31,6.57,5,4.32,3.48,6.37,5.3,4.08,3.58,6,5.34c3.82,3.54,7.29,7,10.17,10s5.22,5.61,6.83,7.44l1.34,1.54c.58.72,1.16,1.43,1.73,2.17a145,145,0,0,1,16.38,26,136.32,136.32,0,0,1,11,32.34,139.28,139.28,0,0,1,2.5,36.39,156.57,156.57,0,0,1-7,37,186.87,186.87,0,0,1-6.64,17.7c-2.54,5.85-5.35,11.36-8.31,16.89-6,10.95-12.51,21.38-19.16,31.27-13.29,19.77-26.91,37.41-38.81,52.32s-22.28,27-29.58,35.38L419.5,493.51C418.47,493.2,417.43,492.86,416.39,492.54Zm22.17,3.68h0s0,0-.07,0a2.71,2.71,0,0,1-.6.21,9.46,9.46,0,0,1-2.24.22c1.6-1.76,3.58-4,5.9-6.66,6.3-7.29,15.11-17.83,25.28-30.79s21.8-28.26,33.68-45.09c5.92-8.43,11.92-17.23,17.74-26.36a322.4,322.4,0,0,0,16.48-28.5,138.54,138.54,0,0,0,6.48-15.3c1.85-5.22,3.51-10.44,4.94-15.7a173.83,173.83,0,0,0,5.52-31.46A144.42,144.42,0,0,0,551,267a138.07,138.07,0,0,0-14.52-46.83,155.67,155.67,0,0,0-8.84-14.9c-2.71-4-5-7-6.56-9l-2.45-3.08,2.34,3.17c1.52,2.07,3.67,5.16,6.24,9.2a155,155,0,0,1,8.29,15.11,151.79,151.79,0,0,1,8,20.8,138.53,138.53,0,0,1,5.06,25.81,150.8,150.8,0,0,1,0,29.29,170.81,170.81,0,0,1-6,30.75c-1.49,5.13-3.22,10.24-5.11,15.27A145.61,145.61,0,0,1,531,357.39a319.31,319.31,0,0,1-16.61,27.89c-5.89,9-12,17.65-18,26-12,16.62-23.63,31.81-33.84,44.64s-18.89,23.39-25.13,30.6c-3.11,3.61-5.63,6.4-7.33,8.21-.42.46-.8.86-1.14,1.21-1-.2-2.09-.43-3.14-.68l8.25-9.65c7.2-8.56,17.41-20.85,29.19-36s25.18-33.07,38.28-53.19c6.55-10,13-20.67,18.88-31.85,2.89-5.58,5.75-11.4,8.18-17.24a191.18,191.18,0,0,0,6.5-18.15,159.29,159.29,0,0,0,6.54-37.73,141.16,141.16,0,0,0-3.09-36.91A137.78,137.78,0,0,0,526.92,222a150.68,150.68,0,0,0-26.78-37l-.09-.1c-2.7-3.21-6-6.85-9.6-10.65-1.82-1.89-3.71-3.83-5.7-5.75s-4.05-3.82-6.1-5.74-4.2-3.73-6.35-5.48-4.28-3.45-6.36-5.08-4.17-3.11-6.18-4.47-3.91-2.67-5.73-3.77l-2.59-1.62L449,141c-1.53-.87-2.86-1.64-3.94-2.16l-1.76-.9q1.1-3.21,2.36-6.8l2.36,1.15c1.12.53,2.43,1.2,3.89,2s3.14,1.67,4.91,2.76,3.73,2.21,5.72,3.53,4.08,2.73,6.23,4.21,4.3,3.11,6.44,4.81l3.25,2.57,3.21,2.69c2.13,1.8,4.22,3.66,6.26,5.51s4,3.72,5.86,5.57,3.64,3.66,5.34,5.37,3.24,3.39,4.64,4.95c2.85,3.1,5.15,5.75,6.75,7.61l2.5,2.94-2.35-3.07c-1.5-1.94-3.66-4.71-6.35-7.95-1.32-1.65-2.83-3.36-4.39-5.21s-3.27-3.75-5.07-5.67-3.67-3.93-5.61-5.91-4-4-6-5.89l-3.1-2.88L477,147.42c-2.09-1.85-4.23-3.56-6.29-5.23s-4.11-3.23-6.12-4.62-3.87-2.75-5.66-3.91-3.45-2.22-4.94-3.13-2.8-1.69-3.87-2.26l-2.87-1.59q1.06-2.94,2.25-6.09a196.28,196.28,0,0,1,21.94,12.27,186.77,186.77,0,0,1,21.48,16.65,180.25,180.25,0,0,1,18.82,19.66,191.31,191.31,0,0,1,15.9,22.14A207.4,207.4,0,0,1,549.89,241a179.9,179.9,0,0,1,7.73,53.68,134.2,134.2,0,0,1-.91,13.46c-.25,2.22-.66,4.33-1,6.5l-.72,3.42-.36,1.7-.15.73-.23.8a148.21,148.21,0,0,1-9.49,25.29C537,363.16,527.4,379,517.25,394.45S496.19,424.94,485,439.71,462.09,469,450.09,483.1c-3,3.53-6,7-9.08,10.46l-2.3,2.5-.14.15Z"/><path class="cls-1" d="M456.65,381.26l.31-.55a6.08,6.08,0,0,0,.56-1.49,7.5,7.5,0,0,0-.69-5.35,10.9,10.9,0,0,0-2.64-3.35,17.42,17.42,0,0,0-4.38-2.74l-.62-.27h0l-.66-.24a15.14,15.14,0,0,0-1.91-.57,18.35,18.35,0,0,0-3.08-.39,11.85,11.85,0,0,0-4,.53,7.88,7.88,0,0,0-4.07,2.83,6.68,6.68,0,0,0-1.07,5.4,10.46,10.46,0,0,0,2.87,5,16.2,16.2,0,0,0,4.78,3.29,18.32,18.32,0,0,0,5.71,1.58,11.28,11.28,0,0,0,5.94-1,7.88,7.88,0,0,0,2.47-2Zm-8.91,1.64a11.82,11.82,0,0,1-5.17-.78,15,15,0,0,1-2.39-1.27,10.06,10.06,0,0,1-2-1.7,8.67,8.67,0,0,1-2.33-4.38,5.38,5.38,0,0,1,.9-4.24,6.83,6.83,0,0,1,3.23-2.32,11,11,0,0,1,6.33-.2,12.65,12.65,0,0,1,1.72.55l.59.24.59.3a9.85,9.85,0,0,1,1.52,1,10.33,10.33,0,0,1,3.66,4.86,6.19,6.19,0,0,1,.16,3.51,4.31,4.31,0,0,1-.31.8l-.28.54a3.55,3.55,0,0,0-.23.31,6.68,6.68,0,0,1-1.47,1.36A9.27,9.27,0,0,1,447.74,382.9Z"/><path class="cls-1" d="M459.82,382.84c.15-.24.27-.48.4-.72a8.63,8.63,0,0,0,.64-1.65,9.77,9.77,0,0,0-.55-6.31,13.59,13.59,0,0,0-3-4.37,17.94,17.94,0,0,0-3.14-2.55,16.77,16.77,0,0,0-2.27-1.25l-.8-.37h0l-.87-.31a17.61,17.61,0,0,0-2.48-.69,16.57,16.57,0,0,0-4-.36,14.84,14.84,0,0,0-5,1A10.26,10.26,0,0,0,434,368.8a8.44,8.44,0,0,0-1.37,6.41,13.1,13.1,0,0,0,3.23,6.41,18.33,18.33,0,0,0,6.05,4.41,19.76,19.76,0,0,0,7.4,1.66,13.94,13.94,0,0,0,7.22-1.71,10.06,10.06,0,0,0,2.78-2.37Zm-10.53,3.41a18.49,18.49,0,0,1-6.86-1.41,19.06,19.06,0,0,1-6-3.81,12,12,0,0,1-3.53-5.88,7.58,7.58,0,0,1,1.25-6.23,9,9,0,0,1,4.76-3.21,13.65,13.65,0,0,1,4.86-.52,20.46,20.46,0,0,1,3.71.61,17,17,0,0,1,2.28.78l.78.32.78.38a15.21,15.21,0,0,1,2.08,1.19,15.7,15.7,0,0,1,2.85,2.37,12.91,12.91,0,0,1,2.64,3.91,8.27,8.27,0,0,1,.53,5.34,7,7,0,0,1-.5,1.33c-.13.24-.26.49-.4.71l-.42.58a8.67,8.67,0,0,1-2.36,2A13.19,13.19,0,0,1,449.29,386.25Z"/><path class="cls-1" d="M353.08,437.05a148.8,148.8,0,0,0,9.61-12.58c1.59-2.29,3.08-4.77,4.65-7.19s3.14-5,4.88-7.44a91.22,91.22,0,0,1,12.11-14.27,55.54,55.54,0,0,1,7.7-6,75.55,75.55,0,0,1,9-4.74,40.48,40.48,0,0,0,4.81-2.58,25.41,25.41,0,0,0,4.16-3.82,99.11,99.11,0,0,0,6.86-8.63c4.33-6,8.32-12.37,12.21-18.94s7.63-13.4,11.11-20.48,6.53-14.48,9.36-22,5.39-15.2,7.56-23.06a122.44,122.44,0,0,0,4.5-24.24c.14-4.17.15-8.47-1.46-12.76-1.58-3.89-3.41-7.5-5.22-11.14l-11-21.49c-3.6-7.11-7.1-14.2-10.21-21.32-1.56-3.56-3-7.14-4.18-10.73a41.93,41.93,0,0,1-1.44-5.37c-.11-.45-.14-.88-.21-1.32l0-.33c0-.09,0-.06,0-.13v-.18l-.05-.71c-.06-.95-.15-1.92-.14-2.82a109.63,109.63,0,0,1,2.15-21.91c1.32-7.14,3.05-14.07,4.89-20.77,3.71-13.4,7.95-25.88,12-37.34,8.22-22.89,15.63-41.78,20.88-55L475.79,17l-2.34,5.35c-1.52,3.49-3.74,8.61-6.56,15.12S460.74,52,457,61.14s-8,19.51-12.21,30.93-8.68,23.88-12.63,37.31c-1.95,6.73-3.81,13.69-5.25,20.93a104.92,104.92,0,0,0-2.39,22.6c0,1,.08,1.94.13,2.9l.05.71v.18l0,.23.05.38c.07.51.12,1,.23,1.52a43.9,43.9,0,0,0,1.51,5.79c1.22,3.75,2.67,7.41,4.23,11,3.13,7.24,6.62,14.39,10.19,21.55s7.24,14.31,10.88,21.53c1.77,3.6,3.58,7.24,5,10.87,1.27,3.36,1.34,7.38,1.16,11.27a120.88,120.88,0,0,1-4.27,23.52c-2.09,7.74-4.6,15.35-7.35,22.8s-5.71,14.76-9.12,21.74-7.08,13.77-10.89,20.32-7.79,12.85-11.93,18.81a98.26,98.26,0,0,1-6.52,8.47,22.91,22.91,0,0,1-3.62,3.45,39.35,39.35,0,0,1-4.42,2.45,77.79,77.79,0,0,0-9.18,5,58.88,58.88,0,0,0-7.95,6.4,94,94,0,0,0-12.2,14.82c-1.76,2.55-3.3,5.09-4.81,7.58s-3,4.91-4.48,7.23a147,147,0,0,1-9.2,12.68,122.21,122.21,0,0,1-18,18,111.71,111.71,0,0,1-13.53,9.33c-3.29,1.9-5.11,2.8-5.11,2.8s1.84-.83,5.21-2.62a104.38,104.38,0,0,0,13.86-9A122.62,122.62,0,0,0,353.08,437.05Z"/><path class="cls-1" d="M481,361.07a2.06,2.06,0,1,0-1-2.72A2.06,2.06,0,0,0,481,361.07Z"/><path class="cls-1" d="M485.27,353.31a1.47,1.47,0,1,0-.73-1.95A1.48,1.48,0,0,0,485.27,353.31Z"/><path class="cls-1" d="M488.4,346.58a1,1,0,1,0-.51-1.37A1,1,0,0,0,488.4,346.58Z"/><path class="cls-1" d="M383.5,195.75a125.17,125.17,0,0,0-15.44-13.23A100.74,100.74,0,0,0,344.71,170a93.5,93.5,0,0,0-30.9-6,102.83,102.83,0,0,0-34.76,5.27,95,95,0,0,0-17.18,7.45l-.59.36-.49.33-1,.66-1.95,1.32L254,182.15c-2.54,1.89-5.06,3.83-7.52,5.87a160.57,160.57,0,0,0-26.67,28,166.81,166.81,0,0,0-19.15,33.52,180.84,180.84,0,0,0-11,35.67,194,194,0,0,0-3.84,34.64,134.18,134.18,0,0,0,.59,16.17q1.08,7.71,2.09,14.86a207.31,207.31,0,0,1,1.75,26A148.9,148.9,0,0,1,188.75,397c-.78,5.54-1.66,9.85-2.27,12.79s-1,4.49-1,4.49.4-1.55,1.17-4.45,1.8-7.19,2.8-12.72a148.72,148.72,0,0,0,2.1-20.16,210.39,210.39,0,0,0-1-26.29c-.27-2.39-.49-4.85-.83-7.33s-.71-5.05-.94-7.53a129.87,129.87,0,0,1-.27-15.86,191.47,191.47,0,0,1,4.41-34,189.51,189.51,0,0,1,11.33-34.79,162.83,162.83,0,0,1,19-32.51,156.87,156.87,0,0,1,26-27.15c2.4-2,4.87-3.85,7.34-5.68l3.77-2.66,1.91-1.28.95-.64.48-.32.39-.23a94.27,94.27,0,0,1,16.3-7.14,104.74,104.74,0,0,1,16.8-4.13,98.29,98.29,0,0,1,16.51-1.32,94.67,94.67,0,0,1,29.86,5,103,103,0,0,1,23.16,11.34A125.58,125.58,0,0,1,382.7,196.6c4.15,3.73,7.19,6.92,9.3,9.05l3.13,3.38-2.88-3.61C390.33,203.11,387.48,199.74,383.5,195.75Z"/><path class="cls-1" d="M269.5,183.06l1.82-1.06-1.92.88c-1.23.61-3.07,1.48-5.28,2.79a87.78,87.78,0,0,0-7.81,5.06,86.65,86.65,0,0,0-9.34,7.71,78.68,78.68,0,0,0-17.76,24.67,66.36,66.36,0,0,0-5,16.63,67.38,67.38,0,0,0-.29,17.95c.12,1.5.43,3,.65,4.47l.73,4.3c.19,1.4.37,2.81.56,4.21s.28,2.83.37,4.25a134.58,134.58,0,0,1,0,16.68A184.72,184.72,0,0,1,221.93,321c-2,8.51-4,15.55-5.67,20.4s-2.68,7.6-2.68,7.6,1.41-2.59,3.42-7.32a175.71,175.71,0,0,0,7.18-20.1,153.74,153.74,0,0,0,5.62-29.75,113.94,113.94,0,0,0,.27-17.18c-.08-1.47-.23-2.94-.35-4.41s-.37-3-.55-4.46l-.72-4.35c-.21-1.41-.53-2.81-.65-4.23a64.76,64.76,0,0,1,4.49-32.79,74.66,74.66,0,0,1,7.41-13.61A91.7,91.7,0,0,1,248.49,200a98.06,98.06,0,0,1,16-13.68C266.62,184.84,268.32,183.77,269.5,183.06Z"/><path class="cls-1" d="M176.47,439.16c-.19.5-.36,1-.58,1.57l-.76,1.61-1.63,3.47-1.71,3.79a43,43,0,0,1-2.13,3.9,71.7,71.7,0,0,1-5,8.13l-2.93,4.1c-1,1.41-2.22,2.6-3.33,3.93-.57.65-1.14,1.31-1.72,2a15.39,15.39,0,0,1-1.82,1.88L151,477.05l-1,.9-1.06.77-2.12,1.55a33.26,33.26,0,0,1-4.32,2.9c-1.5.84-3,1.74-4.44,2.55l-4.56,2a15.61,15.61,0,0,1-2.27.87l-2.27.78-2.22.76-2.23.53c-1.47.3-2.87.8-4.29,1l-4.07.63a69,69,0,0,1-7.21.44c-1.07,0-2.09.06-3,0l-2.56-.18c-1.56-.06-2.77-.34-3.61-.42L98.46,492l1.24.36a25.87,25.87,0,0,0,3.54.86l2.58.46c1,.15,2,.21,3.07.32a24.72,24.72,0,0,0,3.51.17c1.23,0,2.54,0,3.9,0a63.09,63.09,0,0,0,8.72-1.2l2.33-.47,2.33-.71a41.82,41.82,0,0,0,4.77-1.61l4.78-2.09c1.56-.81,3.08-1.74,4.64-2.64a34.25,34.25,0,0,0,4.47-3.05l2.19-1.63,1.1-.81,1-.94,4-3.73a17.35,17.35,0,0,0,1.84-2l1.73-2.06c1.12-1.39,2.38-2.65,3.34-4.12l2.85-4.31a73.91,73.91,0,0,0,4.79-8.5,44.31,44.31,0,0,0,2-4c.54-1.35,1.07-2.65,1.57-3.91l1.4-3.6.65-1.67c.19-.55.33-1.1.48-1.62l1.58-5.44,1.32-4.74-1.74,4.61Z"/><path class="cls-1" d="M382.24,446.18a10.52,10.52,0,0,0,2.88,5,16.59,16.59,0,0,0,4.78,3.29,18.24,18.24,0,0,0,5.7,1.57,11.19,11.19,0,0,0,5.95-1,8,8,0,0,0,2.47-2l.51-.71.32-.55a6.7,6.7,0,0,0,.56-1.49,7.59,7.59,0,0,0-.69-5.36,11.3,11.3,0,0,0-2.64-3.35,17.32,17.32,0,0,0-2.59-1.83,16.87,16.87,0,0,0-1.79-.91l-.62-.26h0l-.66-.25a14.44,14.44,0,0,0-1.91-.56,17.12,17.12,0,0,0-3.07-.39,11.94,11.94,0,0,0-4,.53,7.84,7.84,0,0,0-4.07,2.83A6.75,6.75,0,0,0,382.24,446.18Zm5.61-6.85a10.93,10.93,0,0,1,6.32-.2,12.41,12.41,0,0,1,1.73.55l.59.23.58.31a10,10,0,0,1,1.53.95,10.34,10.34,0,0,1,3.65,4.87,6.1,6.1,0,0,1,.17,3.51,5.15,5.15,0,0,1-.31.8l-.28.54a2.26,2.26,0,0,0-.23.31,6.68,6.68,0,0,1-1.47,1.36,9.45,9.45,0,0,1-4.5,1.46,12.12,12.12,0,0,1-5.17-.78,15.88,15.88,0,0,1-2.39-1.27,10.46,10.46,0,0,1-2-1.71,8.79,8.79,0,0,1-2.33-4.37,5.38,5.38,0,0,1,.91-4.24A6.78,6.78,0,0,1,387.85,439.33Z"/><path class="cls-1" d="M380.48,446.33a13.14,13.14,0,0,0,3.23,6.41,18.21,18.21,0,0,0,6.07,4.42,19.82,19.82,0,0,0,7.38,1.65,14,14,0,0,0,7.21-1.71,10.11,10.11,0,0,0,2.79-2.37l.55-.77c.15-.24.26-.48.4-.72a9.15,9.15,0,0,0,.64-1.66,9.74,9.74,0,0,0-.55-6.3,13.69,13.69,0,0,0-3-4.38,18.31,18.31,0,0,0-3.14-2.54,19.91,19.91,0,0,0-2.27-1.26l-.8-.37h0l-.86-.3a17.82,17.82,0,0,0-2.49-.69,16.48,16.48,0,0,0-4-.36,14.61,14.61,0,0,0-5.05,1,10.33,10.33,0,0,0-4.78,3.57A8.44,8.44,0,0,0,380.48,446.33Zm6.32-9.5a13.47,13.47,0,0,1,4.87-.52,20.19,20.19,0,0,1,3.7.61,17,17,0,0,1,2.29.77l.78.33.78.37a17.08,17.08,0,0,1,2.08,1.19,16.49,16.49,0,0,1,2.85,2.37,13.47,13.47,0,0,1,2.64,3.92,8.24,8.24,0,0,1,.53,5.33,6.52,6.52,0,0,1-.51,1.34c-.13.24-.25.49-.39.71l-.42.57a8.67,8.67,0,0,1-2.36,2,13.21,13.21,0,0,1-6.46,1.54,18.33,18.33,0,0,1-6.88-1.42,18.82,18.82,0,0,1-6-3.8,12.08,12.08,0,0,1-3.54-5.87A7.63,7.63,0,0,1,382,440,9,9,0,0,1,386.8,436.83Z"/><path class="cls-1" d="M467.79,295.48a10.43,10.43,0,0,0,2.88,5,16.18,16.18,0,0,0,4.77,3.28,18.32,18.32,0,0,0,5.71,1.58,11.28,11.28,0,0,0,5.94-1,7.77,7.77,0,0,0,2.47-2l.52-.7.32-.56a7,7,0,0,0,.56-1.49,7.55,7.55,0,0,0-.7-5.35,10.75,10.75,0,0,0-2.64-3.35,16.58,16.58,0,0,0-2.58-1.83,16.86,16.86,0,0,0-1.79-.91l-.62-.27h0l-.66-.24a13.44,13.44,0,0,0-1.91-.56,17.16,17.16,0,0,0-3.07-.4,11.94,11.94,0,0,0-4,.53,7.92,7.92,0,0,0-4.07,2.83A6.68,6.68,0,0,0,467.79,295.48Zm5.61-6.84a10.86,10.86,0,0,1,6.32-.21,12.88,12.88,0,0,1,1.73.55l.58.24.59.3a10.88,10.88,0,0,1,5.18,5.82,6.22,6.22,0,0,1,.17,3.52,6.87,6.87,0,0,1-.31.79l-.29.54a3.55,3.55,0,0,0-.23.31,6.47,6.47,0,0,1-1.47,1.36,9.16,9.16,0,0,1-4.49,1.46,11.8,11.8,0,0,1-5.17-.78,14.6,14.6,0,0,1-2.39-1.27,10.07,10.07,0,0,1-2-1.7,8.67,8.67,0,0,1-2.33-4.38,5.43,5.43,0,0,1,.9-4.24A6.72,6.72,0,0,1,473.4,288.64Z"/><path class="cls-1" d="M466,295.63a13,13,0,0,0,3.22,6.41,18.58,18.58,0,0,0,6.07,4.43,19.71,19.71,0,0,0,7.39,1.64,14,14,0,0,0,7.21-1.7,10.47,10.47,0,0,0,2.79-2.38l.55-.76c.15-.25.26-.49.39-.73a7.81,7.81,0,0,0,.64-1.65,9.77,9.77,0,0,0-.55-6.31,13.59,13.59,0,0,0-3-4.37,17.05,17.05,0,0,0-3.14-2.54,17.76,17.76,0,0,0-2.26-1.26l-.81-.37h0l-.86-.31a17.82,17.82,0,0,0-2.49-.69,17,17,0,0,0-4-.36,15.08,15.08,0,0,0-5,1,10.38,10.38,0,0,0-4.79,3.58A8.4,8.4,0,0,0,466,295.63Zm6.32-9.5a13.88,13.88,0,0,1,4.86-.52,19.41,19.41,0,0,1,3.71.62,16.12,16.12,0,0,1,2.29.77l.77.32.79.38a17.56,17.56,0,0,1,4.93,3.56,13.41,13.41,0,0,1,2.64,3.91,8.27,8.27,0,0,1,.52,5.34,7.39,7.39,0,0,1-.5,1.34l-.39.71-.43.57a8.67,8.67,0,0,1-2.36,2,13.19,13.19,0,0,1-6.46,1.55,18.57,18.57,0,0,1-6.88-1.42,19,19,0,0,1-6-3.8,12,12,0,0,1-3.53-5.88,7.55,7.55,0,0,1,1.25-6.22A8.93,8.93,0,0,1,472.35,286.13Z"/><path class="cls-1" d="M58.6,429c-.4-3-.88-6.24-1.53-9.66s-1.61-7-2.6-10.63c-.51-1.82-1-3.68-1.57-5.55s-1.14-3.74-1.73-5.64c-1.11-3.81-2.49-7.6-3.74-11.44s-2.7-7.6-4.18-11.29-3-7.28-4.53-10.75L36.39,359q-1.22-2.44-2.35-4.79c-1.59-3.08-3.09-6-4.6-8.62-3-5.26-5.67-9.52-7.5-12.52-.91-1.5-1.65-2.67-2.09-3.51l-.7-1.26.62,1.3c.4.86,1.06,2.08,1.89,3.63,1.69,3.09,4.19,7.46,6.92,12.83,1.36,2.68,2.83,5.6,4.3,8.71q1.08,2.35,2.21,4.83t2.19,5.09c1.43,3.48,2.87,7.08,4.25,10.78s2.71,7.49,4.06,11.27,2.54,7.61,3.62,11.41l1.67,5.62c.51,1.87,1,3.72,1.52,5.53s1,3.58,1.49,5.32.85,3.45,1.23,5.13c.73,3.36,1.31,6.56,1.86,9.53,1.06,5.93,2,10.88,2.67,14.34.34,1.72.62,3.08.84,4s.33,1.41.33,1.41l-.58-5.5C59.87,440,59.4,435,58.6,429Z"/><path class="cls-1" d="M63.74,441.94c0-1.78-.1-3.93-.21-6.4s-.31-5.25-.55-8.28c-.53-6.06-1.34-13.11-2.6-20.62-.67-3.73-1.37-7.66-2.44-11.51s-2.14-7.77-3.39-11.63c-.59-1.94-1.21-3.88-1.89-5.78s-1.27-3.83-2-5.69-1.39-3.74-2.12-5.55-1.49-3.6-2.25-5.35L43.93,356l-2.4-4.8c-1.63-3.09-3.23-6-4.79-8.59-3.16-5.2-6.06-9.35-8-12.31-1-1.48-1.72-2.64-2.18-3.48l-.71-1.26.63,1.31c.4.85,1.07,2.08,2,3.62,1.78,3.06,4.46,7.35,7.35,12.67,1.47,2.64,3,5.55,4.49,8.66.73,1.57,1.47,3.18,2.24,4.83l2.18,5.12,2.11,5.34c.71,1.81,1.36,3.67,2,5.53s1.28,3.76,1.93,5.66,1.25,3.82,1.81,5.76c1.2,3.84,2.22,7.74,3.25,11.57s1.79,7.61,2.47,11.34,1.29,7.31,1.8,10.74,1,6.67,1.39,9.67.74,5.76,1,8.2.52,4.58.68,6.34c.31,3.53.49,5.54.49,5.54s0-.5,0-1.45S63.78,443.71,63.74,441.94Z"/><path class="cls-1" d="M21.07,325.47c.75,1.21,1.57,2.26,2.25,3.17s1.31,1.61,1.74,2.11l.7.78s-.18-.34-.51-.91-.8-1.39-1.39-2.35-1.22-2.12-1.92-3.33-1.43-2.52-2.14-3.84-1.4-2.64-2-3.9-1.2-2.44-1.62-3.47-.81-1.9-1-2.52-.31-1-.31-1,0,.1,0,.28a5.76,5.76,0,0,0,.08.76,21.24,21.24,0,0,0,.62,2.69c.17.55.37,1.13.58,1.75s.44,1.26.73,1.92c.54,1.31,1.21,2.68,1.91,4S20.28,324.29,21.07,325.47Z"/><path class="cls-1" d="M17.46,329.73l-2.93-5.28c-1-1.93-2-3.88-2.71-5.38-.35-.75-.64-1.38-.79-1.83s-.26-.72-.26-.72a4,4,0,0,0,.05.77,16.1,16.1,0,0,0,.4,2,29,29,0,0,0,2.31,5.7,32.82,32.82,0,0,0,3.37,5.13,20.13,20.13,0,0,0,1.88,2.07l-.35-.69C18.19,331.07,17.86,330.46,17.46,329.73Z"/><path class="cls-1" d="M27.14,323c.75,1.21,1.57,2.26,2.25,3.17s1.31,1.61,1.74,2.11l.7.78s-.17-.34-.51-.91-.8-1.39-1.39-2.35-1.22-2.11-1.92-3.33-1.43-2.52-2.14-3.84-1.4-2.64-2-3.9-1.2-2.43-1.62-3.47-.81-1.9-1-2.52-.31-1-.31-1,0,.09,0,.27a5.76,5.76,0,0,0,.08.76,21.24,21.24,0,0,0,.62,2.69c.17.55.37,1.13.58,1.75s.44,1.27.73,1.92c.54,1.31,1.21,2.68,1.91,4S26.35,321.83,27.14,323Z"/></g></g></svg>