<svg xmlns="http://www.w3.org/2000/svg" viewBox="0 0 568.28 506.67"><defs><style>.cls-1{fill:#e32313;}</style></defs><title>Asset 1</title><g id="Layer_2" data-name="Layer 2"><g id="_1200" data-name="1200"><path class="cls-1" d="M383.74,380.67Z"/><path class="cls-1" d="M445,504.28l.68-.6.3-.3.15-.16,2.45-2.65c3.17-3.54,6.23-7.08,9.28-10.65q18.27-21.43,35.35-43.78c11.38-14.91,22.43-30.1,32.81-45.8s20.21-31.82,28.36-49a157.09,157.09,0,0,0,10.17-27l.25-.88.22-1,.37-1.71.73-3.44c.37-2.44.84-4.91,1.11-7.33a140.14,140.14,0,0,0,1-14.45,189.72,189.72,0,0,0-8-56.71A217.89,217.89,0,0,0,537,186.55a203,203,0,0,0-16.67-23.32,191.48,191.48,0,0,0-19.8-20.78,197.7,197.7,0,0,0-22.69-17.64A206.42,206.42,0,0,0,454,111.44q3.25-8.32,7.07-17.76c5.64-13.86,12.12-29.46,19.2-46.5,3.49-8.56,7.19-17.37,10.77-26.83.44-1.2.88-2.4,1.3-3.73.1-.34.21-.66.31-1.06.05-.23.09-.29.18-.76l.09-.59,0-.41c0-.27,0,.28,0-.67l0-.39c0-.25-.06-.53-.11-.76a10.42,10.42,0,0,0-.36-1.39,16.14,16.14,0,0,0-6.07-8A13.61,13.61,0,0,0,476,.24a16.64,16.64,0,0,0-8.79,5.18A30.36,30.36,0,0,0,464.31,9c-.41.65-.87,1.35-1.24,2l-1,1.84c-1.22,2.43-2.55,4.87-3.71,7.35q-3.6,7.41-6.95,15.1c-4.5,10.23-8.82,20.77-13.05,31.56C430,88.46,421.82,111,414.87,134.4c-.82,2.95-1.74,5.95-2.49,8.88l-1.16,4.42-.29,1.1-.15.63-.13.59-.52,2.4a74.22,74.22,0,0,0-1.19,19.5c.79,11.07,3.8,21.69,7.78,31.73h-.11l-.51,6.11-.59,6-.69,6c-.17,1.59-.4,3.18-.62,4.76A87,87,0,0,0,395,188.61c-9.57-11-21.86-19.43-35-25.5a115.22,115.22,0,0,0-20.51-7.27,103.82,103.82,0,0,0-64.16,4.67,131.39,131.39,0,0,0-36.83,22.65,166.88,166.88,0,0,0-28.69,32.28,186.88,186.88,0,0,0-20.07,38.2,183.72,183.72,0,0,0-9.94,36.28l-4.9-.86c-1.65-.29-3.08-.47-4.61-.64s-3-.29-4.52-.39q-4.52-.3-9-.22a86.1,86.1,0,0,0-18,2.13,54.93,54.93,0,0,0-16.91,6.84l-.87.59c-.27-.69-.59-1.53-1-2.45l-1-2.11c-.37-.74-.82-1.5-1.25-2.3s-1-1.6-1.46-2.42-1.09-1.63-1.67-2.43-1.22-1.58-1.85-2.34-1.33-1.46-2-2.17-1.34-1.32-2.05-1.88-1.37-1.1-2-1.57a23.44,23.44,0,0,0-3.46-2c-.22-.11-.46-.2-.65-.28s-.37-.15-.57-.22l-.44-.14-.08-.17-1.74.71c-.44-1.3-.89-2.55-1.35-3.76C115.62,238.86,114.24,216,110,202.58c-5.87-18.53-18.58-26.11-22.33-28-11.46-5.75-26.9-4.9-36.71,2a47.86,47.86,0,0,0-13.8,14.76l.1.06-.1-.06c-.28.52-.61,1.08-1,1.7-3.14,5.28-9,15.11-5.8,35.2C32.7,243.05,32.93,248,22.69,262A68.72,68.72,0,0,0,7.16,281.48c-10.59,20.23-9.41,44.66,3.41,70.66C38.16,408,49.7,440.65,49.15,461.22a34.63,34.63,0,0,0,2.29,14.06c6.81,16.8,26.37,18.11,26.61,18.12l1.81.1L84.15,489a51.64,51.64,0,0,0,23.45,13.5,48.92,48.92,0,0,0,29.61-2.12,65.35,65.35,0,0,0,24.42-17.1,107.9,107.9,0,0,0,16.77-24.41l1.67-3.3,1.54-3.35c1.06-2.24,1.95-4.45,2.9-6.68l5.57-13.3c3.71-8.84,7.49-17.64,11.42-26.37a567.86,567.86,0,0,1,25.84-51.06c4.76-8.24,9.85-16.26,15.18-24.08a233.24,233.24,0,0,1,17.23-22.44A146.92,146.92,0,0,1,280,289c1.59-1.23,3.21-2.4,4.86-3.53l83.27,37.71-3.61,8a12.68,12.68,0,0,0-.35,9.59l-.06.11c-4.58,8-9.38,15.93-14.61,23.45-2.61,3.76-5.34,7.41-8.24,10.85a64.26,64.26,0,0,1-9.28,9.24,22.15,22.15,0,0,1-5,3,10.36,10.36,0,0,1-2.32.63,6,6,0,0,1-1.92-.1,5.89,5.89,0,0,1-1.71-.84,9.2,9.2,0,0,1-1.66-1.69l-2.16-2.75c-.92-1-1.78-2.09-2.79-3a20.78,20.78,0,0,0-7.25-4.78,13.5,13.5,0,0,0-9.92.27,19.6,19.6,0,0,0-7,5.41,40.66,40.66,0,0,0-4.44,6.46,83.84,83.84,0,0,0-5.88,13.53c-.79,2.28-1.51,4.58-2.17,6.88l-.49,1.74-.46,1.79-.84,3.49a227.39,227.39,0,0,0-4.63,28.18,118.13,118.13,0,0,0-.59,14.52c.22,4.93.54,10,2.87,15.37a13.49,13.49,0,0,0,7.11,7.25l1.65.6.84.3,1.07.28c.72.18,1.46.4,2.16.51l2.1.3A24.85,24.85,0,0,0,297,481a47.86,47.86,0,0,0,7.17-2.67,17,17,0,0,1,2.58-.94,4.42,4.42,0,0,1,.73-.12.18.18,0,0,0,.14,0s0,0,0,0h.05l.42.12a26.34,26.34,0,0,1,2.84,1c1,.4,2.08.82,3.13,1.27,4.21,1.77,8.44,3.69,12.65,5.63s8.4,3.95,12.57,6l6.22,3.07,1.51.77.74.39.62.34.61.32.2.08.4.18a4.54,4.54,0,0,0,.71.24c.3.1.61.18.91.25a10.22,10.22,0,0,0,1.42.22c.4,0,.82.09,1.18.09a29.75,29.75,0,0,0,8.21-1,28.15,28.15,0,0,0,7.65-3.17,17.3,17.3,0,0,0,3.66-3,8.09,8.09,0,0,0,.86-1,8,8,0,0,1,1,.13c.94.16,2,.4,3,.67,4.23,1.11,8.62,2.64,13,4.15l13.22,4.67c4.44,1.55,8.93,3.06,13.52,4.42a93.12,93.12,0,0,0,14.37,3.26,24.65,24.65,0,0,0,8.59-.21,11.53,11.53,0,0,0,2.67-1A10.23,10.23,0,0,0,445,504.28ZM485.11,13.57s0,0,0,0a.17.17,0,0,1,0-.07A.31.31,0,0,1,485.11,13.57ZM139.92,295.4a80.47,80.47,0,0,1,16.79-.88c2.1.09,4.19.28,6.28.51-1.7.14-3.72.33-6,.61-2.48.28-5.26.69-8.28,1.25a95.92,95.92,0,0,0-20.24,5.75,38.17,38.17,0,0,0-10.4,6.26,10.84,10.84,0,0,0-3.64,5.73,5.79,5.79,0,0,0,0,1.95,4.15,4.15,0,0,0,.23,1l.07.23,0,.12c.05.12-.1-.17.13.27l0,0,.2.32a3.25,3.25,0,0,0,1.16.93,3.74,3.74,0,0,0,1,.36,8.24,8.24,0,0,0,1.78.24,41.75,41.75,0,0,0,12.32-2.13,91.61,91.61,0,0,0,11.13-4.12,41.62,41.62,0,0,0,9.69-5.61l.53-.5.44-.47a3.65,3.65,0,0,0,.78-1.4,1.61,1.61,0,0,0,0-1,2.31,2.31,0,0,0-.29-.45l-.36-.29a3.8,3.8,0,0,0-1.4-.47,17.57,17.57,0,0,0-4.91.21,50.52,50.52,0,0,0-8.11,2.08,49.67,49.67,0,0,0-6,2.45,32.75,32.75,0,0,0-3.6,2c-.8.53-1.21.83-1.21.83s.43-.29,1.25-.77a32.76,32.76,0,0,1,3.67-1.85,49.74,49.74,0,0,1,6-2.15,50.4,50.4,0,0,1,8.07-1.67c2.47-.29,8.31-.49,4.21,2.36a39.78,39.78,0,0,1-9.51,4.9,100.5,100.5,0,0,1-11.05,3.55c-1.91.49-3.85.92-5.79,1.26a26.45,26.45,0,0,1-5.73.52,5.59,5.59,0,0,1-1.23-.18c-.41-.05-.57-.32-.5-.11l-.14-.22v0l0-.13a1.73,1.73,0,0,1-.12-.51,2.91,2.91,0,0,1,0-1.06,8.34,8.34,0,0,1,2.77-4.25,35.87,35.87,0,0,1,9.6-5.85,93.19,93.19,0,0,1,10.17-3.64c3.31-1,6.5-1.73,9.46-2.35,5.92-1.22,10.93-1.95,14.44-2.38l4.08-.48.27,0a49,49,0,0,1-6.56,8.44,61,61,0,0,1-13.42,10.13,74.19,74.19,0,0,1-15.81,6.6,69.08,69.08,0,0,1-8.38,1.91,40.42,40.42,0,0,1-4.21.46,17.61,17.61,0,0,1-2,0,8.49,8.49,0,0,1-.93-.08,2.47,2.47,0,0,1-.48-.11,21.33,21.33,0,0,1-2.24-2.54,11.09,11.09,0,0,1-1.63-3.07,9.88,9.88,0,0,1-.52-3.38,17.41,17.41,0,0,1,.15-1.76l.14-.87.11-.47a34.92,34.92,0,0,1,12.09-10.81A49.94,49.94,0,0,1,139.92,295.4Zm-37-11.58a17,17,0,0,1,1.69,1c.61.34,1.2.82,1.84,1.25s1.27,1,1.88,1.55a8.48,8.48,0,0,0-.82.26,6.46,6.46,0,0,0-1.79,1.17,9.69,9.69,0,0,0-2.44,4.4,21.69,21.69,0,0,0-.77,5.56,40.62,40.62,0,0,0,1.24,10.3c.33,1.37.68,2.49.92,3.28l.42,1.22-.36-1.24c-.21-.8-.51-1.93-.77-3.31A40.24,40.24,0,0,1,103.2,299a20.84,20.84,0,0,1,1-5.3,8.71,8.71,0,0,1,2.33-3.83,4.52,4.52,0,0,1,2.72-1.11l.34,0c.21.21.42.4.62.62.6.62,1.21,1.24,1.75,1.92s1.13,1.29,1.61,2,1,1.3,1.43,1.93l1.19,1.81c.75,1.08,1.24,2.06,1.66,2.74-.37.29-.73.6-1.08.91l-.23-.33c-.18-.28-.47-.63-.75-1s-.66-.8-1.08-1.24a9.32,9.32,0,0,0-1.5-1.29,4.26,4.26,0,0,0-2.16-.84,3,3,0,0,0-2.34.93,6.43,6.43,0,0,0-1.32,2.05,15.36,15.36,0,0,0-1,4.48,23.23,23.23,0,0,0,0,4,22.64,22.64,0,0,0,.36,2.78c.14.66.23,1,.23,1s-.07-.38-.17-1.05a23.67,23.67,0,0,1,0-6.69A15.07,15.07,0,0,1,108,299.2a5.62,5.62,0,0,1,1.25-1.74,2.14,2.14,0,0,1,1.7-.59,3.45,3.45,0,0,1,1.63.76,8,8,0,0,1,1.25,1.22c.36.42.67.83.93,1.2s.47.68.64,1l.34.56a37.54,37.54,0,0,0-6.6,8.22l-.22.37-.16,2.3a18.58,18.58,0,0,0,0,2.11,15,15,0,0,0,.83,4.22,20.14,20.14,0,0,0,4.61,6.91l.1.11.12.07a4.54,4.54,0,0,0,1.55.6,10.09,10.09,0,0,0,1.25.2,21.26,21.26,0,0,0,2.37.12c1.54,0,3.06-.09,4.57-.23l.24,0c0,.16.1.45.2.87s.13.71.22,1.16a14.54,14.54,0,0,1,.17,1.5,8.64,8.64,0,0,1,0,1.75,3.42,3.42,0,0,1-.64,1.68,2.15,2.15,0,0,1-1.63.76,5.49,5.49,0,0,1-2.11-.38,15.13,15.13,0,0,1-3.84-2.19,24.11,24.11,0,0,1-2.91-2.63,22,22,0,0,1-1.78-2.14c-.4-.55-.61-.87-.61-.87s.19.33.56.9a21,21,0,0,0,1.67,2.25,24.68,24.68,0,0,0,2.8,2.83,15.54,15.54,0,0,0,3.86,2.5,6.53,6.53,0,0,0,2.38.55,3,3,0,0,0,2.32-1,4.34,4.34,0,0,0,1-2.11,10,10,0,0,0,.18-2,15.7,15.7,0,0,0-.1-1.64c-.06-.48-.1-.92-.16-1.25l-.14-.8c.52-.06,1-.13,1.57-.21,0,.14.07.26.1.42a23.77,23.77,0,0,1,.39,2.92,51.69,51.69,0,0,1-.16,9.29c-.09.86-.21,1.72-.34,2.55a4.88,4.88,0,0,1-1.35.29,8.73,8.73,0,0,1-4.33-1.12,21.39,21.39,0,0,1-4.4-3.13,40.24,40.24,0,0,1-6.56-7.87c-.78-1.17-1.35-2.2-1.75-2.91l-.61-1.14.55,1.17c.38.73.9,1.78,1.62,3a41.29,41.29,0,0,0,6.28,8.25,22,22,0,0,0,4.42,3.46,9.77,9.77,0,0,0,4.82,1.45,6,6,0,0,0,1.06-.11,20.32,20.32,0,0,1-1.38,4.58,5.57,5.57,0,0,1-.55.94H125a3.75,3.75,0,0,1-.92-.1,4.23,4.23,0,0,1-1-.25,15.26,15.26,0,0,1-4-2.15l-1.89-1.61-1.78-1.82a22.65,22.65,0,0,1-1.64-2,23.31,23.31,0,0,1-1.56-2.1L110.74,336c-.49-.73-.88-1.54-1.32-2.3l-1.28-2.33L107,329c-.75-1.62-1.51-3.23-2.13-4.91s-1.37-3.33-1.85-5l-1.62-5.16c-.42-1.71-.88-3.42-1.25-5.14s-.59-3.49-.87-5.23-.35-3.5-.33-5.24l0-2.6c0-.85.16-1.7.25-2.55a20.07,20.07,0,0,1,.44-2.48c.09-.41.16-.82.27-1.22l.38-1.16a16.09,16.09,0,0,1,2.07-4.17l.33-.4Zm-7.55,2c-.08.43-.2.85-.25,1.28l-.21,1.47c-.06.49-.07,1-.1,1.46a25.57,25.57,0,0,0-.06,2.9l.11,2.85.29,2.8c.17,1.87.64,3.67.88,5.5.42,1.8.82,3.59,1.26,5.38s1,3.53,1.52,5.3l1.73,5.13c.58,1.77,1.25,3.43,1.88,5.15s1.29,3.4,2,5.08l1,2.55,1.16,2.49c.74,1.69,1.64,3.3,2.48,5,.41.84.91,1.63,1.4,2.43s1,1.62,1.51,2.39l1.65,2.36,1.9,2.24c.61.63,1.24,1.26,1.91,1.86l-.38.16c-.39-.26-.84-.58-1.38-1-.8-.62-1.77-1.39-2.83-2.34a44,44,0,0,1-3.36-3.42,51.13,51.13,0,0,1-3.55-4.46c-1.15-1.67-2.34-3.46-3.41-5.4s-2.14-4-3.11-6.1-1.85-4.33-2.69-6.54-1.55-4.49-2.18-6.73a67.83,67.83,0,0,1-1.51-6.68,52.12,52.12,0,0,1-.74-6.34,45,45,0,0,1,0-5.69,43.18,43.18,0,0,1,.53-4.76,36.44,36.44,0,0,1,.73-3.6c.21-.93.44-1.67.6-2.21ZM91,287.56c0,.17,0,.34,0,.53-.07,1.07-.13,2.35-.15,3.83s0,3.13.09,4.93.29,3.74.58,5.78.71,4.15,1.18,6.33,1.13,4.39,1.79,6.63,1.45,4.48,2.27,6.7,1.68,4.44,2.62,6.58,1.87,4.24,2.91,6.21,2.07,3.86,3.13,5.62,2.15,3.36,3.24,4.8,2.12,2.72,3.08,3.84,1.86,2,2.61,2.79l.37.36-2.31.94c-.39-.26-.85-.58-1.38-1-.81-.61-1.78-1.38-2.83-2.34a42.28,42.28,0,0,1-3.36-3.42,48,48,0,0,1-3.55-4.46,60.28,60.28,0,0,1-3.41-5.4c-1.1-1.93-2.15-4-3.11-6.1s-1.85-4.32-2.7-6.54-1.54-4.49-2.17-6.73a65.5,65.5,0,0,1-1.51-6.67,50.63,50.63,0,0,1-.74-6.34,45.2,45.2,0,0,1,0-5.7,43.32,43.32,0,0,1,.52-4.76c.21-1.4.5-2.62.73-3.6s.45-1.67.61-2.21Zm-4.69,1.9c0,.17,0,.34,0,.53-.07,1.07-.12,2.35-.15,3.83s0,3.14.1,4.94.28,3.74.58,5.77.71,4.15,1.18,6.33,1.12,4.39,1.78,6.63,1.45,4.48,2.28,6.7,1.67,4.44,2.61,6.58S96.53,335,97.57,337s2.08,3.87,3.14,5.62,2.15,3.37,3.24,4.8,2.12,2.72,3.07,3.84,1.86,2,2.62,2.79l.37.36-1.8.73c-.39-.26-.85-.58-1.38-1-.81-.62-1.78-1.39-2.83-2.35a43.74,43.74,0,0,1-3.36-3.41,49.51,49.51,0,0,1-3.55-4.47,61.12,61.12,0,0,1-3.41-5.4c-1.1-1.92-2.15-4-3.11-6.1s-1.85-4.32-2.7-6.54-1.54-4.48-2.17-6.73a64.9,64.9,0,0,1-1.51-6.67,50.63,50.63,0,0,1-.74-6.34,45,45,0,0,1,0-5.69,42.78,42.78,0,0,1,.52-4.76c.21-1.41.5-2.63.73-3.6s.45-1.68.61-2.22Zm18.84,66-1.14-.54a26.47,26.47,0,0,1-4-2.64c-.63-.52-1.24-1.07-1.85-1.63s-1.19-1.16-1.76-1.77-1.12-1.25-1.67-1.9l-1.56-2c-1-1.38-2-2.77-2.82-4.26s-1.7-3-2.49-4.49-1.48-3.1-2.19-4.66-1.31-3.16-1.89-4.8-1.17-3.25-1.63-4.9-1-3.29-1.26-5c-.17-.84-.35-1.67-.49-2.51s-.23-1.69-.32-2.54a43.26,43.26,0,0,1-.29-5.08,36.39,36.39,0,0,1,.36-5,34.81,34.81,0,0,1,1-4.83c.24-.74.51-1.47.8-2.18,0,.28,0,.54,0,.83,0,1.48,0,3.14.1,4.94s.29,3.74.58,5.77.71,4.16,1.18,6.33,1.13,4.39,1.79,6.63,1.45,4.48,2.27,6.7,1.68,4.44,2.61,6.58,1.87,4.25,2.92,6.22,2.07,3.86,3.13,5.61,2.15,3.37,3.24,4.8,2.12,2.73,3.07,3.85C103.7,353.89,104.47,354.72,105.16,355.42ZM85.57,289.19l-.09.07,0-.05S85.56,289.18,85.57,289.19Zm6.91-10.68-.4.17-.26-.36c-.26-.37-.65-.92-1.19-1.57a19.66,19.66,0,0,0-1.92-2.08,13.66,13.66,0,0,0-1.2-1.05,12.25,12.25,0,0,0-1.37-.94,8.37,8.37,0,0,0-1.52-.7,5.58,5.58,0,0,0-1.6-.3,2.61,2.61,0,0,0-.79.05,2.47,2.47,0,0,0-.72.19,3.88,3.88,0,0,0-1.16.69,4.51,4.51,0,0,0-.73.84,4,4,0,0,0-.44.72l-.31.67.38-.62a3.8,3.8,0,0,1,.51-.66,4.52,4.52,0,0,1,.78-.71,3.29,3.29,0,0,1,1.11-.49,2,2,0,0,1,.64-.1,2.24,2.24,0,0,1,.68,0,4.55,4.55,0,0,1,1.36.42,7.6,7.6,0,0,1,1.27.78,12.86,12.86,0,0,1,2.14,2.09,17.44,17.44,0,0,1,1.54,2.12c.41.63.74,1.2,1,1.62l0,.07L81,283.16l-1,.41-.62.83a10.61,10.61,0,0,0-.78,1.69c-.19.5-.34,1-.5,1.48a28.85,28.85,0,0,0-.72,2.88,36.6,36.6,0,0,0-.71,5.62,40,40,0,0,0,0,5.47c.08.9.08,1.8.18,2.69l.31,2.66c.1.88.3,1.75.44,2.62s.28,1.75.49,2.6l.57,2.57c.21.86.47,1.69.7,2.54.41,1.7,1,3.35,1.52,5s1.15,3.29,1.7,4.92,1.24,3.25,1.82,4.89,1.3,3.23,2,4.85,1.38,3.2,2.14,4.78c.47,1,1,2,1.5,3.05,0,.42.12,1.28.24,2.51,0,.45.09.95.14,1.49s0,1.11,0,1.73c0,1.24.11,2.63,0,4.17s-.08,3.2-.25,4.95c-.08.88-.15,1.78-.23,2.71s-.23,1.86-.34,2.81C89.41,367,89,369,88.73,371s-.72,4-1.16,6c-1.68,8.06-3.86,16-5.37,22-.77,3-1.34,5.51-1.72,7.28L80,409.05s.29-1,.78-2.73c.29-.85.6-1.9,1-3.1l1.31-4,1.61-4.73c.59-1.67,1.11-3.47,1.7-5.32,1.14-3.7,2.36-7.67,3.41-11.7.55-2,1-4,1.45-6s.81-4,1.08-6c.15-1,.3-1.93.44-2.87s.22-1.87.32-2.76c.24-1.8.32-3.52.42-5.11.11-1.29.11-2.51.11-3.65.47.75,1,1.47,1.46,2.22l1.63,2.2A42.16,42.16,0,0,0,99.73,359c0,.11,0,.19,0,.3-.07,1.58-.09,3.71-.22,6.27-.08,1.28-.15,2.67-.3,4.13s-.32,3-.52,4.6c-.46,3.17-1.07,6.56-1.84,9.91-.37,1.68-.82,3.35-1.22,5s-.92,3.24-1.35,4.8c-1,3.09-1.86,6-2.73,8.43s-1.6,4.48-2.12,5.9l-.82,2.24s.36-.79,1-2.16,1.6-3.33,2.62-5.72,2.23-5.19,3.46-8.22c.57-1.53,1.16-3.12,1.77-4.72s1.15-3.28,1.67-4.95c1.07-3.34,2-6.74,2.74-10,.34-1.62.69-3.19.94-4.69s.48-2.93.66-4.25.29-2.23.4-3.21q.57.44,1.17.84h0l1.25.73q-.06.5-.12,1.05A127.84,127.84,0,0,1,103.73,379a172.27,172.27,0,0,1-5.66,18.81c-1.22,3.38-2.55,6.84-4,10.33s-3,7-4.61,10.47c-3.19,7-6.23,14.06-8.69,20.85a136.46,136.46,0,0,0-5.49,19,78.44,78.44,0,0,0-1.53,11.77l-.76-.79c-.09-.79-.11-1.89-.15-3.28,0-.77,0-1.62.07-2.55s.15-1.95.24-3c.24-2.16.56-4.59,1-7.23C76,442.79,80,428.94,84,415.11s7.69-27.78,9.34-38.47c.43-2.67.73-5.13.93-7.32.12-1.09.17-2.11.22-3.06s.1-1.82.1-2.61c0-1.58,0-2.81-.06-3.65s0-1.3,0-1.3,0,.45,0,1.3.06,2.08,0,3.65c0,.79-.06,1.65-.14,2.6s-.13,2-.27,3.05c-.24,2.18-.58,4.63-1.06,7.29-1.82,10.63-5.78,24.48-10,38.24s-8.42,27.55-10.48,38.23c-.54,2.66-.9,5.13-1.19,7.33-.1,1.11-.2,2.14-.29,3.1s-.09,1.85-.13,2.66c0,.37,0,.72,0,1.05-.3-.36-.59-.71-.86-1.06a.44.44,0,0,0,0-.1l-.18-.88c-.06-.35-.06-.79-.1-1.26a30.65,30.65,0,0,1-.09-3.48c0-1.36.12-2.9.22-4.58.51-6.74,1.72-15.72,2.92-24.7.59-4.49,1.18-9,1.73-13.19s1-8.16,1.33-11.54.61-6.2.75-8.18.26-3.1.26-3.1-.12,1.12-.34,3.09-.55,4.79-1,8.15-1,7.29-1.64,11.49S72.6,426.53,71.89,431c-1.45,8.94-2.9,17.89-3.59,24.69-.16,1.71-.3,3.27-.35,4.67,0,.85,0,1.61,0,2.32a8.29,8.29,0,0,1-.79-2.58,1.42,1.42,0,0,0-.18-.6,64.25,64.25,0,0,1-.14-8.68c.19-4.53.63-9.63,1.36-15.17,1.4-11.09,3.55-24,5.28-37.9A179.79,179.79,0,0,0,75,376.09a154.38,154.38,0,0,0-1.67-22.44c-2.13-15-6.33-29.5-10.22-42.91-1-3.37-1.9-6.61-2.77-9.85a88.63,88.63,0,0,1-2.11-9.34,64.66,64.66,0,0,1-.5-17.17,49.14,49.14,0,0,1,3.46-13.78,27.87,27.87,0,0,1,5.61-8.7,15.9,15.9,0,0,1,5-3.51l.7-.29.13,0a13.78,13.78,0,0,1,1.67.95c-.69.57-1.46,1.26-2.31,2.09A38.8,38.8,0,0,0,63.15,265a44.3,44.3,0,0,0-2.53,10.72A56.28,56.28,0,0,0,60.69,288,83.84,83.84,0,0,0,63,300.83c1.12,4.29,2.57,8.56,4.07,12.78s3,8.44,4.26,12.66a114.78,114.78,0,0,1,3.05,12.54,210.29,210.29,0,0,1,3,22.74c.51,6.7.63,12.3.55,16.22,0,2-.1,3.5-.19,4.55s-.13,1.6-.13,1.6.06-.56.15-1.6.18-2.59.26-4.55c.13-3.92.08-9.53-.33-16.24A211.81,211.81,0,0,0,75,338.7,116.12,116.12,0,0,0,72.11,326c-1.22-4.25-2.66-8.5-4.1-12.75s-2.81-8.49-3.86-12.75A80.75,80.75,0,0,1,62,287.89a55.27,55.27,0,0,1,.09-11.95,43,43,0,0,1,2.58-10.31,38.42,38.42,0,0,1,4.17-7.93,39,39,0,0,1,4.42-5.27c1-1,1.86-1.68,2.58-2.25a28.64,28.64,0,0,1,2.73,2.55,41.9,41.9,0,0,0-8.17,8.35,33.3,33.3,0,0,0-4.06,7.18A27,27,0,0,0,65,272.59l-.24,1.14-.06.29,0,.18,0,.14-.07.55c-.09.76-.22,1.48-.27,2.29a51.85,51.85,0,0,0,0,9.65,78.63,78.63,0,0,0,1.5,9.73,179.06,179.06,0,0,0,5.24,18.5c1,2.9,1.9,5.7,2.72,8.37s1.53,5.21,2.13,7.58a143.22,143.22,0,0,1,3.3,15.93,144,144,0,0,0-2.71-16.07c-.52-2.39-1.16-5-1.86-7.69s-1.55-5.56-2.41-8.48a176.72,176.72,0,0,1-4.52-18.5,76.07,76.07,0,0,1-1.11-9.53,50.16,50.16,0,0,1,.32-9.15c.06-.71.22-1.48.34-2.21l.1-.55,0-.14s0-.07,0-.1l.06-.25.25-1a24.81,24.81,0,0,1,1.37-3.83A30.47,30.47,0,0,1,73,263a38.78,38.78,0,0,1,8-7.52A56.47,56.47,0,0,1,85.8,263c-.24,0-.47-.09-.72-.11a11.23,11.23,0,0,0-5.77,1.29A16.39,16.39,0,0,0,73.66,269a22.87,22.87,0,0,0-3.76,7.81,31.68,31.68,0,0,0-1,9.53,99.11,99.11,0,0,0,1,10.06c.55,3.4,1.31,6.82,2.2,10.19,1.78,6.75,4.11,13.31,5.87,19.57a136.68,136.68,0,0,1,3.7,17.38,122.57,122.57,0,0,1,1.43,17.3A121.18,121.18,0,0,0,82,343.47a134.56,134.56,0,0,0-3.4-17.5c-1.65-6.32-3.87-12.92-5.52-19.65-.83-3.36-1.51-6.76-2-10.12s-.71-6.69-.83-9.94a30.31,30.31,0,0,1,1.08-9.07A21.15,21.15,0,0,1,75,270a14.73,14.73,0,0,1,5.13-4.25,9.32,9.32,0,0,1,4.83-1,6.08,6.08,0,0,1,2.09.56A102.31,102.31,0,0,1,92.48,278.51Zm13.88,85.81h0l1.07-.44c1.93,20.29-7.79,42.19-17.21,63.43-3.33,7.51-6.48,14.62-9.13,21.65C76.83,460.3,76,468,76.91,473.35L75.56,472a73.94,73.94,0,0,1,1.35-13.26,133.84,133.84,0,0,1,5.14-18.85c2.34-6.79,5.26-13.88,8.34-20.9,1.54-3.51,3.11-7,4.46-10.57s2.67-7,3.83-10.43A170.5,170.5,0,0,0,104,379.08a123.78,123.78,0,0,0,2.22-13.74C106.3,365,106.33,364.65,106.36,364.32ZM84.13,181.58c6.3,3.17,14.45,11,18.38,23.36,5,15.78,2.16,35.52-8.17,57.43-.84-1.69-1.67-3.25-2.51-4.7.26-.37.65-.93,1.15-1.67s1.12-1.52,1.68-2.57l1.87-3.5c.64-1.3,1.19-2.78,1.83-4.3s1-3.23,1.6-4.94c.39-1.75.86-3.54,1.16-5.39s.6-3.73.7-5.63c.06-.94.17-1.89.2-2.83s0-1.88,0-2.81c0-1.85-.08-3.68-.15-5.44s-.26-3.46-.51-5.06-.45-3.11-.7-4.49a60.37,60.37,0,0,0-1.58-6.6c-.23-.79-.43-1.4-.59-1.8s-.24-.63-.24-.63.07.22.19.64.3,1,.47,1.84a62.91,62.91,0,0,1,1.12,6.65c.14,1.38.31,2.88.38,4.48s.11,3.27.15,5,0,3.53-.22,5.34l-.24,2.73c-.09.91-.26,1.82-.39,2.73-.21,1.83-.67,3.61-1,5.37s-1,3.43-1.46,5.07c-.65,1.58-1.17,3.14-1.83,4.55s-1.32,2.72-2,3.89l-2,3.11c-.58.92-1.24,1.62-1.71,2.25-.09.11-.15.2-.24.3-.6-.9-1.19-1.74-1.78-2.52l.93-1.66c.45-.77,1-1.72,1.55-2.89s1.29-2.43,1.9-3.88,1.36-3,2-4.67S95.37,234.87,96,233c.32-.93.51-1.92.78-2.9s.5-2,.66-3,.41-2,.54-3.06.23-2.08.35-3.12a52,52,0,0,0,.14-6.23,57.38,57.38,0,0,0-.5-6c-.38-1.91-.63-3.77-1.14-5.48-.23-.86-.43-1.7-.67-2.49s-.52-1.56-.77-2.29c-.45-1.47-1-2.76-1.51-3.92s-.93-2.15-1.34-2.95l-1.24-2.52,1,2.61a29.2,29.2,0,0,1,1.1,3c.38,1.18.87,2.5,1.21,4,.19.73.38,1.5.59,2.3s.3,1.64.47,2.49c.37,1.7.48,3.54.7,5.41a56.08,56.08,0,0,1,.05,5.81,50,50,0,0,1-.58,5.94l-.55,2.93c-.2,1-.49,1.93-.73,2.88s-.54,1.88-.85,2.79-.57,1.82-.94,2.68c-.7,1.74-1.36,3.41-2.14,4.94s-1.49,3-2.2,4.3-1.44,2.46-2,3.5-1.2,1.93-1.7,2.68a1.7,1.7,0,0,0-.15.22c-.43-.47-.86-.9-1.27-1.31,10-15.2,16.39-49.31,1.36-62.62a27,27,0,0,0-6.15-4.11A27.58,27.58,0,0,1,84.13,181.58ZM37.68,251.46c2.61-7.42,2-14.13.41-24.43-2.75-17.29,2-25.23,4.79-30,.36-.6.68-1.15,1-1.66,2.27-3,6.56-6.21,11.64-8.35-7.25,4.84-13.29,11.28-15.25,21.55a61.15,61.15,0,0,0,.53,23.81c.22,1.19.4,2.12.47,2.81l.14,1.23c.44,3.89.93,8.24-.87,13.53C39.55,250.47,38.6,251,37.68,251.46Zm4.54-2.34c1.41-5,1-9.1.52-12.83l-.13-1.21c-.08-.75-.27-1.71-.5-2.92a59.39,59.39,0,0,1-.53-23.3A29.71,29.71,0,0,1,52.51,191c-.55.59-1.09,1.19-1.6,1.83a38.72,38.72,0,0,0-7.59,16.74,49.32,49.32,0,0,0,.22,20.05l.63,2.54c.24.87.46,1.62.62,2.32a33.73,33.73,0,0,1,.74,4.64,21.17,21.17,0,0,1-.85,8.9C43.85,248.36,43,248.73,42.22,249.12Zm31.23-9-.67-.14-.67.1a106.36,106.36,0,0,0-22,5.68,31.32,31.32,0,0,0,.37-7,38.82,38.82,0,0,0-.67-5.37c-.18-.93-.4-1.8-.57-2.53s-.33-1.54-.49-2.3a43.34,43.34,0,0,1,.41-17.7A32.42,32.42,0,0,1,56,197.05a20.31,20.31,0,0,1,10.23-6.54,19.74,19.74,0,0,1,5-.58,24,24,0,0,1,4.31.54,29.49,29.49,0,0,1,3.44,1c1,.4,1.68.68,2.39,1l1,.48c7.32,12.17,1.84,37.22-5.27,48.52A13.29,13.29,0,0,0,73.45,240.09ZM57,461.42c.58-21.92-11.2-55.64-39.38-112.75-1.36-2.76-2.57-5.5-3.65-8.21,1.6,2.7,3.26,5.41,5,8.18a258.63,258.63,0,0,1,13.53,23.71c4.11,8.33,7.79,16.91,11,25,1.56,4.08,3,8.05,4.28,11.85S50.2,416.66,51.2,420c.53,1.67,1,3.29,1.38,4.83s.81,3,1.15,4.38c.71,2.76,1.24,5.18,1.69,7.18s.73,3.57.95,4.65.33,1.64.33,1.64l-.29-1.65c-.21-1.07-.45-2.66-.87-4.67s-.9-4.43-1.56-7.21-1.41-5.89-2.33-9.28a339.62,339.62,0,0,0-17.19-48.45c-3.77-8.58-8.3-16.82-12.6-24.44s-8.24-14.78-10.33-21.4c-.6-1.63-1-3.25-1.39-4.77s-.65-3-.94-4.38-.4-2.7-.58-3.9-.22-2.33-.31-3.33c-.15-1.3-.18-2.43-.2-3.37.05-.56.1-1.11.17-1.67.14.63.32,1.24.47,1.85.2.76.4,1.5.6,2.23s.5,1.4.73,2.08.47,1.33.7,2,.52,1.21.77,1.78c.51,1.13.94,2.18,1.39,3.07s.88,1.66,1.21,2.3c.67,1.27,1.06,2,1.06,2l-.75-2.13c-.24-.67-.52-1.49-.85-2.42s-.57-2-.9-3.21c-.16-.59-.34-1.19-.49-1.83s-.25-1.31-.38-2-.27-1.37-.41-2.08-.16-1.46-.25-2.2-.2-1.5-.21-2.27,0-1.53-.06-2.31a18.29,18.29,0,0,1,.06-2.34c.06-.78.07-1.56.17-2.33A35.18,35.18,0,0,1,12,291.8l.26-1.09.35-1c.06-.16.11-.32.17-.49,0,.08,0,.17,0,.25l.08,2.65c0,.88.16,1.75.24,2.62s.15,1.74.34,2.58a47.75,47.75,0,0,0,1.07,4.91c.21.78.42,1.55.63,2.3s.51,1.45.75,2.15a41,41,0,0,0,1.5,3.86c.52,1.18,1,2.25,1.42,3.19L20,316.05l1.09,2.06s-.29-.8-.78-2.19c-.25-.7-.55-1.54-.89-2.51s-.59-2.1-.93-3.31a35.48,35.48,0,0,1-.91-4c-.13-.7-.3-1.42-.41-2.16s-.19-1.5-.28-2.27a45.56,45.56,0,0,1-.34-4.74c-.07-.81,0-1.62,0-2.43s0-1.62.14-2.43l.27-2.4c.11-.79.3-1.57.44-2.35A17.43,17.43,0,0,1,18,285.1c.22-.74.36-1.48.64-2.17,0-.09.06-.18.1-.27,0,.52-.05,1,0,1.56-.05,1.74.11,3.51.22,5.26.08.88.22,1.75.33,2.61s.22,1.73.42,2.57c.35,1.68.65,3.34,1.14,4.89.23.78.44,1.55.66,2.3s.51,1.45.76,2.15a37.67,37.67,0,0,0,1.52,3.87c.52,1.18,1,2.26,1.43,3.2l1.25,2.38,1.09,2.07s-.29-.8-.78-2.2l-.89-2.52c-.31-1-.6-2.11-.95-3.33a40.06,40.06,0,0,1-.92-4c-.14-.7-.31-1.42-.43-2.16s-.2-1.51-.31-2.29c-.25-1.53-.31-3.15-.41-4.77-.07-.8,0-1.63,0-2.44s0-1.64.05-2.46c.13-1.63.22-3.26.5-4.84s.57-3.12.87-4.59.76-2.87,1.23-4.18.93-2.52,1.37-3.63c.94-2.22,1.85-4,2.51-5.27.11-.21.21-.38.3-.56a75.73,75.73,0,0,1,7.78-5.63,54.91,54.91,0,0,0-4.57,27.58,69.32,69.32,0,0,0,4.94,20.08c.67,1.54,1.33,3,2,4.56s1.38,2.91,2.06,4.35c1.35,2.87,2.65,5.67,3.88,8.43,2.47,5.5,4.67,10.76,6.48,15.69a128.32,128.32,0,0,1,4.25,13.69,108.3,108.3,0,0,1,2.13,10.87c.23,1.52.41,2.88.54,4.06s.26,2.2.33,3c.16,1.64.24,2.52.24,2.52s-.05-.88-.15-2.53c0-.82-.12-1.84-.23-3s-.22-2.56-.4-4.09a110.08,110.08,0,0,0-1.75-11A131.6,131.6,0,0,0,53.34,341c-1.65-5-3.68-10.4-6-16-1.13-2.8-2.35-5.67-3.6-8.59L41.87,312l-1.78-4.5A66.41,66.41,0,0,1,36,288.06a51.93,51.93,0,0,1,7-29.18c.43-.73.86-1.42,1.31-2.09l.58-.31q-.36.56-.72,1.2A39.33,39.33,0,0,0,41.34,264a55.54,55.54,0,0,0-2.26,8.63,59.43,59.43,0,0,0-1,10.48,62.42,62.42,0,0,0,1.44,11.66,133.76,133.76,0,0,0,7.89,24.13c1.69,4,3.38,7.93,4.83,11.92s2.83,7.92,4,11.79,2.19,7.64,3.05,11.24,1.55,7,2,10.24.87,6.13,1.11,8.75.34,4.9.34,6.79,0,3.37-.07,4.38-.07,1.55-.07,1.55,0-.54.08-1.55.15-2.49.12-4.38-.09-4.18-.28-6.8-.52-5.58-1-8.78-1.14-6.65-1.94-10.27-1.79-7.41-2.94-11.29-2.45-7.87-3.89-11.87-3.07-8-4.72-12a132.56,132.56,0,0,1-7.6-24.05,60.74,60.74,0,0,1-1.3-11.47,58.29,58.29,0,0,1,1.12-10.27,54.24,54.24,0,0,1,2.29-8.41,39.7,39.7,0,0,1,2.83-6.06,28.2,28.2,0,0,1,2-3c.68-.31,1.35-.63,2-.93-.43.62-.88,1.33-1.34,2.14a36.14,36.14,0,0,0-2.75,6.26,50.84,50.84,0,0,0-2,8.57c-.24,1.6-.44,3.27-.57,5a45,45,0,0,0-.2,5.39A75.19,75.19,0,0,0,44,293.27a160.41,160.41,0,0,0,7.05,24.05c1.5,4,3,7.95,4.43,11.9s2.68,7.86,3.84,11.68,2.13,7.55,3,11.1,1.54,6.94,2,10.1.87,6,1.1,8.64.33,4.84.32,6.7,0,3.33-.07,4.32-.07,1.53-.07,1.53,0-.53.08-1.53.15-2.46.12-4.32-.07-4.13-.26-6.71-.5-5.51-1-8.67-1.15-6.56-1.93-10.13-1.77-7.32-2.9-11.15S57.42,333,56.05,329s-2.86-8-4.31-12a161,161,0,0,1-6.78-24,74.77,74.77,0,0,1-1.36-11.33,45.55,45.55,0,0,1,.25-5.26c.15-1.71.36-3.34.61-4.91a49.33,49.33,0,0,1,2-8.35,35.11,35.11,0,0,1,2.71-6,25.49,25.49,0,0,1,2.38-3.46l.26-.32c.66-.26,1.31-.52,2-.77-.42.62-.87,1.33-1.32,2.13a36.56,36.56,0,0,0-2.76,6.32,53.15,53.15,0,0,0-2,8.67c-.23,1.61-.42,3.3-.55,5a35,35,0,0,0-.12,5.45,83,83,0,0,0,1.77,11.56,201.68,201.68,0,0,0,7,24.31c1.44,4.06,2.89,8.1,4.14,12.14s2.45,8,3.46,11.92,1.89,7.7,2.64,11.31,1.34,7.06,1.76,10.26.73,6.13.92,8.75.27,4.89.25,6.78,0,3.35-.09,4.36-.07,1.54-.07,1.54,0-.53.08-1.54.15-2.48.14-4.36,0-4.17-.18-6.79-.42-5.57-.84-8.77-1-6.65-1.65-10.29S64.9,344,63.89,340.13s-2.1-7.94-3.34-12-2.63-8.13-4-12.2a201.49,201.49,0,0,1-6.75-24.27,81.86,81.86,0,0,1-1.63-11.43,34.49,34.49,0,0,1,.17-5.3q.22-2.58.6-4.95a50.42,50.42,0,0,1,2-8.45,35.25,35.25,0,0,1,2.72-6.07,26.87,26.87,0,0,1,2.4-3.5l0-.05c.61-.2,1.21-.43,1.83-.62a38.2,38.2,0,0,0-3.3,6.62,55.71,55.71,0,0,0-3.46,15.86,71,71,0,0,0,1.16,18.82,91.3,91.3,0,0,0,2.55,9.82c1,3.24,2,6.57,3.13,9.89,4.34,13.3,8.92,27.4,11.47,42a150.25,150.25,0,0,1,2.35,21.86A177.49,177.49,0,0,1,71,397.51c-1.26,13.88-3,26.84-4,38-.54,5.58-.82,10.72-.87,15.28a65.28,65.28,0,0,0,.44,8.76c-1.32,1.44-4,12.25-1,21.24C59.6,476.58,56.75,470.08,57,461.42Zm30.44,24.12a6.29,6.29,0,0,0,1.71-4.84,6.44,6.44,0,0,0-2.53-4.62c-2.76-2.1-3.73-9.61,1.83-24.36,2.57-6.82,5.68-13.82,9-21.24,10.18-22.94,20.69-46.64,17.58-69.65l13.16-5.33,0,.05s.23-.12.65-.38a6.54,6.54,0,0,0,1.45-1.23,8.85,8.85,0,0,0,1.31-1.93,13.49,13.49,0,0,0,.91-2.29,35.25,35.25,0,0,0,1-10.75,57.36,57.36,0,0,0-1.27-10.16,29.35,29.35,0,0,0-1-3.34c.61-.13,1.23-.23,1.85-.37a84.27,84.27,0,0,0,17.12-5.93,67.08,67.08,0,0,0,15.43-10,54.91,54.91,0,0,0,12-14.5h0l2.19-4.43c-.28,1.72-.54,3.45-.76,5.18a164.6,164.6,0,0,0,0,43.11,369.22,369.22,0,0,1,2.86,42.65,194.07,194.07,0,0,1-4.17,42.36c-3.11,13.79-8.37,27.33-17.2,38.38A63.47,63.47,0,0,1,144.91,476a68.22,68.22,0,0,1-19.34,8.33c-12.63,3.24-25.88,3.43-38.88,2ZM253.83,303c-.41.47-.79,1-1.19,1.43l.47-1c1.82-3.93,3.75-8.21,5.49-12.89a107.86,107.86,0,0,0,4.4-15.1c.22-1.36.43-2.74.65-4.12s.22-2.83.33-4.26-.11-2.91-.15-4.37-.33-2.8-.42-4.15a80.6,80.6,0,0,1,.35-16.78,64.42,64.42,0,0,1,4.11-16.21,50.42,50.42,0,0,1,8.38-13.77A44.21,44.21,0,0,1,288,202.41a51.18,51.18,0,0,1,12.72-5c2-.63,4.07-.89,6-1.31s3.76-.52,5.49-.73l4.87-.33,4.14-.06c2.51-.09,4.48.11,5.82.12l2.06.08-2.05-.19c-1.34-.07-3.3-.39-5.82-.42l-4.16-.11-4.92.13c-1.75.14-3.61.29-5.57.5s-4,.53-6.13,1.09a52.36,52.36,0,0,0-13.22,4.74,46.14,46.14,0,0,0-12.56,9.5,49.93,49.93,0,0,0-9.09,14.23,67.69,67.69,0,0,0-4.55,16.8,83.73,83.73,0,0,0-.64,17.38c.12,1.43.25,2.84.37,4.25s.23,2.63.13,4-.1,2.65-.3,4-.41,2.62-.61,3.91a104.13,104.13,0,0,1-4.27,14.64c-1.68,4.57-3.43,8.86-5.16,12.76s-3.45,7.44-5,10.57l-.49,1a295.41,295.41,0,0,0-19.66,29.72c1.1-2.66,2.19-5.34,3.28-8.06,4.81-12.24,9.59-25,13-38.48.82-3.38,1.53-6.8,2-10.3a43.33,43.33,0,0,0,.39-10.7,84.11,84.11,0,0,0-2.2-10.43c-.85-3.39-1.65-6.76-2.26-10.15a61,61,0,0,1-.51-20.29,48.65,48.65,0,0,1,6.95-18.61,66.84,66.84,0,0,1,12.95-15c1.23-1.1,2.47-2.18,3.78-3.17s2.57-2,3.92-3l2-1.43a18.06,18.06,0,0,1,1.92-1.14c1.41-.75,2.84-1.48,4.29-2.15a105.88,105.88,0,0,1,35.66-9.44,96.39,96.39,0,0,1,32.94,3,98.51,98.51,0,0,1,25.82,11.24,125.78,125.78,0,0,1,17.65,13c4.59,4,7.94,7.48,10.23,9.83l3.43,3.68s-1.09-1.37-3.15-3.93a135.35,135.35,0,0,0-9.65-10.51,117,117,0,0,0-17.21-14.1A102.09,102.09,0,0,0,344.44,181a94,94,0,0,0-34.19-3.9A106.75,106.75,0,0,0,273,186.64c-1.53.7-3,1.45-4.55,2.27a21.25,21.25,0,0,0-2.34,1.42l-2.05,1.51c-1.38,1-2.72,2-4,3.14s-2.64,2.21-3.92,3.37a71.36,71.36,0,0,0-13.54,16.08,52.6,52.6,0,0,0-7.26,20.21,62,62,0,0,0,1.22,21.45c.75,3.48,1.7,6.89,2.68,10.26a76.6,76.6,0,0,1,2.47,10,41.39,41.39,0,0,1-.3,10.11c-.45,3.38-1.13,6.75-1.91,10.08-3.19,13.32-7.8,26.1-12.45,38.35-2.76,7.16-5.58,14.1-8.4,20.87q-7.32,13.58-13.78,27.55.33-1.37.63-2.79c.46-2,.91-4.08,1.3-6.23s.8-4.36,1.14-6.62.68-4.59,1-7c.58-4.73,1-9.63,1.35-14.61s.58-10.05.65-15.1c.22-10.12,0-20.22-.07-29.65-.05-4.71-.06-9.26.07-13.57s.38-8.36.78-12.08a65.63,65.63,0,0,1,1.74-10.06A44.56,44.56,0,0,1,216,258.2a31.64,31.64,0,0,1,2.41-4.48l1-1.52-1.1,1.44a31.85,31.85,0,0,0-2.8,4.31,42.84,42.84,0,0,0-3.1,7.39,66.6,66.6,0,0,0-2.43,10.12,115.54,115.54,0,0,0-1.39,12.21c-.32,4.34-.51,8.92-.67,13.65-.35,9.46-.45,19.52-.94,29.54s-1.21,20-2.5,29.29c-.3,2.32-.59,4.6-.95,6.83s-.72,4.39-1.07,6.51-.72,4.17-1.12,6.14-.75,3.9-1.16,5.73c-1.54,7.34-3.11,13.38-4.18,17.63-.07.24-.13.46-.19.69q-5.62,13.13-10.86,26.4c-1.44,3.54-2.83,7.12-4.23,10.67-1,2.25-1.94,4.38-2.79,6.36-1.5,3.44-2.76,6.45-3.77,9l-.24.49a102.65,102.65,0,0,1-15.56,23.65,63.22,63.22,0,0,1-22.53,16.61,46,46,0,0,1-27.54,2.78,49.26,49.26,0,0,1-22.5-11.7c13.38,1.62,27.11,1.62,40.32-1.71a70.29,70.29,0,0,0,19.94-8.5,65.44,65.44,0,0,0,16.16-14.48C171.29,451.88,176.7,438,179.91,424a195.59,195.59,0,0,0,4.39-42.86,370.8,370.8,0,0,0-2.7-42.94,162.24,162.24,0,0,1,.14-42.46,179.73,179.73,0,0,1,10.72-41.11,183,183,0,0,1,19.87-37.54,163.51,163.51,0,0,1,28.26-31.61,127.84,127.84,0,0,1,36-22,100.36,100.36,0,0,1,62.14-4.35,112.14,112.14,0,0,1,19.86,7.1c12.8,5.9,24.73,13.9,34,24.47a84.15,84.15,0,0,1,18.92,37.17c3.19,13.74,3.35,28.11,1.54,42.16a163.42,163.42,0,0,1-7.73,33.19c.12-.86.23-1.78.37-2.8.33-3,.64-6.61.77-10.79a103.64,103.64,0,0,0-.61-14.08,88.2,88.2,0,0,0-3.43-16.4,79.44,79.44,0,0,0-7.77-17.1,74.25,74.25,0,0,0-12.9-15.44,78.41,78.41,0,0,0-17.16-11.59A91.56,91.56,0,0,0,345.24,208c-1.67-.36-3.27-.78-5-1.08s-3.22-.63-4.92-.81a64.12,64.12,0,0,0-9.91-.66,47.87,47.87,0,0,0-18.38,3.67,39.4,39.4,0,0,0-7.57,4.35,40.16,40.16,0,0,0-6,5.54,44.15,44.15,0,0,0-7.23,12.08,54.25,54.25,0,0,0-3,10.36,49.24,49.24,0,0,0-.72,6.88c-.06,1.59,0,2.44,0,2.44s0-.85.2-2.43a52.16,52.16,0,0,1,1.15-6.77,53.33,53.33,0,0,1,3.43-10,42.6,42.6,0,0,1,7.55-11.29A34.85,34.85,0,0,1,308,211.34a45.12,45.12,0,0,1,17.45-2.85c1.55.09,3.11.1,4.68.3l2.36.23,2.35.36c1.55.19,3.18.58,4.8.89s3.16.77,4.74,1.15a94.93,94.93,0,0,1,18.49,7.09A74.53,74.53,0,0,1,379,229.71a70.4,70.4,0,0,1,12.14,14.58,82.39,82.39,0,0,1,11.22,31.76,115.8,115.8,0,0,1,1.14,13.61c.1,4.08,0,7.66-.18,10.59s-.37,5.23-.55,6.82c-.11,1.11-.18,1.84-.21,2.18-2.52-3.29-5.21-6.44-8-9.54a124.8,124.8,0,0,0-10.36-10.34,144.93,144.93,0,0,0-11.43-9.31,107.86,107.86,0,0,0-12.73-7.73,77.57,77.57,0,0,0-28.88-8.47,70.41,70.41,0,0,0-23.05,1.93l.05-.2.63-2.5c.3-.92.62-1.9,1-3s.86-2.11,1.32-3.26,1.14-2.26,1.75-3.47a32.58,32.58,0,0,1,5.23-6.82l.81-.83c.28-.25.59-.48.9-.73.61-.48,1.2-1,1.85-1.47a27.61,27.61,0,0,1,4.27-2.39,13.3,13.3,0,0,1,2.34-.94c.82-.25,1.63-.55,2.47-.77a34.6,34.6,0,0,1,5.25-.8,45.12,45.12,0,0,1,11,.59l5.7,1.26c1.78.57,3.58,1,5.33,1.67a47.54,47.54,0,0,1,9.8,4.83,39.28,39.28,0,0,1,4.22,3.11c.68.53,1.24,1.16,1.86,1.73a20.68,20.68,0,0,1,1.73,1.78l1.58,1.85c.5.61.93,1.28,1.39,1.9a44.1,44.1,0,0,1,2.39,3.8,55,55,0,0,1,3.26,7.2c.83,2.21,1.43,4.19,1.91,5.83s.81,2.93,1,3.82.35,1.35.35,1.35-.1-.48-.27-1.37-.44-2.21-.81-3.88-.86-3.69-1.56-6a56.19,56.19,0,0,0-2.88-7.51,40.88,40.88,0,0,0-2.22-4.06c-.44-.67-.84-1.39-1.32-2.06s-1-1.34-1.53-2a18.45,18.45,0,0,0-1.7-2c-.61-.64-1.17-1.34-1.84-1.94a43.11,43.11,0,0,0-4.24-3.53,50.24,50.24,0,0,0-10-5.73c-1.82-.78-3.73-1.41-5.62-2.13l-5.62-1.59a48.52,48.52,0,0,0-12.12-1.4,38.23,38.23,0,0,0-6.05.55c-1,.2-2,.48-2.94.72a16.51,16.51,0,0,0-2.83,1,33,33,0,0,0-5.28,2.55c-.82.5-1.56,1.09-2.34,1.63-.38.27-.77.54-1.13.82l-1,.92a39.46,39.46,0,0,0-6.7,7.72c-.79,1.35-1.61,2.63-2.27,3.9s-1.25,2.49-1.74,3.66l-1.3,3.29-.93,2.93c-.61,1.83-.8,3-1,3.94-.06.21-.1.39-.14.56a96.38,96.38,0,0,0-24.95,14.2A152.59,152.59,0,0,0,253.83,303Zm184.6-50.54c.24,2.55.5,5.27.75,8,.31,3.1.65,6.19,1,9-.27,1.36-.57,2.72-.9,4.07a235.52,235.52,0,0,1-10.17,30.75c-.22-1.15-.44-2.34-.63-3.59s-.45-2.75-.7-4.21-.38-3-.59-4.52c-.44-3.1-.76-6.39-1.06-9.79s-.53-6.93-.77-10.51-.34-7.22-.51-10.86-.26-7.29-.31-10.88-.08-7.11,0-10.53.13-6.71.18-9.84c.11-2.84.18-5.51.31-8,3.6,7,7.43,13.71,11,20.37.62,1.16,1.23,2.31,1.82,3.47a.28.28,0,0,0,0,.09C438,247.57,438.22,250,438.43,252.5Zm-.5-6.91.19.35c.7,1.37,1.25,2.49,1.91,3.93l.48,1,.25.65a13.44,13.44,0,0,1,.42,1.58,22.37,22.37,0,0,1,.38,3.71,52.79,52.79,0,0,1-.84,9.61c-.36-2-.7-4-1-6C438.9,255.06,438.29,249.66,437.93,245.59Zm-9.54,60.55c-.12.3-.23.59-.35.88-4.33,10.7-9.06,21.13-14,31.24l-.34-2.73c-.1-1.24-.21-2.54-.32-3.91s-.21-2.78-.32-4.25-.13-3-.19-4.55c-.15-3.13-.14-6.44-.17-9.85s.14-7,.22-10.54.29-7.22.45-10.86.38-7.28.66-10.86c0-.6.09-1.2.14-1.8.56-2.82,1.06-5.65,1.48-8.5s.66-5.6.88-8.41c.21-.79.44-1.58.64-2.37q.8-3,1.49-6,1.44-6.06,2.62-12.16c.39-2,.8-4.07,1.14-6.12s.73-4.08,1-6.13c.07-.47.15-.95.22-1.43,0,3.69.07,7.61.19,11.73.1,3.41.21,6.95.32,10.53s.28,7.23.43,10.87.43,7.28.64,10.87.54,7.09.8,10.5.58,6.7.85,9.82.56,6.07.88,8.79c.14,1.36.28,2.67.41,3.91C428.27,305.25,428.33,305.68,428.39,306.14Zm-52.53-.1-3.61,8-76.91-34.84a73.91,73.91,0,0,1,8.53-3.69,63,63,0,0,1,26.64-3.65,77.21,77.21,0,0,1,26.26,7.24A100.93,100.93,0,0,1,369,285.7a135.44,135.44,0,0,1,11.69,7.91c2.13,1.6,4.21,3.27,6.27,5A12.79,12.79,0,0,0,375.86,306Zm-88.93-22c.74-.48,1.49-1,2.25-1.42l80.73,36.57-.92,2Zm83.13,52.46-1.44-.65c-1.38-.62-1.05-4.36.74-8.3l7-15.49c1.79-3.94,4.38-6.65,5.76-6l1.43.65C386.27,307.9,373.37,338,370.06,336.49Zm32.69-27,.25,0-.07.19Zm1.92.71a160,160,0,0,0,8.95-28.55c-.19,3.26-.32,6.56-.48,9.87-.11,3.64-.22,7.28-.32,10.87s-.14,7.12-.1,10.54,0,6.72,0,9.85,0,6.1.1,8.83.11,5.25.2,7.49c0,.39,0,.77,0,1.15-2.28,4.61-4.59,9.17-7,13.56-.66,1.19-1.34,2.44-2,3.5l-1,1.6-.18.25A411.1,411.1,0,0,1,404.67,310.24Zm-3.51,50.94h.22a29.17,29.17,0,0,1-3.44,3.58c-.07-.48-.15-1-.24-1.69-.11-1.09-.24-2.41-.39-3.93s-.16-3.28-.26-5.17,0-4,0-6.14.09-4.47.24-6.84c.12-2.21.28-4.5.48-6.81a67.88,67.88,0,0,0,4.15-11.45C401.14,334.22,400.69,347.54,401.16,361.18Zm-13.78-12.39c-.08.7-.17,1.43-.25,2.11-.49,4.15-.93,8-1.25,11.36-.44,4.07-.79,7.3-1,9.2l-1.62.57c-.52.19-1,.38-1.49.57,0-.35-.09-.73-.14-1.17-.12-1-.15-2.17-.24-3.54s-.08-2.93-.07-4.62c0-3.39.22-7.35.66-11.58a.88.88,0,0,0,0-.16H382a.77.77,0,0,1,0,.15c-.48,4.22-.92,8.16-1.3,11.54-.14,1.69-.4,3.24-.48,4.63s-.25,2.61-.35,3.61-.13,1.58-.17,2.1a12.6,12.6,0,0,0-1.11.73,26.65,26.65,0,0,0-3.47,3.34c-1.68,1.9-3.15,3.8-4.57,5.71-.08-.79-.15-1.65-.24-2.65-.11-1.3-.14-2.78-.17-4.39s0-3.36.06-5.21.21-3.79.37-5.8c.37-4,.86-8.29,1.51-12.54.21-1.33.44-2.63.66-3.94l4.84,2.19C380.75,352.47,384.14,351.41,387.38,348.79Zm5.21-5.69c-.22,2.07-.43,4.12-.62,6.11-.45,4.13-.88,8-1.18,11.31s-.64,6.07-.85,8c0,.41-.09.76-.12,1.09-1.08.45-2.19.87-3.35,1.28,0-2,.1-4.92.26-8.58.16-3.33.42-7.22.72-11.39.06-.78.14-1.58.21-2.38A30,30,0,0,0,392.59,343.1Zm-1.21,25.84c0-2,.09-4.83.23-8.36.15-3.32.37-7.2.63-11.35.17-2.08.35-4.23.55-6.42a56.37,56.37,0,0,0,4.94-8.6c-.21,2.3-.39,4.57-.55,6.77-.39,4.74-.69,9.17-.93,13s-.4,7-.47,9.26c0,1.66,0,2.79,0,3.25A28.7,28.7,0,0,1,391.38,368.94Zm-25.85-25.5.18.26h0C365.64,343.62,365.59,343.53,365.53,343.44Zm4.23,4c.35.2.71.39,1.09.56l1.58.72c-.19,1.34-.38,2.68-.55,4-.28,2.13-.55,4.27-.77,6.37s-.4,4.18-.64,6.19c-.38,4-.74,7.77-1,11-.11,1.62-.32,3.09-.39,4.41s-.2,2.49-.28,3.44c0,.73-.08,1.29-.12,1.76-2.89,4-5.61,8.05-8.21,12-.13-.89-.22-1.9-.33-3.09s-.12-2.79-.19-4.4a103.43,103.43,0,0,1,.55-11c.42-4,.86-8.29,1.56-12.54.3-2.12.69-4.24,1.05-6.32.2-1,.41-2,.62-2.95Q366.81,352.57,369.76,347.43ZM356.28,369c2.3-3.33,4.5-6.71,6.63-10.12-.08.55-.16,1.07-.24,1.63-.28,2.1-.63,4.23-.87,6.36s-.51,4.28-.75,6.38-.42,4.18-.62,6.19c-.34,4-.65,7.77-.92,11s-.55,5.94-.72,7.83c-.1,1.25-.19,2.1-.25,2.56-2,3.09-4,6.16-5.92,9.16L349,415.55c-.21-1.61-.42-3.83-.5-6.52s0-6.18.26-9.73.71-7.33,1.18-11.1,1.13-7.52,1.84-11c.19-.94.38-1.85.57-2.75C353.7,372.65,355,370.83,356.28,369Zm-40.71,79.25c-.18-1.61-.37-3.91-.45-6.72s0-6.08.18-9.59.53-7.23,1-10.95c.24-1.86.5-3.72.78-5.54s.63-3.6.93-5.33c.67-3.44,1.41-6.64,2.16-9.34.47-1.77.95-3.3,1.38-4.59a14.53,14.53,0,0,0,4.15.13,18.82,18.82,0,0,0,4.43-1.19l0,0c-.1.65-.2,1.33-.31,2-.42,2.73-.87,5.91-1.32,9.32s-.91,7-1.33,10.68-.82,7.28-1.17,10.7-.64,6.62-.9,9.37-.4,5.06-.52,6.69c0,.29,0,.52,0,.76a55.94,55.94,0,0,1-7.44,3.86c-.47.2-.94.37-1.41.56C315.65,448.82,315.61,448.56,315.57,448.24Zm-2.09,1.68c-1.63.57-3.27,1.08-4.9,1.49,2-32.51,6.23-48.71,8.05-55.72l.33-1.29a14.07,14.07,0,0,0,2.91,1.36c-.05.33-.1.63-.16,1-.19,1.13-.39,2.41-.62,3.81-.44,2.78-.91,6-1.41,9.51s-1,7.19-1.42,10.92c-.94,7.43-1.71,14.88-2.21,20.5-.22,2.81-.39,5.19-.49,6.85C313.53,449,313.5,449.5,313.48,449.92Zm12.59-12.68c-.06-2.74-.06-5.95.15-9.37s.51-7.08,1-10.72,1.05-7.25,1.67-10.62,1.36-6.5,2.08-9.15c.3-1.12.59-2.13.87-3.06a33.14,33.14,0,0,0,5.24-3.37c1.38-1.08,2.65-2.22,3.88-3.38-.37,2.48-.73,5.28-1.13,8.28-.2,1.66-.41,3.39-.63,5.14s-.39,3.53-.59,5.31-.37,3.56-.55,5.31-.33,3.48-.48,5.15c-.32,3.35-.61,6.47-.86,9.15-.37,4.52-.64,7.74-.72,8.7a41.73,41.73,0,0,1-9.48,8.78C326.32,441.85,326.15,439.77,326.07,437.24Zm11.43-11.31c0-1.34-.07-2.79,0-4.33s.07-3.16.18-4.83c.19-3.35.56-6.91,1-10.46s1-7.09,1.64-10.38,1.31-6.35,2-8.95c.09-.33.17-.64.26-1,1.78-1.8,3.44-3.67,5.05-5.56,1.32-1.58,2.58-3.18,3.81-4.8-.06.47-.13.94-.2,1.42-.47,3.54-1,7.31-1.38,11.09-.88,7.56-1.45,15.13-2,20.83s-.82,9.57-.82,9.57h0c-3,4.63-6,9.1-9,13.32C337.78,430.4,337.61,428.38,337.5,425.93Zm-22.07-32.67c-.14.56-.31,1.22-.51,2-1.85,7.09-6.1,23.54-8.13,56.57l-.87.2-.42.08c2-33.89,6.32-50.59,8.18-57.75.21-.83.4-1.54.54-2.14C314.6,392.57,315,392.92,315.43,393.26Zm-2.66-2.7c-.13.74-.41,1.84-.8,3.35-1.88,7.23-6.27,24.15-8.26,58.48l-1.41.19c-.05-.39-.1-.83-.16-1.34-.11-.93-.15-2.05-.25-3.35s-.12-2.77-.16-4.38c0-3.22.07-7,.36-11s.73-8.3,1.35-12.56c.29-2.13.67-4.25,1-6.34s.8-4.12,1.22-6.09.88-3.87,1.38-5.64,1-3.46,1.47-5,1.05-2.89,1.5-4.11,1-2.19,1.36-3a5.81,5.81,0,0,1,.32-.57Zm-4.16-4.84a16.27,16.27,0,0,1,1.53,1.58c-.18.45-.4,1-.65,1.66-.28.92-.69,2-1,3.31s-.72,2.74-1.05,4.33-.71,3.3-1.06,5.12-.67,3.75-1,5.73-.67,4.05-1,6.14-.66,4.22-.92,6.36-.56,4.26-.84,6.36-.5,4.17-.74,6.18-.43,3.94-.63,5.78-.33,3.59-.49,5.2-.28,3.09-.36,4.42-.19,2.5-.21,3.44c0,.55,0,1-.06,1.42-.48,0-.95,0-1.42,0,2.28-38.86,7.25-58.11,9.39-66.42.09-.33.16-.62.24-.92Zm-1.82-1.55c-.13.53-.27,1.09-.44,1.73-2.16,8.37-7.16,27.74-9.44,66.77-.44-.05-.87-.11-1.28-.19,2.27-39.1,7.25-58.44,9.41-66.78.23-.88.42-1.64.58-2.3A11.19,11.19,0,0,1,306.79,384.17Zm36.5,99.33,3.17-3.29,4.86-5.55c1.82-2,3.57-4.32,5.49-6.72s3.8-5,5.77-7.73,3.79-5.63,5.76-8.52,3.75-6,5.5-9.06c3.6-6.1,6.91-12.33,10.21-18,1.62-2.87,3.29-5.56,4.93-8.09l2.46-3.62,2.52-3.22a31.75,31.75,0,0,1,2.48-2.83c.83-.85,1.56-1.73,2.35-2.45,1.63-1.37,3-2.68,4.22-3.57l4-2.75-4.15,2.5c-1.32.82-2.74,2.05-4.48,3.34-.85.68-1.64,1.51-2.53,2.33a32.83,32.83,0,0,0-2.69,2.71l-2.76,3.12-2.73,3.51c-1.81,2.45-3.68,5.07-5.48,7.85-3.67,5.53-7.37,11.53-11.3,17.34-1.91,2.94-4,5.75-6,8.57s-4,5.49-6.15,8-4,5-6.08,7.18-3.85,4.36-5.71,6.15l-5,5-4.1,3.76-1.1,1c-1.55-.73-3.09-1.47-4.64-2.19l2-1.74c1.45-1.24,3-2.82,4.78-4.43s3.65-3.41,5.53-5.38,3.95-4,5.91-6.22l3-3.36,3-3.56c2-2.36,3.91-4.92,5.84-7.43s3.73-5.12,5.41-7.73,3.34-5.18,4.9-7.69l4.36-7.27c1.39-2.31,2.68-4.5,4-6.46s2.48-3.73,3.59-5.29,2.2-2.8,3-3.88l2.92-3.17-3.14,3c-.91,1-2.08,2.22-3.32,3.68s-2.6,3.16-4,5.07-2.87,4-4.42,6.19l-4.85,6.94c-1.72,2.38-3.48,4.84-5.37,7.25s-3.85,4.82-5.82,7.21-4.07,4.69-6.22,6.86l-3.14,3.26L347,457.14c-2.06,2.05-4.19,3.88-6.18,5.65s-3.9,3.38-5.7,4.82-3.38,2.82-4.92,4l-3.95,3-.8.61c-2.64-1.19-5.29-2.36-8-3.49-1.09-.47-2.22-.92-3.36-1.36s-2.76-1-3.77-1.29l-.42-.11-.21-.06a3.22,3.22,0,0,0-.6-.11c-.53-.07-1.06-.11-1.6-.14a12.36,12.36,0,0,0-2.73.36,25,25,0,0,0-4,1.42,40.13,40.13,0,0,1-5.92,2.25,15.75,15.75,0,0,1-5.44.48l-1.37-.19c-.45-.07-.83-.2-1.25-.29l-.62-.14-.81-.28-1.65-.6a5.59,5.59,0,0,1-2.21-2.73c-1.44-3.19-2-7.67-2.11-12a108.87,108.87,0,0,1,.53-13.45,219.56,219.56,0,0,1,4.39-27.09l.79-3.32.41-1.6.46-1.63q.93-3.28,2-6.48a74.91,74.91,0,0,1,5.24-12.15,31.49,31.49,0,0,1,3.45-5.09,11.29,11.29,0,0,1,3.92-3.18,4.94,4.94,0,0,1,3.41-.19c-.17.72-.39,1.56-.65,2.58-2.16,8.36-7.15,27.71-9.44,66.69l-.12-.08a3.77,3.77,0,0,1-.85-1.49,19.36,19.36,0,0,1-.92-4.73,73.82,73.82,0,0,1-.1-9.85,175.94,175.94,0,0,1,1.84-17.59,248.75,248.75,0,0,1,5-24.41c1.45-5.57,2.49-8.48,2.49-8.48s-1.26,2.82-3.13,8.29a209.76,209.76,0,0,0-6.53,24.2,176.65,176.65,0,0,0-2.93,17.73,69.61,69.61,0,0,0-.46,10.37,23.68,23.68,0,0,0,.88,5.78,7.7,7.7,0,0,0,1.82,3.24,6,6,0,0,0,1.76,1.15,13.56,13.56,0,0,0,1.67.59c4.25,1.08,8.34.75,12.48.19a58.51,58.51,0,0,0,12.38-3.3,59.39,59.39,0,0,0,12-6.22,46.45,46.45,0,0,0,10.61-9.74c5.89-7.43,11.2-15.42,16.86-23.63s11.39-16.73,17.61-25c1.56-2,3.18-4.07,4.83-5.87a18.61,18.61,0,0,1,2.35-2.23l.31-.2h0l.05,0,.47-.19c.66-.26,1.22-.45,1.77-.64,4.85-1.58,11-3.51,16.05-7.4a36.86,36.86,0,0,0,6.74-6.64l1.41-1.88,1.28-1.95c.85-1.31,1.52-2.56,2.25-3.83,2.81-5.05,5.45-10.17,8.06-15.37C427,332.34,432,321.61,436.6,310.53a258.07,258.07,0,0,0,11.95-34.66c1.47-6.1,2.78-12.34,2.68-19.27a32.08,32.08,0,0,0-.57-5.38,22.69,22.69,0,0,0-.77-2.84c-.19-.5-.35-.95-.58-1.48l-.48-1.05c-.61-1.34-1.41-3-2.11-4.31s-1.45-2.78-2.19-4.16c-5.93-10.89-12-21.35-16.81-32.34-.29-.67-.57-1.35-.85-2,0-.11,0-.19,0-.19l-.12,0c-4.31-10.25-7.49-20.87-8.27-31.58a64.44,64.44,0,0,1,.87-17l.44-2.08.1-.52.12-.48.28-1.11,1.11-4.42c.74-3,1.58-5.77,2.36-8.66,6.61-23,14.5-45.51,22.61-67,4.09-10.73,8.29-21.21,12.63-31.34,2.17-5.07,4.39-10,6.69-14.87,1.11-2.45,2.36-4.76,3.51-7.12l.92-1.66.88-1.43a20.94,20.94,0,0,1,2-2.6,8.81,8.81,0,0,1,4.45-2.87,5.68,5.68,0,0,1,4.34,1A9.06,9.06,0,0,1,484,11.24c-1.44,3.29-4.2,9.59-8,18.43-2.86,6.72-6.31,14.88-10.19,24.27s-8.17,20-12.57,31.75-9,24.49-13.21,38.23c-2.11,6.87-4.09,14-5.78,21.37a126.2,126.2,0,0,0-3.4,23c-.06,1-.06,2-.05,3s0,2,.1,3a24.61,24.61,0,0,0,.31,3.11c.19,1,.4,2.05.67,3A93.4,93.4,0,0,0,436,192c3.12,7.49,6.69,14.84,10.36,22.2l11.23,22.09c1.84,3.69,3.71,7.44,5.32,11.14l.59,1.44.44,1.29a22.73,22.73,0,0,1,.54,2.8,40.5,40.5,0,0,1,.19,6c-.39,8.08-2.13,16.22-4.16,24.18s-4.56,15.83-7.27,23.53-5.67,15.26-9,22.49-7.05,14.24-10.89,21-7.85,13.29-12,19.47c-2.09,3.1-4.22,6.11-6.48,8.92a48.81,48.81,0,0,1-3.53,4c-.31.29-.62.62-.92.86a10.72,10.72,0,0,1-1,.77c-.63.45-1.43.89-2.17,1.31-3.07,1.63-6.39,3.08-9.43,4.94a52.87,52.87,0,0,0-8.43,6.24,85.82,85.82,0,0,0-12.89,14.93c-1.77,2.63-3.49,5.2-5,7.76l-4.57,7.46a151,151,0,0,1-9.35,13.1,122.58,122.58,0,0,1-18.35,18.63,114,114,0,0,1-13.85,9.65c-3.38,2-5.25,2.88-5.25,2.88s1.9-.86,5.35-2.71a106.17,106.17,0,0,0,14.2-9.26,124,124,0,0,0,19-18.31,153.42,153.42,0,0,0,9.78-13l4.71-7.41c1.56-2.57,3.29-5.06,5.06-7.59a82.71,82.71,0,0,1,12.76-14.34,49.44,49.44,0,0,1,8.15-5.85c2.93-1.73,6.13-3.07,9.41-4.75a26.54,26.54,0,0,0,2.46-1.44,11.55,11.55,0,0,0,1.17-.9c.41-.33.72-.65,1.09-1a53,53,0,0,0,3.8-4.16c2.39-2.88,4.6-5.92,6.77-9,4.31-6.24,8.35-12.82,12.28-19.62s7.68-13.85,11.12-21.19,6.41-15,9.22-22.74c1.4-3.92,2.75-7.88,4-11.88,0,.22,0,.45.07.67a19.59,19.59,0,0,0,4.74,9.92,26.54,26.54,0,0,0,8.91,6.63,29.85,29.85,0,0,0,4.6,1.6c-.22.73-.41,1.47-.64,2.2a169.25,169.25,0,0,1-9.2,22.52C465,347.47,460.82,355,456.7,362l-.61-.27L455,361.2h0l-1.23-.47a27.16,27.16,0,0,0-3.58-1,27.64,27.64,0,0,0-5.76-.55,22.73,22.73,0,0,0-7.48,1.35,15.81,15.81,0,0,0-7.43,5.52A14.12,14.12,0,0,0,427,376.28a18.59,18.59,0,0,0,3.34,8.1l-.6.37a34.27,34.27,0,0,0-3.24,2.12L419,392.34l-4,3.47a55.22,55.22,0,0,0-4.23,3.83L406.47,404c-1.48,1.45-2.71,3.17-4.11,4.79l-2.07,2.5-1.92,2.67c-1.24,1.82-2.65,3.58-3.79,5.52s-2.42,3.81-3.58,5.77l-3.28,5.72a22.49,22.49,0,0,0-3.07.85,15.84,15.84,0,0,0-7.43,5.53,14.17,14.17,0,0,0-2.46,10.24,16.75,16.75,0,0,0,1.19,4.23c-.48.8-1,1.57-1.48,2.33-1.15,1.75-2.23,3.5-3.37,5.16L367.63,464a53.33,53.33,0,0,1-3.44,4.36l-3.33,4c-2.21,2.47-4.37,4.56-6.2,6.5l-1.34,1.39-1.39,1.24-2.44,2.19-2.09,1.87ZM471.76,284.42a16.75,16.75,0,0,1,6.12-1.13,19.68,19.68,0,0,1,4.85.57,25.47,25.47,0,0,1,3,.95l1,.43,1.06.52a21.38,21.38,0,0,1,2.64,1.65,18.18,18.18,0,0,1,3.44,3.32,16.12,16.12,0,0,1,2.79,5.17,11,11,0,0,1,.13,6.16,9.22,9.22,0,0,1-4.06,5.23,15.63,15.63,0,0,1-7.69,2.24,21.59,21.59,0,0,1-8.67-1.47,21.1,21.1,0,0,1-7.55-4.89,14.45,14.45,0,0,1-4-7.31,9.55,9.55,0,0,1,1.43-7.22A11.81,11.81,0,0,1,471.76,284.42Zm-85.71,151a16.47,16.47,0,0,1,6.11-1.14,19.19,19.19,0,0,1,4.86.58,22.19,22.19,0,0,1,3,.95l1,.41,1.06.53a21.38,21.38,0,0,1,2.64,1.65,17.86,17.86,0,0,1,3.43,3.32,16.12,16.12,0,0,1,2.79,5.17,10.94,10.94,0,0,1,.14,6.16,9.23,9.23,0,0,1-4.06,5.23,15.64,15.64,0,0,1-7.7,2.24,21.62,21.62,0,0,1-8.67-1.47,21.18,21.18,0,0,1-7.55-4.89,14.43,14.43,0,0,1-4-7.31,9.51,9.51,0,0,1,1.42-7.22A11.75,11.75,0,0,1,386.05,435.42Zm6.07-5-.24,0,1.88-3.69c1.05-2,2.17-3.9,3.24-5.83s2.32-3.73,3.45-5.57l1.75-2.71,1.91-2.54c1.29-1.65,2.41-3.4,3.79-4.89l4-4.44a51.2,51.2,0,0,1,4-4l3.83-3.63,7.2-5.79a34,34,0,0,1,3.11-2.26l.6-.4c.37.5.75,1,1.15,1.47s1,1.07,1.52,1.58c-6,3.86-17.21,11.87-24.72,21.9a238.32,238.32,0,0,0-13.08,20.92A26.39,26.39,0,0,0,392.12,430.42ZM416.93,446c2.16-2.85,4.41-5.78,6.65-8.88q1.82-2.5,3.71-5.08c1.22-1.75,2.47-3.52,3.73-5.31,2.54-3.57,5.06-7.3,7.63-11.11s5.16-7.73,7.76-11.74c1.84-2.8,3.67-5.67,5.5-8.56a20.85,20.85,0,0,0,10.55-2.76l-1,1.46c-2.38,3.38-5,6.86-7.64,10.5-5.39,7.22-11.18,14.89-17.12,22.45-6.35,8.15-12.8,16.2-18.86,23.63A15.34,15.34,0,0,0,416.93,446Zm26.45-44.14c-2.67,3.94-5.3,7.81-8,11.53s-5.22,7.4-7.82,10.9l-3.8,5.19-3.79,5c-1.83,2.45-3.66,4.75-5.45,7a21.19,21.19,0,0,0-2.66-3.14,26.79,26.79,0,0,0-3.15-2.58l2-3,7.8-11.93L410,432.19l-2.18,2.91-.62-.39a30.17,30.17,0,0,0-3.06-1.64c9.12-12.09,19.62-26.84,30.68-43.9a27.56,27.56,0,0,0,5.8,3.66A28.13,28.13,0,0,0,448,395C446.46,397.32,444.92,399.62,443.38,401.86Zm8.19-12.59a21.6,21.6,0,0,1-8.67-1.48,21.16,21.16,0,0,1-7.55-4.88,14.52,14.52,0,0,1-4-7.32,9.53,9.53,0,0,1,1.43-7.21,11.77,11.77,0,0,1,5.49-4.22,16.25,16.25,0,0,1,6.11-1.13,19.35,19.35,0,0,1,4.86.57,22.66,22.66,0,0,1,3,.95l1,.42,1.06.52a19.23,19.23,0,0,1,2.64,1.66,17.58,17.58,0,0,1,3.44,3.32,15.92,15.92,0,0,1,2.79,5.17,10.91,10.91,0,0,1,.13,6.15,9.19,9.19,0,0,1-4.06,5.23A15.6,15.6,0,0,1,451.57,389.27Zm12.54-22.21a27.29,27.29,0,0,0-4.68-3.61l-.85-.49c4.29-6.89,8.64-14.32,12.75-22.33a171.31,171.31,0,0,0,9.54-22.84c.27-.82.5-1.66.75-2.5a26.14,26.14,0,0,0,3.54.3,22,22,0,0,0,5.23-.58c-.7,3.12-1.49,6.23-2.45,9.33a113.66,113.66,0,0,1-12.36,27.31q-5.15,8.36-10.33,16.59C464.87,367.82,464.49,367.42,464.11,367.06Zm-110,121.41,2.27-2.25c.43-.41.87-.85,1.33-1.3l1.37-1.56c1.86-2.16,4.07-4.52,6.26-7.22l3.27-4.31a57,57,0,0,0,3.36-4.7l3.36-5.09c1.09-1.76,2.12-3.62,3.21-5.47l.09-.16c.27.36.56.71.85,1s.48.49.72.75c-3.43,6.42-5.69,10.79-5.69,10.79,1.57-1.6,4.27-4.55,7.87-8.74a27.25,27.25,0,0,0,3.16,2.28l-.51.57c-1.9,2-3.75,4.06-5.62,5.94s-3.68,3.69-5.42,5.38-3.46,3.21-5,4.65-3,2.65-4.32,3.78-2.47,2.07-3.43,2.86L358.42,488A20.47,20.47,0,0,1,354.14,488.47Zm22.51-8c-.66-.08-1.29-.2-2-.25.83-.86,1.69-1.76,2.54-2.71,1.66-1.84,3.43-3.75,5.16-5.82s3.53-4.19,5.32-6.38l.92-1.17a28.25,28.25,0,0,0,5.18,1.76c-1.84,2-3.56,3.87-5.1,5.53-3,3.24-5.43,5.9-7,7.72l-1.72,2C378.86,480.9,377.8,480.66,376.65,480.47Zm9.23,2.4.07-.09q2.26-2.7,6.72-7.69c2.18-2.46,4.73-5.31,7.53-8.54a22,22,0,0,0,4.92-.63L403.38,468c-4.64,5.51-8.57,10-11.32,13.18l-2.56,2.88C388.31,483.64,387.1,483.25,385.88,482.87Zm31.33,10.63.14-.17c1.56-1.82,3.79-4.48,6.61-7.9,5.63-6.83,13.56-16.67,22.84-28.66s19.89-26.15,30.78-41.68A580.38,580.38,0,0,0,509.48,365a199.94,199.94,0,0,0,12.85-27.39A138.57,138.57,0,0,0,528.85,309a135.64,135.64,0,0,0,.59-27.35,137.45,137.45,0,0,0-4.09-24.15,145.25,145.25,0,0,0-6.62-19.59,155.06,155.06,0,0,0-6.89-14.38c-2.11-3.88-3.92-6.84-5.19-8.84l-2-3.05,1.92,3.07c1.24,2,3,5,5.07,8.91a157.15,157.15,0,0,1,6.68,14.44,144.29,144.29,0,0,1,6.33,19.61,136.37,136.37,0,0,1,2.8,51.15A138.31,138.31,0,0,1,520.67,337a199.37,199.37,0,0,1-13.08,26.93,577.48,577.48,0,0,1-32.41,49.48c-11.05,15.33-21.84,29.29-31.23,41.14S426.5,476.08,420.8,482.8c-2.84,3.36-5.1,6-6.65,7.75l-1.37,1.54-4-1.33,2.54-3.17,12.95-16.36c5.32-6.8,11.52-14.75,18-23.35s13.4-17.83,20.17-27.15c3.4-4.64,6.69-9.37,10-14L481.92,393c2.94-4.53,5.88-8.84,8.5-13l3.8-6.12c1.25-2,2.41-3.89,3.46-5.78s2.11-3.67,3.08-5.38l1.43-2.49,1.23-2.42c1.56-3.15,3.06-5.82,4-8.14l3-7.3s-1.16,2.63-3.2,7.22c-1,2.29-2.6,4.93-4.23,8L501.78,360l-1.48,2.46-3.21,5.28c-1.09,1.86-2.3,3.75-3.59,5.69l-3.94,6c-2.71,4.13-5.75,8.37-8.79,12.81s-6.41,8.88-9.73,13.46-6.78,9.17-10.29,13.72c-7,9.13-14,18.2-20.78,26.61s-13.08,16.21-18.55,22.87l-13.33,16c-1.55,1.85-2.77,3.31-3.64,4.33l-2.73-.95,7.61-9.28c6.1-7.42,14.81-18.05,25-31s21.79-28.32,33.48-45.32c5.84-8.5,11.71-17.41,17.35-26.67a323.32,323.32,0,0,0,15.81-28.87c4.67-10,8.9-20.35,10.74-31.32a139,139,0,0,0-3.62-61.38c-1.34-4.57-2.83-8.95-4.5-13.11s-3.49-8.08-5.42-11.75a131.83,131.83,0,0,0-12-19.13,126.84,126.84,0,0,0-11.43-13.11c-3.42-3.4-6.34-5.81-8.31-7.47l-3.1-2.44,3,2.62c1.86,1.77,4.63,4.33,7.82,7.91a136.33,136.33,0,0,1,10.77,13.43,143.68,143.68,0,0,1,20.76,43.75,136.08,136.08,0,0,1,3,60.19c-1.79,10.39-6,20.57-10.64,30.37a319.47,319.47,0,0,1-15.81,28.47c-5.65,9.16-11.54,18-17.4,26.4-11.76,16.82-23.37,32.09-33.48,45.05s-18.81,23.54-24.9,31l-8.51,10.36-3.17-1.11,1.16-1.4c2.68-3.28,6.48-8,10.94-13.65,9-11.35,20.65-26.65,32-42.23,5.68-7.77,11.23-15.64,16.37-23,2.53-3.74,5-7.32,7.3-10.77l2.7-4.09a15,15,0,0,0,4.26-6.61c1.71-2.67,3.29-5.16,4.63-7.42,1.5-2.52,2.87-4.67,3.88-6.52,2.08-3.66,3.26-5.76,3.26-5.76L477.69,370c-1.07,1.81-2.51,3.92-4.1,6.38-1.11,1.74-2.37,3.61-3.73,5.6a15.24,15.24,0,0,0-1.18-8.37,19.34,19.34,0,0,0-1.6-2.89q5.32-8.84,10.59-17.77a117.29,117.29,0,0,0,12.16-28c1-3.48,1.89-7,2.6-10.5a19.35,19.35,0,0,0,3.72-1.67,15.33,15.33,0,0,0,6.88-8.94,14.88,14.88,0,0,0-.85-10,20.38,20.38,0,0,0-4.57-6.51,27.2,27.2,0,0,0-2.54-2.15,124.22,124.22,0,0,0-1.41-16.89,122.15,122.15,0,0,0-14.91-42.8,129.17,129.17,0,0,0-8.91-13.35c-1.3-1.81-2.64-3.29-3.72-4.63s-2.08-2.43-2.88-3.32l-2.45-2.7,2.41,2.74c.79.89,1.77,2,2.83,3.35s2.37,2.86,3.64,4.69a125.87,125.87,0,0,1,8.69,13.44,122.4,122.4,0,0,1,15.31,58.49c-.25-.16-.5-.33-.74-.47a30.52,30.52,0,0,0-3.34-1.77l-1.15-.48,0,0-1.24-.46c-.23-.09-.5-.18-.8-.27,0-.32,0-.64,0-1A103.38,103.38,0,0,0,484.8,267a91.69,91.69,0,0,0-7.86-23.59,176.31,176.31,0,0,0-11.44-20.09c-4-6.15-7.88-11.84-11.39-17.15s-6.63-10.22-9.19-14.69a73.34,73.34,0,0,1-5.66-12,37.27,37.27,0,0,1-2-8.33,19,19,0,0,1-.15-2.26l0-.78s0,.26,0,.78a21.51,21.51,0,0,0,0,2.27,34.48,34.48,0,0,0,1.54,8.52,74.22,74.22,0,0,0,5.16,12.45c2.34,4.65,5.32,9.71,8.72,15.11s7.11,11.22,10.89,17.44a221.19,221.19,0,0,1,11,20,87.47,87.47,0,0,1,7.38,22.92,109.55,109.55,0,0,1,1.36,12.31,26.76,26.76,0,0,0-5.27-.47,23.25,23.25,0,0,0-7.47,1.35,16,16,0,0,0-7,4.94c.16-.58.33-1.15.48-1.74,2.09-8.1,4-16.34,4.36-24.94a44.84,44.84,0,0,0-.25-6.53,26.18,26.18,0,0,0-.67-3.33c-.19-.55-.36-1.1-.57-1.67l-.61-1.44c-1.73-3.93-3.6-7.62-5.48-11.35l-11.33-22c-3.69-7.31-7.27-14.6-10.38-21.94a92.29,92.29,0,0,1-4-11.07,22.84,22.84,0,0,1-.92-5.53c-.08-1-.11-2-.1-2.89s0-1.88,0-2.84A93.88,93.88,0,0,1,435.1,157c.56-3.76,1.22-7.47,2-11.12,1.56-7.31,3.43-14.4,5.42-21.26,4-13.72,8.4-26.52,12.61-38.28,8.5-23.49,16.12-42.89,21.51-56.44,3.55-8.88,6.09-15.25,7.42-18.59A7,7,0,0,1,485,13c.06.17.08.31.12.44a1.27,1.27,0,0,1,0,.14l-.2.74c-.33,1.07-.73,2.23-1.13,3.37-3.35,9.19-7,18.15-10.33,26.72s-6.53,16.86-9.57,24.71-5.74,15.37-8.31,22.43c-5.13,14.13-9.25,26.58-12.4,36.93s-5,18.7-5.64,24.53a41.55,41.55,0,0,0-.29,6.67,14.45,14.45,0,0,0,.16,1.7c.06.38.08.57.08.57a40.63,40.63,0,0,1,1-5.52l3,1.05c1.06.42,2.26,1,3.69,1.57s3.06,1.51,4.82,2.42,3.65,2,5.58,3.24l3,1.86,3.07,2.07c2.11,1.37,4.17,3,6.32,4.5s4.26,3.22,6.31,5,4.14,3.46,6.12,5.23,3.86,3.58,5.72,5.3,3.55,3.49,5.1,5.22,3.08,3.31,4.36,4.88,2.51,3,3.48,4.31,1.9,2.44,2.54,3.44l2.09,3.09-1.89-3.23c-.57-1-1.4-2.23-2.31-3.61s-2-2.92-3.21-4.55-2.59-3.38-4.06-5.2-3.14-3.66-4.8-5.6-3.5-3.85-5.41-5.74-3.83-3.84-5.84-5.69-4.07-3.66-6.07-5.47-4.08-3.47-6.14-5l-3-2.32L458,161c-1.9-1.41-3.83-2.57-5.56-3.73s-3.42-2.05-4.93-2.89-2.95-1.52-4.07-2L440,150.93c.68-2.25,1.51-4.81,2.46-7.69l1.26.55c1.14.47,2.43,1.11,3.91,1.84l2.36,1.16,2.6,1.41c1.83,1,3.75,2.11,5.79,3.32s4.12,2.59,6.3,4,4.37,3,6.55,4.61,4.39,3.31,6.59,5,4.33,3.49,6.38,5.31,4.08,3.59,6,5.35c3.83,3.55,7.31,7,10.2,10s5.23,5.62,6.85,7.46l1.34,1.55c.58.71,1.16,1.42,1.73,2.16a145.28,145.28,0,0,1,16.41,26,136.22,136.22,0,0,1,11.07,32.4,138.93,138.93,0,0,1,2.5,36.46,156.75,156.75,0,0,1-7,37.05,187.69,187.69,0,0,1-6.65,17.74c-2.55,5.86-5.36,11.38-8.33,16.92-6,11-12.53,21.42-19.19,31.33-13.32,19.81-27,37.49-38.9,52.42s-22.32,27-29.63,35.46l-10.28,11.68C419.28,494.16,418.24,493.82,417.21,493.5Zm22.21,3.69h0s0,0-.07,0a2.42,2.42,0,0,1-.6.21,9.49,9.49,0,0,1-2.25.22c1.61-1.76,3.59-4,5.91-6.67,6.31-7.31,15.14-17.87,25.33-30.85S489.59,431.81,501.5,415c5.93-8.44,11.94-17.26,17.77-26.42A319.73,319.73,0,0,0,535.79,360a139.74,139.74,0,0,0,6.49-15.32c1.85-5.24,3.52-10.47,5-15.74a174.49,174.49,0,0,0,5.53-31.52,145,145,0,0,0-.64-29.89,141.43,141.43,0,0,0-5.81-26.11,139.17,139.17,0,0,0-8.74-20.8,155.31,155.31,0,0,0-8.86-14.94c-2.72-4-5-7-6.57-9s-2.46-3.09-2.46-3.09l2.35,3.17c1.52,2.07,3.68,5.17,6.25,9.22a155.72,155.72,0,0,1,8.3,15.14,150.29,150.29,0,0,1,8,20.84,138.25,138.25,0,0,1,5.07,25.86,149.85,149.85,0,0,1,0,29.35,171.44,171.44,0,0,1-6,30.81c-1.5,5.14-3.24,10.26-5.13,15.3A143.11,143.11,0,0,1,532,358.09,314.1,314.1,0,0,1,515.4,386c-5.89,9-12,17.69-18,26-12,16.66-23.68,31.87-33.9,44.74s-18.93,23.43-25.19,30.65c-3.11,3.62-5.64,6.41-7.33,8.23l-1.15,1.21c-1-.2-2.09-.43-3.15-.68l8.26-9.67c7.23-8.57,17.45-20.89,29.26-36s25.22-33.14,38.35-53.29c6.56-10.08,13-20.71,18.92-31.92,2.9-5.58,5.76-11.42,8.19-17.27a189.25,189.25,0,0,0,6.51-18.19,159.3,159.3,0,0,0,6.56-37.8,141.69,141.69,0,0,0-3.09-37A138,138,0,0,0,528,222.4a145.85,145.85,0,0,0-16.93-26,142.35,142.35,0,0,0-9.9-11.08l-.09-.1c-2.7-3.21-6-6.86-9.62-10.67-1.82-1.89-3.72-3.84-5.71-5.76s-4.06-3.83-6.12-5.75-4.2-3.74-6.36-5.49-4.29-3.45-6.37-5.09-4.18-3.12-6.19-4.48-3.91-2.68-5.74-3.78l-2.6-1.62-2.42-1.38c-1.53-.87-2.87-1.63-3.95-2.16l-1.76-.9q1.1-3.21,2.36-6.82l2.37,1.16c1.12.53,2.44,1.2,3.89,2s3.15,1.68,4.93,2.77,3.73,2.22,5.73,3.53,4.08,2.74,6.23,4.22,4.31,3.11,6.46,4.83l3.26,2.57,3.21,2.69c2.14,1.81,4.24,3.67,6.27,5.53s4,3.73,5.88,5.57,3.65,3.67,5.34,5.39,3.25,3.39,4.65,5c2.86,3.1,5.16,5.76,6.77,7.62l2.51,2.94-2.36-3.07c-1.5-1.94-3.67-4.72-6.36-8-1.33-1.65-2.84-3.37-4.4-5.22s-3.28-3.75-5.09-5.68-3.67-3.93-5.62-5.92-4-4-6-5.9c-1-1-2.07-1.93-3.11-2.88s-2.11-1.86-3.16-2.78c-2.09-1.85-4.23-3.57-6.3-5.25s-4.12-3.23-6.13-4.62-3.88-2.76-5.67-3.92-3.46-2.22-4.95-3.13-2.81-1.7-3.88-2.27l-2.87-1.6q1.06-2.94,2.25-6.09a194.52,194.52,0,0,1,22,12.29,187.56,187.56,0,0,1,21.53,16.68,181.82,181.82,0,0,1,18.85,19.7,192.55,192.55,0,0,1,15.94,22.19A208.15,208.15,0,0,1,551,241.5a180.3,180.3,0,0,1,7.74,53.79,134.4,134.4,0,0,1-.91,13.48c-.25,2.23-.66,4.34-1,6.52l-.72,3.42-.36,1.71-.16.72-.22.81a149.33,149.33,0,0,1-9.51,25.34c-7.8,16.58-17.43,32.45-27.6,47.93s-21.1,30.55-32.34,45.35S463,469.88,451,484c-3,3.54-6,7.07-9.1,10.49l-2.3,2.5-.14.15Z"/><path class="cls-1" d="M457.54,382l.32-.56a6.35,6.35,0,0,0,.56-1.49,7.53,7.53,0,0,0-.7-5.36,10.92,10.92,0,0,0-2.64-3.36,16.61,16.61,0,0,0-2.59-1.83,15.89,15.89,0,0,0-1.8-.91l-.62-.27h0l-.67-.25a14.44,14.44,0,0,0-1.91-.56,17.37,17.37,0,0,0-3.08-.39,11.94,11.94,0,0,0-4,.53,7.9,7.9,0,0,0-4.08,2.84,6.68,6.68,0,0,0-1.07,5.41,10.47,10.47,0,0,0,2.88,5,16.39,16.39,0,0,0,4.78,3.29,18.38,18.38,0,0,0,5.72,1.58,11.33,11.33,0,0,0,6-1,7.88,7.88,0,0,0,2.47-2Zm-8.92,1.64a11.87,11.87,0,0,1-5.18-.78,15.16,15.16,0,0,1-2.4-1.28,10.07,10.07,0,0,1-2-1.7,8.77,8.77,0,0,1-2.33-4.39,5.41,5.41,0,0,1,.91-4.25,6.76,6.76,0,0,1,3.24-2.32,11,11,0,0,1,6.33-.2,11.38,11.38,0,0,1,1.73.56l.59.23.59.3a10.91,10.91,0,0,1,5.19,5.83,6.22,6.22,0,0,1,.16,3.52,5.15,5.15,0,0,1-.31.8l-.28.54-.23.31a6.45,6.45,0,0,1-1.47,1.36A9.25,9.25,0,0,1,448.62,383.65Z"/><path class="cls-1" d="M460.72,383.59c.15-.24.27-.48.4-.72a8.1,8.1,0,0,0,.64-1.66,9.81,9.81,0,0,0-.55-6.32,13.64,13.64,0,0,0-3-4.38,19.16,19.16,0,0,0-5.42-3.81l-.81-.37h0l-.87-.31a17.66,17.66,0,0,0-2.49-.68,16.52,16.52,0,0,0-4-.37,15.09,15.09,0,0,0-5.05,1,10.38,10.38,0,0,0-4.8,3.59,8.43,8.43,0,0,0-1.37,6.42,13.2,13.2,0,0,0,3.23,6.43,18.54,18.54,0,0,0,6.06,4.42,19.86,19.86,0,0,0,7.42,1.66,14.07,14.07,0,0,0,7.23-1.71,10.14,10.14,0,0,0,2.79-2.38ZM450.17,387a18.5,18.5,0,0,1-6.87-1.41,18.89,18.89,0,0,1-6-3.82,12.12,12.12,0,0,1-3.54-5.89,7.61,7.61,0,0,1,1.26-6.23,9,9,0,0,1,4.77-3.22,13.45,13.45,0,0,1,4.87-.52,20.31,20.31,0,0,1,3.71.61,17,17,0,0,1,2.29.77l.78.33.79.37a16.81,16.81,0,0,1,2.08,1.2,16.07,16.07,0,0,1,2.86,2.37,13.39,13.39,0,0,1,2.64,3.93,8.26,8.26,0,0,1,.53,5.34,6.52,6.52,0,0,1-.51,1.34c-.13.24-.25.49-.39.71l-.42.58a9.09,9.09,0,0,1-2.37,2A13.19,13.19,0,0,1,450.17,387Z"/><path class="cls-1" d="M353.77,437.9a147.69,147.69,0,0,0,9.63-12.6c1.59-2.29,3.09-4.78,4.65-7.21s3.15-5,4.9-7.45a91.58,91.58,0,0,1,12.13-14.29,55.1,55.1,0,0,1,7.72-6,75.74,75.74,0,0,1,9-4.75,40.69,40.69,0,0,0,4.83-2.58,25.91,25.91,0,0,0,4.16-3.83,97.13,97.13,0,0,0,6.87-8.64c4.34-6,8.34-12.4,12.24-19S437.54,338.11,441,331s6.54-14.51,9.38-22,5.4-15.24,7.58-23.12a122.7,122.7,0,0,0,4.5-24.28c.15-4.18.15-8.49-1.46-12.78-1.58-3.9-3.42-7.52-5.23-11.17l-11-21.53c-3.61-7.12-7.12-14.23-10.24-21.36-1.55-3.57-3-7.15-4.18-10.75a42.21,42.21,0,0,1-1.44-5.39c-.11-.44-.14-.88-.21-1.32l0-.32c0-.1,0-.06,0-.13v-.18l0-.72c-.06-.95-.15-1.92-.14-2.82a110.12,110.12,0,0,1,2.15-22c1.32-7.15,3.06-14.09,4.9-20.8,3.72-13.43,8-25.93,12-37.42,8.24-22.93,15.66-41.87,20.92-55.09l8.27-20.77s-.81,1.86-2.35,5.35-3.74,8.63-6.57,15.16-6.16,14.5-9.94,23.67-8,19.54-12.23,31-8.7,23.92-12.65,37.39c-2,6.73-3.82,13.71-5.27,21a105.29,105.29,0,0,0-2.39,22.64c0,1,.08,1.94.13,2.9l.05.72v.18l0,.23.05.38c.08.51.12,1,.23,1.52a45.66,45.66,0,0,0,1.51,5.8c1.22,3.76,2.68,7.43,4.25,11.06,3.13,7.26,6.62,14.42,10.2,21.59l10.9,21.57c1.78,3.62,3.59,7.26,5.05,10.9,1.27,3.36,1.34,7.39,1.16,11.29A121.16,121.16,0,0,1,454.6,285c-2.1,7.76-4.62,15.39-7.36,22.85s-5.73,14.79-9.15,21.78-7.09,13.8-10.9,20.36-7.81,12.87-12,18.85a98.68,98.68,0,0,1-6.53,8.49,23,23,0,0,1-3.63,3.46,39.51,39.51,0,0,1-4.43,2.45,78,78,0,0,0-9.19,5,58.52,58.52,0,0,0-8,6.41,93.81,93.81,0,0,0-12.22,14.85c-1.76,2.55-3.31,5.1-4.82,7.59s-3,4.92-4.49,7.25a147.44,147.44,0,0,1-9.22,12.7,121.18,121.18,0,0,1-18.05,18,112.17,112.17,0,0,1-13.55,9.36c-3.3,1.9-5.13,2.8-5.13,2.8s1.85-.83,5.22-2.63a103.91,103.91,0,0,0,13.9-9A122.66,122.66,0,0,0,353.77,437.9Z"/><path class="cls-1" d="M482,361.78a2.06,2.06,0,1,0-1-2.73A2.06,2.06,0,0,0,482,361.78Z"/><path class="cls-1" d="M486.22,354a1.47,1.47,0,1,0-.73-1.95A1.47,1.47,0,0,0,486.22,354Z"/><path class="cls-1" d="M489.36,347.25a1,1,0,0,0,1.36-.51,1,1,0,1,0-1.36.51Z"/><path class="cls-1" d="M384.25,196.14a124.8,124.8,0,0,0-15.47-13.26,100.71,100.71,0,0,0-23.39-12.56,93.62,93.62,0,0,0-31-6,103.06,103.06,0,0,0-34.83,5.28,95.59,95.59,0,0,0-17.2,7.47l-.6.36-.49.33-1,.66-2,1.32-3.86,2.75c-2.55,1.89-5.08,3.83-7.54,5.87a161.2,161.2,0,0,0-26.72,28.05A167.23,167.23,0,0,0,201.05,250,181.45,181.45,0,0,0,190,285.75a195.78,195.78,0,0,0-3.85,34.71,134.77,134.77,0,0,0,.59,16.21c.73,5.14,1.42,10.11,2.1,14.88a210.49,210.49,0,0,1,1.76,26.08,149.25,149.25,0,0,1-1.48,20.11c-.78,5.55-1.66,9.88-2.28,12.82s-1,4.5-1,4.5L187,410.6c.73-2.92,1.8-7.2,2.8-12.74a149.22,149.22,0,0,0,2.11-20.2,211.31,211.31,0,0,0-1-26.34c-.26-2.4-.49-4.86-.83-7.35s-.71-5.06-.94-7.54a130.37,130.37,0,0,1-.27-15.89A191.42,191.42,0,0,1,204.7,251.6a163,163,0,0,1,19-32.58,156.67,156.67,0,0,1,26.07-27.19c2.41-2,4.87-3.86,7.36-5.7l3.77-2.66,1.91-1.28.95-.64.48-.32.4-.24A94.6,94.6,0,0,1,281,173.84a105.39,105.39,0,0,1,16.83-4.14,98.81,98.81,0,0,1,16.54-1.32,94.72,94.72,0,0,1,29.92,5,103.46,103.46,0,0,1,23.21,11.36,127,127,0,0,1,16,12.21c4.16,3.75,7.2,6.93,9.31,9.08l3.14,3.38L393,205.83C391.1,203.51,388.24,200.13,384.25,196.14Z"/><path class="cls-1" d="M270,183.42l1.83-1.06-1.92.88c-1.24.61-3.07,1.48-5.3,2.79a92,92,0,0,0-7.82,5.07,88.07,88.07,0,0,0-9.36,7.73,78.71,78.71,0,0,0-17.79,24.72,64.66,64.66,0,0,0-5.25,34.64c.11,1.51.43,3,.65,4.48l.73,4.31c.19,1.41.37,2.82.56,4.22s.29,2.84.37,4.26a137.07,137.07,0,0,1,0,16.71,184.92,184.92,0,0,1-4.39,29.48c-2,8.54-4,15.59-5.67,20.45s-2.69,7.61-2.69,7.61,1.41-2.59,3.43-7.33a177.79,177.79,0,0,0,7.19-20.14,155,155,0,0,0,5.63-29.81,114.45,114.45,0,0,0,.27-17.22c-.08-1.47-.23-2.94-.35-4.41s-.37-3-.55-4.47l-.73-4.36c-.21-1.41-.52-2.81-.64-4.23a64.58,64.58,0,0,1,4.5-32.86,73.94,73.94,0,0,1,7.42-13.63,91.19,91.19,0,0,1,8.81-10.9,96.94,96.94,0,0,1,16-13.7C267.14,185.21,268.84,184.13,270,183.42Z"/><path class="cls-1" d="M176.82,440c-.19.5-.37,1-.59,1.57l-.76,1.62c-.52,1.1-1.06,2.26-1.63,3.48s-1.12,2.48-1.72,3.79a43.13,43.13,0,0,1-2.13,3.91,71.92,71.92,0,0,1-5,8.14L162,466.64c-1,1.41-2.22,2.61-3.33,3.94l-1.72,2a16.26,16.26,0,0,1-1.82,1.89L151.25,478l-1,.89-1.06.78-2.12,1.55a32.77,32.77,0,0,1-4.33,2.91c-1.5.84-3,1.74-4.45,2.55l-4.57,2.05a15.34,15.34,0,0,1-2.28.88l-2.27.78-2.22.76-2.23.53c-1.48.3-2.88.8-4.3,1l-4.08.63a69.58,69.58,0,0,1-7.22.45c-1.08,0-2.1,0-3,0l-2.56-.18c-1.56-.06-2.78-.34-3.61-.41L98.66,493l1.24.36a25.5,25.5,0,0,0,3.54.86l2.59.47c.94.14,2,.2,3.07.32a26.45,26.45,0,0,0,3.52.17c1.24,0,2.55,0,3.91,0a61.85,61.85,0,0,0,8.73-1.19l2.34-.48,2.33-.71a40.17,40.17,0,0,0,4.78-1.62L139.5,489c1.56-.81,3.09-1.74,4.65-2.64a35.38,35.38,0,0,0,4.48-3.05l2.2-1.63,1.09-.83,1-.93,4-3.74a17.38,17.38,0,0,0,1.85-2l1.73-2.06c1.12-1.4,2.39-2.67,3.35-4.13l2.86-4.32a72.66,72.66,0,0,0,4.79-8.52,40.88,40.88,0,0,0,2-4.05c.55-1.35,1.08-2.66,1.58-3.91s1-2.47,1.41-3.61c.22-.58.43-1.14.65-1.68s.32-1.1.48-1.62l1.58-5.45,1.32-4.75s-.63,1.68-1.74,4.61C178.22,436.18,177.57,438,176.82,440Z"/><path class="cls-1" d="M383,447.05a10.51,10.51,0,0,0,2.88,5,16.25,16.25,0,0,0,4.79,3.29,18.4,18.4,0,0,0,5.72,1.59,11.31,11.31,0,0,0,5.95-1,8.06,8.06,0,0,0,2.48-2l.51-.71.32-.56a6.08,6.08,0,0,0,.56-1.49,7.55,7.55,0,0,0-.69-5.37,11,11,0,0,0-2.65-3.35,16.29,16.29,0,0,0-2.59-1.84,16.87,16.87,0,0,0-1.79-.91l-.62-.26h0l-.66-.25a13.86,13.86,0,0,0-1.91-.56,17.28,17.28,0,0,0-3.08-.4,11.74,11.74,0,0,0-4,.54,7.82,7.82,0,0,0-4.08,2.83A6.74,6.74,0,0,0,383,447.05Zm5.62-6.86a11.06,11.06,0,0,1,6.33-.21,14.48,14.48,0,0,1,1.74.56l.58.23.59.31a9.86,9.86,0,0,1,1.53,1,10.37,10.37,0,0,1,3.66,4.87,6.22,6.22,0,0,1,.17,3.52,6.4,6.4,0,0,1-.31.8l-.29.54a3.55,3.55,0,0,0-.23.31,6.45,6.45,0,0,1-1.47,1.36,9.35,9.35,0,0,1-4.51,1.47,12,12,0,0,1-5.17-.79,14,14,0,0,1-2.4-1.27,10.12,10.12,0,0,1-2-1.71,8.76,8.76,0,0,1-2.34-4.38,5.41,5.41,0,0,1,.91-4.25A6.81,6.81,0,0,1,388.61,440.19Z"/><path class="cls-1" d="M381.23,447.2a13,13,0,0,0,3.23,6.42,18.4,18.4,0,0,0,6.08,4.44,19.71,19.71,0,0,0,7.4,1.64,13.91,13.91,0,0,0,7.22-1.7,10.36,10.36,0,0,0,2.8-2.38l.55-.77c.15-.25.26-.48.39-.72a8.1,8.1,0,0,0,.64-1.66,9.67,9.67,0,0,0-.55-6.32,13.69,13.69,0,0,0-3-4.39,18.31,18.31,0,0,0-3.14-2.54,17.71,17.71,0,0,0-2.28-1.26l-.8-.37h0l-.86-.31a17.82,17.82,0,0,0-2.49-.69,16.66,16.66,0,0,0-4-.36,14.85,14.85,0,0,0-5.05,1,10.4,10.4,0,0,0-4.8,3.58A8.46,8.46,0,0,0,381.23,447.2Zm6.33-9.52a14,14,0,0,1,4.87-.52,19.53,19.53,0,0,1,3.72.62,16.12,16.12,0,0,1,2.29.77l.78.33.78.37a15.83,15.83,0,0,1,2.09,1.19,17,17,0,0,1,2.85,2.38,13.16,13.16,0,0,1,2.65,3.92,8.29,8.29,0,0,1,.52,5.35,7.39,7.39,0,0,1-.5,1.34c-.13.23-.26.49-.39.71l-.43.57a8.67,8.67,0,0,1-2.36,2,13.26,13.26,0,0,1-6.48,1.55,18.44,18.44,0,0,1-6.89-1.43,19,19,0,0,1-6-3.8,12.06,12.06,0,0,1-3.54-5.89,7.59,7.59,0,0,1,1.25-6.24A9,9,0,0,1,387.56,437.68Z"/><path class="cls-1" d="M468.71,296.06a10.43,10.43,0,0,0,2.88,5,16.07,16.07,0,0,0,4.78,3.29,18.4,18.4,0,0,0,5.72,1.59,11.35,11.35,0,0,0,6-1,8,8,0,0,0,2.47-2l.52-.7.31-.56a6.57,6.57,0,0,0,.57-1.49,7.61,7.61,0,0,0-.7-5.37,10.9,10.9,0,0,0-2.64-3.35,16.75,16.75,0,0,0-2.59-1.84,17.82,17.82,0,0,0-1.8-.91l-.62-.26h0l-.66-.25a13.44,13.44,0,0,0-1.91-.56,17.28,17.28,0,0,0-3.08-.4,11.77,11.77,0,0,0-4,.54,7.8,7.8,0,0,0-4.07,2.83A6.66,6.66,0,0,0,468.71,296.06Zm5.61-6.86a11,11,0,0,1,6.34-.21,14.21,14.21,0,0,1,1.73.56l.58.23.59.31a10,10,0,0,1,1.53,1,10.32,10.32,0,0,1,3.66,4.88,6.13,6.13,0,0,1,.17,3.52,5.15,5.15,0,0,1-.31.8l-.28.54a3.65,3.65,0,0,0-.24.31,6.47,6.47,0,0,1-1.47,1.36,9.31,9.31,0,0,1-4.5,1.47,12,12,0,0,1-5.18-.79,14,14,0,0,1-2.4-1.27,10.12,10.12,0,0,1-2-1.71,8.67,8.67,0,0,1-2.33-4.38,5.41,5.41,0,0,1,.9-4.25A6.79,6.79,0,0,1,474.32,289.2Z"/><path class="cls-1" d="M466.94,296.21a13,13,0,0,0,3.23,6.42,18.24,18.24,0,0,0,6.08,4.43,19.58,19.58,0,0,0,7.4,1.65,14.07,14.07,0,0,0,7.23-1.7,10.47,10.47,0,0,0,2.79-2.38l.55-.77c.15-.25.26-.48.4-.73a8.39,8.39,0,0,0,.64-1.65,9.79,9.79,0,0,0-.55-6.32,13.7,13.7,0,0,0-3-4.39,19.16,19.16,0,0,0-5.41-3.8l-.81-.37h0l-.87-.31a17.82,17.82,0,0,0-2.49-.69,16.57,16.57,0,0,0-4-.36,14.94,14.94,0,0,0-5.06,1,10.33,10.33,0,0,0-4.79,3.58A8.42,8.42,0,0,0,466.94,296.21Zm6.33-9.52a13.72,13.72,0,0,1,4.87-.52,19.53,19.53,0,0,1,3.72.62,15.68,15.68,0,0,1,2.29.77l.78.32.78.38a15.83,15.83,0,0,1,2.09,1.19,17.41,17.41,0,0,1,2.86,2.38,13.33,13.33,0,0,1,2.64,3.92,8.3,8.3,0,0,1,.53,5.35,6.74,6.74,0,0,1-.51,1.34c-.13.23-.26.49-.39.71l-.43.57a8.53,8.53,0,0,1-2.36,2,13.25,13.25,0,0,1-6.47,1.55,18.45,18.45,0,0,1-6.9-1.43,19,19,0,0,1-6-3.8,12.21,12.21,0,0,1-3.54-5.89,7.63,7.63,0,0,1,1.25-6.24A9.08,9.08,0,0,1,473.27,286.69Z"/><path class="cls-1" d="M58.71,429.88c-.39-3-.88-6.26-1.53-9.68s-1.61-7-2.6-10.66c-.51-1.82-1-3.68-1.57-5.55s-1.15-3.75-1.74-5.65c-1.12-3.82-2.49-7.62-3.75-11.46s-2.7-7.62-4.19-11.32-3-7.29-4.54-10.77l-2.33-5.07c-.81-1.63-1.59-3.23-2.36-4.79-1.58-3.1-3.09-6-4.6-8.64-3-5.27-5.68-9.54-7.52-12.55-.91-1.5-1.65-2.68-2.09-3.51l-.7-1.27.62,1.31c.39.85,1.06,2.07,1.89,3.63,1.69,3.1,4.2,7.48,6.94,12.85,1.36,2.7,2.83,5.61,4.31,8.74q1.08,2.36,2.21,4.83t2.19,5.1c1.43,3.49,2.88,7.1,4.26,10.81s2.72,7.5,4.07,11.28,2.54,7.63,3.62,11.44c.57,1.89,1.12,3.78,1.68,5.63s1,3.72,1.52,5.54l1.5,5.33c.46,1.78.85,3.45,1.23,5.14.73,3.36,1.31,6.58,1.86,9.54,1.06,5.95,2,10.91,2.68,14.37.34,1.74.62,3.09.84,4l.32,1.41s-.21-2-.57-5.52S59.52,435.89,58.71,429.88Z"/><path class="cls-1" d="M63.86,442.8c0-1.78-.09-3.93-.2-6.41s-.31-5.25-.56-8.29c-.53-6.07-1.34-13.14-2.61-20.66-.66-3.74-1.36-7.68-2.44-11.54s-2.15-7.78-3.4-11.65c-.59-1.95-1.21-3.88-1.89-5.79s-1.27-3.84-2-5.71-1.39-3.74-2.12-5.56-1.5-3.6-2.26-5.35L44,356.74c-.82-1.65-1.63-3.25-2.41-4.81-1.63-3.1-3.23-6-4.8-8.61-3.16-5.21-6.07-9.37-8-12.34-1-1.48-1.72-2.64-2.18-3.48l-.72-1.26.63,1.31c.4.86,1.08,2.09,2,3.62,1.79,3.07,4.47,7.37,7.37,12.7,1.47,2.64,3,5.56,4.5,8.68l2.24,4.84c.72,1.67,1.44,3.38,2.18,5.12s1.41,3.55,2.12,5.36,1.36,3.67,2.05,5.53,1.29,3.78,1.94,5.68,1.25,3.83,1.81,5.77c1.21,3.85,2.23,7.76,3.26,11.6s1.79,7.62,2.47,11.35,1.3,7.33,1.81,10.77,1,6.68,1.39,9.69.74,5.77,1,8.21.53,4.59.69,6.36c.31,3.53.49,5.55.49,5.55s0-.51,0-1.46S63.9,444.57,63.86,442.8Z"/><path class="cls-1" d="M21.11,326.11c.75,1.21,1.57,2.26,2.25,3.17s1.32,1.62,1.75,2.12.7.77.7.77-.18-.33-.51-.9-.8-1.4-1.4-2.36-1.21-2.12-1.92-3.33-1.43-2.53-2.14-3.85-1.4-2.65-2-3.91-1.19-2.44-1.62-3.48-.81-1.9-1-2.53a7.52,7.52,0,0,1-.31-1s0,.1,0,.27,0,.44.09.77a19.91,19.91,0,0,0,.63,2.69c.16.55.36,1.13.57,1.75s.44,1.27.73,1.93c.54,1.32,1.21,2.68,1.91,4S20.32,324.92,21.11,326.11Z"/><path class="cls-1" d="M17.49,330.38c-.8-1.45-1.87-3.37-2.93-5.3s-2-3.89-2.72-5.39c-.34-.75-.63-1.38-.79-1.83s-.26-.72-.26-.72a5.45,5.45,0,0,0,.05.77,15.11,15.11,0,0,0,.41,2,28.47,28.47,0,0,0,2.31,5.71,32.82,32.82,0,0,0,3.37,5.13,19,19,0,0,0,1.89,2.08l-.36-.69C18.23,331.71,17.89,331.11,17.49,330.38Z"/><path class="cls-1" d="M27.19,323.64c.76,1.21,1.58,2.26,2.25,3.18s1.32,1.61,1.75,2.12.7.77.7.77-.17-.34-.51-.91-.8-1.39-1.39-2.35-1.22-2.12-1.93-3.34-1.43-2.52-2.14-3.84-1.4-2.65-2-3.91-1.19-2.44-1.62-3.48-.8-1.91-1-2.53-.31-1-.31-1,0,.09,0,.27a5.71,5.71,0,0,0,.08.77,19.91,19.91,0,0,0,.63,2.69c.16.55.36,1.13.57,1.75s.45,1.27.74,1.92c.53,1.32,1.21,2.69,1.9,4S26.4,322.46,27.19,323.64Z"/></g></g></svg>