<svg xmlns="http://www.w3.org/2000/svg" viewBox="0 0 68.28 64.02"><defs><style>.cls-1{fill:#e32313;}</style></defs><title>Asset 2</title><g id="Layer_2" data-name="Layer 2"><g id="_1200" data-name="1200"><path class="cls-1" d="M36.69,2.21,35.78,0a27,27,0,0,1,2.7,0,12,12,0,0,1,8.39,5.17,5.33,5.33,0,0,0,3.25,2.25,13.72,13.72,0,0,1,7.57,5.39c.19.25.37.5.56.74a2.54,2.54,0,0,0,.3.18A18.63,18.63,0,0,0,60,11.93a17.39,17.39,0,0,0,2.3-7.82,2.41,2.41,0,0,1,1.52-2.2,2.69,2.69,0,0,1,2.9.37,3.72,3.72,0,0,1,1.55,3.48,17.9,17.9,0,0,1-4,10.06c-1.09,1.43-2.35,2.74-3.47,4a28.72,28.72,0,0,1,2.56,2c2.55,2.57,3.09,5.79,2.75,9.23a25.4,25.4,0,0,1-1.89,7c-.4,1-.71,2-1,3.05-1.4,4.45-4.15,7.47-8.86,8.45a1.12,1.12,0,0,0-.64.7c-2,6-6.24,9.64-12.15,11.51a.38.38,0,0,1-.15,0l-.84-3.2L39,60.1a11.08,11.08,0,0,1-8.61,3.26c-1.65-.08-3.29-.22-4.93-.42a5.29,5.29,0,0,0-3.92.84c-.69.52-1.1.13-1.3-.39a20.93,20.93,0,0,1-.71-2.59c-1.1,0-2.3,0-3.49-.17a18.48,18.48,0,0,1-7.45-2.42A1,1,0,0,1,8,57.08c.27-1.54.52-3.08.8-4.62a7,7,0,0,1,.32-1l-3.58,1a2,2,0,0,1-2.35-1C1,47.8-.1,44.06,2,40c.59-1.14,1.23-2.25,1.85-3.38-2.5-1.4-3.25-2-3.83-3.28,1-1,2.06-1.92,3-3a7.52,7.52,0,0,0,1.33-2.31,23.49,23.49,0,0,1,4.61-7.54,1.28,1.28,0,0,0,.27-1,8.85,8.85,0,0,1,.27-2.87C10.3,14,12.14,12,14.07,10c2.59-2.57,5.86-3.71,9.35-4.37l.82-.16s0,0,.13-.09L23,4.2C27.21,1.26,31.74.8,36.69,2.21ZM6.9,26.34,5.51,29.21l.25.1,1.2-3A15.42,15.42,0,0,1,19.33,18,10.23,10.23,0,0,0,13,19.3C10.17,21,7.88,23.09,6.9,26.34ZM59.72,14.87c-.47.4-.79.71-1.14,1-1.7,1.29-3.53,1.81-5.44.58a6.72,6.72,0,0,1-2.07-2.14c-1.17-2-2.11-4.12-3.23-6.15-.55-1-1.29-1.87-1.94-2.81.24,1.93,2.06,3.21,2,5.23a15,15,0,0,0-6.14-6.27c1.35,1.87,2.86,3.63,3.23,6.07L41.88,6l-.36,1L39.31,1.94c2,.26,3.63,1.54,5.36,2.57a9,9,0,0,0-6.59-3.39c.29,1.39.65,2.71.84,4.06.23,1.66.24,3.35.52,5a21.45,21.45,0,0,0,1.15,4.26,5.8,5.8,0,0,0,2.5,2.86c-.92-1.33-1.81-2.41-1.83-3.92.6,1,1.11,2,1.77,2.89,2.4,3.3,5.53,4.79,9.63,3.74l3.3-.87a12.12,12.12,0,0,1-1.86,1c-3.2,1.33-6.41,1.71-9.64,0-1.59-.83-1.61-.8-2.8.58,0,.06-.12.11-.17.17l-.14-.08,1.06-1.88c-1.83.81-2.33,2.29-2.37,4.28l-.34-.78-1.8,4.75.83-.52a4.3,4.3,0,0,1-.83,1.67c-.89,1-1.87,1.85-2.84,2.79,3.4,4.6,14,6.06,17.93.58l-3.53,1.87c1.46-1.4,2.95-2.66,4.34-4A5.47,5.47,0,0,0,55.09,25l-1,2.43L54,27.33l.1-1.83-1,.87.42-2.09-1.42.86L52,25,55,22.07l.36.58c.08-1.33.39-1.95,1.06-2.08.16,0,.35.16.53.26l.11.22c1.53-1.25,3.12-2.44,4.58-3.78a14.09,14.09,0,0,0,4.63-7.13c.41-1.77.69-3.57,1-5.36a2.06,2.06,0,0,0-2.13-2.24c-.48,0-.64.19-.64.72a41.46,41.46,0,0,1-.13,4.86A11.19,11.19,0,0,1,58.78,17a4.83,4.83,0,0,1-3,.77,24.6,24.6,0,0,0,3-1.79,11.65,11.65,0,0,0,4.1-6.94c.41-1.83.59-3.71.88-5.57l-.31,0a3.77,3.77,0,0,0-.1.43,27.7,27.7,0,0,1-1.73,7.25,7.91,7.91,0,0,1-2.79,3.8c-.76.56-1.55,1.09-2.32,1.64l0,.08ZM38,36.24l1.21-1.06-2.54.22,0-.26,1.08-.52a14.87,14.87,0,0,1-4.22-3.9c1.41-1.15,2.8-2.23,3.32-4l-.74,0,1-1.05-.12-.18-4,2.54-.1-.09L36.13,25l-1.32.47-.05-.12.67-.6c-2.17.6-4,1.42-5.19,3.25-.9,1.4-1.66,2.9-2.53,4.33-1,1.68-2.07,3.36-3.18,5a12.47,12.47,0,0,1-1.62,1.63c2.94,3.53,11.71,6.14,15.55,4.65l-.2-1.14L36,42a9.8,9.8,0,0,1,1.7-.39.7.7,0,0,0,.45-.47A12.58,12.58,0,0,1,39.22,36ZM13.22,49.65a20,20,0,0,0,7.31.08l0,.21-3.34.88V51l5.81-.1c-3.19,1.47-11.25.4-13.29-1.8L10.92,47l-.17-.1-1.93,3c2,.64,3.85,1.33,5.76,1.82a17.31,17.31,0,0,0,12-1,7.16,7.16,0,0,0,1-.68l-.13-.2-2.23.38c1.12-1.1,2.85-1.31,3-3.1l-2.34.71,0-.12,2.51-1.76-1.15.07,1.85-1.65-.13-.21A10.48,10.48,0,0,1,24.34,46l3.71-2-.12-.27-2.34.6-.05-.18,1.37-.79c-1.44-1.65-3.09-.81-4.71-.57l2-1.18c-.68-.62-1.31-1.13-1.86-1.72-.83-.9-.8-1,0-1.82,0,0,0-.1,0-.2l-.61-.06.54-.68-3,.07,1.83-.71-.06-.25a19.76,19.76,0,0,0-2.31.5,18,18,0,0,0-2.13,1l-.07-.11,2.82-2c-3.26,1.08-6.8,4.53-6.87,7.47l3-3.51.19.16c-.74,1.14-1.53,2.25-2.2,3.43s-1.21,2.42-1.81,3.64l.18.05,4.39-3.49.07.09L13.08,47.2l.19.17,5.91-2.86,0,0-5.65,4,4.79-.91.06.19Zm-.85-16.71c3.37-.24,6.26,1,9.2,2.08a8.35,8.35,0,0,0,3,.07.68.68,0,0,0,.47-.31c.63-1.13,1.24-2.27,1.87-3.44l-1.39-.12L25.36,31c2.48-.4,3.22-2.53,4.54-4.27l-2.34.56-.08-.18,3.07-1.68,0-.15-3.36-.08,0-.16,3.78-.73c-2.19-.8-3.83-2.35-6.1-2.49l1-.29v-.25L23,20.76l1.61-.53c-2.43-.88-4.26.38-6.28,1.31l1-1.05c-2.43,1-6.33,5.79-6.11,8.18,2-4.14,2.56-5.07,3.86-5.89l-.23.55.15,0,2.57-1.8c-1.7,1.95-3.53,3.78-4.68,6.35,2-1.94,3.81-3.9,6.6-4.68-2.07,1.79-4.27,3.23-5.91,5.28A39.29,39.29,0,0,1,24,25.78c-3.31,1.32-6.74,2.39-9.6,4.66a9.08,9.08,0,0,1,5.52.17l-4,.37,0,.25,1.6.53,0,.14-1.41,0V32l3,1.08-.11.28c-1.1-.8-2.59-.29-3.69-1.3-.42-.39-1.19-.41-1.75-.59l-.57-1-.25.06ZM50.06,38.5l.21-2.5L47.7,37.59l0-.1,1.81-1.79-.16-.2a11.94,11.94,0,0,1-5.86.58,1.21,1.21,0,0,0-1.38.67l-1,1.77-.16-.06.58-2.25a1.5,1.5,0,0,0-.71.7,10.08,10.08,0,0,0-.92,3.1,51.35,51.35,0,0,0,.51,6.66,7,7,0,0,1-.85,4.94c.2,0,.36.1.53.13a16,16,0,0,0,10.58-1.9A4,4,0,0,0,53,45.24c-.45-2.26-1.14-4.47-1.74-6.7a7.65,7.65,0,0,0-.4-.93ZM32.24,45.19,32.16,45a3.13,3.13,0,0,0-.66.33A7,7,0,0,0,29,49.4a8.14,8.14,0,0,1-2.79,5.2c-.4.32-.83.59-1.32.94a9.4,9.4,0,0,0,4.48,1.21l-3.21-1.18v-.31c.26-.18.5-.5.76-.51.65,0,.85-.29.7-.82.74-.34,1.44-.62,2.09-1s1.27-.88,2-1.37a2.75,2.75,0,0,1-1.33,1.87c-.69.37-1.43.66-2.36,1.08,3.08.25,5.65-1,8.31-1.71l.09.23-4.82,2.3A24.53,24.53,0,0,0,40,53.93l.07.22-5.44,2L38,56.06c-2,1.46-4.25,1-6.42,1,3.17,1.46,10.9-.87,13.24-4-2.26-.09-4.54,0-6.51-1.09l1-3-.74.23.32-2.25-.19,0-1,1.15-.11-.1.38-1.16-2.33,1-.17-.31L37.73,46l-.13-.33L34.83,46l.57-.53c-2.2-.88-3.25.77-4.49,2l-.15-.16ZM28.81,14.67l0,.23a19.55,19.55,0,0,0-7.15-.24c3.82,1.11,5.73,2,6.25,2.77l-7.95-2.75,1.9-2.93A8.94,8.94,0,0,0,19,15.34l1.23.57a17.16,17.16,0,0,1,5.2,3.47,13.23,13.23,0,0,0,5.66,3.46,10.63,10.63,0,0,0,4.71.6,2.69,2.69,0,0,0,2-1.09c-1.09.24-2.17.54-3.29-.26a4.3,4.3,0,0,0,3.19-.79l-2.16-.69,2.49-.4,0-.25c-3.81-1.4-6.8-3.67-8.3-7.61a19.66,19.66,0,0,0-1.7-3.16c-.14-.24-.64-.51-.85-.43-1.29.47-2.54,1-3.8,1.57l.1.24L25,10l-2.19,1.88.05.05,4.39-2.11.22.26a4.25,4.25,0,0,1-.77.76c-.82.5-1.68.93-2.69,1.48l4.54.25v.2l-3.68.55,0,.13Zm9.89-.74a20.44,20.44,0,0,1-.47-2c-.32-2.24-.58-4.49-.9-6.73a1.21,1.21,0,0,0-.47-.85A13,13,0,0,0,26.24,3.4c-.52.19-1,.48-1.52.72l.1.24c.74-.27,1.46-.59,2.22-.79a15.74,15.74,0,0,1,2.47-.42,13.18,13.18,0,0,1,2.43.06,11.41,11.41,0,0,1,2.46.49,14.21,14.21,0,0,1,2,1l-.1.21a9.24,9.24,0,0,0-4.75-1C35,5.37,35.67,5.75,36.13,6.64L32.65,5c.73.74,1.55,1.3,2.29,2S36.34,8.4,37,9.12l-.21.23c-2.19-1.86-4.31-3.84-7.34-4.46,2.78,2.57,4.06,4.34,4.15,5.7-2.26-3.3-3.86-4.7-5.41-4.92.81,1.39,1.65,2.94,2.6,4.41s2,2.85,3,4.27a1.78,1.78,0,0,1-1-.6c-1-1.36-1.94-2.73-2.8-4.15-.66-1.09-1.1-2.32-2.39-3l.13.29c1.2,2,2.43,4,3.58,6A12,12,0,0,0,38,18.38c1.26.44,1.38.33,1.83-.83l-3-2,.12-.19,2.83,1.06.11-.18c-.51-.55-1-1.05-1.5-1.64s-.74-1.23-1.11-1.85l.2-.12ZM1.81,33.32c1.47,2.44,8.52,5.48,10.9,4.7l-1.19-.5L14.3,37l-.05-.26-1.1-.45,2-.5v-.18l-2-.25,0-.11,2.85-.59,0-.23a7.07,7.07,0,0,0-4.27-.17c-.82.19-1,0-.92-.83a35.64,35.64,0,0,1,.69-3.71c.46-1.8,1-3.57,1.58-5.45l-2.61,1.83c1.69-2.33,4.11-3.78,6.41-5.38l-.11-.18-1.59.37,0-.1,2.17-1.18c-3.11-.09-7.84,3.06-8.59,5.64.69-.6,1.3-1.22,2-1.72A25,25,0,0,1,13,22.22l.16.22c-3.31,2-5.36,5.06-7,8.46l2.52-2c-.92,1.72-2.47,2.85-4.16,4.19l3.87,0c-1.17.88-2.47.66-3.7.74l-.07.26L9,36.38a9.44,9.44,0,0,1-6.54-3L3,32.6l-.07-.06ZM57.34,44.65a12.89,12.89,0,0,0,2.22-4.32l.27.09-1.19,4,.15.11,3-4,.09,0-.93,2.24c1.47-1.34,2.19-4.39,1.33-5.75l-.15,1.16a7.58,7.58,0,0,0-4.74-4.93l-.32.45-.82-1.58-.72,1.75-.2-.08V32.53L53.82,34l-.15-.15.63-1.44A3.3,3.3,0,0,0,52.18,35a7.61,7.61,0,0,0,.44,4c1.25,3,2.47,6.1,1.24,9.47,0,0,0,.1.07.19a9.49,9.49,0,0,0,5.44-3.38l-4.71,2.88a14,14,0,0,0-1.2-8.61,12.41,12.41,0,0,1-.73-2.48,2.61,2.61,0,0,1,.5-2.21,10.62,10.62,0,0,0,.92,4.8,31,31,0,0,1,1.26,3.7,10.32,10.32,0,0,1,.24,1.37l.27,0-.59-5,.17,0,1,3.9h.22l.13-4.17A11.58,11.58,0,0,1,57.34,44.65Zm7.09-13.17c-.14-2.24-.39-4.43-1.91-6.24a2.86,2.86,0,0,1-.36-.77l.28-.14c1.58.83,2,2.46,2.68,4a8,8,0,0,0-.72-2.47A33.2,33.2,0,0,0,62,22.46c-.14-.18-.54-.15-.81-.22L61.1,23c-1,0-1.8-1.05-3.05-.32,1.33.45.89,1.48,1,2.35l-1-.31,0,2.22h-.24l-1-2.12-.28.08.77,4.32-.94-1.92a6.33,6.33,0,0,0,2,5c1.53,1.35,3.16,2.59,4.7,3.85L62,33.24l.09-.05,1.23,1.75.18-.11L61.85,32l.23-.17,2,2.54a18.21,18.21,0,0,0-1.86-7.12A9.09,9.09,0,0,1,64.43,31.48ZM7.2,50.15c2-2.19,4-6.56,3.75-8.1l-.89.83.64-1.59-.69.29-.11-.12,1.6-1.85-.08-.17-1.78.92-.08-.1.84-1-.05-.2-1.55.19c-.12-.75-.91-.71-1.43-.92a11.41,11.41,0,0,0-2-.4l.19-.34c-1-.54-1-.55-1.54.27a11,11,0,0,0-1.71,7.61c0,.05.09.09.19.18a11.32,11.32,0,0,1,.82-5.06L3.21,44h.14l1.43-3.46L5,40.6a10.17,10.17,0,0,0-.61,5.2l2.27-4.1.11.07-1,3.91.14,0,.69-.9.27.49,1.78-2.12c-.53,1.17-1.2,2.23-1.75,3.35s-.94,2.27-1.41,3.4l.28.15,3.14-4.16a6.58,6.58,0,0,1-2.61,4.36,2.91,2.91,0,0,1-2.35.64c.66.87,2.12.78,4-.27Zm3.47,5.54.1.35,5.64-1a17.75,17.75,0,0,1-6.79,1.88c-.21,0-.43-.22-.64-.34,0,.41.15.91.46,1.08,3.24,1.8,6.79,2,10.26,2l.38-.92-2.45.19A16.52,16.52,0,0,1,11.28,58a4.63,4.63,0,0,1-1-.71l.1-.15,5.69-.2L15,57.53l0,.14h2.33l-.78.55a13,13,0,0,0,2.77.12c.71,0,1.06-.37.93-1.11l-.57-.07L21,55.63l-1.35.17,0-.14,1.23-.86c-1.07.14-.28-.36-.4-.6L19,54.39l.42-.49L9.9,51.71,9,54.82l.16,0,1.16-2.51.08,1.06,1-.48-1.1,1.91,3.11-1.09.06.21Zm25,4.3c-.36.22-.71.45-1.08.64a11.86,11.86,0,0,1-7,1,15.14,15.14,0,0,0-5.41.27,3,3,0,0,1-.79,0,.67.67,0,0,1-.19,0,1.67,1.67,0,0,0,0,.39,2.21,2.21,0,0,0,.12.32,10.23,10.23,0,0,1,6.54-.44,12.45,12.45,0,0,0,8.32-1,7,7,0,0,0,2.71-2.12l-3.14,1.91-.08-.14,1.94-1.92-.11-.1-3.34.88a.43.43,0,0,1,.14-.35l.29-.34c-4.11-.29-8-.94-11.41-3.45,2.26-1.31,2.46-1.51,2.27-2.15L24.24,54l-.13-.81c-1.91,2-3.28,5.23-2.83,6.58l1.13-3.21.13.05-.05,2.13,1.28-1.1-.84,2,2.72-1.07.13.27-2.25,1.59c1.16-.11,2.24-.38,3.34-.49s2.2,0,3.31-.05v.22l-2.56.46C30.36,61,33.09,61.42,35.67,60ZM16.15,13.38,16,13.26l-2.7,3.23-.13-.08.58-1.53-.17-.1-2.24,3.53L10.91,18c.69-1.26,1.29-2.57,2.08-3.77s1.78-2.32,2.69-3.48c-2.15,1-5.66,6.64-5.2,8.14a26.16,26.16,0,0,0,3.42-1.52A26.63,26.63,0,0,0,16.76,15H17l-.55,1.73,1.8-.39a.52.52,0,0,0-.34-.22L17.49,16c.25-1.94,1.48-3.3,2.48-4.84l-1.32.7.31-.65-.21-.14-3.24,4ZM45.87,56.55,50,52.31l.07,0-1.13,2.08.11.07,2.77-3.27,0,.86.22.07,1-2.37-4.19,2.37c-.39.23-.74.51-1.14.79-.43-.39-.88-.22-1.27.22-.79.89-1.85,1.55-2.23,2.77,0,.19-.25.33-.44.57l-.07-.91-2.29,1.28L42.19,59l.17-.06-.25-2,.2-.1,1,1.58,3.17-4.31.1,0Zm9.31-41.06L51.4,12.68l.15-.27,3,1.49-2.81-2.34a8,8,0,0,1,4.08,3,11,11,0,0,0-5.92-4.8C50.43,12.35,53.26,16.27,55.18,15.49ZM26.4,7.39a1.26,1.26,0,0,0-1.58-.81c-.84.19-1.71.26-2.56.43A15.55,15.55,0,0,0,17,9.51c2.47-1,4.9-2.14,7.68-2.33L21.75,8.63l.09.17,1.24-.49.07.1-1.34,1.4ZM48,57.11c-1.55.85-3.35,1.83-5.14,2.83-.15.09-.23.31-.34.48A11.19,11.19,0,0,0,48,57.11ZM49.58,9a12,12,0,0,1,5.89,3.83,1.41,1.41,0,0,0-.06-.4,5.09,5.09,0,0,0-.3-.5C53.78,10,51.72,9.45,49.58,9Z"/><path class="cls-1" d="M48.69,18.37,46.5,16.65l.15-.2,2.47,1.46.15-.18-1-1.48.16-.13a6.11,6.11,0,0,0,4.14,2.66,5.15,5.15,0,0,1-3.69.15C48.77,18.91,48.75,18.6,48.69,18.37Z"/><path class="cls-1" d="M30,38.43a5.12,5.12,0,0,1-3.82,1l-.07.25,4.78,1.95a7.49,7.49,0,0,1-5.25-1.71,5.9,5.9,0,0,1-.85-1l1.24-.1Z"/><path class="cls-1" d="M44.34,48.74c3-1.06,5.13-3.36,7.32-5.54a6.79,6.79,0,0,1-2.32,3.18c-1,.88-2.08,1.67-3.12,2.49,1.43,0,2.77-.67,5.84-2.88-.41,3-6.66,5.44-10.85,4l1.17-1.13a2.11,2.11,0,0,1-.25-.65c0-1.1,0-2.21,0-3.31s-.2-2.39-.27-3.58a1.92,1.92,0,0,1,.25-.87A9.42,9.42,0,0,0,43,45.39c.13-.61.23-1,.3-1.43a5.28,5.28,0,0,1,.29-1.22,7.42,7.42,0,0,1-.28,5.38c1.95-1.33,3.08-3.31,4.24-5.28C47.39,45.28,46,47,44.34,48.74Z"/></g></g></svg>