<svg xmlns="http://www.w3.org/2000/svg" viewBox="0 0 87.28 81.84"><defs><style>.cls-1{fill:#69c494;}</style></defs><title>Asset 24</title><g id="Layer_2" data-name="Layer 2"><g id="Layer_1-2" data-name="Layer 1"><path class="cls-1" d="M46.9,2.82,45.73.06a30.79,30.79,0,0,1,3.46,0c4.6.51,8.05,3,10.73,6.62a6.83,6.83,0,0,0,4.14,2.87c4.07,1,7.17,3.59,9.69,6.89.23.32.47.63.72.94a2.3,2.3,0,0,0,.37.23,25.27,25.27,0,0,0,1.86-2.35,22.44,22.44,0,0,0,2.94-10,3.09,3.09,0,0,1,2-2.81,3.43,3.43,0,0,1,3.7.48,4.76,4.76,0,0,1,2,4.44,22.83,22.83,0,0,1-5.1,12.86c-1.4,1.83-3,3.51-4.44,5.15A34.73,34.73,0,0,1,81,28c3.27,3.29,4,7.4,3.52,11.81a32.68,32.68,0,0,1-2.42,8.88c-.51,1.27-.91,2.59-1.32,3.9-1.8,5.68-5.3,9.55-11.33,10.8a1.45,1.45,0,0,0-.82.89C66.08,72,60.65,76.59,53.1,79a.4.4,0,0,1-.19,0l-1.07-4.09c-.76.75-1.35,1.35-2,1.93a14.15,14.15,0,0,1-11,4.17q-3.16-.15-6.31-.54a6.7,6.7,0,0,0-5,1.08c-.89.66-1.41.17-1.67-.5A27.64,27.64,0,0,1,25,77.72c-1.4-.06-2.94-.07-4.45-.22A23.38,23.38,0,0,1,11,74.4,1.28,1.28,0,0,1,10.21,73c.35-2,.67-3.94,1-5.9a10.77,10.77,0,0,1,.41-1.29L7.06,67a2.5,2.5,0,0,1-3-1.28c-2.83-4.62-4.2-9.4-1.53-14.59.75-1.46,1.57-2.88,2.36-4.31C1.69,45,.74,44.2,0,42.62c1.29-1.28,2.63-2.46,3.77-3.8a9.51,9.51,0,0,0,1.7-3,30.28,30.28,0,0,1,5.89-9.63,1.6,1.6,0,0,0,.35-1.31,11,11,0,0,1,.35-3.68c1.11-3.38,3.46-6,5.92-8.41,3.31-3.29,7.49-4.76,12-5.6L31,7s.06,0,.17-.12L29.33,5.37C34.78,1.61,40.57,1,46.9,2.82ZM8.82,33.66,7.05,37.33l.31.14L8.9,33.68c3.47-6.19,8.65-9.85,15.81-10.63a13,13,0,0,0-8.1,1.62C13,26.79,10.08,29.51,8.82,33.66ZM76.34,19c-.6.52-1,.92-1.46,1.26-2.17,1.65-4.52,2.31-6.95.74a8.53,8.53,0,0,1-2.65-2.73c-1.49-2.56-2.69-5.28-4.13-7.87a40.83,40.83,0,0,0-2.48-3.58c.31,2.46,2.63,4.09,2.56,6.68a19.27,19.27,0,0,0-7.85-8c1.73,2.39,3.66,4.65,4.12,7.77l-4-5.65L53.07,9,50.25,2.48c2.58.33,4.64,2,6.85,3.29a11.53,11.53,0,0,0-8.42-4.34c.37,1.78.82,3.47,1.07,5.19.3,2.12.3,4.29.66,6.4a28.63,28.63,0,0,0,1.48,5.44,7.39,7.39,0,0,0,3.19,3.66c-1.17-1.71-2.31-3.09-2.33-5,.76,1.27,1.42,2.55,2.25,3.69,3.07,4.21,7.07,6.12,12.31,4.78l4.22-1.11a15.62,15.62,0,0,1-2.37,1.22c-4.1,1.71-8.19,2.19-12.32.06-2-1.05-2.06-1-3.59.75a1.47,1.47,0,0,1-.22.21l-.17-.1,1.35-2.39c-2.34,1-3,2.92-3,5.47l-.45-1-2.29,6.07,1.06-.67a5.66,5.66,0,0,1-1.06,2.14c-1.14,1.23-2.4,2.36-3.63,3.56,4.35,5.88,17.89,7.75,22.91.75l-4.5,2.38c1.85-1.79,3.77-3.4,5.54-5.15a7.06,7.06,0,0,0,1.66-5.88L69.2,35,69,34.94l.13-2.35L67.92,33.7,68.47,31l-1.82,1.1L66.53,32l3.74-3.74.46.74c.1-1.7.49-2.49,1.35-2.66.2,0,.46.21.68.33l.14.29c2-1.6,4-3.12,5.85-4.83,2.74-2.52,5.06-5.38,5.92-9.12.52-2.26.89-4.56,1.25-6.86a2.61,2.61,0,0,0-2.71-2.85c-.63,0-.82.24-.82.92a55.68,55.68,0,0,1-.17,6.2,14.29,14.29,0,0,1-7.08,11.4,6.21,6.21,0,0,1-3.82,1,33.55,33.55,0,0,0,3.9-2.29,14.9,14.9,0,0,0,5.23-8.88c.53-2.33.76-4.74,1.13-7.11l-.4-.07c0,.19-.11.37-.13.55a35.62,35.62,0,0,1-2.21,9.27,10,10,0,0,1-3.56,4.85c-1,.72-2,1.4-3,2.1l0,.1ZM48.53,46.32,50.07,45l-3.25.28,0-.33,1.37-.67c-2-1.5-4.07-2.83-5.39-5,1.8-1.47,3.58-2.85,4.24-5.17l-.94,0,1.25-1.34-.15-.24-5.1,3.25L42,35.7,46.19,32l-1.69.6-.07-.16.85-.76c-2.76.77-5.13,1.81-6.63,4.14-1.15,1.8-2.11,3.72-3.22,5.54-1.32,2.16-2.65,4.3-4.08,6.38a16.26,16.26,0,0,1-2.06,2.09c3.75,4.51,15,7.85,19.88,5.94l-.26-1.45L46,53.66a14.33,14.33,0,0,1,2.18-.5.87.87,0,0,0,.58-.6A16.14,16.14,0,0,1,50.14,46ZM16.9,63.46a25.15,25.15,0,0,0,9.35.1l0,.28L22,65l0,.24,7.42-.13c-4.07,1.89-14.37.52-17-2.29L14,60l-.22-.13-2.46,3.82c2.54.81,4.91,1.7,7.36,2.32A22.09,22.09,0,0,0,34,64.73a9.54,9.54,0,0,0,1.24-.87l-.15-.25-2.86.49c1.43-1.41,3.64-1.68,3.81-4l-3,.91,0-.15,3.22-2.26-1.47.09,2.36-2.11L37,56.35a13.53,13.53,0,0,1-5.85,2.42l4.74-2.6-.16-.35-3,.77-.07-.23,1.76-1c-1.84-2.13-3.95-1-6-.74L31,53.11c-.87-.79-1.67-1.44-2.37-2.2-1.06-1.15-1-1.22,0-2.32,0,0,0-.13,0-.26l-.77-.07.68-.87-3.89.09L27,46.57l-.07-.32a22.44,22.44,0,0,0-3,.64,24.22,24.22,0,0,0-2.73,1.29L21.16,48l3.6-2.54c-4.17,1.39-8.69,5.79-8.79,9.55l3.82-4.48.24.2c-1,1.46-2,2.88-2.81,4.39s-1.55,3.09-2.32,4.65l.24.07,5.6-4.47.09.11-4.11,4.82.24.22,7.56-3.66,0,.05L17.32,62l6.12-1.18.08.25ZM15.81,42.11c4.31-.31,8,1.24,11.77,2.66,1.11.42,2.51.11,3.78.09a.89.89,0,0,0,.59-.4c.81-1.44,1.59-2.9,2.4-4.4l-1.78-.15-.16-.34c3.18-.5,4.13-3.23,5.82-5.45l-3,.72-.1-.24,3.92-2.14,0-.19-4.29-.11,0-.2L39.52,31c-2.79-1-4.9-3-7.79-3.18L33,27.48v-.32l-3.64-.62,2.06-.68c-3.11-1.13-5.44.49-8,1.67l1.33-1.34c-3.11,1.31-8.09,7.4-7.82,10.46,2.52-5.3,3.28-6.49,4.95-7.54l-.31.71.19.06L25,27.57c-2.17,2.49-4.5,4.83-6,8.13,2.59-2.5,4.88-5,8.44-6C24.82,32,22,33.84,19.92,36.46c3.53-1.4,7-2.93,10.76-3.51-4.23,1.69-8.62,3.06-12.27,6a11.62,11.62,0,0,1,7.06.21l-5.15.47,0,.32,2,.68-.05.17-1.8-.05v.13l3.82,1.38-.13.37c-1.41-1-3.32-.38-4.72-1.67-.54-.5-1.52-.53-2.24-.75l-.73-1.25-.32.08ZM64,49.21,64.26,46l-3.29,2,0-.12,2.31-2.29-.2-.26a15.26,15.26,0,0,1-7.48.74,1.58,1.58,0,0,0-1.78.85c-.43.76-.86,1.51-1.3,2.26l-.2-.07L53,46.29a1.92,1.92,0,0,0-.91.89,12.88,12.88,0,0,0-1.18,4,67.44,67.44,0,0,0,.66,8.51A8.93,8.93,0,0,1,50.49,66a6.12,6.12,0,0,0,.68.17,20.52,20.52,0,0,0,13.52-2.42c2.46-1.31,3.56-3.26,3-5.89-.56-2.89-1.45-5.72-2.22-8.57A11.08,11.08,0,0,0,65,48.08ZM41.21,57.77l-.1-.24a3.69,3.69,0,0,0-.84.43,8.82,8.82,0,0,0-3.17,5.19c-.53,2.56-1.38,5-3.57,6.65-.51.4-1.06.75-1.69,1.2a12.29,12.29,0,0,0,5.73,1.55L33.46,71l0-.41c.33-.22.64-.63,1-.64.83,0,1.09-.37.89-1,.95-.44,1.85-.79,2.68-1.27s1.62-1.12,2.51-1.75a3.49,3.49,0,0,1-1.7,2.39c-.88.48-1.82.84-3,1.38,3.94.32,7.22-1.23,10.63-2.18l.11.29-6.17,2.94a31.61,31.61,0,0,0,10.71-1.8l.09.29-7,2.6,4.35-.18C46,73.52,43.14,73,40.36,73c4,1.87,13.93-1.11,16.93-5-2.9-.11-5.81,0-8.33-1.39l1.21-3.82-.94.29.41-2.87-.25,0-1.31,1.47-.15-.13L48.42,60l-3,1.29-.22-.4,3-2.11-.17-.43-3.54.53.73-.68c-2.81-1.13-4.15,1-5.73,2.59l-.2-.21Zm-4.39-39,0,.3a25.1,25.1,0,0,0-9.14-.32c4.88,1.43,7.32,2.54,8,3.55L25.46,18.77,27.9,15a11.34,11.34,0,0,0-3.6,4.57l1.57.73a22.07,22.07,0,0,1,6.65,4.44,16.91,16.91,0,0,0,7.23,4.43,13.71,13.71,0,0,0,6,.76,3.42,3.42,0,0,0,2.61-1.39c-1.39.3-2.77.69-4.2-.33a5.55,5.55,0,0,0,4.07-1l-2.75-.89,3.18-.51,0-.32C43.77,23.72,40,20.82,38,15.79a25.89,25.89,0,0,0-2.17-4,1.28,1.28,0,0,0-1.09-.54c-1.65.6-3.24,1.32-4.86,2l.13.32L32,12.83l-2.8,2.41.06.07,5.62-2.71.28.34a6,6,0,0,1-1,1c-1,.63-2.15,1.19-3.45,1.89l5.81.32,0,.25-4.7.71,0,.17Zm12.65-.94c-.25-1-.5-1.8-.61-2.57-.39-2.86-.73-5.74-1.14-8.6a1.59,1.59,0,0,0-.6-1.1c-4.36-2.18-8.87-2.91-13.58-1.2-.67.25-1.29.62-1.93.93l.12.3c.94-.34,1.87-.75,2.83-1A17.85,17.85,0,0,1,37.72,4a16,16,0,0,1,3.1.07A15.29,15.29,0,0,1,44,4.73a18.55,18.55,0,0,1,2.58,1.33l-.13.27A11.65,11.65,0,0,0,40.35,5.1c4.44,1.77,5.25,2.25,5.84,3.39L41.73,6.41c.93.94,2,1.65,2.93,2.5s1.79,1.82,2.68,2.74l-.26.3c-2.8-2.38-5.51-4.91-9.39-5.7,3.57,3.29,5.2,5.55,5.31,7.29-2.89-4.22-4.93-6-6.91-6.29,1,1.78,2.11,3.75,3.32,5.63s2.54,3.65,3.81,5.47A2.27,2.27,0,0,1,42,17.58c-1.23-1.75-2.47-3.49-3.58-5.31-.84-1.39-1.4-3-3-3.85a2.86,2.86,0,0,0,.16.36c1.53,2.54,3.1,5.05,4.58,7.61a15.25,15.25,0,0,0,8.5,7.11c1.62.55,1.77.42,2.35-1.07L47.1,19.84l.16-.24L50.88,21l.13-.24c-.64-.7-1.34-1.35-1.9-2.1a25.52,25.52,0,0,1-1.43-2.36l.26-.15ZM2.31,42.6c1.88,3.11,10.89,7,13.94,6L14.72,48l3.55-.69-.05-.33-1.41-.58,2.61-.64,0-.23-2.5-.32,0-.14,3.64-.75-.06-.3a8.94,8.94,0,0,0-5.44-.21c-1.05.25-1.35,0-1.19-1.06.25-1.59.48-3.19.88-4.75.59-2.3,1.32-4.56,2-7l-3.34,2.35c2.16-3,5.26-4.84,8.2-6.88l-.15-.23-2,.48,0-.14,2.77-1.51c-4-.11-10,3.91-11,7.22.88-.77,1.66-1.56,2.55-2.21s1.85-1.11,2.78-1.66l.2.28c-4.23,2.56-6.86,6.47-9,10.8L11,37c-1.18,2.2-3.16,3.63-5.31,5.35l4.95.06c-1.51,1.13-3.16.84-4.74,1l-.09.33,5.72,2.85c-3.35-.35-6.17-1.37-8.35-3.87l.67-1-.09-.08Zm71,14.48c1.58-1.69,2.08-3.68,2.84-5.53l.35.12L75,56.77l.19.14L79,51.78l.11,0-1.19,2.87c1.88-1.72,2.8-5.62,1.7-7.36l-.19,1.48a9.72,9.72,0,0,0-6.06-6.29l-.4.57-1-2L71,43.31l-.26-.11,0-1.61L68.8,43.42l-.2-.19.81-1.84a4.24,4.24,0,0,0-2.72,3.37,9.74,9.74,0,0,0,.57,5.15c1.6,3.89,3.16,7.8,1.59,12.11,0,0,0,.13.09.25a12.16,12.16,0,0,0,7-4.33l-6,3.69a17.93,17.93,0,0,0-1.53-11,15.71,15.71,0,0,1-.93-3.18,3.29,3.29,0,0,1,.64-2.82,13.57,13.57,0,0,0,1.17,6.13,44.65,44.65,0,0,1,1.62,4.73,12.78,12.78,0,0,1,.29,1.75l.36,0-.76-6.39.21-.05,1.27,5h.28l.17-5.34C73.55,52.51,73.4,54.68,73.29,57.08Zm9.08-16.84c-.19-2.86-.5-5.66-2.46-8a4.47,4.47,0,0,1-.45-1l.35-.18c2,1.06,2.6,3.15,3.43,5.08A10.16,10.16,0,0,0,82.32,33a41.64,41.64,0,0,0-3.07-4.31c-.17-.23-.68-.19-1-.28l-.11.94c-1.23-.05-2.31-1.34-3.9-.4,1.7.56,1.13,1.89,1.33,3l-1.24-.39.07,2.84h-.3l-1.29-2.71-.35.11,1,5.52L72.2,34.89a8.14,8.14,0,0,0,2.62,6.42c2,1.73,4,3.31,6,4.92l-1.58-3.74.12-.06,1.57,2.23.23-.14-2.11-3.66.29-.21,2.53,3.24a23.13,23.13,0,0,0-2.37-9.1A11.82,11.82,0,0,1,82.37,40.24ZM9.2,64.1c2.52-2.79,5.12-8.39,4.8-10.35l-1.14,1.06.82-2-.88.37L12.65,53l2-2.36-.11-.21-2.27,1.17-.1-.13,1.08-1.22L13.23,50l-2,.25c-.14-1-1.16-.92-1.82-1.18a13.35,13.35,0,0,0-2.52-.51l.24-.44c-1.26-.68-1.28-.7-2,.34A14.24,14.24,0,0,0,3,58.18c0,.06.11.11.24.22,0-2.27,0-4.45,1.05-6.47L4.1,56.22h.18l1.83-4.42.25.09a13,13,0,0,0-.79,6.65l2.9-5.25.15.1-1.29,5,.18.06.87-1.16.35.63L11,55.21c-.67,1.49-1.53,2.84-2.23,4.28S7.56,62.39,7,63.84l.36.19,4-5.32A8.36,8.36,0,0,1,8,64.28a3.69,3.69,0,0,1-3,.82c.84,1.12,2.71,1,5.1-.35Zm4.43,7.09.14.45L21,70.31a22.88,22.88,0,0,1-8.69,2.4c-.26,0-.54-.28-.82-.43,0,.51.2,1.16.59,1.38,4.15,2.3,8.69,2.6,13.12,2.58l.49-1.17c-1.17.09-2.15.18-3.14.24a20.65,20.65,0,0,1-8.1-1.17,5.77,5.77,0,0,1-1.32-.91l.12-.19,7.27-.26-1.37.75,0,.19h3l-1,.71a16.27,16.27,0,0,0,3.54.14c.91,0,1.36-.46,1.2-1.41l-.74-.1,1.68-2-1.73.22,0-.18,1.57-1.1c-1.37.18-.36-.46-.51-.77l-1.82.25.53-.63L12.65,66.1l-1.18,4,.2.06,1.48-3.21.1,1.36,1.26-.63L13.1,70.1l4-1.39.08.27Zm32,5.5c-.46.27-.91.57-1.38.81a15.1,15.1,0,0,1-9,1.24,19.62,19.62,0,0,0-6.92.35,4.28,4.28,0,0,1-1,0L27,79a2.5,2.5,0,0,0,0,.49,2.32,2.32,0,0,0,.15.41,13.08,13.08,0,0,1,8.36-.56A15.91,15.91,0,0,0,46.19,78a8.93,8.93,0,0,0,3.47-2.7l-4,2.43-.1-.17L48,75.12,47.88,75l-4.27,1.13a.54.54,0,0,1,.19-.45c.1-.11.19-.23.36-.44-5.25-.36-10.23-1.19-14.59-4.41,2.89-1.67,3.16-1.93,2.91-2.74L31,69l-.17-1c-2.44,2.54-4.2,6.69-3.62,8.41l1.44-4.11.17.07-.06,2.72,1.63-1.4-1.07,2.5,3.48-1.37.17.35-2.89,2c1.49-.14,2.87-.48,4.28-.62s2.81-.06,4.22-.07v.28l-3.27.59C38.81,77.94,42.3,78.52,45.6,76.69Zm-25-59.58L20.43,17,17,21.08l-.16-.1.74-2-.22-.12-2.86,4.5L14,23.06c.87-1.61,1.65-3.29,2.66-4.82s2.27-3,3.44-4.45c-2.75,1.33-7.24,8.49-6.65,10.41a31.64,31.64,0,0,0,4.36-1.95,30.8,30.8,0,0,0,3.66-3l.25,0L21,21.45l2.3-.5a.78.78,0,0,0-.43-.29c-.16-.05-.31-.12-.5-.2.33-2.48,1.9-4.21,3.18-6.18l-1.69.89.39-.82L24,14.16l-4.14,5.16Zm38,55.17,5.24-5.41.09.06-1.44,2.66.14.09L66.2,65.5l0,1.09.27.1,1.34-3c-2,1.1-3.67,2-5.36,3-.5.29-.95.66-1.46,1-.56-.5-1.13-.28-1.63.28-1,1.13-2.36,2-2.84,3.54-.07.24-.33.43-.57.73l-.08-1.16-2.94,1.63,1,2.72.22-.07-.32-2.59.25-.12,1.28,2,4-5.52.13,0ZM70.53,19.8l-4.82-3.59.19-.35,3.89,1.91-3.6-3a10.23,10.23,0,0,1,5.22,3.82,14.13,14.13,0,0,0-7.57-6.14C64.47,15.79,68.08,20.8,70.53,19.8ZM33.75,9.44a1.62,1.62,0,0,0-2-1c-1.08.25-2.19.33-3.27.55a20,20,0,0,0-6.78,3.19c3.16-1.26,6.26-2.72,9.82-3L27.81,11l.1.21,1.59-.63.09.13-1.71,1.79ZM61.34,73c-2,1.08-4.28,2.34-6.57,3.62-.19.11-.29.4-.43.61A14.25,14.25,0,0,0,61.34,73Zm2-61.48a15.31,15.31,0,0,1,7.52,4.89,2.73,2.73,0,0,0-.06-.5,6.82,6.82,0,0,0-.39-.64C68.74,12.83,66.12,12.08,63.38,11.52Z"/></g></g></svg>