<?xml version="1.0" encoding="utf-8"?>
<!-- Generator: Adobe Illustrator 23.0.3, SVG Export Plug-In . SVG Version: 6.00 Build 0)  -->
<svg version="1.1" id="Layer_1" xmlns="http://www.w3.org/2000/svg" xmlns:xlink="http://www.w3.org/1999/xlink" x="0px" y="0px"
	 viewBox="0 0 1553.9 93.7" style="enable-background:new 0 0 1553.9 93.7;" xml:space="preserve">
<style type="text/css">
	.st0{fill:#FFCB00;}
</style>
<title>Asset 7</title>
<g>
	<g id="Layer_1-2">
		<path class="st0" d="M522.7,27.5c24.6-0.3,49.2-0.9,73.8-0.9c104.5-0.1,209,0.1,313.5-0.1c114.6-0.2,229.2-0.5,343.8-1
			c103.4-0.4,206.8-1.2,310.2-1.7c29.9-0.1,59.9,0.1,89.8,0.1c11.6,0,23.2-0.3,35,0.5l-108,2.4V28c53.3,0.2,107.1-3.7,161.2,2
			l-11.8,1.9l30.2,1.5V34h-89.3l-0.2,1.3l34.5,0.8l0.8,0.7l-14.9,1.7l7,0.9c-5.6,3-13,3.7-32.3,3.2c-12.4-0.3-24.9-0.4-37.5-0.1
			l104.8,3.8l0.8,1.4l-46.7,2.2l0.2,1c10.1,0,20.2-0.3,30.1,0.1c4.3,0.2,8.1,1.6,12.2,2.5c-3.2,1-5.8,2.5-9.6,3
			c-9.7,1.1-19.8,1.7-30.5,2.6c23,7.3,52.2,0.8,78,4.1c-18.3,1.1-34.5,2.2-50.9,2.9c-16.1,0.7-32.3,0.8-48.5,1.1l0.1,2.1h54.5
			c-11.6,2.6-23.1,0.2-30.6,4.2c-3,1.6-18.9,0.5-28.9,0.7c-8.3,0.1-16.5,0.3-24.8,0.5l0.1,1.5h85.8c-1.6,2.3-1.2,4.5-4.2,5.7
			c-5.3,2.2-11,3.4-16.8,3.8c-29.8,1.1-59.6,2.1-89.5,2.3c-47.3,0.3-94.8-0.2-142.1,0.1c-110.9,0.6-221.8,1.6-332.7,2.2
			c-53,0.3-106,0.4-159,0.2c-17,0-34.1-0.8-51.2-1.7h38.1v-1.4c-10.9,0-21.7,0-32.6,0c-274.7,0.1-549.3,0.1-824,0.2
			c-99.4,0-198.8-0.2-298.2-0.7c-20.5-0.1-41.1-1.2-61.5-2.1c-3.3-0.1-6.5-1.2-9.2-3.2L-9.1,79c0-0.3,0-0.6,0-0.9h-213.5l-0.5-1.6
			l12.3-1.8l-18.4-1.4l-0.1-1l39.9-1.2l-0.2-1l-77.6-3.3c0-0.5,0.1-0.9,0.1-1.4l91.8-3.5l-0.2-0.8h-43c0-0.4,0-0.8,0-1.3h52.5
			l0.2-1.2h-77.7c0-0.4,0-0.8,0-1.1l7.7-0.9l-12.2-2.3l5.2-3.9l-16.6-2.1c0.1-0.3,0.2-0.6,0.4-1h63.5c0.1-0.3,0.2-0.6,0.3-0.9
			c-2.4-0.2-4.9-0.4-7.2-0.6c-6.8-0.8-15.4,0.8-20.3-3c-1.8-1.5-18.6-0.9-28.5-1.6l54.2-0.9c0-0.6,0-1.2,0-1.8h-41.9
			c-15.4-4.9-35.2-2.3-53.3-3.2c23.5-4.3,52.6,2.4,75.6-4.9c-10.5-0.9-20.7-1.5-30.5-2.6c-3.9-0.4-6.9-1.9-10.2-2.8
			c3.7-1,7.1-2.6,11.1-2.7c11-0.4,22.2-0.1,34.1-1.1l-36.9-3.5c35.3-1.9,71.2-3.1,107-4.6l-0.9-1.9l-18.6-0.4l-0.4-0.8l14.6-1.3
			c0.1-0.5,0.2-1,0.3-1.5l-141.4-2.8l-0.2-0.3l222.4-3.4c0.1,0.1,0.1,0.3,0.2,0.4h-24.9l0.3-1.1l250.2,2.6L41.3,6.3
			c0,0.3,0,0.6,0,0.9L411,10.4C279.8,15.5,149.1,13.7,18.4,13c0,0.6,0,1.3,0,1.9c45.6,0,91.2-0.1,136.9,0c34.1,0.1,68.2,0.9,102.4,1
			c27.8,0.1,55.7-0.1,83.5-0.3c26.6-0.1,53.5-1.3,79.6-0.2c28.2,1.1,55.4-1.4,83.1-0.7c6,0.1,11.9,1.5,17.7,1.4
			c10.4-0.1,20.6-1.1,30.9-1.6c4.8-0.2,9.7-0.2,14.5,0.1l-19.3,1.5l0.2,0.7c31.3,0,62.7,0.1,94,0c43.6-0.2,87.2-0.6,130.9-0.7
			c98.8-0.3,197.6-0.6,296.5-0.8c53.7-0.1,107.3-0.2,161-0.2c36.8,0,73.7,1.1,110.2,0.1c22.7-0.6,44.8-0.4,67.2,0l-6.9-0.4l0.1-0.9
			l315.9,2.1l0.3,2l-73,2.6h70.5v0.6c-29,0-57.9,0-86.9,0c-15.6,0-31.2,0.3-46.8,0.4c-149.4,0.8-298.7,1.5-448.1,2.3
			c-152.4,0.6-304.9,0.9-457.3,1.1c-44.4,0.1-88.7,0.4-133.1,0.9C535.8,26.2,529.3,27,522.7,27.5c-7.4-0.3-14.8-0.9-22.3-0.9
			c-21.6,0-43.2,0.2-64.8,0.3c-40.8,0-81.5,0-122.3,0c0,0.2,0,0.4,0,0.6H522.7z M451.1,64.3c0.2-0.3,0.3-0.6,0.5-0.9h-504v0.9H451.1
			z M1526.6,29.5c0-0.6-0.1-1.2-0.1-1.8l-482.8,1.8H1526.6z M33.9,78.5l0.9,1h394.6v-1H33.9z M485.3,58.6L485,59h155.4v-0.4H485.3z
			 M81.5,60c0-0.4,0-0.7,0-1.1h-163V60H81.5z M1054.8,58.9l-0.1-0.7H886.4c0,0.2,0,0.5,0,0.7H1054.8z M1046.5,44.9v0.5h127.8v-0.5
			H1046.5z M869.1,58.5l1.4-0.4H738.3v0.4H869.1z M1160.6,59.1v-0.5H1073v0.5H1160.6z M458.2,59.5v-0.3h-94.8v0.3H458.2z M96.9,59.1
			l-0.5,0.7h69.1c0-0.2,0-0.4,0-0.7H96.9z"/>
		<path class="st0" d="M1660.9,93.7L1475.1,92c31.6-2.8,164-2.2,186.8,0.4L1660.9,93.7z"/>
		<path class="st0" d="M663.8,10h23.1c-0.1,0.6-0.1,1.1-0.2,1.7l-126.2-2l0.1-1.1h236.3l0.1,1c-22.8,0.4-45.6,1.3-68.3,1
			c-21.6-0.2-43-1.7-64.5-2.6C664.1,8.7,663.9,9.4,663.8,10z"/>
		<path class="st0" d="M1206.3,9.3H950.6c0-0.2,0-0.5,0-0.7h255.5L1206.3,9.3z"/>
		<path class="st0" d="M731.1,90.7h150.8v0.4H731.3L731.1,90.7z"/>
		<path class="st0" d="M441.9,12.3l79.7-2.4c0.1,0.4,0.3,0.9,0.4,1.3c-13.1,0.5-26.1,1.1-39.2,1.4c-13.4,0.2-26.9,0.1-40.4,0.1
			L441.9,12.3z"/>
		<path class="st0" d="M1693.8,14.4h-34.5C1670,10.2,1682.1,13.4,1693.8,14.4z"/>
		<path class="st0" d="M648.3,14.1h69.3v0.5h-70L648.3,14.1z"/>
		<path class="st0" d="M451.1,64.3H-52.4v-0.9h504C451.4,63.6,451.3,64,451.1,64.3z"/>
		<path class="st0" d="M1526.6,29.5h-482.9l482.8-1.8C1526.5,28.3,1526.5,28.9,1526.6,29.5z"/>
		<path class="st0" d="M33.9,78.5h395.4v1H34.8L33.9,78.5z"/>
		<path class="st0" d="M522.7,27.5H313.4c0-0.2,0-0.4,0-0.6c40.8,0,81.5,0,122.3,0c21.6,0,43.2-0.3,64.8-0.3
			C507.9,26.6,515.3,27.2,522.7,27.5L522.7,27.5z"/>
		<path class="st0" d="M485.3,58.6h155V59H484.9L485.3,58.6z"/>
		<path class="st0" d="M81.5,60h-163v-1.1h163C81.5,59.3,81.5,59.6,81.5,60z"/>
		<path class="st0" d="M1054.8,58.9H886.4c0-0.2,0-0.5,0-0.7h168.3L1054.8,58.9z"/>
		<path class="st0" d="M1046.5,44.9h127.8v0.5h-127.8V44.9z"/>
		<path class="st0" d="M869.1,58.5H738.3v-0.4h132.2L869.1,58.5z"/>
		<path class="st0" d="M1160.6,59.1H1073v-0.5h87.6V59.1z"/>
		<path class="st0" d="M458.2,59.5h-94.8v-0.3h94.8V59.5z"/>
		<path class="st0" d="M96.9,59.1h68.6c0,0.2,0,0.4,0,0.7H96.3L96.9,59.1z"/>
	</g>
</g>
</svg>
