<?xml version="1.0" encoding="utf-8"?>
<!-- Generator: Adobe Illustrator 23.0.3, SVG Export Plug-In . SVG Version: 6.00 Build 0)  -->
<svg version="1.1" id="Layer_1" xmlns="http://www.w3.org/2000/svg" xmlns:xlink="http://www.w3.org/1999/xlink" x="0px" y="0px"
	 viewBox="0 0 94.1 60.4" style="enable-background:new 0 0 94.1 60.4;" xml:space="preserve">
<style type="text/css">
	.st0{fill:#E3A02A;}
</style>
<title>Asset 28</title>
<g>
	<g id="Layer_1-2">
		<path class="st0" d="M57.2,52"/>
		<path class="st0" d="M57.2,52L57.2,52z"/>
		<path class="st0" d="M12.4,46"/>
		<path class="st0" d="M93,40.3c-4.3-3.1-8.7-6.1-13-9.3c-4.1-3-7.8-6.4-12-9.2c-8-5.3-16.9-6.9-26.5-6.5s-17.6,3.9-23.9,10.9
			c-4.6,5.1-9,10.2-15.3,13.5c-1.7,0.7-2.7,2.7-2.1,4.5c0.6,2.1,2.2,2.7,4.1,2.6c3.3-0.2,6.1,1,8.8,2.7c4.7,3.2,9.9,5.4,15.5,6.5
			c3.7,0.7,7.5,1.2,11.3,1.8l0.1-0.6l-9.5-1.4l0.1-1l13.4,1.5v-0.3l-0.5-0.1L57.3,54c-0.6,0.7-2.9,0.2-2,2.4
			c10.3-2.4,17.1-9.7,23.1-16.9l2.5,1.1c-1.2,1.5-2.4,2.8-3.6,4.2l0.1,0.1l4.1-3.8l0.3,0.3l-1.2,2l0.5,0.4l1.3-2l2.4,1.5L82.4,46
			c0.9-0.6,1.8-1.3,2.7-2c0.2-0.2,0.7-0.5,0.8-0.4c2.6,1.2,4.8-0.3,7.1-1.1c0.5-0.2,0.8-0.8,1.1-1.2C93.8,41,93.4,40.6,93,40.3z
			 M3.9,43.6l-0.7,2.5c-0.6-0.9-1.6-1.8-1.5-2.1c0.8-1.1,1.7-2.2,2.8-3.2c0.8,1.8,1.4,3.2,2.3,5L3.9,43.6z M24.1,53.7
			c-1.9,0.3-3.4-0.8-4.5-2.5l4.7,1.9L24.1,53.7z M42.2,54.4c-1.1,0.2-2.3,0.2-3.4,0.3l-0.1-0.8c-2.5,1.2-4.9-0.1-7.3-0.2
			c-3-0.2-5.8-0.5-8.1-2.7v1.4l-2.1-2c-1.8,1.1-1.9-1.1-2.9-1.4V50l-5.8-4l0.1,0.7c-1.1-0.6-2.2-1-3.1-1.6c-0.7-0.4-1.8-1.1-1.7-1.5
			c0.2-1.5,0.8-2.9,1.6-4.2c0.7-1,2-1.5,3-2.1c-0.1,0.5-0.3,1.3-0.5,2.2l3.5-3.7l0.5,0.3l-0.8,3.7l0.3,0.1l2.1-5.5l0.5,0.2
			c-0.4,1.7-0.8,3.4-1.2,5.1h0.2c1.5-3.6,3.1-7.1,4.6-10.7l0.4,0.2l-2.5,9.2l0.5,0.2c0.7-2.5,1.4-5,2.1-7.5l0.4,0.1L21,38.4l0.6,0.2
			c0.9-3.8,0.3-8.4,5.2-10.1c-0.4,1.8-0.8,3.6-1.2,5.3c-1.5,8.2,4.6,17.9,14.7,18.8c1.3,0.1,2.7,0.2,4,0.4c0.4,0.1,0.8,0.5,1.2,0.8
			C44.6,55.1,43.3,54.1,42.2,54.4z M34,45c0.5-0.5,1.1-0.7,1.8-0.5c4.2,3.6,8.4,1,13.1-0.2c-1,0.8-1.5,1.2-2.2,1.6
			c-0.6,0.4-1.3,0.8-1.8,1.2c3.1-0.7,5.4-2.7,7.3-5.4c-0.8,3.3-4.3,5.9-10.1,7.7c4.9-0.2,8.4-2.8,11.5-6.4c-0.9,4-4.2,5.8-7.6,8.2
			l2.9-0.8l0.2,0.7c-1.7,0.5-3.4,0.8-5.2,1c-3.9,0.1-7.7-1-10.9-3.1c-1.6-1-2.6-2.1-2.3-4l3.5,2.6C34,46.4,33.7,45.6,34,45z
			 M48.5,36l-0.2-1.6c-0.1,0-0.2,0.1-0.3,0.2c-0.3,0.7-1.2,1.1-1.9,0.7c-0.3-0.1-0.6-0.4-0.7-0.7c-1.1-2.3-2.1-4.6-3-6.9
			c-0.1-0.3,0.2-1.2,0.4-1.2c0.6-0.2,1.3-0.1,1.9,0.2c0.4,0.3,0.5,1,0.9,1.8l0.3-1.7l0.4-0.1c0.4,0.9,0.7,1.8,1.1,2.7
			c0.1-0.7,0.1-1.3,0.2-1.9l0.3-0.1l0.9,1.9l0.3-1c1.2,1.7,2.3,3.6,3.3,5.4c0.7,1.4-0.2,2-1.9,1.7c-0.2,0-0.5,0.4-1,0.9
			c0.1-0.9,0.2-1.4,0.3-2.4L48.5,36z M67.1,46.9c-0.8,0.6-1.6,1.3-2.3,2c-0.7,0.5-1.5,0.9-2.4,1l-3.4,2.7l0.1-1.7l-1.9,2.2
			c0-0.6,0-0.9,0.1-1l-7.3,2.3c0-0.4,0.1-0.9,0.1-1.6l-1.7,2.1l-0.6-0.7l-2-0.4c0.5-0.4,1-1,1.5-1.2c12.6-3.1,15.8-19.4,9.2-27.2
			c-0.1-0.2-0.1-0.5,0-0.7l2.1,2.5l0.4,0.1l-0.4-0.1l3.8,10.3h0.2l-1.4-6.1l2.6,6.4h0.2L62.3,31l0.6-0.1c0.8,3.5,1.6,7,2.4,10.3
			c0.5-4.8-1.4-9.3-3.7-14c2.6,2.3,3.7,5.6,5.2,12.9c-0.2-1.5-0.3-3.1-0.6-4.6c-0.4-1.6-0.7-3.2-0.8-4.8l2.1,6.9h0.2
			c-0.3-1.6-0.6-3.2-1-4.7c-0.5-1.5-0.9-3-1.1-4.5c0.8,1.8,1.6,3.6,2.2,5.5c0.4,2,1,4,1.7,6c-0.5-2.7-1-5.4-1.6-8.6
			c2.6,2.5,2,5.5,3.2,8c-0.3-2-0.5-3.9-0.8-5.9l0.7-0.1c0.4,2.2,0.7,4.3,1.1,6.5h0.4c-0.3-2.3-0.6-4.6-0.9-6.9l0.4-0.1l1.4,6.2
			l0.3,0l-0.4-4.2l0.4-0.1l0.7,2.5l0.4-1.6l2,1.9C74.4,41.2,71.4,44.7,67.1,46.9z M59.9,28c0.1,0.1,0.1,0.1,0.2,0.2S60,28.1,59.9,28
			z M60.4,28.8l0.2,0.4L60.4,28.8z M87.9,41.7l-7.3-6.4l-5.5-0.5l0.1-0.7l3.3-0.7L73.3,33l-0.1-0.6l1.6-0.7l-1.7-2.4
			c-1.6,0.3-3.2,0.7-3.7-1.7h-3.7l-0.1-0.7l3.3-0.7l-2.7-2.3H59l1.3-1.5L57,23.7l0.1-1.4L54.7,23l1.8-1.6l-0.2-0.3l-3.2,1l-0.2-0.5
			l1.2-1.5l-0.2-0.2L51.2,22v-2.4h-3c-0.7,1.9-1,1.9-2.7,0.3c-1,0.3-2,0.9-2.5,0.6c-0.7-0.4-1-1.5-1.7-2.2l0.6,2.7
			c-2.6-1-4.9-2.7-7.4-0.6l0,0c-4.5,0.8-8.8,2.8-12.4,5.7c-2.9,2.2-5.7,4.5-8.6,6.7c-0.6,0.4-1.3,0.8-2,1.1c0-0.1,0.1-0.2,0.2-0.3
			c2.6-2.8,5.2-5.7,8-8.4c5.5-5.5,12.9-8.6,20.6-8.8c5.2-0.2,10.3-0.4,15.5,1C63,19.3,69.6,23,75,28.1c1.6,1.7,3.2,3.4,4.6,5.3
			l1,1.1l2.8,1.4c-0.2,3.1,3.8,3,4.9,5.2L87.9,41.7z"/>
		<path class="st0" d="M5,13.7c2.8-0.9,5.6-1.9,8.5-2.7c4.6-1.2,9.3-2.3,13.9-3.5c0.1,0.3,0.2,0.8,0.4,0.8
			c5.9,0.3,11.7,0.6,17.6,0.9c2.8,0.1,5.6-0.4,8.3,0.1c4.9,0.8,9.8,2,14.7,3.2c3.2,0.6,6.3,1.4,9.4,2.5c3.8,1.6,7.5,3.7,11.2,5.6
			c0.4,0.2,0.8,0.3,1.2,0.4c0-0.7-0.3-1.5-0.8-2c-3-3.2-6.5-5.8-10.4-7.6c-1.3-0.7-2.3-2.2-4.2-1.7l-0.2-1.6l-3-0.2l0.3-0.9
			l-3.2,0.2l1-1.4l-5.3-0.9l0.9-1.1L56.4,2l1.1-0.7c-6.2,0.1-6.2,0.1-7.2,1.5c1.9-1.3,2.1-0.2,2.2,1c-1.6-1.7-3,0.3-4.5,0.2
			c-0.9,1.1-0.1,1.6,0.7,2.2l-4.8,1.8l-0.2-0.8l3.2-0.8l-2-0.9l1.9-1.6c-0.6,0.2-1.2,0.3-1.9,0.6c-1,0.3-2,0.7-3.3,1.1
			c0.2-1.1,0.2-1.5,0.3-2.3l-5,2L38.1,3l9.2-1.9V0.8h-6.2L41.6,0L30.1,0.7l-3.5,2.9c-2.5-0.1-4,0.8-4.5,2.6l0,0l-2.4-0.9l-0.5,0.1
			L19,5.2l-0.1,0.2l-0.5,0.3L17,6.2l1-1.3l-0.5-0.5l0.5,0.1c0.1-0.2,0.3-0.3,0.4-0.5l0.4-0.5L19.4,3l0.4,0.5l0.9-0.1L23.4,2l0.8,0.1
			l0.6-1l0,0l0,0l0,0l0,0l-1-0.8c-1.5-0.3-3.2,0-4.5,0.9c-1.9-0.5-3.9,0.2-5.1,1.7c-2.1,2.2-4.1,4.8-6.7,6s-3.8,3.5-5.8,5.3
			C2.8,14.3,3.9,14.1,5,13.7z M61.6,3.4l0.2,0.7L53,7l-0.2-0.6L61.6,3.4z M52.5,4.1c0-0.1,0-0.2,0-0.2S52.5,4,52.5,4.1l-1.8,1.4
			L52.5,4.1z M26.5,3.8C28.3,3,30.2,2.2,32,1.4C32.7,1,33.5,0.9,34.2,1l-1.7,1l0.1,0.4l3.7-1l0.1,0.3c-2.7,1.2-5.3,2.5-8,3.7
			c-0.7,0.3-1.7,1-2-0.6L26.5,3.8z M23.9,0.9l0.9,0.2l-0.9,0.4L23.9,0.9z M16.2,5.7L16.2,5.7z M16.6,5.3L16.6,5.3l-0.5,0.5l0,0
			L16.6,5.3z M15.3,6.7L16,7.1L15.3,6.7z"/>
		<path class="st0" d="M55,56.4h0.4l0,0l0,0l0,0H55z"/>
		<path class="st0" d="M42.9,57.9L55,56.4l-12.2,0.7L42.9,57.9z"/>
		<path class="st0" d="M13.6,27.7l-3.1,3.6l3.4-3.3L13.6,27.7z"/>
		<path class="st0" d="M7.3,35l3.2-3.7L7,34.7L7.3,35z"/>
		<path class="st0" d="M45.9,59.9l0,0.5l9.2-1L55,58.9L45.9,59.9z"/>
		<path class="st0" d="M5.4,28.3l0.3,0.4l6.5-4.2l-0.3-0.4L5.4,28.3z"/>
		<path class="st0" d="M24.3,32.1c-2.3,3.7-1.6,10.4,1,13.4C23.3,41.3,23.1,37,24.3,32.1z"/>
	</g>
</g>
</svg>
