<svg xmlns="http://www.w3.org/2000/svg" viewBox="0 0 70.62 45.34"><defs><style>.cls-1{fill:#e32313;}</style></defs><title>Asset 4</title><g id="Layer_2" data-name="Layer 2"><g id="_1200" data-name="1200"><path class="cls-1" d="M42.89,39.05Z"/><path class="cls-1" d="M42.89,39.05h0Z"/><path class="cls-1" d="M9.28,34.49Z"/><path class="cls-1" d="M69.8,30.24c-3.27-2.32-6.58-4.59-9.8-7-3-2.25-5.89-4.81-9-6.9-6-4-12.68-5.2-19.9-4.86s-13.17,2.92-17.9,8.15C9.7,23.49,6.38,27.35,1.71,29.8A2.75,2.75,0,0,0,.13,33.15c.46,1.59,1.65,2,3.1,1.94a10.49,10.49,0,0,1,6.56,2A31.55,31.55,0,0,0,21.45,42c2.8.52,5.63.88,8.44,1.32L30,42.9l-7.15-1.08.09-.74L33,42.19,33,42l-.35-.1L43,40.47c-.43.55-2.21.18-1.5,1.81,7.7-1.81,12.81-7.22,17.33-12.63l1.94.84-2.69,3.14.09.07,3.06-2.83.21.2-.91,1.46.4.32.95-1.53,1.8,1.16-1.9,2.05a13.53,13.53,0,0,0,2-1.56c.17-.15.48-.34.62-.28,2,.87,3.63-.25,5.35-.83.34-.11.56-.59.84-.9C70.35,30.72,70.09,30.45,69.8,30.24ZM2.94,32.74l-.49,1.83C2,33.91,1.23,33.2,1.35,33a17.54,17.54,0,0,1,2.07-2.37l1.75,3.72Zm15.12,7.57c-1.44.2-2.51-.58-3.34-1.9l3.54,1.41Zm13.57.47a24.85,24.85,0,0,1-2.54.21L29,40.38c-1.85.92-3.65-.08-5.47-.19-2.22-.13-4.36-.36-6.11-2v1l-1.61-1.48c-1.34.85-1.39-.81-2.16-1.08v.89l-4.35-3,.07.5c-.82-.42-1.62-.77-2.36-1.23-.49-.31-1.32-.84-1.26-1.13A8.13,8.13,0,0,1,6.91,29.5a8.12,8.12,0,0,1,2.26-1.6L8.8,29.57c.89-1,1.75-1.88,2.62-2.79l.39.23-.61,2.77.23.08L13,25.78l.39.13c-.31,1.27-.62,2.55-.94,3.83l.15,0,3.45-8,.29.13-1.89,6.91.4.11,1.59-5.61.28.07-1,5.44.42.12c.64-2.86.21-6.31,3.87-7.55-.29,1.34-.61,2.67-.86,4a12.42,12.42,0,0,0,11,14.13c1,.09,2,.14,3,.31.33.06.62.4.93.62C33.44,41.3,32.47,40.62,31.63,40.78Zm-6.12-7a1.42,1.42,0,0,1,1.32-.38c3.19,2.7,6.28.76,9.85-.16-.74.56-1.16.93-1.62,1.23a11.34,11.34,0,0,0-1.38.91,9.52,9.52,0,0,0,5.5-4c-.59,2.46-3.26,4.4-7.56,5.74,3.64-.19,6.3-2.15,8.59-4.87-.67,3-3.18,4.37-5.72,6.22l2.21-.6.12.52a25.57,25.57,0,0,1-3.9.76,14.49,14.49,0,0,1-8.18-2.36c-1.2-.72-2-1.58-1.74-3l2.6,2C25.53,34.83,25.3,34.2,25.51,33.77ZM36.42,27l-.18-1.23c-.08,0-.17.06-.21.12a1.09,1.09,0,0,1-2,0c-.83-1.69-1.56-3.43-2.26-5.18-.1-.25.15-.9.33-.94a2.05,2.05,0,0,1,1.41.14c.31.19.4.76.68,1.37L34.41,20l.31-.09c.26.65.53,1.31.83,2l.11-1.45.25-.09c.22.48.43.95.65,1.45l.26-.76a42.11,42.11,0,0,1,2.47,4.07c.49,1.05-.14,1.51-1.43,1.25-.14,0-.36.32-.75.68.08-.65.12-1,.2-1.8Zm13.9,8.15a15.85,15.85,0,0,0-1.75,1.47,3.78,3.78,0,0,1-1.82.72l-2.57,2.12.1-1.28-1.44,1.64,0-.76L37.44,40.8l.09-1.23-1.31,1.59-.44-.51-1.51-.28c.37-.33.71-.78,1.14-.89,9.41-2.29,11.87-14.54,6.93-20.4-.1-.11-.14-.27,0-.55l1.6,1.89a2.55,2.55,0,0,1,.33.11,2.55,2.55,0,0,0-.33-.11q1.44,3.84,2.87,7.69h.12L45.8,23.54l2,4.78h.14l-1.13-5.06.48-.11L49,30.88c.4-3.62-1.06-7-2.79-10.48,1.92,1.74,2.81,4.2,3.89,9.65-.15-1.16-.24-2.33-.46-3.48A21.18,21.18,0,0,1,49.09,23l1.6,5.16.18,0c-.25-1.18-.45-2.37-.78-3.52a16.18,16.18,0,0,1-.85-3.39c.56,1.36,1.23,2.69,1.66,4.09a39.06,39.06,0,0,0,1.28,4.48c-.37-2-.73-4-1.17-6.46,1.92,1.85,1.48,4.16,2.38,6-.19-1.47-.39-2.94-.58-4.42l.5-.08c.28,1.63.55,3.26.82,4.89l.34,0-.66-5.16.29-.08,1.08,4.66.23-.05-.31-3.11.33-.09L56,27.72l.32-1.19,1.53,1.4A19.93,19.93,0,0,1,50.32,35.15ZM44.93,21a1,1,0,0,1,.13.16A1,1,0,0,0,44.93,21Zm.39.6c0,.1.08.19.12.29C45.4,21.79,45.37,21.7,45.32,21.6Zm20.61,9.67-5.47-4.82-4.13-.39.05-.52,2.48-.48-3.9-.3-.06-.45,1.23-.5L54.86,22c-1.17.25-2.42.51-2.78-1.29H49.33l0-.52,2.51-.53-2-1.73H44.23l1-1.16-2.48,1,.09-1L41,17.25l1.37-1.19-.19-.22-2.37.73-.16-.37.89-1.15-.12-.15-2,1.57V14.69H36.16c-.55,1.44-.78,1.45-2,.24-.75.19-1.51.64-1.89.42s-.75-1.1-1.27-1.63l.49,2.06c-2-.76-3.69-2-5.53-.45h0a20.81,20.81,0,0,0-9.28,4.26c-2.16,1.64-4.25,3.36-6.42,5a7.55,7.55,0,0,1-1.48.81,1.1,1.1,0,0,1,.14-.21c2-2.12,3.93-4.26,6-6.29A22.62,22.62,0,0,1,30.3,12.25,38.36,38.36,0,0,1,41.91,13a33.51,33.51,0,0,1,14.37,8.14,50.41,50.41,0,0,1,3.47,4l.77.86,2.1,1c-.18,2.36,2.83,2.21,3.64,3.92Z"/><path class="cls-1" d="M3.77,10.25c2.14-.67,4.24-1.45,6.4-2,3.46-.94,7-1.75,10.42-2.61.1.2.18.58.28.58,4.4.25,8.8.49,13.2.65,2.09.08,4.23-.28,6.26,0,3.7.6,7.35,1.53,11,2.38a48.37,48.37,0,0,1,7.06,1.91c2.88,1.17,5.6,2.76,8.4,4.16a6.44,6.44,0,0,0,.88.28,2.15,2.15,0,0,0-.58-1.51,26.26,26.26,0,0,0-7.77-5.72c-1-.51-1.77-1.61-3.13-1.26l-.12-1.23L53.8,5.72l.26-.67-2.42.15.71-1-4-.65.67-.85L42.3,1.52,43.15,1c-4.63.07-4.63.07-5.4,1.1,1.46-1,1.57-.15,1.65.74C38.21,1.58,37.15,3.09,36,3c-.69.8-.11,1.21.5,1.62L32.91,6l-.19-.55,2.38-.58-1.48-.71L35,2.91c-.46.14-.93.27-1.39.42-.76.24-1.5.5-2.47.84.12-.81.17-1.14.26-1.72L27.71,4l.87-1.73L35.46.8V.59H30.82L31.18,0,22.55.49,19.9,2.67c-1.86-.06-3,.62-3.35,2h0l-1.82-.68L14.39,4l-.12-.06-.07.12-.35.22-1,.34.74-1-.38-.34.39,0L13.88,3l.33-.35.31-.39.3.41.7-.06,2-1.11.57.1.47-.73h0l0,0,0,0-.7-.54a4.27,4.27,0,0,0-3.36.67,3.73,3.73,0,0,0-3.85,1.27c-1.54,1.65-3.08,3.6-5,4.47s-2.88,2.63-4.35,4A7,7,0,0,0,3.77,10.25Zm42.47-7.7.13.51L39.76,5.28l-.15-.44Zm-6.89.53,0-.16,0,.16L38,4.13Zm-19.48-.2C21.26,2.27,22.64,1.64,24,1A2.91,2.91,0,0,1,25.67.76l-1.26.71.07.32L27.22,1l.1.25c-2,.93-4,1.9-6,2.79-.52.22-1.3.71-1.51-.44Zm-2-2.2.63.14-.69.29Zm-5.74,3.6,0,0ZM12.49,4h0l-.34.34h0Zm-1,1,.5.31L11.49,5Z"/><path class="cls-1" d="M41.26,42.32l.28,0h0v0h0Z"/><path class="cls-1" d="M32.19,43.47l9.07-1.15-9.14.52Z"/><path class="cls-1" d="M10.24,20.78l-2.36,2.7L10.46,21Z"/><path class="cls-1" d="M5.48,26.22l2.4-2.74L5.28,26Z"/><path class="cls-1" d="M34.41,45l0,.37,6.9-.77-.05-.4Z"/><path class="cls-1" d="M4.08,21.26l.2.3,4.87-3.15-.21-.33Z"/><path class="cls-1" d="M18.25,24.09c-1.7,2.74-1.23,7.78.78,10C17.45,31,17.35,27.77,18.25,24.09Z"/></g></g></svg>