<?xml version="1.0" encoding="utf-8"?>
<!-- Generator: Adobe Illustrator 23.0.3, SVG Export Plug-In . SVG Version: 6.00 Build 0)  -->
<svg version="1.1" id="Layer_1" xmlns="http://www.w3.org/2000/svg" xmlns:xlink="http://www.w3.org/1999/xlink" x="0px" y="0px"
	 viewBox="0 0 86.3 65.2" style="enable-background:new 0 0 86.3 65.2;" xml:space="preserve">
<style type="text/css">
	.st0{fill:#E3A02A;}
</style>
<title>Asset 27</title>
<g>
	<g id="Layer_1-2">
		<path class="st0" d="M86.3,42c-0.2,1.2-0.5,2.3-0.9,3.4c-2.3,4.9-4.8,9.7-8.7,13.5c-0.8,0.8-1.8,1.5-2.8,1.9
			C68,63.5,61.6,65,55.2,65.2c-5.4,0-10.8-1.1-15.7-3.2C34,59.8,29,56.9,25,52.6c-1.3-1.4-2.4-3.1-3.6-4.6c-2.7-3.2-6-5.7-9.7-7.5
			c-4.1-2.1-7.7-5.2-10.4-9c-1.8-2.5-1.4-5.2-0.7-7.7c1-3.3,2.1-6.6,3.4-9.8c0.5-1.1,1.4-2,2.4-2.6c0.9-0.4,1.5-1.3,1.5-2.3
			c0-5.9,6.4-10.2,11.4-9C24.8,1.5,30.2,3,35.7,4.4c4.9,1.4,9.9,2,15,1.9c9.4-0.5,17,3.5,24.1,9.1c6.1,4.7,8.1,11.5,9.8,18.4
			C85.3,36.5,85.7,39.1,86.3,42z M41.4,28.7c2.8,1.2,5.2-0.4,8-1.1L47,24.8c-0.2,0.7-0.2,1.2-0.4,1.8s-0.3,0.9-0.5,1.4
			c-0.4-2.8-0.4-5.6-3.4-6.9c-1.1,1.5-0.9,3.2-0.7,4.9C42.2,26.9,42.8,28.1,41.4,28.7c-0.1-0.5-0.1-1-0.2-1.5
			c-0.1-0.4-0.1-0.8-0.1-1.2c0-0.7,0.1-1.4,0.1-2s-0.4-1.3-0.2-1.8c0.6-1.3-0.1-2.2-0.9-2.9c-1.1-0.9-2.3-1.6-3.5-2.4l-0.3,3.8
			c-0.4-1-0.6-2-0.7-3c-0.1-1.4-1.7-2.9-3.4-3.2s-1.6,0.9-2,1.9c-0.3-0.4-0.4-0.8-0.4-1.3c0.5-1.6-0.6-2.2-1.8-2.6
			c-0.6-0.2-1.2-0.5-1.9-0.7c-2.3-0.7-2.9-0.4-3.7,2L22,11.2c-1.2-0.1-2.6-0.4-4.1-0.4c-0.5,0.1-1,0.4-1.2,0.9
			c-0.4,1.7-0.6,3.5-0.9,5.3c2.6,0.4,5.2,0.7,7.7,1.2C30.7,19.5,36.3,23.6,41.4,28.7z M76.6,42L76.6,42c-1.8-1.8-3.4-3.7-6-4.3l0,0
			c-2.8-1.4-5.5-2.9-8.3-4.1c-1.4-0.4-2.9-0.6-4.4-0.4c-3.1,0.2-5.8-0.2-7.5-3.1c-0.7-1.1-2.5-0.9-3.2,0.3c-0.4,0.9-1,1.7-1.6,2.5
			c-1.4,1.6-1.2,3.1-0.3,4.9c0.3,0.8,0.4,1.7,0.4,2.6l-0.7,0.1c-0.4-2.7-0.8-5.3-1.1-8l0.5,0.2l1.4-2l-0.4-0.6
			c-0.9,0.5-2.5,0.7-2.7,1.4c-0.9,2-1.4,4.2-1.5,6.4c0,2.8,0.8,5.7,1.2,8.5c0,0.4-0.2,0.8-0.4,1.1c-0.3-0.3-0.5-0.6-0.6-0.9
			c-0.9-4.2-1.1-8.6-0.6-12.9c0.2-0.9,0.4-1.7,0.7-2.5c-1.1-0.2-2.1-0.3-3-0.5s-1.7,0.1-1.8,1.3c-0.2,1.8-0.5,3.5-0.6,5.3
			c-0.1,2.2,0,4.3,0,6.5h-0.6c-0.2-0.6-0.3-1.1-0.4-1.7c-0.7-3.4-0.5-6.9,0.5-10.3c0.3-1.2,0.2-1.8-1.1-2c-1.5-0.3-2.9-0.8-4.5-1.2
			L29,38.2h-0.6c-0.1-2.8-0.2-5.5-0.4-8.3c0-0.5,0-1.2-0.3-1.3c-1.5-0.8-3-1.5-4.2-2.1l-1.5,7.3h-0.5c0.2-0.9,0.2-1.8,0.2-2.7
			c-0.1-1.7,0.1-3.8-0.7-5.1s-2.8-2.1-4.5-3.2l-1,5.9h-0.6c0-0.9,0.1-1.9,0-2.8c-0.1-1.7,1.2-3.6-1.1-5.1l-3.8,6.7L9.7,27
			c0.4-1,0.8-2.1,1.3-3.1c0.6-1,1.3-2,2.1-3.2H3.7c3.1-1.6,6.5-0.6,9.9-1.1c-0.3-1.4-0.7-2.5-2.4-2.6c-0.8-0.1-1.5-0.4-2.1-0.8
			c-0.9-0.6-1.7-1.3-2.7-2c0.9,0.2,1.8,0.4,2.7,0.7c0.8,0.4,1.6,0.8,2.4,1.3l0.3-0.4c-0.9-0.8-1.8-1.6-2.8-2.4
			c-1.7-1.1-2.8-0.8-3.6,1.1c-0.9,1.9-1.6,3.9-2.2,5.9c-0.2,0.9-0.2,2.5,0.4,3c2.4,2.3,5.3,4.1,8.4,5.2c1.5,0.5,2.9,1.2,4.3,1.9
			l-0.2,0.4l-3.1-1.2c6.4,3.6,12.5,7.7,17.3,13.4l0.5-0.5l-6.9-6.6c1.8,1,3.5,2.2,5,3.6c0.8,0.6,1.4,1.4,2,2.2c0.7,1,1,2.6,1.9,3.2
			c3.1,2,6.4,3.8,9.8,5.3c5.5,2.6,11.4,3.1,17.4,3.6c0.7,0,1.5-0.1,2.2-0.2v-0.3L59,53.1v-0.3l4.1-0.7l1.2,0.4l-0.9,1.3l7.3-1.8
			l4.6-2c1-0.4,1.9-0.9,2.7-1.5c0.6-0.6,1-1.4,1-2.2C78.9,44.6,78,43,76.6,42z M81,27.6c-0.1-0.5-0.1-0.8-0.2-0.9
			c-1-1.3-0.8-3.4-2.7-4.1c-0.1,0-0.1-0.2-0.2-0.3c-1-1.7-1.6-3.6-3.7-4.7c-1.8-0.9-3.1-2.9-4.8-4C64,9.9,58.1,7.6,51.3,8
			c-2.5,0.1-5-0.2-7.5-0.3c-1-0.1-1.9-0.2-2.9-0.3v0.3L49,8.9c-4.5,0.6-11.4-0.7-13.6-2.2l4.5,0.8V7.3L23.7,2.8l1.6,0.9
			c-3.5-0.3-6.7-2.2-10.5-0.5l1.1-1.6c-0.7,0.3-1.4,0.6-2.1,1C13.4,3,13.2,3.9,13,3.9c-2-0.1-2.2,1.7-3.2,2.8c0.3,0.4,0.7,0.7,1.1,1
			c1.9,1.2,2.5,0.8,2.7-1.4c0.1-0.6,0.2-1.1,0.4-1.6c2,1-0.3,2.8,0.9,4c2,0,1.8-2.2,3.1-3.2l-0.7,3.4l0.4,0.2l3-2.2l0.2,0.3
			l-1.2,1.6l0.2,0.5l7.8-0.6L25.9,10c3.1,0.7,5.6,3,8.9,1.5l0.2,0.5l-1.7,1c0.5,0.2,1,0.5,1.4,0.7c1.5,1.2,3.1,1.8,4.6,0
			c0.1-0.1,0.6,0,1.3,0.1l-2.5,2l3.5,2.3l4-4.4c-0.7,1.3-1.5,2.5-2.3,3.7c-0.9,1.5,0.7,2,1.5,2.7s1.3-0.1,1.7-0.7
			c0.7-1.1,1.4-2.2,2.1-3.3c-0.1,1-0.3,1.9-0.8,2.7c-1.3,2.3-1.3,2.8,0.8,4.7l0.5-3.3l0.5,0c0,0.8-0.1,1.5-0.1,2.3
			c-0.1,0.8-0.1,1.6,0.2,2.4c0.9,1.8,2.7,2.8,4.7,2.6c1.6-0.1,3.3,0.5,4.5,1.5c2,1.9,4.3,3.3,6.9,4.1c1.7,0.6,3.4,1.4,4.9,2.4
			c3.5,2.4,7.3,2.3,11.1,2.2c0.4,0,1.3-1.1,1.2-1.5c-0.6-2.7-1.4-5.3-2.3-7.9c-0.1-0.4-0.6-0.8-1-1.1l0.5-0.7L81,27.6z M2.2,24.8
			c-0.5,1.8-1,3.5,0.1,5.1C5,33.8,8.6,37,12.8,39.3c2.2,1.1,4.3,2.5,6.2,4.1c2.4,2.4,4.6,5,6.8,7.6c3.6,4.2,8.2,6.7,13.1,8.9
			c4.4,2.1,9.1,3.3,14,3.6c3.2,0.1,6.5-0.5,9.8-0.9c0.3,0,0.5-0.5,0.8-0.7l-2-1.2c-0.6-1.8,0.1-3.7,1.5-4.9c2.6,0.5,3.1,0.4,3.6-0.6
			c-2.3,0-4.7-0.2-7,0C56,55.4,52.4,55,49,54c-3.5-1-7-2.3-10.3-3.9c-4.3-1.9-8.1-4.6-11.3-8c-1.2-1.4-2.5-2.7-4-3.8
			c-5-3.2-10.1-6.2-15.3-9.1C5.9,28,3.6,27.1,2.2,24.8z M15.6,19.1c6.6,6.3,14.9,8.7,23.7,10C32.7,22.6,25.1,18.8,15.6,19.1z
			 M51.4,29c0.5,2.6,2.4,3.5,4.6,3.9c1.7,0.2,2.4-1.1,3.5-1.9C56.2,27.3,54.9,27.8,51.4,29z M9.4,9c0,1-0.2,2.1,0.2,2.7
			c1,1,2.1,1.8,3.3,2.6C12.9,11.2,12.1,10,9.4,9z M13,10.3l0.6,5.7h0.6l1.1-5.6L13,10.3z M72.2,58.3l0.4,0.2l0.7-1.9
			c-2-0.3-3.6-0.2-5,1.9l3.3,0.5c-0.4-2.1-0.3-2.2,1.4-1.9L72.2,58.3z M74.8,53.3c-0.5,0.7-0.9,1.4-1.1,2.2c0.1,0.8,0.3,1.5,0.6,2.2
			l1-1.9C73.4,55.3,76.1,54.2,74.8,53.3z"/>
		<path class="st0" d="M70.7,52.1l-4.4,0.5l-0.1-0.3c0.8-0.2,1.6-0.5,2.3-0.7c1.9-0.6,3.8-1.2,5.8-1.7c0.3-0.1,0.7,0.1,1,0.2
			L70.7,52.1z"/>
		<path class="st0" d="M63.1,52.1c-0.2-0.6-0.3-1.2-0.4-1.9s-0.2-1.2-0.2-1.9l3,4.6l-1.1-0.4L63.1,52.1z"/>
		<path class="st0" d="M57.7,37.6c1-0.3,1.8-0.5,1.7-2c-0.1-0.8,0.5-1.6,1.7-1.3c-1,1.7-2,3.3-2.9,5c-0.9,1.8-2.5,3.1-4.4,3.7
			c0.9-0.8,1.8-1.5,2.7-2.3c0.6-0.5,0.7-1-0.1-1.5L57.7,37.6z"/>
		<path class="st0" d="M50.6,35l2.6-1.1l-1.6,3.7c0,0-0.1-0.2-0.2-0.5h-0.3v2.7c-0.8,0-1.3-2.6-0.8-4.5L50.6,35z"/>
		<path class="st0" d="M57.7,37.6l-1.3,1.7c-0.5,0.3-1,0.6-1.5,1c-1,1.2-1.5,0.7-2.2-0.6l1.4,0.6c1.9-1.6,3.4-3.3,2.1-6.6l1.7,1.3
			L57.7,37.6z"/>
		<path class="st0" d="M65.9,49.6L64.3,43l0.5-0.1l1.5,5.2l0.7-2C68,47.7,66.8,48.5,65.9,49.6z"/>
		<path class="st0" d="M38.8,47.1l8.1,3.4L46.6,51l-8.2-3.4L38.8,47.1z"/>
		<path class="st0" d="M50.6,35l-0.3,0.3l-1.5,1l-0.6-0.2c2.3-1.3,1.6-2.8,0.8-4.4C50.3,32.3,51,33.6,50.6,35z"/>
		<path class="st0" d="M66.9,45.3c-0.2-1.8-0.6-3.5-0.7-5.2c0-0.3,0.8-0.7,1-0.9v6.1H66.9z"/>
		<path class="st0" d="M67.2,50.6c1.6-2,2.8-4.1,2.3-6.8C70.3,47.1,69.6,49.1,67.2,50.6z"/>
		<path class="st0" d="M73.8,40.5c1.2,1.5,1.5,3.5,0.7,5.3L73.8,40.5z"/>
		<path class="st0" d="M48.9,43.8c0.7,1.8,1.3,3.6,3.2,4.8c-0.5-0.1-1.1,0-1.3-0.2c-0.9-1.3-1.6-2.8-2.4-4.2L48.9,43.8z"/>
		<path class="st0" d="M48.3,31.2L46.8,35l-0.3,0.1c-0.1-0.6-0.4-1.4-0.2-1.8C46.9,32.5,47.6,31.8,48.3,31.2z"/>
		<path class="st0" d="M62,38.3l-2.9,4.3l-0.4-0.2c0.5-0.8,1.6-1.7,1.5-2.5c-0.1-1.5,1.2-1.1,1.4-2L62,38.3z"/>
		<path class="st0" d="M76.6,42l1,4.6l-0.5,0.1C76.5,45.2,75.8,43.7,76.6,42L76.6,42z"/>
		<path class="st0" d="M70.6,37.7l-1,4.5C68.6,40.6,69,38.2,70.6,37.7L70.6,37.7z"/>
		<path class="st0" d="M65,35.9L62.4,40L62,39.7l2.5-4.2L65,35.9z"/>
		<path class="st0" d="M57.2,47.5c-1.4,1.6-2.8,3.1-5.1,3.3L57.2,47.5z"/>
		<path class="st0" d="M72.2,39.3l0.8,4.1l-0.7,0.1l-0.5-4.1L72.2,39.3z"/>
		<path class="st0" d="M64.4,22.8l1,0.5c0,1.1,0,2.1,0,3c0,1.9-0.1,3.8-1.9,5.1C64.9,28.8,65.3,25.7,64.4,22.8z"/>
		<path class="st0" d="M54.7,24.2l0.7-0.5l-0.8,2.8l-1.5-0.4l0.9-4.1L54.7,24.2z"/>
		<path class="st0" d="M55.8,16.3c1.4-2,3.4-3.5,5.8-4.3l0.2,0.4L55.8,16.3z"/>
		<path class="st0" d="M53.6,9.7l-6,3l-0.2-0.5l6-3.1L53.6,9.7z"/>
		<path class="st0" d="M41.1,12.5l5.2-2.9l0.3,0.5l-5.1,3.1L41.1,12.5z"/>
		<path class="st0" d="M61.8,10.6l-8.5-1.9C55.2,8.2,57.5,8.7,61.8,10.6z"/>
		<path class="st0" d="M67.1,25.8l-1.6-7.7C67,20.6,67.8,23.1,67.1,25.8z"/>
		<path class="st0" d="M52,20.1c0,2.1-2.2,3.7,0.2,5.8C49.7,25.1,49.5,24.1,52,20.1z"/>
		<path class="st0" d="M55.4,23.5c-0.3-2.1-0.4-4.4-2.4-5.8C55.4,19.2,56,20.5,55.4,23.5z"/>
		<path class="st0" d="M61.8,21.9c0.3,2,2,3.8,1.3,6.3l-1.8-6.1L61.8,21.9z"/>
		<path class="st0" d="M66.3,13.3l2.5,4l-0.6,0.4l-2.4-4.1L66.3,13.3z"/>
		<path class="st0" d="M67.2,27.4c1.5-1.8,1.8-4,1.8-6.1C69.1,23.4,69.9,25.8,67.2,27.4z"/>
		<path class="st0" d="M72.3,35.2l3.7-4.1c0,2.5-2.4,2.8-3.2,4.4L72.3,35.2z"/>
		<path class="st0" d="M58.7,16l3-1.5l1,3.4l-0.2,0.1l-1.5-2.9l-2,1.2L58.7,16z"/>
		<path class="st0" d="M56.3,22.6c1.1-1.9,3.9-3.3,4.5-2.8L56.3,22.6z"/>
		<path class="st0" d="M78.7,33.1l-3.8,2.9l-0.4-0.5l3.8-2.9L78.7,33.1z"/>
		<path class="st0" d="M65.1,32.2l1.1-3.9l0.6,0.2l-1,4L65.1,32.2z"/>
		<path class="st0" d="M60,11.5l-4.2,1.1l-0.1-0.5l4.2-1.2L60,11.5z"/>
		<path class="st0" d="M74.2,25.9l-0.8,1l-0.1-1.8l-1.1,1.3l-0.2-0.1l1.3-2.5L74.2,25.9z"/>
		<path class="st0" d="M76.3,26.3l-0.6-1.2L75,26.2l0.3-4.1l1.3,4.1L76.3,26.3z"/>
		<path class="st0" d="M37.8,13.6c0,0-0.1,0.1-0.1,0.1s-0.1-0.1-0.1-0.1s0.1-0.1,0.1-0.1S37.8,13.5,37.8,13.6z"/>
		<path class="st0" d="M52.9,56.3c1.3-1.3,1.5-1.3,2,0.2c0.1,0.2,0.4,0.2,0.6,0.4s0.5,0.6,0.8,0.8l-1.1,0.1c-0.2,0-0.3,0-0.7,0.1
			l1.2,3l-2.5-1.7C52,58.4,56.4,57.4,52.9,56.3z"/>
		<path class="st0" d="M52.8,63.1l0.9-2l-1.3-0.2c1-0.5,2.3,0,2.8,1c0.1,0.2,0.2,0.4,0.2,0.6L53.8,62l-0.3,0.4h1.3l-0.5,0.6
			L52.8,63.1z"/>
		<path class="st0" d="M57.3,56.9l-1.2-0.2l1.7-1.1l0.7,2.4l-1.9-0.2L57.3,56.9z"/>
		<path class="st0" d="M56.2,31.8c-0.8-0.1-1.6-0.3-2.3-0.7c-0.5-0.4-0.8-1-0.8-1.6c0.3-0.5,0.9-0.8,1.6-0.8
			c1.1,0.3,2.3,0.8,3.3,1.3c0.2,0.2,0.4,0.5,0.3,0.8c-0.2,0.3-0.4,0.6-0.8,0.7c-0.4,0.1-0.9,0.1-1.3,0L56.2,31.8z"/>
	</g>
</g>
</svg>
