<svg xmlns="http://www.w3.org/2000/svg" viewBox="0 0 86.31 65.19"><defs><style>.cls-1{fill:#69c494;}</style></defs><title>Asset 22</title><g id="Layer_2" data-name="Layer 2"><g id="Layer_1-2" data-name="Layer 1"><path class="cls-1" d="M86.31,42a19.65,19.65,0,0,1-.94,3.39c-2.28,4.9-4.83,9.66-8.68,13.55a9.28,9.28,0,0,1-2.82,1.94,49.18,49.18,0,0,1-18.7,4.32,39.42,39.42,0,0,1-15.73-3.24C34,59.77,29,56.93,25,52.58c-1.31-1.44-2.38-3.1-3.62-4.6a29,29,0,0,0-9.7-7.49,28.86,28.86,0,0,1-10.41-9C-.51,29-.11,26.34.61,23.77A95.47,95.47,0,0,1,4,14a6.19,6.19,0,0,1,2.39-2.56,2.56,2.56,0,0,0,1.5-2.3c0-5.93,6.37-10.2,11.44-9C24.77,1.54,30.23,3,35.69,4.43a48.32,48.32,0,0,0,15,1.88c9.36-.51,17,3.53,24.1,9.09,6.1,4.74,8.08,11.48,9.83,18.42C85.32,36.45,85.74,39.14,86.31,42ZM41.38,28.7c2.82,1.22,5.17-.4,7.95-1.09L47,24.78c-.15.73-.24,1.25-.37,1.75s-.31.92-.46,1.37c-.37-2.78-.41-5.59-3.42-6.9-1.14,1.5-.87,3.19-.67,4.93.1.92.73,2.15-.68,2.77-.08-.52-.16-1-.22-1.54a8.62,8.62,0,0,1-.09-1.24c0-.68.13-1.36.11-2s-.4-1.29-.19-1.75c.6-1.33-.08-2.21-.92-2.93a37.75,37.75,0,0,0-3.54-2.37l-.35,3.79a9,9,0,0,1-.66-3c-.09-1.36-1.73-2.86-3.39-3.2s-1.61.93-2,1.95a2,2,0,0,1-.36-1.29c.46-1.64-.57-2.18-1.79-2.62-.62-.23-1.25-.46-1.88-.66-2.33-.73-2.94-.38-3.74,2L22,11.18c-1.18-.14-2.64-.4-4.11-.44a1.63,1.63,0,0,0-1.22.95c-.41,1.74-.65,3.52-.94,5.27,2.64.39,5.18.66,7.69,1.16C30.66,19.54,36.3,23.65,41.38,28.7ZM76.55,42l0,0c-1.77-1.75-3.4-3.71-6-4.3l0,0c-2.77-1.38-5.47-2.91-8.33-4.07a10.28,10.28,0,0,0-4.37-.36c-3.07.22-5.76-.15-7.54-3.07-.67-1.09-2.49-.85-3.18.27A17.87,17.87,0,0,1,45.57,33c-1.39,1.59-1.25,3.14-.35,4.91a8.12,8.12,0,0,1,.38,2.61l-.69.09c-.37-2.67-.75-5.33-1.13-8l.54.22,1.37-2-.44-.57c-.94.45-2.45.69-2.73,1.4A17.84,17.84,0,0,0,41,38.08c0,2.85.77,5.69,1.16,8.53.05.36-.24.75-.37,1.13a3.42,3.42,0,0,1-.61-.92,40.13,40.13,0,0,1-.64-12.93,14.91,14.91,0,0,1,.7-2.52c-1.13-.18-2.07-.31-3-.47s-1.7.08-1.8,1.32c-.15,1.76-.53,3.52-.62,5.28-.11,2.16,0,4.33,0,6.5l-.56,0c-.15-.56-.33-1.12-.44-1.68a21.59,21.59,0,0,1,.49-10.26c.33-1.17.17-1.75-1.14-2-1.46-.26-2.87-.76-4.54-1.22L29,38.2h-.59c-.12-2.76-.23-5.52-.37-8.28,0-.46,0-1.19-.32-1.34-1.45-.81-3-1.48-4.19-2.06l-1.47,7.31-.47,0a18,18,0,0,0,.25-2.72c-.1-1.73.15-3.75-.66-5.09s-2.76-2.06-4.49-3.24l-1,5.86-.56,0c0-.94.06-1.88,0-2.81-.12-1.66,1.21-3.6-1.09-5.15l-3.78,6.67L9.74,27A33.18,33.18,0,0,1,11,23.92c.55-1.05,1.28-2,2.06-3.18H3.73c3.13-1.6,6.54-.6,9.93-1.09-.3-1.43-.69-2.49-2.36-2.6a5,5,0,0,1-2.11-.84c-.9-.57-1.72-1.28-2.66-2a21.81,21.81,0,0,1,2.66.71,20.89,20.89,0,0,1,2.42,1.3l.28-.45a28.2,28.2,0,0,0-2.78-2.36c-1.66-1.1-2.75-.78-3.56,1.06a40.55,40.55,0,0,0-2.24,5.91c-.25.92-.19,2.47.39,3a23,23,0,0,0,8.43,5.21,34.32,34.32,0,0,1,4.26,1.89l-.16.36-3.1-1.23C19.58,33.2,25.63,37.3,30.48,43l.46-.54-6.86-6.62a27.77,27.77,0,0,1,5,3.62,11.74,11.74,0,0,1,2,2.15c.72,1,1,2.64,1.91,3.23a94.07,94.07,0,0,0,9.76,5.34c5.48,2.58,11.43,3.12,17.38,3.56a12.54,12.54,0,0,0,2.19-.19l0-.35-3.35-.15,0-.27,4.12-.68,1.16.44-.87,1.3,7.28-1.79,4.63-2A12.5,12.5,0,0,0,78,48.56a3.1,3.1,0,0,0,1-2.24A5.69,5.69,0,0,0,76.55,42ZM81,27.6c-.1-.51-.07-.77-.18-.93-1-1.33-.75-3.44-2.69-4.15-.08,0-.13-.17-.18-.27-1-1.74-1.57-3.64-3.72-4.68-1.81-.89-3.06-2.86-4.78-4C64,9.94,58.06,7.61,51.28,8c-2.5.12-5-.17-7.53-.3-1-.06-1.9-.21-2.86-.32l0,.3,8.08,1.21c-4.5.6-11.43-.69-13.62-2.25l4.49.81,0-.17L23.66,2.82l1.57.94c-3.45-.33-6.72-2.23-10.53-.46l1.09-1.56a12.6,12.6,0,0,0-2.08,1c-.34.26-.49,1.17-.69,1.16-2-.11-2.24,1.67-3.2,2.8a9,9,0,0,0,1.07,1c1.85,1.16,2.51.8,2.71-1.36A12.13,12.13,0,0,1,14,4.69c2,1-.33,2.82.9,4,2,0,1.79-2.2,3.06-3.18l-.7,3.42.36.18,3-2.24.21.34-1.18,1.6.24.51,7.76-.57L25.85,10c3.12.68,5.59,3,8.87,1.48l.2.47-1.69,1a10.78,10.78,0,0,1,1.42.74c1.55,1.22,3.06,1.81,4.63,0,.13-.14.61,0,1.26.07L38,15.76l3.45,2.33,4-4.37a41.88,41.88,0,0,1-2.33,3.71c-.86,1.51.68,2,1.49,2.73s1.29-.14,1.68-.7c.73-1.07,1.4-2.18,2.1-3.28a6.51,6.51,0,0,1-.82,2.72c-1.34,2.33-1.28,2.78.84,4.71l.46-3.3.53.05c0,.77-.11,1.54-.11,2.31a5.34,5.34,0,0,0,.16,2.42,4.61,4.61,0,0,0,4.69,2.57,6.57,6.57,0,0,1,4.53,1.52,18.58,18.58,0,0,0,6.93,4.12,22.43,22.43,0,0,1,4.92,2.4C74,38.08,77.79,38,81.64,37.9c.44,0,1.31-1.07,1.22-1.47-.63-2.66-1.45-5.29-2.28-7.91-.13-.43-.62-.76-1-1.15l.52-.71ZM2.2,24.83c-.45,1.77-1,3.53.09,5.09A30.33,30.33,0,0,0,12.82,39.3a33,33,0,0,1,6.23,4.09A94.69,94.69,0,0,1,25.8,51c3.56,4.16,8.23,6.66,13.11,8.88a37.13,37.13,0,0,0,14,3.57c3.25.12,6.53-.55,9.79-.92.28,0,.5-.48.75-.73l-2-1.16A4.47,4.47,0,0,1,63,55.76c2.63.48,3.1.38,3.55-.58-2.28,0-4.67-.16-7,0a33.42,33.42,0,0,1-10.57-1.16,58.21,58.21,0,0,1-10.28-3.9,34.59,34.59,0,0,1-11.27-8,22.94,22.94,0,0,0-4-3.81c-5-3.17-10.14-6.18-15.29-9.13C5.92,28,3.59,27.14,2.2,24.83Zm13.37-5.72c6.63,6.31,14.92,8.73,23.69,10.05C32.72,22.65,25.06,18.77,15.57,19.11ZM51.4,29c.52,2.65,2.38,3.55,4.63,3.88,1.65.24,2.39-1.14,3.49-1.92C56.25,27.29,54.88,27.79,51.4,29ZM9.39,9c0,1-.25,2.13.19,2.66a18.8,18.8,0,0,0,3.26,2.56C12.86,11.21,12.1,10,9.39,9ZM13,10.28,13.61,16l.56,0L15.3,10.4ZM72.24,58.34l.45.19.67-1.92c-2-.33-3.62-.19-5,1.86l3.26.51c-.43-2.06-.3-2.2,1.36-1.89Zm2.51-5.05a7.84,7.84,0,0,0-1.11,2.25,5.7,5.7,0,0,0,.6,2.18l1-1.86C73.42,55.31,76.05,54.24,74.75,53.29Z"/></g></g></svg>