<svg xmlns="http://www.w3.org/2000/svg" viewBox="0 0 68.45 51.7"><defs><style>.cls-1{fill:#e32313;}</style></defs><title>Asset 3</title><g id="Layer_2" data-name="Layer 2"><g id="_1200" data-name="1200"><path class="cls-1" d="M68.45,33.3A16.56,16.56,0,0,1,67.71,36a37.19,37.19,0,0,1-6.89,10.74,7.35,7.35,0,0,1-2.23,1.54A39.05,39.05,0,0,1,43.76,51.7a31.47,31.47,0,0,1-12.48-2.57A30.05,30.05,0,0,1,19.84,41.7C18.79,40.56,18,39.24,17,38.05a22.92,22.92,0,0,0-7.69-5.94A22.92,22.92,0,0,1,1,25C-.4,23-.09,20.89.49,18.85a74.58,74.58,0,0,1,2.65-7.71,4.81,4.81,0,0,1,1.9-2A2.06,2.06,0,0,0,6.23,7.28c0-4.7,5-8.09,9.07-7.11,4.35,1.05,8.67,2.22,13,3.35A39.05,39.05,0,0,0,40.22,5c7.43-.41,13.45,2.8,19.12,7.2,4.84,3.76,6.41,9.11,7.8,14.61C67.67,28.91,68,31,68.45,33.3ZM32.82,22.76c2.23,1,4.1-.32,6.31-.86l-1.87-2.25c-.12.58-.19,1-.3,1.39s-.24.73-.36,1.09c-.29-2.2-.32-4.44-2.71-5.48-.9,1.2-.69,2.53-.53,3.91.08.73.57,1.71-.54,2.2-.06-.41-.13-.81-.18-1.22a8.07,8.07,0,0,1-.07-1c0-.54.1-1.08.09-1.62s-.32-1-.15-1.39a1.82,1.82,0,0,0-.73-2.32A30.84,30.84,0,0,0,29,13.35l-.28,3a7.2,7.2,0,0,1-.52-2.4,3.41,3.41,0,0,0-2.69-2.54c-1.3-.27-1.27.74-1.57,1.55a1.65,1.65,0,0,1-.29-1c.37-1.29-.44-1.73-1.41-2.08-.5-.17-1-.36-1.49-.51-1.85-.59-2.34-.31-3,1.56l-.27-2c-.94-.11-2.1-.31-3.26-.34a1.26,1.26,0,0,0-1,.75c-.33,1.38-.52,2.8-.75,4.18,2.09.31,4.11.53,6.09.92C24.31,15.5,28.79,18.76,32.82,22.76ZM60.71,33.27l0,0C59.33,31.91,58,30.35,56,29.88l0,0c-2.2-1.1-4.34-2.32-6.61-3.23a8,8,0,0,0-3.47-.29c-2.43.18-4.56-.11-6-2.43a1.54,1.54,0,0,0-2.52.21,14.3,14.3,0,0,1-1.3,2,3.12,3.12,0,0,0-.27,3.89,6.6,6.6,0,0,1,.3,2.07l-.55.08-.9-6.35.43.17,1.09-1.57L35.89,24c-.75.35-1.94.54-2.17,1.1a14.26,14.26,0,0,0-1.18,5.09A56.24,56.24,0,0,0,33.46,37c0,.28-.19.59-.29.89a2.37,2.37,0,0,1-.48-.73,31.81,31.81,0,0,1-.52-10.25,12,12,0,0,1,.56-2c-.9-.14-1.64-.25-2.37-.38s-1.35.07-1.43,1.05c-.12,1.4-.42,2.79-.5,4.2-.09,1.71,0,3.43,0,5.14l-.44,0c-.12-.45-.27-.89-.36-1.34A17.08,17.08,0,0,1,28,25.46c.27-.93.14-1.39-.9-1.57s-2.28-.6-3.6-1L23,30.3h-.47c-.09-2.19-.18-4.38-.29-6.56,0-.38,0-.95-.25-1.07C20.86,22,19.64,21.48,18.69,21l-1.17,5.8-.37,0a14.32,14.32,0,0,0,.19-2.16c-.07-1.37.12-3-.52-4S14.63,19,13.26,18l-.83,4.65-.44,0c0-.75,0-1.49,0-2.23-.09-1.32,1-2.86-.86-4.09l-3,5.29-.4-.18a25.25,25.25,0,0,1,1-2.46c.44-.83,1-1.58,1.63-2.52H3c2.48-1.27,5.19-.48,7.87-.87-.23-1.13-.54-2-1.87-2.06a3.88,3.88,0,0,1-1.67-.67c-.72-.45-1.36-1-2.11-1.58a18.83,18.83,0,0,1,2.11.56,16.94,16.94,0,0,1,1.92,1l.22-.35a23.11,23.11,0,0,0-2.21-1.88c-1.31-.87-2.17-.61-2.82.84a32.44,32.44,0,0,0-1.77,4.69,2.85,2.85,0,0,0,.3,2.37,18.3,18.3,0,0,0,6.69,4.13A27.4,27.4,0,0,1,13,24.16l-.13.28-2.46-1c5.12,2.87,9.91,6.11,13.76,10.64l.37-.42L19.1,28.44A21.35,21.35,0,0,1,23,31.3,8.93,8.93,0,0,1,24.64,33c.57.82.77,2.09,1.52,2.56A70.71,70.71,0,0,0,33.9,39.8c4.34,2.05,9.06,2.48,13.78,2.83a10.31,10.31,0,0,0,1.74-.15l0-.28-2.67-.12,0-.21L50,41.33l.92.35-.69,1L56,41.29l3.67-1.56a9.92,9.92,0,0,0,2.14-1.22,2.44,2.44,0,0,0,.76-1.77A4.51,4.51,0,0,0,60.71,33.27Zm3.55-11.38a2.81,2.81,0,0,0-.15-.74c-.77-1.06-.59-2.73-2.13-3.29-.07,0-.1-.14-.14-.21-.8-1.38-1.24-2.89-3-3.72-1.44-.7-2.43-2.26-3.79-3.17C50.74,7.89,46.05,6,40.67,6.31a56.86,56.86,0,0,1-6-.24c-.76,0-1.51-.16-2.27-.25l0,.24,6.4,1c-3.56.47-9.06-.55-10.8-1.79l3.57.65V5.74L18.77,2.24,20,3c-2.74-.26-5.33-1.77-8.35-.36l.86-1.24a10.14,10.14,0,0,0-1.65.81c-.27.21-.38.92-.54.92C8.71,3,8.55,4.44,7.79,5.33a7.2,7.2,0,0,0,.85.78c1.46.91,2,.63,2.14-1.08a9.54,9.54,0,0,1,.32-1.31c1.62.83-.27,2.24.71,3.14,1.58,0,1.42-1.75,2.43-2.52l-.56,2.71L14,7.2l2.36-1.78.17.27L15.56,7l.19.4,6.15-.45L20.5,8c2.47.54,4.44,2.35,7,1.18l.16.37-1.35.82a9,9,0,0,1,1.13.59c1.23,1,2.43,1.44,3.67,0,.1-.11.49,0,1,.05l-2,1.53,2.74,1.85,3.17-3.47a33.48,33.48,0,0,1-1.84,2.94c-.69,1.2.53,1.61,1.18,2.17s1-.11,1.32-.55c.59-.85,1.12-1.74,1.67-2.61A5.06,5.06,0,0,1,37.74,15c-1.06,1.85-1,2.2.67,3.74l.36-2.62.42,0c0,.61-.08,1.22-.08,1.83a4.33,4.33,0,0,0,.12,1.92,3.65,3.65,0,0,0,3.73,2,5.27,5.27,0,0,1,3.59,1.21A14.68,14.68,0,0,0,52,26.41,17.26,17.26,0,0,1,56,28.31c2.71,1.9,5.75,1.84,8.8,1.75.35,0,1-.85,1-1.16-.51-2.12-1.15-4.2-1.81-6.28-.11-.34-.49-.6-.76-.91l.41-.56ZM1.75,19.7c-.36,1.4-.76,2.79.07,4a24,24,0,0,0,8.35,7.44,26.82,26.82,0,0,1,4.94,3.24,77.21,77.21,0,0,1,5.35,6.06c2.83,3.3,6.53,5.28,10.4,7a29.43,29.43,0,0,0,11.07,2.84,53.86,53.86,0,0,0,7.77-.73c.21,0,.4-.38.59-.58l-1.6-.92A3.54,3.54,0,0,1,50,44.22c2.08.38,2.45.3,2.81-.45-1.81,0-3.71-.14-5.58,0a26.78,26.78,0,0,1-8.39-.92,46.59,46.59,0,0,1-8.15-3.1,27.54,27.54,0,0,1-8.94-6.33,17.48,17.48,0,0,0-3.19-3c-4-2.52-8-4.91-12.13-7.25C4.7,22.21,2.85,21.52,1.75,19.7Zm10.6-4.54c5.26,5,11.84,6.92,18.78,8C26,18,19.87,14.89,12.35,15.16ZM40.77,23c.41,2.1,1.88,2.81,3.67,3.07,1.31.19,1.89-.9,2.77-1.52C44.61,21.64,43.52,22,40.77,23ZM7.45,7.1c0,.79-.2,1.69.15,2.1a14.4,14.4,0,0,0,2.58,2C10.2,8.89,9.6,7.9,7.45,7.1Zm2.83,1.05.52,4.51.44,0,.89-4.38Zm47,38.12.36.15.53-1.52c-1.6-.26-2.87-.16-4,1.47l2.58.41c-.34-1.63-.24-1.75,1.08-1.5Zm2-4a6.18,6.18,0,0,0-.89,1.78,4.69,4.69,0,0,0,.48,1.73l.8-1.47C58.23,43.86,60.32,43,59.29,42.27Z"/><path class="cls-1" d="M56,41.29l-3.46.42-.06-.22c.61-.19,1.23-.4,1.85-.58,1.51-.46,3-.92,4.56-1.33a1.89,1.89,0,0,1,.78.15Z"/><path class="cls-1" d="M50,41.33c-.12-.5-.26-1-.35-1.5s-.12-.91-.19-1.47L51.85,42l-.9-.32Z"/><path class="cls-1" d="M45.79,29.85c.79-.23,1.47-.42,1.32-1.57-.09-.68.38-1.27,1.34-1-.78,1.36-1.59,2.66-2.29,4a5.93,5.93,0,0,1-3.49,3c.71-.62,1.43-1.23,2.13-1.86.48-.42.55-.83-.06-1.2Z"/><path class="cls-1" d="M40.16,27.72l2.09-.87L41,29.77s-.08-.17-.17-.35l-.27,0v2.17c-.65,0-1-2-.63-3.59Z"/><path class="cls-1" d="M45.79,29.85l-1,1.33a4.51,4.51,0,0,0-1.15.76c-.77,1-1.18.57-1.71-.51L43,31.9c1.47-1.26,2.69-2.65,1.68-5.2l1.35,1.09Z"/><path class="cls-1" d="M52.23,39.34,51,34.14l.37-.1,1.16,4.14.54-1.56C53.9,37.86,53,38.47,52.23,39.34Z"/><path class="cls-1" d="M30.74,37.37l6.39,2.72-.16.38-6.49-2.7Z"/><path class="cls-1" d="M40.16,27.72l-.25.25-1.22.8-.45-.15c1.82-1,1.27-2.24.62-3.52A2.32,2.32,0,0,1,40.16,27.72Z"/><path class="cls-1" d="M53.09,36c-.19-1.39-.44-2.77-.52-4.17,0-.27.63-.58.77-.7V36Z"/><path class="cls-1" d="M53.31,40.11c1.29-1.58,2.22-3.26,1.86-5.4C55.77,37.33,55.23,39,53.31,40.11Z"/><path class="cls-1" d="M58.55,32.08a3.91,3.91,0,0,1,.57,4.19Z"/><path class="cls-1" d="M38.82,34.77c.52,1.41,1,2.85,2.51,3.77-.35-.06-.9,0-1-.2-.69-1.06-1.28-2.19-1.9-3.3Z"/><path class="cls-1" d="M38.29,24.76l-1.18,3-.24.07c0-.48-.31-1.08-.12-1.41A9.73,9.73,0,0,1,38.29,24.76Z"/><path class="cls-1" d="M49.14,30.42l-2.28,3.43-.32-.18c.42-.66,1.23-1.36,1.19-2-.1-1.21.94-.89,1.13-1.55Z"/><path class="cls-1" d="M60.71,33.27l.81,3.62-.4.08c-.43-1.17-1-2.32-.38-3.67Z"/><path class="cls-1" d="M56,29.88l-.79,3.58c-.8-1.24-.44-3.21.82-3.54Z"/><path class="cls-1" d="M51.55,28.49l-2,3.24-.36-.22,2-3.33Z"/><path class="cls-1" d="M45.36,37.67c-1.12,1.25-2.24,2.49-4,2.65Z"/><path class="cls-1" d="M57.29,31.16l.6,3.23-.55.09-.42-3.25Z"/><path class="cls-1" d="M51.08,18.08l.79.38c0,.89,0,1.64,0,2.39,0,1.52-.09,3-1.52,4.06A8.93,8.93,0,0,0,51.08,18.08Z"/><path class="cls-1" d="M43.37,19.23l.54-.37-.63,2.2-1.16-.31.71-3.24Z"/><path class="cls-1" d="M44.29,12.91a8.76,8.76,0,0,1,4.57-3.43l.2.28Z"/><path class="cls-1" d="M42.52,7.68l-4.8,2.4-.2-.38,4.75-2.44Z"/><path class="cls-1" d="M32.62,9.91l4.11-2.32L37,8l-4.05,2.49Z"/><path class="cls-1" d="M49,8.44,42.23,6.9C43.74,6.54,45.56,6.87,49,8.44Z"/><path class="cls-1" d="M53.24,20.48,52,14.35C53.13,16.36,53.79,18.31,53.24,20.48Z"/><path class="cls-1" d="M41.26,15.92c0,1.7-1.76,3,.13,4.6C39.39,20,39.3,19.11,41.26,15.92Z"/><path class="cls-1" d="M43.91,18.62c-.25-1.69-.34-3.46-1.94-4.6C43.94,15.26,44.4,16.29,43.91,18.62Z"/><path class="cls-1" d="M49,17.4c.22,1.61,1.56,3,1,5l-1.39-4.88Z"/><path class="cls-1" d="M52.58,10.57l2,3.15-.51.31-1.92-3.27Z"/><path class="cls-1" d="M53.26,21.69a7.66,7.66,0,0,0,1.47-4.87C54.81,18.59,55.42,20.48,53.26,21.69Z"/><path class="cls-1" d="M57.33,27.92l2.91-3.21c0,2-1.94,2.2-2.56,3.48Z"/><path class="cls-1" d="M46.56,12.67l2.38-1.18.76,2.7-.16.11L48.33,12l-1.59,1Z"/><path class="cls-1" d="M44.66,17.93c.89-1.47,3.08-2.59,3.59-2.23Z"/><path class="cls-1" d="M62.42,26.22l-3,2.28-.28-.37,3-2.3Z"/><path class="cls-1" d="M51.6,25.52l.89-3.06.45.14-.79,3.13Z"/><path class="cls-1" d="M47.6,9.11,44.28,10l-.11-.42,3.34-.93Z"/><path class="cls-1" d="M58.81,20.57l-.67.81L58,19.94l-.86,1L57,20.86l1.05-2Z"/><path class="cls-1" d="M60.55,20.85l-.46-1-.57.87.24-3.29,1,3.3Z"/><path class="cls-1" d="M30,10.76s-.07.07-.1.07-.05-.06-.08-.09.06-.07.09-.07S30,10.72,30,10.76Z"/><path class="cls-1" d="M42,44.68c1-1.06,1.15-1,1.6.12,0,.14.35.16.49.29s.41.45.61.67l-.85.06-.57.09,1,2.38-2-1.32C41.27,46.35,44.75,45.5,42,44.68Z"/><path class="cls-1" d="M41.89,50.06l.7-1.56-1.06-.17a1.64,1.64,0,0,1,2.32,1.29l-1.15-.4-.28.35,1,0-.35.47Z"/><path class="cls-1" d="M45.48,45.12,44.53,45l1.38-.89.54,2L45,45.83Z"/><path class="cls-1" d="M44.57,25.24a6.78,6.78,0,0,1-1.84-.54,1.46,1.46,0,0,1-.6-1.27,1.43,1.43,0,0,1,1.24-.65,12.5,12.5,0,0,1,2.65,1,.7.7,0,0,1,.26.66,1,1,0,0,1-.62.53,4.59,4.59,0,0,1-1,0Z"/></g></g></svg>