<svg xmlns="http://www.w3.org/2000/svg" viewBox="0 0 81.01 81.03"><defs><style>.cls-1{fill:#69c494;}</style></defs><title>Asset 20</title><g id="Layer_2" data-name="Layer 2"><g id="Layer_1-2" data-name="Layer 1"><path class="cls-1" d="M40.49,0C48.91,0,57.33,0,65.74.05c6.49.08,11.15,3.19,14,9A13.42,13.42,0,0,1,81,14.91q0,25.61,0,51.22A15.11,15.11,0,0,1,67.27,81c-.5,0-1,.08-1.51.08Q40.5,81,15.24,81a15.16,15.16,0,0,1-15-12.45A15.92,15.92,0,0,1,0,65.82Q0,40.53,0,15.25A15.13,15.13,0,0,1,13.26.16,16.44,16.44,0,0,1,15.48,0Zm0,10.13A30.37,30.37,0,1,0,70.87,40.54,30.37,30.37,0,0,0,40.52,10.16Z"/><path class="cls-1" d="M35.06,26.18A56.78,56.78,0,0,1,61,32.05a2.77,2.77,0,0,1,1.77,2.75,3.15,3.15,0,0,1-2,2.77,2.43,2.43,0,0,1-2.19-.2,50.11,50.11,0,0,0-7.74-3.08,50.91,50.91,0,0,0-12.73-2.18,52.34,52.34,0,0,0-14.65,1.4,2.81,2.81,0,0,1-3.61-2,3.1,3.1,0,0,1,2.32-3.74A58.14,58.14,0,0,1,35.06,26.18Z"/><path class="cls-1" d="M35.1,38.33a47,47,0,0,1,22.12,5.21,2.43,2.43,0,0,1,1.07,3.55,9.15,9.15,0,0,1-.78,1.17,1.7,1.7,0,0,1-2.41.53c-1.4-.65-2.8-1.34-4.24-1.9a41.32,41.32,0,0,0-17.3-2.75,44.86,44.86,0,0,0-8.77,1.37,2.42,2.42,0,0,1-3.19-2.73,6,6,0,0,1,.66-1.89,1.93,1.93,0,0,1,1.34-1A48.21,48.21,0,0,1,35.1,38.33Z"/><path class="cls-1" d="M36.18,55.07a32.75,32.75,0,0,0-9.74,1.31,4.11,4.11,0,0,1-1.38.22,2,2,0,0,1-1.84-2,4.45,4.45,0,0,1,.55-2.34,1.93,1.93,0,0,1,1.18-1,37.61,37.61,0,0,1,28.4,2.82,2.23,2.23,0,0,1,1.21,1.46A6.1,6.1,0,0,1,54.78,57c0,2-1.52,3-3.34,2.06a33.52,33.52,0,0,0-5.86-2.47A32.61,32.61,0,0,0,36.18,55.07Z"/></g></g></svg>