<?xml version="1.0" encoding="utf-8"?>
<!-- Generator: Adobe Illustrator 23.0.3, SVG Export Plug-In . SVG Version: 6.00 Build 0)  -->
<svg version="1.1" id="Layer_1" xmlns="http://www.w3.org/2000/svg" xmlns:xlink="http://www.w3.org/1999/xlink" x="0px" y="0px"
	 viewBox="0 0 81 81" style="enable-background:new 0 0 81 81;" xml:space="preserve">
<style type="text/css">
	.st0{fill:#60EA60;}
</style>
<title>Asset 20</title>
<g>
	<g id="Layer_1-2">
		<path class="st0" d="M40.5,0c8.4,0,16.8,0,25.2,0.1c6.5,0.1,11.2,3.2,14,9c0.9,1.8,1.3,3.8,1.3,5.9c0,17.1,0,34.1,0,51.2
			c-0.1,7.7-6,14.2-13.7,14.9c-0.5,0-1,0.1-1.5,0.1C48.9,81,32.1,81,15.2,81c-7.4,0-13.7-5.2-15-12.4C0.1,67.6,0,66.7,0,65.8
			C0,49,0,32.1,0,15.2C0,7.6,5.7,1.1,13.3,0.2C14,0.1,14.7,0,15.5,0H40.5z M40.5,10.1c-16.8,0-30.4,13.6-30.4,30.4
			s13.6,30.4,30.4,30.4c16.8,0,30.3-13.6,30.4-30.3C70.9,23.8,57.3,10.2,40.5,10.1L40.5,10.1z"/>
		<path class="st0" d="M35.1,26.2c9-0.1,17.9,1.9,25.9,5.9c1.1,0.4,1.8,1.5,1.8,2.8c-0.1,1.2-0.8,2.3-2,2.8
			c-0.7,0.3-1.5,0.2-2.2-0.2c-2.5-1.2-5.1-2.3-7.7-3.1c-4.1-1.3-8.4-2-12.7-2.2c-4.9-0.2-9.9,0.2-14.6,1.4c-1.5,0.5-3.1-0.3-3.5-1.8
			c0-0.1,0-0.1-0.1-0.2c-0.4-1.7,0.6-3.3,2.3-3.7c0,0,0,0,0,0C26.4,26.8,30.7,26.2,35.1,26.2z"/>
		<path class="st0" d="M35.1,38.3c7.7-0.1,15.3,1.7,22.1,5.2c1.2,0.5,1.8,2,1.3,3.2c-0.1,0.1-0.1,0.2-0.2,0.4
			c-0.2,0.4-0.5,0.8-0.8,1.2c-0.5,0.8-1.5,1.1-2.3,0.6c0,0-0.1,0-0.1,0c-1.4-0.7-2.8-1.3-4.2-1.9c-5.5-2.1-11.4-3.1-17.3-2.8
			c-3,0.2-5.9,0.6-8.8,1.4c-1.3,0.4-2.6-0.2-3.1-1.5c-0.1-0.4-0.2-0.8-0.1-1.3c0.1-0.7,0.3-1.3,0.7-1.9c0.3-0.5,0.8-0.9,1.3-1
			C27.4,38.9,31.2,38.4,35.1,38.3z"/>
		<path class="st0" d="M36.2,55.1c-3.3-0.1-6.6,0.4-9.7,1.3c-0.4,0.2-0.9,0.2-1.4,0.2c-1-0.1-1.8-1-1.8-2c0-0.8,0.2-1.6,0.5-2.3
			c0.2-0.5,0.7-0.8,1.2-1c9.5-2.8,19.7-1.8,28.4,2.8c0.6,0.3,1,0.8,1.2,1.5c0.1,0.5,0.2,1,0.2,1.5c0,2-1.5,3-3.3,2.1
			c-1.9-1-3.8-1.8-5.9-2.5C42.5,55.6,39.4,55.1,36.2,55.1z"/>
	</g>
</g>
</svg>
